%TF.GenerationSoftware,KiCad,Pcbnew,(5.99.0-10847-g28909c1a72)*%
%TF.CreationDate,2021-07-19T23:24:54+02:00*%
%TF.ProjectId,Project Hub,50726f6a-6563-4742-9048-75622e6b6963,rev?*%
%TF.SameCoordinates,Original*%
%TF.FileFunction,Copper,L2,Bot*%
%TF.FilePolarity,Positive*%
%FSLAX46Y46*%
G04 Gerber Fmt 4.6, Leading zero omitted, Abs format (unit mm)*
G04 Created by KiCad (PCBNEW (5.99.0-10847-g28909c1a72)) date 2021-07-19 23:24:54*
%MOMM*%
%LPD*%
G01*
G04 APERTURE LIST*
%TA.AperFunction,ComponentPad*%
%ADD10R,1.600000X1.600000*%
%TD*%
%TA.AperFunction,ComponentPad*%
%ADD11C,1.600000*%
%TD*%
%TA.AperFunction,ComponentPad*%
%ADD12O,0.900000X2.000000*%
%TD*%
%TA.AperFunction,ComponentPad*%
%ADD13O,0.900000X1.700000*%
%TD*%
%TA.AperFunction,ComponentPad*%
%ADD14C,0.700000*%
%TD*%
%TA.AperFunction,ComponentPad*%
%ADD15C,4.400000*%
%TD*%
%TA.AperFunction,ComponentPad*%
%ADD16R,1.600000X1.500000*%
%TD*%
%TA.AperFunction,ComponentPad*%
%ADD17C,3.000000*%
%TD*%
%TA.AperFunction,ComponentPad*%
%ADD18C,2.300000*%
%TD*%
%TA.AperFunction,ViaPad*%
%ADD19C,0.800000*%
%TD*%
%TA.AperFunction,Conductor*%
%ADD20C,0.600000*%
%TD*%
%TA.AperFunction,Conductor*%
%ADD21C,0.200000*%
%TD*%
%TA.AperFunction,Conductor*%
%ADD22C,0.700000*%
%TD*%
%TA.AperFunction,Conductor*%
%ADD23C,0.800000*%
%TD*%
G04 APERTURE END LIST*
D10*
%TO.P,PC6,1*%
%TO.N,HUB3V3*%
X72655088Y-95756400D03*
D11*
%TO.P,PC6,2*%
%TO.N,GND*%
X74655088Y-95756400D03*
%TD*%
D12*
%TO.P,USB3,S1,SHIELD*%
%TO.N,unconnected-(USB3-PadS1)*%
X51560000Y-88290000D03*
D13*
X60200000Y-84120000D03*
X51560000Y-84120000D03*
D12*
X60200000Y-88290000D03*
%TD*%
D10*
%TO.P,PC2,1*%
%TO.N,FUSED VCC*%
X72655088Y-105870000D03*
D11*
%TO.P,PC2,2*%
%TO.N,GND*%
X74655088Y-105870000D03*
%TD*%
D14*
%TO.P,M2,1*%
%TO.N,N/C*%
X38806726Y-85303274D03*
X35990000Y-86470000D03*
X38806726Y-87636726D03*
X37640000Y-88120000D03*
X37640000Y-84820000D03*
X39290000Y-86470000D03*
X36473274Y-85303274D03*
D15*
X37640000Y-86470000D03*
D14*
X36473274Y-87636726D03*
%TD*%
%TO.P,M2,1*%
%TO.N,N/C*%
X38806726Y-103503274D03*
X35990000Y-104670000D03*
X38806726Y-105836726D03*
X37640000Y-106320000D03*
X37640000Y-103020000D03*
X39290000Y-104670000D03*
X36473274Y-103503274D03*
D15*
X37640000Y-104670000D03*
D14*
X36473274Y-105836726D03*
%TD*%
D16*
%TO.P,USB2,1,VBUS*%
%TO.N,Net-(C3-Pad1)*%
X80320000Y-96748000D03*
D11*
%TO.P,USB2,2,D-*%
%TO.N,D4_N*%
X82820000Y-96748000D03*
%TO.P,USB2,3,D+*%
%TO.N,D4_P*%
X84820000Y-96748000D03*
%TO.P,USB2,4,GND*%
%TO.N,GND*%
X87320000Y-96748000D03*
D17*
%TO.P,USB2,5,Shield*%
%TO.N,unconnected-(USB2-Pad5)*%
X77250000Y-99458000D03*
X90390000Y-99458000D03*
%TD*%
D10*
%TO.P,PC7,1*%
%TO.N,FUSED VCC*%
X96190000Y-98570000D03*
D11*
%TO.P,PC7,2*%
%TO.N,GND*%
X94190000Y-98570000D03*
%TD*%
D10*
%TO.P,PC1,1*%
%TO.N,FUSED VCC*%
X48734888Y-96370000D03*
D11*
%TO.P,PC1,2*%
%TO.N,GND*%
X50734888Y-96370000D03*
%TD*%
D16*
%TO.P,USB1,1,VBUS*%
%TO.N,Net-(C2-Pad1)*%
X60000000Y-96748000D03*
D11*
%TO.P,USB1,2,D-*%
%TO.N,D3_N*%
X62500000Y-96748000D03*
%TO.P,USB1,3,D+*%
%TO.N,D3_P*%
X64500000Y-96748000D03*
%TO.P,USB1,4,GND*%
%TO.N,GND*%
X67000000Y-96748000D03*
D17*
%TO.P,USB1,5,Shield*%
%TO.N,unconnected-(USB1-Pad5)*%
X70070000Y-99458000D03*
X56930000Y-99458000D03*
%TD*%
D14*
%TO.P,M2,1*%
%TO.N,N/C*%
X110656726Y-103503274D03*
X107840000Y-104670000D03*
X110656726Y-105836726D03*
X109490000Y-106320000D03*
X109490000Y-103020000D03*
X111140000Y-104670000D03*
X108323274Y-103503274D03*
D15*
X109490000Y-104670000D03*
D14*
X108323274Y-105836726D03*
%TD*%
D10*
%TO.P,PC3,1*%
%TO.N,FUSED VCC*%
X42834888Y-91270000D03*
D11*
%TO.P,PC3,2*%
%TO.N,GND*%
X44834888Y-91270000D03*
%TD*%
D10*
%TO.P,PC5,1*%
%TO.N,HUB3V3*%
X72690000Y-87414888D03*
D11*
%TO.P,PC5,2*%
%TO.N,GND*%
X72690000Y-89414888D03*
%TD*%
D10*
%TO.P,PC4,1*%
%TO.N,3V3*%
X66634888Y-91070000D03*
D11*
%TO.P,PC4,2*%
%TO.N,GND*%
X68634888Y-91070000D03*
%TD*%
D13*
%TO.P,USB4,S1,SHIELD*%
%TO.N,unconnected-(USB4-PadS1)*%
X97280000Y-107029000D03*
D12*
X105920000Y-102859000D03*
X97280000Y-102859000D03*
D13*
X105920000Y-107029000D03*
%TD*%
D14*
%TO.P,M2,1*%
%TO.N,N/C*%
X110656726Y-85303274D03*
X107840000Y-86470000D03*
X110656726Y-87636726D03*
X109490000Y-88120000D03*
X109490000Y-84820000D03*
X111140000Y-86470000D03*
X108323274Y-85303274D03*
D15*
X109490000Y-86470000D03*
D14*
X108323274Y-87636726D03*
%TD*%
D18*
%TO.P,Y1,1,1*%
%TO.N,Net-(C6-Pad1)*%
X87286000Y-88900000D03*
%TO.P,Y1,2,2*%
%TO.N,Net-(C7-Pad1)*%
X82386000Y-88900000D03*
%TD*%
D12*
%TO.P,USB5,S1,SHIELD*%
%TO.N,unconnected-(USB5-PadS1)*%
X50040000Y-102859000D03*
D13*
X41400000Y-107029000D03*
X50040000Y-107029000D03*
D12*
X41400000Y-102859000D03*
%TD*%
D19*
%TO.N,GND*%
X66640000Y-93170000D03*
X65390000Y-93170000D03*
X70640000Y-89170000D03*
X69390000Y-89170000D03*
X69390000Y-87920000D03*
X70640000Y-87920000D03*
X70640000Y-86670000D03*
X46640000Y-87920000D03*
X47140000Y-86420000D03*
X47140000Y-85170000D03*
X47140000Y-83920000D03*
X38390000Y-83170000D03*
X37140000Y-83170000D03*
X35890000Y-83170000D03*
X39640000Y-83170000D03*
X107640000Y-107920000D03*
X111390000Y-107920000D03*
X110140000Y-107920000D03*
X108890000Y-107920000D03*
X106390000Y-104920000D03*
X105140000Y-104920000D03*
X103890000Y-105420000D03*
X102640000Y-105420000D03*
X101390000Y-105420000D03*
X100140000Y-105420000D03*
X98890000Y-105420000D03*
X101390000Y-106670000D03*
X102640000Y-106670000D03*
X103890000Y-106670000D03*
X103890000Y-107920000D03*
X102640000Y-107920000D03*
X101390000Y-107920000D03*
X100140000Y-106670000D03*
X100140000Y-107920000D03*
X98890000Y-107920000D03*
X98890000Y-106670000D03*
X108890000Y-101170000D03*
X107640000Y-101170000D03*
X110140000Y-101170000D03*
X111390000Y-101170000D03*
X111390000Y-99920000D03*
X110140000Y-99920000D03*
X110140000Y-96170000D03*
X108890000Y-99920000D03*
X110140000Y-98670000D03*
X107640000Y-98670000D03*
X111390000Y-97420000D03*
X111390000Y-98670000D03*
X107640000Y-99920000D03*
X108890000Y-97420000D03*
X107640000Y-97420000D03*
X108890000Y-98670000D03*
X108890000Y-96170000D03*
X110140000Y-97420000D03*
X107640000Y-96170000D03*
X111390000Y-96170000D03*
X108890000Y-94920000D03*
X107640000Y-94920000D03*
X110140000Y-94920000D03*
X111390000Y-94920000D03*
X111390000Y-93670000D03*
X110140000Y-93670000D03*
X110140000Y-89920000D03*
X108890000Y-93670000D03*
X110140000Y-92420000D03*
X107640000Y-92420000D03*
X111390000Y-91170000D03*
X111390000Y-92420000D03*
X107640000Y-93670000D03*
X108890000Y-91170000D03*
X107640000Y-91170000D03*
X108890000Y-92420000D03*
X108890000Y-89920000D03*
X110140000Y-91170000D03*
X107640000Y-89920000D03*
X111390000Y-89920000D03*
X37140000Y-95170000D03*
X35890000Y-95170000D03*
X38390000Y-95170000D03*
X39640000Y-95170000D03*
X39640000Y-93920000D03*
X38390000Y-93920000D03*
X38390000Y-90170000D03*
X37140000Y-93920000D03*
X38390000Y-92670000D03*
X35890000Y-92670000D03*
X39640000Y-91420000D03*
X39640000Y-92670000D03*
X35890000Y-93920000D03*
X37140000Y-91420000D03*
X35890000Y-91420000D03*
X37140000Y-92670000D03*
X37140000Y-90170000D03*
X38390000Y-91420000D03*
X35890000Y-90170000D03*
X39640000Y-90170000D03*
X37140000Y-96420000D03*
X35890000Y-96420000D03*
X39640000Y-96420000D03*
X38390000Y-96420000D03*
X37140000Y-97670000D03*
X35890000Y-97670000D03*
X39640000Y-97670000D03*
X38390000Y-97670000D03*
X37140000Y-98920000D03*
X35890000Y-98920000D03*
X39640000Y-98920000D03*
X38390000Y-98920000D03*
X37140000Y-100170000D03*
X35890000Y-100170000D03*
X39640000Y-100170000D03*
X38390000Y-100170000D03*
X37140000Y-101420000D03*
X35890000Y-101420000D03*
X39640000Y-101420000D03*
X38390000Y-101420000D03*
X38390000Y-107920000D03*
X39640000Y-107920000D03*
X35890000Y-107920000D03*
X37140000Y-107920000D03*
X40890000Y-104920000D03*
X42140000Y-104920000D03*
X43390000Y-105420000D03*
X44640000Y-105420000D03*
X45890000Y-105420000D03*
X47140000Y-105420000D03*
X48390000Y-105420000D03*
X47140000Y-106670000D03*
X48390000Y-106670000D03*
X44640000Y-106670000D03*
X45890000Y-106670000D03*
X43390000Y-107920000D03*
X43390000Y-106670000D03*
X44640000Y-107920000D03*
X45890000Y-107920000D03*
X47140000Y-107920000D03*
X48390000Y-107920000D03*
X62140000Y-98170000D03*
X63390000Y-98170000D03*
X64640000Y-98170000D03*
X65890000Y-98170000D03*
X67140000Y-99420000D03*
X65890000Y-99420000D03*
X64640000Y-99420000D03*
X63390000Y-99420000D03*
X62140000Y-99420000D03*
X60890000Y-101920000D03*
X60890000Y-100670000D03*
X60890000Y-104420000D03*
X60890000Y-103170000D03*
X67140000Y-101920000D03*
X67140000Y-100670000D03*
X64640000Y-100670000D03*
X63390000Y-101920000D03*
X62140000Y-101920000D03*
X65890000Y-101920000D03*
X64640000Y-101920000D03*
X63390000Y-100670000D03*
X62140000Y-100670000D03*
X65890000Y-100670000D03*
X64640000Y-103170000D03*
X63390000Y-104420000D03*
X62140000Y-104420000D03*
X65890000Y-104420000D03*
X64640000Y-104420000D03*
X63390000Y-103170000D03*
X62140000Y-103170000D03*
X65890000Y-103170000D03*
X69640000Y-103170000D03*
X68390000Y-104420000D03*
X67140000Y-104420000D03*
X70890000Y-104420000D03*
X69640000Y-104420000D03*
X68390000Y-103170000D03*
X67140000Y-103170000D03*
X70890000Y-103170000D03*
X87890000Y-98670000D03*
X87890000Y-99920000D03*
X85390000Y-98670000D03*
X86640000Y-99920000D03*
X85390000Y-99920000D03*
X86640000Y-98670000D03*
X82890000Y-98670000D03*
X84140000Y-99920000D03*
X82890000Y-99920000D03*
X84140000Y-98670000D03*
X80390000Y-98670000D03*
X81640000Y-99920000D03*
X80390000Y-99920000D03*
X81640000Y-98670000D03*
X79140000Y-102420000D03*
X77890000Y-102420000D03*
X79140000Y-101170000D03*
X80390000Y-101170000D03*
X81640000Y-102420000D03*
X80390000Y-102420000D03*
X81640000Y-101170000D03*
X82890000Y-101170000D03*
X84140000Y-102420000D03*
X82890000Y-102420000D03*
X84140000Y-101170000D03*
X85390000Y-101170000D03*
X86640000Y-102420000D03*
X85390000Y-102420000D03*
X86640000Y-101170000D03*
X87890000Y-101170000D03*
X89140000Y-102420000D03*
X87890000Y-102420000D03*
X77890000Y-105420000D03*
X79140000Y-106670000D03*
X77890000Y-106670000D03*
X79140000Y-105420000D03*
X80390000Y-105420000D03*
X81640000Y-106670000D03*
X80390000Y-106670000D03*
X81640000Y-105420000D03*
X82890000Y-105420000D03*
X84140000Y-106670000D03*
X82890000Y-106670000D03*
X84140000Y-105420000D03*
X85390000Y-105420000D03*
X86640000Y-106670000D03*
X85390000Y-106670000D03*
X86640000Y-105420000D03*
X87890000Y-106670000D03*
X87890000Y-105420000D03*
X89140000Y-105420000D03*
X89140000Y-106670000D03*
X45085000Y-95377000D03*
X106045000Y-100203000D03*
X41562000Y-95344000D03*
X79197200Y-94183200D03*
X104521000Y-97790000D03*
X56143320Y-104817480D03*
X105029000Y-91440000D03*
X98400000Y-100736000D03*
X41656000Y-87376000D03*
X102235000Y-83312000D03*
X92100400Y-85648800D03*
X101390000Y-95358400D03*
X59080000Y-90272000D03*
X42520000Y-100432000D03*
X48920000Y-101067000D03*
X52514500Y-90106500D03*
%TO.N,5V*%
X103180400Y-89910400D03*
X93573600Y-105664000D03*
X106045000Y-86639400D03*
%TO.N,3V3*%
X99822000Y-93675200D03*
X103200200Y-87503000D03*
X53797200Y-105511600D03*
X101854000Y-84785200D03*
%TO.N,FUSED VCC*%
X53695600Y-101854000D03*
X43307000Y-95046200D03*
%TO.N,Net-(R2-Pad1)*%
X49784000Y-88239600D03*
X54711600Y-90424000D03*
%TO.N,Net-(R7-Pad2)*%
X92444989Y-87877484D03*
X98298000Y-83312000D03*
%TO.N,OVCUR1*%
X99758500Y-90487500D03*
X42481000Y-84519000D03*
%TO.N,Net-(R10-Pad1)*%
X100253800Y-103708200D03*
X97586800Y-104698800D03*
%TO.N,D0_P*%
X57036378Y-90791622D03*
X55118000Y-87249000D03*
%TD*%
D20*
%TO.N,GND*%
X57607200Y-91744800D02*
X59080000Y-90272000D01*
X50734888Y-96370000D02*
X50734888Y-97501370D01*
D21*
X98653600Y-91440000D02*
X94190000Y-95903600D01*
D20*
X71709311Y-97055911D02*
X72518000Y-97864600D01*
D21*
X101390000Y-94207923D02*
X100990400Y-93808323D01*
D20*
X100584000Y-91440000D02*
X100990400Y-91033600D01*
X77622400Y-95758000D02*
X77620800Y-95756400D01*
X67307911Y-97055911D02*
X71709311Y-97055911D01*
X53685913Y-104612089D02*
X50140824Y-101067000D01*
X43155000Y-101067000D02*
X42520000Y-100432000D01*
X74655088Y-97124512D02*
X74655088Y-95756400D01*
X98400000Y-100736000D02*
X105512000Y-100736000D01*
X54152800Y-91744800D02*
X57607200Y-91744800D01*
X77620800Y-95756400D02*
X74655088Y-95756400D01*
D22*
X64617280Y-89839520D02*
X59512480Y-89839520D01*
D23*
X41562000Y-95344000D02*
X41562000Y-99474000D01*
D20*
X72518000Y-97864600D02*
X73915000Y-97864600D01*
X87320000Y-96748000D02*
X84755200Y-94183200D01*
D21*
X91745489Y-88748289D02*
X94437200Y-91440000D01*
D20*
X101803200Y-88595200D02*
X103439277Y-88595200D01*
X104521000Y-91948000D02*
X105029000Y-91440000D01*
D22*
X68634888Y-91070000D02*
X68634888Y-89938630D01*
D20*
X59080000Y-90272000D02*
X59516311Y-89835689D01*
X103439277Y-88595200D02*
X105029000Y-87005477D01*
X100990400Y-89408000D02*
X101803200Y-88595200D01*
X68634888Y-95113112D02*
X68634888Y-91070000D01*
X100990400Y-91033600D02*
X100990400Y-89408000D01*
X98653600Y-91440000D02*
X100584000Y-91440000D01*
D21*
X101390000Y-95358400D02*
X101390000Y-94207923D01*
D20*
X84755200Y-94183200D02*
X79197200Y-94183200D01*
X51284200Y-91336800D02*
X44901688Y-91336800D01*
X106045000Y-100203000D02*
X106045000Y-99314000D01*
D22*
X68634888Y-89938630D02*
X67721658Y-89025400D01*
D21*
X100990400Y-93808323D02*
X100990400Y-91033600D01*
D20*
X55937929Y-104612089D02*
X53685913Y-104612089D01*
X106045000Y-99314000D02*
X104521000Y-97790000D01*
D23*
X41562000Y-99474000D02*
X42520000Y-100432000D01*
D20*
X56143320Y-104817480D02*
X55937929Y-104612089D01*
X93448600Y-96748000D02*
X94190000Y-97489400D01*
D22*
X67721658Y-89025400D02*
X65431400Y-89025400D01*
D20*
X52514500Y-90106500D02*
X51284200Y-91336800D01*
D22*
X59512480Y-89839520D02*
X59080000Y-90272000D01*
D20*
X50566747Y-97669511D02*
X47377511Y-97669511D01*
D21*
X94437200Y-91440000D02*
X98653600Y-91440000D01*
D23*
X45085000Y-95377000D02*
X45085000Y-91520112D01*
D20*
X105029000Y-87005477D02*
X105029000Y-86106000D01*
X104521000Y-97790000D02*
X104521000Y-91948000D01*
X105029000Y-86106000D02*
X102235000Y-83312000D01*
X44901688Y-91336800D02*
X44834888Y-91270000D01*
D23*
X45085000Y-95377000D02*
X43737200Y-94029200D01*
D22*
X65431400Y-89025400D02*
X64617280Y-89839520D01*
X68634888Y-91070000D02*
X71034888Y-91070000D01*
X71034888Y-91070000D02*
X72690000Y-89414888D01*
D20*
X50140824Y-101067000D02*
X48920000Y-101067000D01*
D21*
X41656000Y-87376000D02*
X41656000Y-87951992D01*
D20*
X50734888Y-97501370D02*
X50566747Y-97669511D01*
X87320000Y-96748000D02*
X93448600Y-96748000D01*
D21*
X92100400Y-85648800D02*
X91745489Y-86003711D01*
X94190000Y-95903600D02*
X94190000Y-98570000D01*
D20*
X48920000Y-101067000D02*
X43155000Y-101067000D01*
X67000000Y-96748000D02*
X68634888Y-95113112D01*
X73915000Y-97864600D02*
X74655088Y-97124512D01*
D23*
X45085000Y-91520112D02*
X44834888Y-91270000D01*
D20*
X67000000Y-96748000D02*
X67307911Y-97055911D01*
D21*
X41656000Y-87951992D02*
X44834888Y-91130880D01*
D20*
X52514500Y-90106500D02*
X54152800Y-91744800D01*
X94190000Y-97489400D02*
X94190000Y-98570000D01*
D23*
X43737200Y-94029200D02*
X42876800Y-94029200D01*
D20*
X47377511Y-97669511D02*
X45085000Y-95377000D01*
D21*
X91745489Y-86003711D02*
X91745489Y-88748289D01*
X44834888Y-91130880D02*
X44834888Y-91270000D01*
D20*
X77622400Y-95758000D02*
X79197200Y-94183200D01*
D23*
X42876800Y-94029200D02*
X41562000Y-95344000D01*
D20*
X105512000Y-100736000D02*
X106045000Y-100203000D01*
D21*
%TO.N,5V*%
X106045000Y-87045800D02*
X103180400Y-89910400D01*
X103180400Y-89910400D02*
X103180400Y-94895006D01*
X93573600Y-104501806D02*
X93573600Y-105664000D01*
X106045000Y-86639400D02*
X106045000Y-87045800D01*
X103180400Y-94895006D02*
X93573600Y-104501806D01*
%TO.N,3V3*%
X89560400Y-107950000D02*
X99822000Y-97688400D01*
X53797200Y-105511600D02*
X55372000Y-105511600D01*
X57810400Y-107950000D02*
X89560400Y-107950000D01*
X99822000Y-97688400D02*
X99822000Y-93675200D01*
X103200200Y-87503000D02*
X103200200Y-86131400D01*
X55372000Y-105511600D02*
X57810400Y-107950000D01*
X103200200Y-86131400D02*
X101854000Y-84785200D01*
%TO.N,HUB3V3*%
X72655088Y-95756400D02*
X72655088Y-92164912D01*
X74219800Y-90600200D02*
X74219800Y-88944688D01*
X74219800Y-88944688D02*
X72690000Y-87414888D01*
X72655088Y-92164912D02*
X74219800Y-90600200D01*
D22*
%TO.N,FUSED VCC*%
X72655088Y-105870000D02*
X60048400Y-105870000D01*
D20*
X45136800Y-98956800D02*
X43308000Y-97128000D01*
X53695600Y-101854000D02*
X54864000Y-100685600D01*
D22*
X72655088Y-105870000D02*
X72655088Y-104763312D01*
X60048400Y-105870000D02*
X54864000Y-100685600D01*
X73508600Y-103909800D02*
X90850200Y-103909800D01*
D20*
X43308000Y-97128000D02*
X43308000Y-95047200D01*
D22*
X72655088Y-104763312D02*
X73508600Y-103909800D01*
D20*
X50034399Y-95070489D02*
X48734888Y-96370000D01*
D22*
X90850200Y-103909800D02*
X96190000Y-98570000D01*
D20*
X43308000Y-95047200D02*
X43307000Y-95046200D01*
X54864000Y-100685600D02*
X54864000Y-98127835D01*
X54864000Y-98127835D02*
X51806654Y-95070489D01*
X51806654Y-95070489D02*
X50034399Y-95070489D01*
X50394600Y-98956800D02*
X45136800Y-98956800D01*
X42482888Y-91313000D02*
X42545000Y-91313000D01*
X53695600Y-101854000D02*
X53291800Y-101854000D01*
X53291800Y-101854000D02*
X50394600Y-98956800D01*
D21*
%TO.N,Net-(R2-Pad1)*%
X49834800Y-89204800D02*
X49784000Y-89154000D01*
X52153581Y-89306400D02*
X51870461Y-89589520D01*
X49784000Y-89154000D02*
X49784000Y-88239600D01*
X51870461Y-89589520D02*
X50219520Y-89589520D01*
X50219520Y-89589520D02*
X49834800Y-89204800D01*
X54711600Y-90424000D02*
X53594000Y-89306400D01*
X53594000Y-89306400D02*
X52153581Y-89306400D01*
%TO.N,Net-(R7-Pad2)*%
X92444989Y-87877484D02*
X92462516Y-87877484D01*
X97028000Y-83312000D02*
X98298000Y-83312000D01*
X92462516Y-87877484D02*
X97028000Y-83312000D01*
%TO.N,OVCUR1*%
X98571277Y-82550000D02*
X44450000Y-82550000D01*
X99758500Y-90487500D02*
X99758500Y-83737223D01*
X44450000Y-82550000D02*
X42481000Y-84519000D01*
X99758500Y-83737223D02*
X98571277Y-82550000D01*
%TO.N,Net-(R10-Pad1)*%
X99263200Y-104698800D02*
X100253800Y-103708200D01*
X97586800Y-104698800D02*
X99263200Y-104698800D01*
%TO.N,D0_P*%
X55118000Y-88873244D02*
X55118000Y-87249000D01*
X57036378Y-90791622D02*
X55118000Y-88873244D01*
%TD*%
%TA.AperFunction,Conductor*%
%TO.N,GND*%
G36*
X106833010Y-87232034D02*
G01*
X106891994Y-87271548D01*
X106915931Y-87316129D01*
X106941768Y-87402521D01*
X107072254Y-87701903D01*
X107074177Y-87705174D01*
X107074179Y-87705178D01*
X107116542Y-87777239D01*
X107237762Y-87983441D01*
X107435894Y-88243057D01*
X107481851Y-88290233D01*
X107616257Y-88428204D01*
X107663781Y-88476989D01*
X107763193Y-88557061D01*
X107915168Y-88679471D01*
X107915173Y-88679475D01*
X107918121Y-88681849D01*
X108195230Y-88854670D01*
X108491094Y-88992948D01*
X108801428Y-89094681D01*
X109121736Y-89158394D01*
X109125508Y-89158681D01*
X109125516Y-89158682D01*
X109443601Y-89182878D01*
X109443606Y-89182878D01*
X109447378Y-89183165D01*
X109773638Y-89168635D01*
X109833436Y-89158682D01*
X110092048Y-89115638D01*
X110092053Y-89115637D01*
X110095789Y-89115015D01*
X110409165Y-89023080D01*
X110412632Y-89021590D01*
X110412636Y-89021589D01*
X110705743Y-88895660D01*
X110705745Y-88895659D01*
X110709227Y-88894163D01*
X110991628Y-88730132D01*
X111055586Y-88681849D01*
X111169585Y-88595788D01*
X111252277Y-88533362D01*
X111487399Y-88306703D01*
X111693589Y-88053439D01*
X111783358Y-87911163D01*
X111865835Y-87780446D01*
X111865838Y-87780440D01*
X111867858Y-87777239D01*
X111932133Y-87641571D01*
X111979374Y-87588574D01*
X112047769Y-87569530D01*
X112115602Y-87590487D01*
X112161337Y-87644790D01*
X112172000Y-87695518D01*
X112172000Y-103442290D01*
X112151998Y-103510411D01*
X112098342Y-103556904D01*
X112028068Y-103567008D01*
X111963488Y-103537514D01*
X111931028Y-103493840D01*
X111916485Y-103461404D01*
X111894713Y-103412846D01*
X111726266Y-103133057D01*
X111723939Y-103130073D01*
X111723934Y-103130066D01*
X111527756Y-102878518D01*
X111525426Y-102875530D01*
X111295103Y-102643997D01*
X111122461Y-102507898D01*
X111041601Y-102444153D01*
X111041597Y-102444150D01*
X111038631Y-102441812D01*
X110759728Y-102271902D01*
X110756284Y-102270336D01*
X110756280Y-102270334D01*
X110609377Y-102203542D01*
X110462431Y-102136730D01*
X110151049Y-102038252D01*
X110008785Y-102011500D01*
X109833816Y-101978597D01*
X109833811Y-101978596D01*
X109830092Y-101977897D01*
X109504208Y-101956537D01*
X109500428Y-101956745D01*
X109500427Y-101956745D01*
X109404605Y-101962019D01*
X109178118Y-101974483D01*
X109174391Y-101975144D01*
X109174387Y-101975144D01*
X109060857Y-101995265D01*
X108856546Y-102031474D01*
X108852930Y-102032576D01*
X108852922Y-102032578D01*
X108547774Y-102125580D01*
X108547767Y-102125583D01*
X108544150Y-102126685D01*
X108245454Y-102258737D01*
X108242200Y-102260673D01*
X108242194Y-102260676D01*
X107968046Y-102423778D01*
X107964787Y-102425717D01*
X107961786Y-102428032D01*
X107961782Y-102428035D01*
X107895219Y-102479388D01*
X107706212Y-102625206D01*
X107703511Y-102627865D01*
X107703504Y-102627871D01*
X107488617Y-102839410D01*
X107473477Y-102854314D01*
X107471113Y-102857281D01*
X107471110Y-102857284D01*
X107272619Y-103106375D01*
X107269951Y-103109723D01*
X107267960Y-103112953D01*
X107111760Y-103366356D01*
X107058988Y-103413849D01*
X106988916Y-103425273D01*
X106923792Y-103396999D01*
X106884293Y-103338005D01*
X106878500Y-103300240D01*
X106878500Y-102259775D01*
X106865137Y-102128218D01*
X106864466Y-102121609D01*
X106864466Y-102121607D01*
X106863821Y-102115261D01*
X106805587Y-101929437D01*
X106711177Y-101759117D01*
X106584448Y-101611260D01*
X106430577Y-101491906D01*
X106312153Y-101433634D01*
X106261576Y-101408747D01*
X106255849Y-101405929D01*
X106249671Y-101404320D01*
X106249669Y-101404319D01*
X106073585Y-101358452D01*
X106073580Y-101358451D01*
X106067402Y-101356842D01*
X105981392Y-101352334D01*
X105879315Y-101346984D01*
X105879310Y-101346984D01*
X105872933Y-101346650D01*
X105680387Y-101375770D01*
X105674394Y-101377975D01*
X105503615Y-101440809D01*
X105503610Y-101440811D01*
X105497629Y-101443012D01*
X105332125Y-101545629D01*
X105190635Y-101679429D01*
X105078940Y-101838947D01*
X105001601Y-102017667D01*
X105000296Y-102023914D01*
X104979057Y-102125580D01*
X104961778Y-102208287D01*
X104961500Y-102213592D01*
X104961500Y-103458225D01*
X104961823Y-103461404D01*
X104972550Y-103567008D01*
X104976179Y-103602739D01*
X105034413Y-103788563D01*
X105128823Y-103958883D01*
X105255552Y-104106740D01*
X105409423Y-104226094D01*
X105584151Y-104312071D01*
X105590329Y-104313680D01*
X105590331Y-104313681D01*
X105766415Y-104359548D01*
X105766420Y-104359549D01*
X105772598Y-104361158D01*
X105858608Y-104365666D01*
X105960685Y-104371016D01*
X105960690Y-104371016D01*
X105967067Y-104371350D01*
X106159613Y-104342230D01*
X106185080Y-104332860D01*
X106336385Y-104277191D01*
X106336390Y-104277189D01*
X106342371Y-104274988D01*
X106427533Y-104222185D01*
X106502453Y-104175733D01*
X106502454Y-104175732D01*
X106507875Y-104172371D01*
X106512681Y-104167826D01*
X106614321Y-104071711D01*
X106677560Y-104039440D01*
X106748206Y-104046480D01*
X106803832Y-104090597D01*
X106826775Y-104157785D01*
X106824600Y-104187190D01*
X106799714Y-104315817D01*
X106799447Y-104319593D01*
X106799446Y-104319598D01*
X106779276Y-104604476D01*
X106776649Y-104641585D01*
X106780556Y-104720069D01*
X106792203Y-104954019D01*
X106792887Y-104967764D01*
X106793528Y-104971495D01*
X106793529Y-104971503D01*
X106839778Y-105240650D01*
X106848194Y-105289630D01*
X106849282Y-105293269D01*
X106849283Y-105293272D01*
X106934258Y-105577408D01*
X106941768Y-105602521D01*
X107072254Y-105901903D01*
X107074177Y-105905174D01*
X107074179Y-105905178D01*
X107116542Y-105977239D01*
X107237762Y-106183441D01*
X107435894Y-106443057D01*
X107448567Y-106456066D01*
X107656973Y-106670000D01*
X107663781Y-106676989D01*
X107733770Y-106733362D01*
X107915168Y-106879471D01*
X107915173Y-106879475D01*
X107918121Y-106881849D01*
X108195230Y-107054670D01*
X108491094Y-107192948D01*
X108801428Y-107294681D01*
X109121736Y-107358394D01*
X109125508Y-107358681D01*
X109125516Y-107358682D01*
X109443601Y-107382878D01*
X109443606Y-107382878D01*
X109447378Y-107383165D01*
X109773638Y-107368635D01*
X109833436Y-107358682D01*
X110092048Y-107315638D01*
X110092053Y-107315637D01*
X110095789Y-107315015D01*
X110409165Y-107223080D01*
X110412632Y-107221590D01*
X110412636Y-107221589D01*
X110705743Y-107095660D01*
X110705745Y-107095659D01*
X110709227Y-107094163D01*
X110991628Y-106930132D01*
X111055586Y-106881849D01*
X111249250Y-106735647D01*
X111252277Y-106733362D01*
X111446053Y-106546561D01*
X111484672Y-106509332D01*
X111484673Y-106509331D01*
X111487399Y-106506703D01*
X111693589Y-106253439D01*
X111850557Y-106004660D01*
X111865835Y-105980446D01*
X111865838Y-105980440D01*
X111867858Y-105977239D01*
X111932133Y-105841571D01*
X111979374Y-105788574D01*
X112047769Y-105769530D01*
X112115602Y-105790487D01*
X112161337Y-105844790D01*
X112172000Y-105895518D01*
X112172000Y-108586000D01*
X112151998Y-108654121D01*
X112098342Y-108700614D01*
X112046000Y-108712000D01*
X89935660Y-108712000D01*
X89867539Y-108691998D01*
X89821046Y-108638342D01*
X89810942Y-108568068D01*
X89840436Y-108503488D01*
X89867208Y-108481382D01*
X89867150Y-108481307D01*
X89869257Y-108479690D01*
X89994210Y-108383810D01*
X90012504Y-108359969D01*
X90023371Y-108347578D01*
X92494688Y-105876261D01*
X92557000Y-105842235D01*
X92627815Y-105847300D01*
X92684651Y-105889847D01*
X92703616Y-105926420D01*
X92720128Y-105977239D01*
X92739076Y-106035554D01*
X92742379Y-106041276D01*
X92742380Y-106041277D01*
X92749408Y-106053450D01*
X92834563Y-106200942D01*
X92838981Y-106205849D01*
X92838982Y-106205850D01*
X92957927Y-106337952D01*
X92962349Y-106342863D01*
X92967691Y-106346744D01*
X92967693Y-106346746D01*
X93096108Y-106440044D01*
X93116850Y-106455114D01*
X93122878Y-106457798D01*
X93122880Y-106457799D01*
X93281199Y-106528287D01*
X93291313Y-106532790D01*
X93384713Y-106552643D01*
X93471656Y-106571124D01*
X93471661Y-106571124D01*
X93478113Y-106572496D01*
X93669087Y-106572496D01*
X93675539Y-106571124D01*
X93675544Y-106571124D01*
X93762487Y-106552643D01*
X93855887Y-106532790D01*
X93866001Y-106528287D01*
X94024320Y-106457799D01*
X94024322Y-106457798D01*
X94030350Y-106455114D01*
X94051092Y-106440044D01*
X94179507Y-106346746D01*
X94179509Y-106346744D01*
X94184851Y-106342863D01*
X94189273Y-106337952D01*
X94308218Y-106205850D01*
X94308219Y-106205849D01*
X94312637Y-106200942D01*
X94397792Y-106053450D01*
X94404820Y-106041277D01*
X94404821Y-106041276D01*
X94408124Y-106035554D01*
X94467138Y-105853927D01*
X94471851Y-105809091D01*
X94486410Y-105670565D01*
X94487100Y-105664000D01*
X94467138Y-105474073D01*
X94448251Y-105415943D01*
X94410166Y-105298731D01*
X94408124Y-105292446D01*
X94373958Y-105233268D01*
X94359943Y-105208995D01*
X94312637Y-105127058D01*
X94214463Y-105018024D01*
X94183747Y-104954019D01*
X94182100Y-104933716D01*
X94182100Y-104806045D01*
X94202102Y-104737924D01*
X94219005Y-104716950D01*
X96106405Y-102829550D01*
X96168717Y-102795524D01*
X96239532Y-102800589D01*
X96296368Y-102843136D01*
X96321179Y-102909656D01*
X96321500Y-102918645D01*
X96321500Y-103458225D01*
X96321823Y-103461404D01*
X96332550Y-103567008D01*
X96336179Y-103602739D01*
X96394413Y-103788563D01*
X96488823Y-103958883D01*
X96615552Y-104106740D01*
X96647148Y-104131248D01*
X96712649Y-104182056D01*
X96754216Y-104239613D01*
X96758067Y-104310505D01*
X96752632Y-104326629D01*
X96752276Y-104327246D01*
X96693262Y-104508873D01*
X96692572Y-104515436D01*
X96692572Y-104515437D01*
X96685659Y-104581212D01*
X96673300Y-104698800D01*
X96673990Y-104705365D01*
X96684484Y-104805205D01*
X96693262Y-104888727D01*
X96695302Y-104895005D01*
X96695302Y-104895006D01*
X96723040Y-104980376D01*
X96752276Y-105070354D01*
X96847763Y-105235742D01*
X96852181Y-105240649D01*
X96852182Y-105240650D01*
X96970725Y-105372305D01*
X96975549Y-105377663D01*
X96980891Y-105381544D01*
X96980893Y-105381546D01*
X97028237Y-105415943D01*
X97099605Y-105467794D01*
X97100575Y-105468499D01*
X97143929Y-105524721D01*
X97150004Y-105595457D01*
X97116873Y-105658249D01*
X97055053Y-105693160D01*
X97047540Y-105694600D01*
X97046704Y-105694815D01*
X97040387Y-105695770D01*
X97034394Y-105697975D01*
X96863615Y-105760809D01*
X96863610Y-105760811D01*
X96857629Y-105763012D01*
X96785864Y-105807508D01*
X96721687Y-105847300D01*
X96692125Y-105865629D01*
X96550635Y-105999429D01*
X96546973Y-106004659D01*
X96546972Y-106004660D01*
X96516246Y-106048542D01*
X96438940Y-106158947D01*
X96423242Y-106195224D01*
X96367491Y-106324057D01*
X96361601Y-106337667D01*
X96360296Y-106343914D01*
X96337876Y-106451233D01*
X96321778Y-106528287D01*
X96321500Y-106533592D01*
X96321500Y-107478225D01*
X96336179Y-107622739D01*
X96394413Y-107808563D01*
X96488823Y-107978883D01*
X96615552Y-108126740D01*
X96769423Y-108246094D01*
X96944151Y-108332071D01*
X96950329Y-108333680D01*
X96950331Y-108333681D01*
X97126415Y-108379548D01*
X97126420Y-108379549D01*
X97132598Y-108381158D01*
X97218608Y-108385666D01*
X97320685Y-108391016D01*
X97320690Y-108391016D01*
X97327067Y-108391350D01*
X97519613Y-108362230D01*
X97609242Y-108329253D01*
X97696385Y-108297191D01*
X97696390Y-108297189D01*
X97702371Y-108294988D01*
X97867875Y-108192371D01*
X98009365Y-108058571D01*
X98121060Y-107899053D01*
X98198399Y-107720333D01*
X98238222Y-107529713D01*
X98238500Y-107524408D01*
X98238500Y-106579775D01*
X98233809Y-106533592D01*
X104961500Y-106533592D01*
X104961500Y-107478225D01*
X104976179Y-107622739D01*
X105034413Y-107808563D01*
X105128823Y-107978883D01*
X105255552Y-108126740D01*
X105409423Y-108246094D01*
X105584151Y-108332071D01*
X105590329Y-108333680D01*
X105590331Y-108333681D01*
X105766415Y-108379548D01*
X105766420Y-108379549D01*
X105772598Y-108381158D01*
X105858608Y-108385666D01*
X105960685Y-108391016D01*
X105960690Y-108391016D01*
X105967067Y-108391350D01*
X106159613Y-108362230D01*
X106249242Y-108329253D01*
X106336385Y-108297191D01*
X106336390Y-108297189D01*
X106342371Y-108294988D01*
X106507875Y-108192371D01*
X106649365Y-108058571D01*
X106761060Y-107899053D01*
X106838399Y-107720333D01*
X106878222Y-107529713D01*
X106878500Y-107524408D01*
X106878500Y-106579775D01*
X106865525Y-106452038D01*
X106864466Y-106441609D01*
X106864466Y-106441607D01*
X106863821Y-106435261D01*
X106805587Y-106249437D01*
X106711177Y-106079117D01*
X106584448Y-105931260D01*
X106430577Y-105811906D01*
X106255849Y-105725929D01*
X106249671Y-105724320D01*
X106249669Y-105724319D01*
X106073585Y-105678452D01*
X106073580Y-105678451D01*
X106067402Y-105676842D01*
X105981392Y-105672334D01*
X105879315Y-105666984D01*
X105879310Y-105666984D01*
X105872933Y-105666650D01*
X105680387Y-105695770D01*
X105674394Y-105697975D01*
X105503615Y-105760809D01*
X105503610Y-105760811D01*
X105497629Y-105763012D01*
X105425864Y-105807508D01*
X105361687Y-105847300D01*
X105332125Y-105865629D01*
X105190635Y-105999429D01*
X105186973Y-106004659D01*
X105186972Y-106004660D01*
X105156246Y-106048542D01*
X105078940Y-106158947D01*
X105063242Y-106195224D01*
X105007491Y-106324057D01*
X105001601Y-106337667D01*
X105000296Y-106343914D01*
X104977876Y-106451233D01*
X104961778Y-106528287D01*
X104961500Y-106533592D01*
X98233809Y-106533592D01*
X98225525Y-106452038D01*
X98224466Y-106441609D01*
X98224466Y-106441607D01*
X98223821Y-106435261D01*
X98165587Y-106249437D01*
X98071177Y-106079117D01*
X97944448Y-105931260D01*
X97790577Y-105811906D01*
X97784856Y-105809091D01*
X97782323Y-105807508D01*
X97735153Y-105754446D01*
X97724159Y-105684306D01*
X97752831Y-105619357D01*
X97812066Y-105580219D01*
X97822897Y-105577408D01*
X97869087Y-105567590D01*
X97875118Y-105564905D01*
X98037520Y-105492599D01*
X98037522Y-105492598D01*
X98043550Y-105489914D01*
X98056319Y-105480637D01*
X98192707Y-105381546D01*
X98192709Y-105381544D01*
X98198051Y-105377663D01*
X98223870Y-105348988D01*
X98284313Y-105311750D01*
X98317504Y-105307300D01*
X99216962Y-105307300D01*
X99233408Y-105308378D01*
X99255011Y-105311222D01*
X99255012Y-105311222D01*
X99263200Y-105312300D01*
X99271388Y-105311222D01*
X99413798Y-105292474D01*
X99421986Y-105291396D01*
X99508661Y-105255493D01*
X99562319Y-105233268D01*
X99562320Y-105233267D01*
X99569950Y-105230107D01*
X99697010Y-105132610D01*
X99715304Y-105108769D01*
X99726171Y-105096378D01*
X100168948Y-104653601D01*
X100231260Y-104619575D01*
X100258043Y-104616696D01*
X100349287Y-104616696D01*
X100355739Y-104615324D01*
X100355744Y-104615324D01*
X100442687Y-104596843D01*
X100536087Y-104576990D01*
X100551223Y-104570251D01*
X100704520Y-104501999D01*
X100704522Y-104501998D01*
X100710550Y-104499314D01*
X100743034Y-104475713D01*
X100859707Y-104390946D01*
X100859709Y-104390944D01*
X100865051Y-104387063D01*
X100913856Y-104332860D01*
X100988418Y-104250050D01*
X100988419Y-104250049D01*
X100992837Y-104245142D01*
X101082235Y-104090300D01*
X101085020Y-104085477D01*
X101085021Y-104085476D01*
X101088324Y-104079754D01*
X101147338Y-103898127D01*
X101149658Y-103876059D01*
X101166610Y-103714765D01*
X101167300Y-103708200D01*
X101156856Y-103608830D01*
X101148028Y-103524837D01*
X101148028Y-103524836D01*
X101147338Y-103518273D01*
X101144784Y-103510411D01*
X101092711Y-103350148D01*
X101088324Y-103336646D01*
X100992837Y-103171258D01*
X100960207Y-103135018D01*
X100869473Y-103034248D01*
X100869472Y-103034247D01*
X100865051Y-103029337D01*
X100859709Y-103025456D01*
X100859707Y-103025454D01*
X100715892Y-102920967D01*
X100715891Y-102920966D01*
X100710550Y-102917086D01*
X100704522Y-102914402D01*
X100704520Y-102914401D01*
X100542118Y-102842095D01*
X100542117Y-102842095D01*
X100536087Y-102839410D01*
X100442687Y-102819557D01*
X100355744Y-102801076D01*
X100355739Y-102801076D01*
X100349287Y-102799704D01*
X100158313Y-102799704D01*
X100151861Y-102801076D01*
X100151856Y-102801076D01*
X100064913Y-102819557D01*
X99971513Y-102839410D01*
X99965483Y-102842095D01*
X99965482Y-102842095D01*
X99803080Y-102914401D01*
X99803078Y-102914402D01*
X99797050Y-102917086D01*
X99791709Y-102920966D01*
X99791708Y-102920967D01*
X99647893Y-103025454D01*
X99647891Y-103025456D01*
X99642549Y-103029337D01*
X99638128Y-103034247D01*
X99638127Y-103034248D01*
X99547394Y-103135018D01*
X99514763Y-103171258D01*
X99419276Y-103336646D01*
X99414889Y-103350148D01*
X99362817Y-103510411D01*
X99360262Y-103518273D01*
X99359572Y-103524836D01*
X99359572Y-103524837D01*
X99350744Y-103608830D01*
X99340300Y-103708200D01*
X99340487Y-103709983D01*
X99320988Y-103776392D01*
X99304085Y-103797366D01*
X99048056Y-104053395D01*
X98985744Y-104087421D01*
X98958961Y-104090300D01*
X98317504Y-104090300D01*
X98249383Y-104070298D01*
X98223872Y-104048614D01*
X98198051Y-104019937D01*
X98192710Y-104016057D01*
X98192705Y-104016052D01*
X98174761Y-104003016D01*
X98131406Y-103946795D01*
X98125329Y-103876059D01*
X98133183Y-103851038D01*
X98195865Y-103706189D01*
X98195865Y-103706188D01*
X98198399Y-103700333D01*
X98220114Y-103596391D01*
X98237231Y-103514458D01*
X98237231Y-103514454D01*
X98238222Y-103509713D01*
X98238500Y-103504408D01*
X98238500Y-102259775D01*
X98225137Y-102128218D01*
X98224466Y-102121609D01*
X98224466Y-102121607D01*
X98223821Y-102115261D01*
X98165587Y-101929437D01*
X98071177Y-101759117D01*
X97944448Y-101611260D01*
X97790577Y-101491906D01*
X97784859Y-101489092D01*
X97784852Y-101489088D01*
X97716241Y-101455327D01*
X97663951Y-101407304D01*
X97645925Y-101338634D01*
X97667886Y-101271119D01*
X97682777Y-101253178D01*
X103577978Y-95357977D01*
X103590369Y-95347110D01*
X103607660Y-95333842D01*
X103614210Y-95328816D01*
X103711707Y-95201756D01*
X103737093Y-95140467D01*
X103772996Y-95053792D01*
X103793900Y-94895006D01*
X103789978Y-94865214D01*
X103788900Y-94848768D01*
X103788900Y-90640684D01*
X103808902Y-90572563D01*
X103821257Y-90556382D01*
X103919437Y-90447342D01*
X104014924Y-90281954D01*
X104060050Y-90143070D01*
X104071898Y-90106606D01*
X104071898Y-90106605D01*
X104073938Y-90100327D01*
X104086000Y-89985569D01*
X104093210Y-89916965D01*
X104093900Y-89910400D01*
X104093713Y-89908617D01*
X104113212Y-89842208D01*
X104130115Y-89821234D01*
X106442578Y-87508771D01*
X106454969Y-87497904D01*
X106472257Y-87484639D01*
X106472260Y-87484636D01*
X106478810Y-87479610D01*
X106483836Y-87473060D01*
X106483841Y-87473055D01*
X106523924Y-87420818D01*
X106549825Y-87395586D01*
X106650906Y-87322147D01*
X106650910Y-87322144D01*
X106656251Y-87318263D01*
X106701579Y-87267921D01*
X106762026Y-87230682D01*
X106833010Y-87232034D01*
G37*
%TD.AperFunction*%
%TA.AperFunction,Conductor*%
G36*
X43353382Y-82570002D02*
G01*
X43399875Y-82623658D01*
X43409979Y-82693932D01*
X43380485Y-82758512D01*
X43374356Y-82765095D01*
X42565852Y-83573599D01*
X42503540Y-83607625D01*
X42476757Y-83610504D01*
X42385513Y-83610504D01*
X42379061Y-83611876D01*
X42379056Y-83611876D01*
X42311397Y-83626258D01*
X42198713Y-83650210D01*
X42192683Y-83652895D01*
X42192682Y-83652895D01*
X42030280Y-83725201D01*
X42030278Y-83725202D01*
X42024250Y-83727886D01*
X42018909Y-83731766D01*
X42018908Y-83731767D01*
X41875093Y-83836254D01*
X41875091Y-83836256D01*
X41869749Y-83840137D01*
X41865328Y-83845047D01*
X41865327Y-83845048D01*
X41755148Y-83967415D01*
X41741963Y-83982058D01*
X41646476Y-84147446D01*
X41587462Y-84329073D01*
X41586772Y-84335636D01*
X41586772Y-84335637D01*
X41577602Y-84422884D01*
X41567500Y-84519000D01*
X41568190Y-84525565D01*
X41577714Y-84616176D01*
X41587462Y-84708927D01*
X41589502Y-84715205D01*
X41589502Y-84715206D01*
X41612268Y-84785271D01*
X41646476Y-84890554D01*
X41741963Y-85055942D01*
X41746381Y-85060849D01*
X41746382Y-85060850D01*
X41865327Y-85192952D01*
X41869749Y-85197863D01*
X41875091Y-85201744D01*
X41875093Y-85201746D01*
X42018908Y-85306233D01*
X42024250Y-85310114D01*
X42030278Y-85312798D01*
X42030280Y-85312799D01*
X42187114Y-85382626D01*
X42198713Y-85387790D01*
X42292113Y-85407643D01*
X42379056Y-85426124D01*
X42379061Y-85426124D01*
X42385513Y-85427496D01*
X42576487Y-85427496D01*
X42582939Y-85426124D01*
X42582944Y-85426124D01*
X42669887Y-85407643D01*
X42763287Y-85387790D01*
X42774886Y-85382626D01*
X42931720Y-85312799D01*
X42931722Y-85312798D01*
X42937750Y-85310114D01*
X42943092Y-85306233D01*
X43086907Y-85201746D01*
X43086909Y-85201744D01*
X43092251Y-85197863D01*
X43096673Y-85192952D01*
X43215618Y-85060850D01*
X43215619Y-85060849D01*
X43220037Y-85055942D01*
X43315524Y-84890554D01*
X43349732Y-84785271D01*
X43372498Y-84715206D01*
X43372498Y-84715205D01*
X43374538Y-84708927D01*
X43384287Y-84616176D01*
X43393810Y-84525565D01*
X43394500Y-84519000D01*
X43394313Y-84517217D01*
X43413812Y-84450808D01*
X43430715Y-84429834D01*
X44665144Y-83195405D01*
X44727456Y-83161379D01*
X44754239Y-83158500D01*
X50566696Y-83158500D01*
X50634817Y-83178502D01*
X50681310Y-83232158D01*
X50691414Y-83302432D01*
X50682333Y-83334541D01*
X50641601Y-83428667D01*
X50640296Y-83434914D01*
X50608602Y-83586625D01*
X50601778Y-83619287D01*
X50601500Y-83624592D01*
X50601500Y-84569225D01*
X50601823Y-84572404D01*
X50610445Y-84657284D01*
X50616179Y-84713739D01*
X50674413Y-84899563D01*
X50768823Y-85069883D01*
X50895552Y-85217740D01*
X51049423Y-85337094D01*
X51224151Y-85423071D01*
X51230329Y-85424680D01*
X51230331Y-85424681D01*
X51406415Y-85470548D01*
X51406420Y-85470549D01*
X51412598Y-85472158D01*
X51498608Y-85476666D01*
X51600685Y-85482016D01*
X51600690Y-85482016D01*
X51607067Y-85482350D01*
X51799613Y-85453230D01*
X51889242Y-85420253D01*
X51976385Y-85388191D01*
X51976390Y-85388189D01*
X51982371Y-85385988D01*
X52104743Y-85310114D01*
X52142453Y-85286733D01*
X52142454Y-85286732D01*
X52147875Y-85283371D01*
X52238298Y-85197863D01*
X52284728Y-85153956D01*
X52289365Y-85149571D01*
X52354925Y-85055942D01*
X52397396Y-84995286D01*
X52397397Y-84995285D01*
X52401060Y-84990053D01*
X52478399Y-84811333D01*
X52510582Y-84657284D01*
X52517231Y-84625458D01*
X52517231Y-84625454D01*
X52518222Y-84620713D01*
X52518500Y-84615408D01*
X52518500Y-83670775D01*
X52512086Y-83607625D01*
X52504466Y-83532609D01*
X52504466Y-83532607D01*
X52503821Y-83526261D01*
X52445587Y-83340437D01*
X52442492Y-83334853D01*
X52442184Y-83334135D01*
X52433734Y-83263643D01*
X52464737Y-83199773D01*
X52525348Y-83162803D01*
X52557996Y-83158500D01*
X59206696Y-83158500D01*
X59274817Y-83178502D01*
X59321310Y-83232158D01*
X59331414Y-83302432D01*
X59322333Y-83334541D01*
X59281601Y-83428667D01*
X59280296Y-83434914D01*
X59248602Y-83586625D01*
X59241778Y-83619287D01*
X59241500Y-83624592D01*
X59241500Y-84569225D01*
X59241823Y-84572404D01*
X59250445Y-84657284D01*
X59256179Y-84713739D01*
X59314413Y-84899563D01*
X59408823Y-85069883D01*
X59535552Y-85217740D01*
X59689423Y-85337094D01*
X59864151Y-85423071D01*
X59870329Y-85424680D01*
X59870331Y-85424681D01*
X60046415Y-85470548D01*
X60046420Y-85470549D01*
X60052598Y-85472158D01*
X60138608Y-85476666D01*
X60240685Y-85482016D01*
X60240690Y-85482016D01*
X60247067Y-85482350D01*
X60439613Y-85453230D01*
X60529242Y-85420253D01*
X60616385Y-85388191D01*
X60616390Y-85388189D01*
X60622371Y-85385988D01*
X60744743Y-85310114D01*
X60782453Y-85286733D01*
X60782454Y-85286732D01*
X60787875Y-85283371D01*
X60878298Y-85197863D01*
X60924728Y-85153956D01*
X60929365Y-85149571D01*
X60994925Y-85055942D01*
X61037396Y-84995286D01*
X61037397Y-84995285D01*
X61041060Y-84990053D01*
X61118399Y-84811333D01*
X61150582Y-84657284D01*
X61157231Y-84625458D01*
X61157231Y-84625454D01*
X61158222Y-84620713D01*
X61158500Y-84615408D01*
X61158500Y-83670775D01*
X61152086Y-83607625D01*
X61144466Y-83532609D01*
X61144466Y-83532607D01*
X61143821Y-83526261D01*
X61085587Y-83340437D01*
X61082492Y-83334853D01*
X61082184Y-83334135D01*
X61073734Y-83263643D01*
X61104737Y-83199773D01*
X61165348Y-83162803D01*
X61197996Y-83158500D01*
X96016761Y-83158500D01*
X96084882Y-83178502D01*
X96131375Y-83232158D01*
X96141479Y-83302432D01*
X96111985Y-83367012D01*
X96105856Y-83373595D01*
X92547368Y-86932083D01*
X92485056Y-86966109D01*
X92458273Y-86968988D01*
X92349502Y-86968988D01*
X92343050Y-86970360D01*
X92343045Y-86970360D01*
X92256102Y-86988841D01*
X92162702Y-87008694D01*
X92156672Y-87011379D01*
X92156671Y-87011379D01*
X91994269Y-87083685D01*
X91994267Y-87083686D01*
X91988239Y-87086370D01*
X91982898Y-87090250D01*
X91982897Y-87090251D01*
X91839082Y-87194738D01*
X91839080Y-87194740D01*
X91833738Y-87198621D01*
X91829317Y-87203531D01*
X91829316Y-87203532D01*
X91713215Y-87332476D01*
X91705952Y-87340542D01*
X91610465Y-87505930D01*
X91599340Y-87540170D01*
X91568677Y-87634542D01*
X91551451Y-87687557D01*
X91550761Y-87694120D01*
X91550761Y-87694121D01*
X91542385Y-87773811D01*
X91531489Y-87877484D01*
X91532179Y-87884049D01*
X91550277Y-88056237D01*
X91551451Y-88067411D01*
X91610465Y-88249038D01*
X91705952Y-88414426D01*
X91710370Y-88419333D01*
X91710371Y-88419334D01*
X91798695Y-88517428D01*
X91833738Y-88556347D01*
X91839080Y-88560228D01*
X91839082Y-88560230D01*
X91982897Y-88664717D01*
X91988239Y-88668598D01*
X91994267Y-88671282D01*
X91994269Y-88671283D01*
X92130725Y-88732037D01*
X92162702Y-88746274D01*
X92243155Y-88763375D01*
X92343045Y-88784608D01*
X92343050Y-88784608D01*
X92349502Y-88785980D01*
X92540476Y-88785980D01*
X92546928Y-88784608D01*
X92546933Y-88784608D01*
X92646823Y-88763375D01*
X92727276Y-88746274D01*
X92759253Y-88732037D01*
X92895709Y-88671283D01*
X92895711Y-88671282D01*
X92901739Y-88668598D01*
X92907081Y-88664717D01*
X93050896Y-88560230D01*
X93050898Y-88560228D01*
X93056240Y-88556347D01*
X93091283Y-88517428D01*
X93179607Y-88419334D01*
X93179608Y-88419333D01*
X93184026Y-88414426D01*
X93279513Y-88249038D01*
X93338527Y-88067411D01*
X93339686Y-88056383D01*
X93357986Y-87882272D01*
X93384999Y-87816616D01*
X93394201Y-87806348D01*
X97243144Y-83957405D01*
X97305456Y-83923379D01*
X97332239Y-83920500D01*
X97567296Y-83920500D01*
X97635417Y-83940502D01*
X97660928Y-83962186D01*
X97686749Y-83990863D01*
X97692091Y-83994744D01*
X97692093Y-83994746D01*
X97796132Y-84070334D01*
X97841250Y-84103114D01*
X97847278Y-84105798D01*
X97847280Y-84105799D01*
X98009682Y-84178105D01*
X98015713Y-84180790D01*
X98109113Y-84200643D01*
X98196056Y-84219124D01*
X98196061Y-84219124D01*
X98202513Y-84220496D01*
X98393487Y-84220496D01*
X98399939Y-84219124D01*
X98399944Y-84219124D01*
X98486887Y-84200643D01*
X98580287Y-84180790D01*
X98586318Y-84178105D01*
X98748720Y-84105799D01*
X98748722Y-84105798D01*
X98754750Y-84103114D01*
X98909251Y-83990863D01*
X98913669Y-83985957D01*
X98930364Y-83967415D01*
X98990811Y-83930176D01*
X99061795Y-83931528D01*
X99120779Y-83971042D01*
X99149036Y-84036173D01*
X99150000Y-84051726D01*
X99150000Y-89757216D01*
X99129998Y-89825337D01*
X99117643Y-89841518D01*
X99019463Y-89950558D01*
X98923976Y-90115946D01*
X98915350Y-90142493D01*
X98878248Y-90256684D01*
X98864962Y-90297573D01*
X98864272Y-90304136D01*
X98864272Y-90304137D01*
X98853251Y-90408995D01*
X98845000Y-90487500D01*
X98845690Y-90494065D01*
X98858767Y-90618481D01*
X98864962Y-90677427D01*
X98867002Y-90683705D01*
X98867002Y-90683706D01*
X98874414Y-90706518D01*
X98923976Y-90859054D01*
X99019463Y-91024442D01*
X99023881Y-91029349D01*
X99023882Y-91029350D01*
X99090073Y-91102863D01*
X99147249Y-91166363D01*
X99152591Y-91170244D01*
X99152593Y-91170246D01*
X99272259Y-91257188D01*
X99301750Y-91278614D01*
X99307778Y-91281298D01*
X99307780Y-91281299D01*
X99424963Y-91333472D01*
X99476213Y-91356290D01*
X99569613Y-91376143D01*
X99656556Y-91394624D01*
X99656561Y-91394624D01*
X99663013Y-91395996D01*
X99853987Y-91395996D01*
X99860439Y-91394624D01*
X99860444Y-91394624D01*
X99947387Y-91376143D01*
X100040787Y-91356290D01*
X100092037Y-91333472D01*
X100209220Y-91281299D01*
X100209222Y-91281298D01*
X100215250Y-91278614D01*
X100244741Y-91257188D01*
X100364407Y-91170246D01*
X100364409Y-91170244D01*
X100369751Y-91166363D01*
X100426927Y-91102863D01*
X100493118Y-91029350D01*
X100493119Y-91029349D01*
X100497537Y-91024442D01*
X100593024Y-90859054D01*
X100642586Y-90706518D01*
X100649998Y-90683706D01*
X100649998Y-90683705D01*
X100652038Y-90677427D01*
X100658234Y-90618481D01*
X100671310Y-90494065D01*
X100672000Y-90487500D01*
X100663749Y-90408995D01*
X100652728Y-90304137D01*
X100652728Y-90304136D01*
X100652038Y-90297573D01*
X100638753Y-90256684D01*
X100601650Y-90142493D01*
X100593024Y-90115946D01*
X100497537Y-89950558D01*
X100399363Y-89841524D01*
X100368647Y-89777519D01*
X100367000Y-89757216D01*
X100367000Y-83783461D01*
X100368078Y-83767015D01*
X100370922Y-83745412D01*
X100370922Y-83745411D01*
X100372000Y-83737223D01*
X100351096Y-83578437D01*
X100306505Y-83470787D01*
X100306505Y-83470785D01*
X100306504Y-83470785D01*
X100289807Y-83430473D01*
X100192310Y-83303413D01*
X100168469Y-83285119D01*
X100156078Y-83274252D01*
X99646921Y-82765095D01*
X99612895Y-82702783D01*
X99617960Y-82631968D01*
X99660507Y-82575132D01*
X99727027Y-82550321D01*
X99736016Y-82550000D01*
X112046000Y-82550000D01*
X112114121Y-82570002D01*
X112160614Y-82623658D01*
X112172000Y-82676000D01*
X112172000Y-85242290D01*
X112151998Y-85310411D01*
X112098342Y-85356904D01*
X112028068Y-85367008D01*
X111963488Y-85337514D01*
X111931028Y-85293840D01*
X111894713Y-85212846D01*
X111726266Y-84933057D01*
X111723939Y-84930073D01*
X111723934Y-84930066D01*
X111555224Y-84713739D01*
X111525426Y-84675530D01*
X111295103Y-84443997D01*
X111038631Y-84241812D01*
X110759728Y-84071902D01*
X110756284Y-84070336D01*
X110756280Y-84070334D01*
X110644938Y-84019710D01*
X110462431Y-83936730D01*
X110151049Y-83838252D01*
X110008785Y-83811500D01*
X109833816Y-83778597D01*
X109833811Y-83778596D01*
X109830092Y-83777897D01*
X109504208Y-83756537D01*
X109500428Y-83756745D01*
X109500427Y-83756745D01*
X109404605Y-83762019D01*
X109178118Y-83774483D01*
X109174391Y-83775144D01*
X109174387Y-83775144D01*
X109060857Y-83795265D01*
X108856546Y-83831474D01*
X108852930Y-83832576D01*
X108852922Y-83832578D01*
X108547774Y-83925580D01*
X108547767Y-83925583D01*
X108544150Y-83926685D01*
X108245454Y-84058737D01*
X108242200Y-84060673D01*
X108242194Y-84060676D01*
X108096348Y-84147446D01*
X107964787Y-84225717D01*
X107961786Y-84228032D01*
X107961782Y-84228035D01*
X107928158Y-84253976D01*
X107706212Y-84425206D01*
X107703511Y-84427865D01*
X107703504Y-84427871D01*
X107507610Y-84620713D01*
X107473477Y-84654314D01*
X107471113Y-84657281D01*
X107471110Y-84657284D01*
X107374410Y-84778635D01*
X107269951Y-84909723D01*
X107098583Y-85187733D01*
X106961856Y-85484318D01*
X106960697Y-85487918D01*
X106960694Y-85487925D01*
X106862912Y-85791571D01*
X106861750Y-85795180D01*
X106861031Y-85798896D01*
X106861029Y-85798904D01*
X106845979Y-85876694D01*
X106813401Y-85939775D01*
X106751891Y-85975229D01*
X106680977Y-85971801D01*
X106648212Y-85954696D01*
X106507092Y-85852167D01*
X106507091Y-85852166D01*
X106501750Y-85848286D01*
X106495722Y-85845602D01*
X106495720Y-85845601D01*
X106333318Y-85773295D01*
X106333317Y-85773295D01*
X106327287Y-85770610D01*
X106233887Y-85750757D01*
X106146944Y-85732276D01*
X106146939Y-85732276D01*
X106140487Y-85730904D01*
X105949513Y-85730904D01*
X105943061Y-85732276D01*
X105943056Y-85732276D01*
X105856113Y-85750757D01*
X105762713Y-85770610D01*
X105756683Y-85773295D01*
X105756682Y-85773295D01*
X105594280Y-85845601D01*
X105594278Y-85845602D01*
X105588250Y-85848286D01*
X105582909Y-85852166D01*
X105582908Y-85852167D01*
X105439093Y-85956654D01*
X105439091Y-85956656D01*
X105433749Y-85960537D01*
X105305963Y-86102458D01*
X105210476Y-86267846D01*
X105151462Y-86449473D01*
X105150772Y-86456036D01*
X105150772Y-86456037D01*
X105141757Y-86541809D01*
X105131500Y-86639400D01*
X105132190Y-86645965D01*
X105146031Y-86777650D01*
X105151462Y-86829327D01*
X105153502Y-86835605D01*
X105153502Y-86835606D01*
X105188779Y-86944179D01*
X105190806Y-87015147D01*
X105158041Y-87072210D01*
X104251346Y-87978905D01*
X104189034Y-88012931D01*
X104118219Y-88007866D01*
X104061383Y-87965319D01*
X104036572Y-87898799D01*
X104042418Y-87850874D01*
X104091698Y-87699206D01*
X104091698Y-87699205D01*
X104093738Y-87692927D01*
X104099875Y-87634542D01*
X104113010Y-87509565D01*
X104113700Y-87503000D01*
X104111242Y-87479610D01*
X104094428Y-87319637D01*
X104094428Y-87319636D01*
X104093738Y-87313073D01*
X104072920Y-87249000D01*
X104052214Y-87185274D01*
X104034724Y-87131446D01*
X104010582Y-87089630D01*
X103968386Y-87016546D01*
X103939237Y-86966058D01*
X103841063Y-86857024D01*
X103810347Y-86793019D01*
X103808700Y-86772716D01*
X103808700Y-86177638D01*
X103809778Y-86161192D01*
X103812622Y-86139589D01*
X103812622Y-86139588D01*
X103813700Y-86131400D01*
X103792796Y-85972614D01*
X103741297Y-85848286D01*
X103731507Y-85824650D01*
X103634010Y-85697590D01*
X103610169Y-85679296D01*
X103597778Y-85668429D01*
X102803715Y-84874366D01*
X102769689Y-84812054D01*
X102767155Y-84788481D01*
X102767500Y-84785200D01*
X102747538Y-84595273D01*
X102740108Y-84572404D01*
X102692280Y-84425206D01*
X102688524Y-84413646D01*
X102593037Y-84248258D01*
X102465251Y-84106337D01*
X102459909Y-84102456D01*
X102459907Y-84102454D01*
X102316092Y-83997967D01*
X102316091Y-83997966D01*
X102310750Y-83994086D01*
X102304722Y-83991402D01*
X102304720Y-83991401D01*
X102142318Y-83919095D01*
X102142317Y-83919095D01*
X102136287Y-83916410D01*
X102042887Y-83896557D01*
X101955944Y-83878076D01*
X101955939Y-83878076D01*
X101949487Y-83876704D01*
X101758513Y-83876704D01*
X101752061Y-83878076D01*
X101752056Y-83878076D01*
X101665113Y-83896557D01*
X101571713Y-83916410D01*
X101565683Y-83919095D01*
X101565682Y-83919095D01*
X101403280Y-83991401D01*
X101403278Y-83991402D01*
X101397250Y-83994086D01*
X101391909Y-83997966D01*
X101391908Y-83997967D01*
X101248093Y-84102454D01*
X101248091Y-84102456D01*
X101242749Y-84106337D01*
X101114963Y-84248258D01*
X101019476Y-84413646D01*
X101015720Y-84425206D01*
X100967893Y-84572404D01*
X100960462Y-84595273D01*
X100940500Y-84785200D01*
X100941190Y-84791765D01*
X100950913Y-84884269D01*
X100960462Y-84975127D01*
X101019476Y-85156754D01*
X101022779Y-85162476D01*
X101022780Y-85162477D01*
X101037362Y-85187733D01*
X101114963Y-85322142D01*
X101119381Y-85327049D01*
X101119382Y-85327050D01*
X101232995Y-85453230D01*
X101242749Y-85464063D01*
X101248091Y-85467944D01*
X101248093Y-85467946D01*
X101312138Y-85514477D01*
X101397250Y-85576314D01*
X101403278Y-85578998D01*
X101403280Y-85578999D01*
X101565682Y-85651305D01*
X101571713Y-85653990D01*
X101665113Y-85673843D01*
X101752056Y-85692324D01*
X101752061Y-85692324D01*
X101758513Y-85693696D01*
X101849757Y-85693696D01*
X101917878Y-85713698D01*
X101938852Y-85730601D01*
X102554795Y-86346544D01*
X102588821Y-86408856D01*
X102591700Y-86435639D01*
X102591700Y-86772716D01*
X102571698Y-86840837D01*
X102559343Y-86857018D01*
X102461163Y-86966058D01*
X102432014Y-87016546D01*
X102389819Y-87089630D01*
X102365676Y-87131446D01*
X102348186Y-87185274D01*
X102327481Y-87249000D01*
X102306662Y-87313073D01*
X102305972Y-87319636D01*
X102305972Y-87319637D01*
X102289158Y-87479610D01*
X102286700Y-87503000D01*
X102287390Y-87509565D01*
X102300526Y-87634542D01*
X102306662Y-87692927D01*
X102308702Y-87699205D01*
X102308702Y-87699206D01*
X102311682Y-87708376D01*
X102365676Y-87874554D01*
X102461163Y-88039942D01*
X102465581Y-88044849D01*
X102465582Y-88044850D01*
X102479986Y-88060847D01*
X102588949Y-88181863D01*
X102594291Y-88185744D01*
X102594293Y-88185746D01*
X102681408Y-88249038D01*
X102743450Y-88294114D01*
X102749478Y-88296798D01*
X102749480Y-88296799D01*
X102911880Y-88369104D01*
X102917913Y-88371790D01*
X103007126Y-88390753D01*
X103098256Y-88410124D01*
X103098261Y-88410124D01*
X103104713Y-88411496D01*
X103295687Y-88411496D01*
X103302139Y-88410124D01*
X103302144Y-88410124D01*
X103393274Y-88390753D01*
X103482487Y-88371790D01*
X103488514Y-88369107D01*
X103488522Y-88369104D01*
X103539138Y-88346568D01*
X103609505Y-88337134D01*
X103673802Y-88367241D01*
X103711615Y-88427330D01*
X103710939Y-88498323D01*
X103679481Y-88550770D01*
X103265252Y-88964999D01*
X103202940Y-88999025D01*
X103176157Y-89001904D01*
X103084913Y-89001904D01*
X103078461Y-89003276D01*
X103078456Y-89003276D01*
X102992303Y-89021589D01*
X102898113Y-89041610D01*
X102892083Y-89044295D01*
X102892082Y-89044295D01*
X102729680Y-89116601D01*
X102729678Y-89116602D01*
X102723650Y-89119286D01*
X102718309Y-89123166D01*
X102718308Y-89123167D01*
X102574493Y-89227654D01*
X102574491Y-89227656D01*
X102569149Y-89231537D01*
X102441363Y-89373458D01*
X102417927Y-89414050D01*
X102359353Y-89515504D01*
X102345876Y-89538846D01*
X102343834Y-89545131D01*
X102290853Y-89708191D01*
X102286862Y-89720473D01*
X102286172Y-89727036D01*
X102286172Y-89727037D01*
X102278256Y-89802350D01*
X102266900Y-89910400D01*
X102267590Y-89916965D01*
X102274801Y-89985569D01*
X102286862Y-90100327D01*
X102288902Y-90106605D01*
X102288902Y-90106606D01*
X102300750Y-90143070D01*
X102345876Y-90281954D01*
X102441363Y-90447342D01*
X102539537Y-90556376D01*
X102570253Y-90620381D01*
X102571900Y-90640684D01*
X102571900Y-94590767D01*
X102551898Y-94658888D01*
X102534995Y-94679862D01*
X100645595Y-96569262D01*
X100583283Y-96603288D01*
X100512468Y-96598223D01*
X100455632Y-96555676D01*
X100430821Y-96489156D01*
X100430500Y-96480167D01*
X100430500Y-94405484D01*
X100450502Y-94337363D01*
X100462857Y-94321182D01*
X100561037Y-94212142D01*
X100656524Y-94046754D01*
X100715538Y-93865127D01*
X100735500Y-93675200D01*
X100715538Y-93485273D01*
X100656524Y-93303646D01*
X100561037Y-93138258D01*
X100433251Y-92996337D01*
X100427909Y-92992456D01*
X100427907Y-92992454D01*
X100284092Y-92887967D01*
X100284091Y-92887966D01*
X100278750Y-92884086D01*
X100272722Y-92881402D01*
X100272720Y-92881401D01*
X100110318Y-92809095D01*
X100110317Y-92809095D01*
X100104287Y-92806410D01*
X100010887Y-92786557D01*
X99923944Y-92768076D01*
X99923939Y-92768076D01*
X99917487Y-92766704D01*
X99726513Y-92766704D01*
X99720061Y-92768076D01*
X99720056Y-92768076D01*
X99633113Y-92786557D01*
X99539713Y-92806410D01*
X99533683Y-92809095D01*
X99533682Y-92809095D01*
X99371280Y-92881401D01*
X99371278Y-92881402D01*
X99365250Y-92884086D01*
X99359909Y-92887966D01*
X99359908Y-92887967D01*
X99216093Y-92992454D01*
X99216091Y-92992456D01*
X99210749Y-92996337D01*
X99082963Y-93138258D01*
X98987476Y-93303646D01*
X98928462Y-93485273D01*
X98908500Y-93675200D01*
X98928462Y-93865127D01*
X98987476Y-94046754D01*
X99082963Y-94212142D01*
X99181137Y-94321176D01*
X99211853Y-94385181D01*
X99213500Y-94405484D01*
X99213500Y-97384161D01*
X99193498Y-97452282D01*
X99176595Y-97473256D01*
X97718595Y-98931256D01*
X97656283Y-98965282D01*
X97585468Y-98960217D01*
X97528632Y-98917670D01*
X97503821Y-98851150D01*
X97503500Y-98842161D01*
X97503500Y-97770000D01*
X97498273Y-97696921D01*
X97470397Y-97601984D01*
X97459635Y-97565330D01*
X97459634Y-97565328D01*
X97457096Y-97556684D01*
X97416711Y-97493844D01*
X97382949Y-97441309D01*
X97382947Y-97441306D01*
X97378077Y-97433729D01*
X97349833Y-97409255D01*
X97274431Y-97343918D01*
X97274428Y-97343916D01*
X97267619Y-97338016D01*
X97134670Y-97277300D01*
X97125755Y-97276018D01*
X97125754Y-97276018D01*
X96994448Y-97257139D01*
X96994441Y-97257138D01*
X96990000Y-97256500D01*
X95390000Y-97256500D01*
X95316921Y-97261727D01*
X95263884Y-97277300D01*
X95185330Y-97300365D01*
X95185328Y-97300366D01*
X95176684Y-97302904D01*
X95138528Y-97327426D01*
X95061309Y-97377051D01*
X95061306Y-97377053D01*
X95053729Y-97381923D01*
X95047828Y-97388733D01*
X95047827Y-97388734D01*
X95022390Y-97418089D01*
X94962664Y-97456472D01*
X94891667Y-97456471D01*
X94854896Y-97438788D01*
X94851008Y-97436066D01*
X94841513Y-97430583D01*
X94644057Y-97338509D01*
X94633761Y-97334761D01*
X94423310Y-97278370D01*
X94412523Y-97276468D01*
X94195475Y-97257479D01*
X94184525Y-97257479D01*
X93967477Y-97276468D01*
X93956690Y-97278370D01*
X93746239Y-97334761D01*
X93735943Y-97338509D01*
X93538481Y-97430586D01*
X93528995Y-97436064D01*
X93476949Y-97472506D01*
X93468574Y-97482984D01*
X93475642Y-97496432D01*
X94460115Y-98480905D01*
X94494141Y-98543217D01*
X94489076Y-98614032D01*
X94460115Y-98659095D01*
X93474920Y-99644290D01*
X93468490Y-99656064D01*
X93477787Y-99668080D01*
X93528995Y-99703936D01*
X93538486Y-99709417D01*
X93578629Y-99728136D01*
X93631914Y-99775053D01*
X93651374Y-99843331D01*
X93630832Y-99911290D01*
X93614476Y-99931421D01*
X92633390Y-100912508D01*
X90531503Y-103014395D01*
X90469191Y-103048421D01*
X90442408Y-103051300D01*
X73549245Y-103051300D01*
X73538702Y-103050858D01*
X73538614Y-103050851D01*
X73487503Y-103046559D01*
X73480743Y-103047461D01*
X73480739Y-103047461D01*
X73407041Y-103057294D01*
X73403986Y-103057664D01*
X73329957Y-103065706D01*
X73329954Y-103065707D01*
X73323176Y-103066443D01*
X73316711Y-103068619D01*
X73313454Y-103069335D01*
X73313037Y-103069409D01*
X73312609Y-103069533D01*
X73309391Y-103070323D01*
X73302626Y-103071226D01*
X73226332Y-103098995D01*
X73223428Y-103100012D01*
X73146403Y-103125934D01*
X73140556Y-103129447D01*
X73137522Y-103130849D01*
X73137134Y-103131009D01*
X73136747Y-103131220D01*
X73133772Y-103132684D01*
X73127359Y-103135018D01*
X73121595Y-103138676D01*
X73058790Y-103178533D01*
X73056171Y-103180151D01*
X72992380Y-103218480D01*
X72992378Y-103218482D01*
X72986529Y-103221996D01*
X72981569Y-103226687D01*
X72978930Y-103228690D01*
X72978177Y-103229213D01*
X72974249Y-103232184D01*
X72969879Y-103234957D01*
X72964791Y-103239507D01*
X72910004Y-103294294D01*
X72907482Y-103296747D01*
X72858644Y-103342931D01*
X72851012Y-103350148D01*
X72847178Y-103355789D01*
X72842849Y-103360876D01*
X72835992Y-103368306D01*
X72076789Y-104127509D01*
X72069023Y-104134651D01*
X72029766Y-104167826D01*
X72025623Y-104173245D01*
X72025621Y-104173247D01*
X71980426Y-104232359D01*
X71978547Y-104234755D01*
X71927630Y-104298083D01*
X71924593Y-104304202D01*
X71922802Y-104307002D01*
X71922553Y-104307358D01*
X71922339Y-104307746D01*
X71920624Y-104310578D01*
X71916481Y-104315996D01*
X71913599Y-104322176D01*
X71913598Y-104322178D01*
X71882159Y-104389599D01*
X71880825Y-104392370D01*
X71844699Y-104465147D01*
X71843048Y-104471771D01*
X71841898Y-104474895D01*
X71841733Y-104475290D01*
X71841609Y-104475713D01*
X71840542Y-104478846D01*
X71837656Y-104485036D01*
X71836461Y-104490383D01*
X71795871Y-104548001D01*
X71752979Y-104570251D01*
X71650418Y-104600365D01*
X71650416Y-104600366D01*
X71641772Y-104602904D01*
X71615832Y-104619575D01*
X71526397Y-104677051D01*
X71526394Y-104677053D01*
X71518817Y-104681923D01*
X71512916Y-104688733D01*
X71429006Y-104785569D01*
X71429004Y-104785572D01*
X71423104Y-104792381D01*
X71362388Y-104925330D01*
X71362253Y-104925268D01*
X71326611Y-104980725D01*
X71262030Y-105010218D01*
X71244100Y-105011500D01*
X60456193Y-105011500D01*
X60388072Y-104991498D01*
X60367098Y-104974595D01*
X58723426Y-103330923D01*
X57062644Y-101670142D01*
X57028618Y-101607830D01*
X57033683Y-101537015D01*
X57076230Y-101480179D01*
X57138568Y-101455737D01*
X57216649Y-101447531D01*
X57275266Y-101441370D01*
X57275268Y-101441370D01*
X57279641Y-101440910D01*
X57552206Y-101372952D01*
X57667808Y-101326246D01*
X57808570Y-101269375D01*
X57808576Y-101269372D01*
X57812660Y-101267722D01*
X57816475Y-101265520D01*
X57816480Y-101265517D01*
X57931198Y-101199284D01*
X58055935Y-101127267D01*
X58165438Y-101041714D01*
X58273826Y-100957032D01*
X58273830Y-100957028D01*
X58277294Y-100954322D01*
X58317674Y-100912508D01*
X58469372Y-100755420D01*
X58469374Y-100755417D01*
X58472430Y-100752253D01*
X58475019Y-100748690D01*
X58634956Y-100528556D01*
X58634958Y-100528552D01*
X58637545Y-100524992D01*
X58639611Y-100521106D01*
X58639615Y-100521100D01*
X58767353Y-100280860D01*
X58767356Y-100280854D01*
X58769424Y-100276964D01*
X58815391Y-100150672D01*
X58863996Y-100017129D01*
X58863997Y-100017125D01*
X58865500Y-100012996D01*
X58923905Y-99738225D01*
X58924244Y-99733388D01*
X58943193Y-99462390D01*
X58943500Y-99458000D01*
X58933679Y-99317545D01*
X68061405Y-99317545D01*
X68061405Y-99598455D01*
X68100500Y-99876630D01*
X68177929Y-100146658D01*
X68292185Y-100403281D01*
X68441044Y-100641506D01*
X68443868Y-100644872D01*
X68443872Y-100644877D01*
X68530982Y-100748690D01*
X68621609Y-100856695D01*
X68830366Y-101044660D01*
X68834012Y-101047119D01*
X69059605Y-101199284D01*
X69059611Y-101199287D01*
X69063250Y-101201742D01*
X69168709Y-101253178D01*
X69311772Y-101322955D01*
X69311777Y-101322957D01*
X69315730Y-101324885D01*
X69582890Y-101411690D01*
X69708224Y-101433790D01*
X69855203Y-101459707D01*
X69855208Y-101459707D01*
X69859532Y-101460470D01*
X69863922Y-101460623D01*
X69863929Y-101460624D01*
X70135876Y-101470120D01*
X70135882Y-101470120D01*
X70140270Y-101470273D01*
X70144636Y-101469814D01*
X70144639Y-101469814D01*
X70415268Y-101441370D01*
X70415273Y-101441369D01*
X70419641Y-101440910D01*
X70692206Y-101372952D01*
X70807808Y-101326246D01*
X70948570Y-101269375D01*
X70948576Y-101269372D01*
X70952660Y-101267722D01*
X70956475Y-101265520D01*
X70956480Y-101265517D01*
X71071198Y-101199284D01*
X71195935Y-101127267D01*
X71305438Y-101041714D01*
X71413826Y-100957032D01*
X71413830Y-100957028D01*
X71417294Y-100954322D01*
X71457674Y-100912508D01*
X71609372Y-100755420D01*
X71609374Y-100755417D01*
X71612430Y-100752253D01*
X71615019Y-100748690D01*
X71774956Y-100528556D01*
X71774958Y-100528552D01*
X71777545Y-100524992D01*
X71779611Y-100521106D01*
X71779615Y-100521100D01*
X71907353Y-100280860D01*
X71907356Y-100280854D01*
X71909424Y-100276964D01*
X71955391Y-100150672D01*
X72003996Y-100017129D01*
X72003997Y-100017125D01*
X72005500Y-100012996D01*
X72063905Y-99738225D01*
X72064244Y-99733388D01*
X72083193Y-99462390D01*
X72083500Y-99458000D01*
X72073679Y-99317545D01*
X75241405Y-99317545D01*
X75241405Y-99598455D01*
X75280500Y-99876630D01*
X75357929Y-100146658D01*
X75472185Y-100403281D01*
X75621044Y-100641506D01*
X75623868Y-100644872D01*
X75623872Y-100644877D01*
X75710982Y-100748690D01*
X75801609Y-100856695D01*
X76010366Y-101044660D01*
X76014012Y-101047119D01*
X76239605Y-101199284D01*
X76239611Y-101199287D01*
X76243250Y-101201742D01*
X76348709Y-101253178D01*
X76491772Y-101322955D01*
X76491777Y-101322957D01*
X76495730Y-101324885D01*
X76762890Y-101411690D01*
X76888224Y-101433790D01*
X77035203Y-101459707D01*
X77035208Y-101459707D01*
X77039532Y-101460470D01*
X77043922Y-101460623D01*
X77043929Y-101460624D01*
X77315876Y-101470120D01*
X77315882Y-101470120D01*
X77320270Y-101470273D01*
X77324636Y-101469814D01*
X77324639Y-101469814D01*
X77595268Y-101441370D01*
X77595273Y-101441369D01*
X77599641Y-101440910D01*
X77872206Y-101372952D01*
X77987808Y-101326246D01*
X78128570Y-101269375D01*
X78128576Y-101269372D01*
X78132660Y-101267722D01*
X78136475Y-101265520D01*
X78136480Y-101265517D01*
X78251198Y-101199284D01*
X78375935Y-101127267D01*
X78485438Y-101041714D01*
X78593826Y-100957032D01*
X78593830Y-100957028D01*
X78597294Y-100954322D01*
X78637674Y-100912508D01*
X78789372Y-100755420D01*
X78789374Y-100755417D01*
X78792430Y-100752253D01*
X78795019Y-100748690D01*
X78954956Y-100528556D01*
X78954958Y-100528552D01*
X78957545Y-100524992D01*
X78959611Y-100521106D01*
X78959615Y-100521100D01*
X79087353Y-100280860D01*
X79087356Y-100280854D01*
X79089424Y-100276964D01*
X79135391Y-100150672D01*
X79183996Y-100017129D01*
X79183997Y-100017125D01*
X79185500Y-100012996D01*
X79243905Y-99738225D01*
X79244244Y-99733388D01*
X79263193Y-99462390D01*
X79263500Y-99458000D01*
X79253679Y-99317545D01*
X88381405Y-99317545D01*
X88381405Y-99598455D01*
X88420500Y-99876630D01*
X88497929Y-100146658D01*
X88612185Y-100403281D01*
X88761044Y-100641506D01*
X88763868Y-100644872D01*
X88763872Y-100644877D01*
X88850982Y-100748690D01*
X88941609Y-100856695D01*
X89150366Y-101044660D01*
X89154012Y-101047119D01*
X89379605Y-101199284D01*
X89379611Y-101199287D01*
X89383250Y-101201742D01*
X89488709Y-101253178D01*
X89631772Y-101322955D01*
X89631777Y-101322957D01*
X89635730Y-101324885D01*
X89902890Y-101411690D01*
X90028224Y-101433790D01*
X90175203Y-101459707D01*
X90175208Y-101459707D01*
X90179532Y-101460470D01*
X90183922Y-101460623D01*
X90183929Y-101460624D01*
X90455876Y-101470120D01*
X90455882Y-101470120D01*
X90460270Y-101470273D01*
X90464636Y-101469814D01*
X90464639Y-101469814D01*
X90735268Y-101441370D01*
X90735273Y-101441369D01*
X90739641Y-101440910D01*
X91012206Y-101372952D01*
X91127808Y-101326246D01*
X91268570Y-101269375D01*
X91268576Y-101269372D01*
X91272660Y-101267722D01*
X91276475Y-101265520D01*
X91276480Y-101265517D01*
X91391198Y-101199284D01*
X91515935Y-101127267D01*
X91625438Y-101041714D01*
X91733826Y-100957032D01*
X91733830Y-100957028D01*
X91737294Y-100954322D01*
X91777674Y-100912508D01*
X91929372Y-100755420D01*
X91929374Y-100755417D01*
X91932430Y-100752253D01*
X91935019Y-100748690D01*
X92094956Y-100528556D01*
X92094958Y-100528552D01*
X92097545Y-100524992D01*
X92099611Y-100521106D01*
X92099615Y-100521100D01*
X92227353Y-100280860D01*
X92227356Y-100280854D01*
X92229424Y-100276964D01*
X92275391Y-100150672D01*
X92323996Y-100017129D01*
X92323997Y-100017125D01*
X92325500Y-100012996D01*
X92383905Y-99738225D01*
X92384244Y-99733388D01*
X92403193Y-99462390D01*
X92403500Y-99458000D01*
X92383905Y-99177775D01*
X92325500Y-98903004D01*
X92289215Y-98803310D01*
X92230933Y-98643181D01*
X92230931Y-98643177D01*
X92229424Y-98639036D01*
X92227356Y-98635146D01*
X92227353Y-98635140D01*
X92189806Y-98564525D01*
X92877479Y-98564525D01*
X92877479Y-98575475D01*
X92896468Y-98792523D01*
X92898370Y-98803310D01*
X92954761Y-99013761D01*
X92958509Y-99024057D01*
X93050586Y-99221519D01*
X93056064Y-99231005D01*
X93092506Y-99283051D01*
X93102984Y-99291426D01*
X93116432Y-99284358D01*
X93817978Y-98582812D01*
X93825592Y-98568868D01*
X93825461Y-98567035D01*
X93821210Y-98560420D01*
X93115710Y-97854920D01*
X93103936Y-97848490D01*
X93091920Y-97857787D01*
X93056064Y-97908995D01*
X93050586Y-97918481D01*
X92958509Y-98115943D01*
X92954761Y-98126239D01*
X92898370Y-98336690D01*
X92896468Y-98347477D01*
X92877479Y-98564525D01*
X92189806Y-98564525D01*
X92099615Y-98394900D01*
X92099611Y-98394894D01*
X92097545Y-98391008D01*
X92092002Y-98383378D01*
X91935019Y-98167310D01*
X91935017Y-98167307D01*
X91932430Y-98163747D01*
X91927309Y-98158444D01*
X91740348Y-97964840D01*
X91740344Y-97964837D01*
X91737294Y-97961678D01*
X91733830Y-97958972D01*
X91733826Y-97958968D01*
X91519401Y-97791441D01*
X91519402Y-97791441D01*
X91515935Y-97788733D01*
X91356912Y-97696921D01*
X91276480Y-97650483D01*
X91276475Y-97650480D01*
X91272660Y-97648278D01*
X91268576Y-97646628D01*
X91268570Y-97646625D01*
X91032546Y-97551266D01*
X91012206Y-97543048D01*
X90739641Y-97475090D01*
X90735273Y-97474631D01*
X90735268Y-97474630D01*
X90464639Y-97446186D01*
X90464636Y-97446186D01*
X90460270Y-97445727D01*
X90455882Y-97445880D01*
X90455876Y-97445880D01*
X90183929Y-97455376D01*
X90183922Y-97455377D01*
X90179532Y-97455530D01*
X90175208Y-97456293D01*
X90175203Y-97456293D01*
X90028224Y-97482210D01*
X89902890Y-97504310D01*
X89635730Y-97591115D01*
X89631777Y-97593043D01*
X89631772Y-97593045D01*
X89536249Y-97639635D01*
X89383250Y-97714258D01*
X89379611Y-97716713D01*
X89379605Y-97716716D01*
X89230562Y-97817247D01*
X89150366Y-97871340D01*
X88941609Y-98059305D01*
X88894084Y-98115943D01*
X88763872Y-98271123D01*
X88763868Y-98271128D01*
X88761044Y-98274494D01*
X88612185Y-98512719D01*
X88497929Y-98769342D01*
X88420500Y-99039370D01*
X88381405Y-99317545D01*
X79253679Y-99317545D01*
X79243905Y-99177775D01*
X79185500Y-98903004D01*
X79149215Y-98803310D01*
X79090933Y-98643181D01*
X79090931Y-98643177D01*
X79089424Y-98639036D01*
X79087356Y-98635146D01*
X79087353Y-98635140D01*
X78959615Y-98394900D01*
X78959611Y-98394894D01*
X78957545Y-98391008D01*
X78952002Y-98383378D01*
X78795019Y-98167310D01*
X78795017Y-98167307D01*
X78792430Y-98163747D01*
X78787309Y-98158444D01*
X78600348Y-97964840D01*
X78600344Y-97964837D01*
X78597294Y-97961678D01*
X78593830Y-97958972D01*
X78593826Y-97958968D01*
X78379401Y-97791441D01*
X78379402Y-97791441D01*
X78375935Y-97788733D01*
X78216912Y-97696921D01*
X78136480Y-97650483D01*
X78136475Y-97650480D01*
X78132660Y-97648278D01*
X78128576Y-97646628D01*
X78128570Y-97646625D01*
X77892546Y-97551266D01*
X77872206Y-97543048D01*
X77599641Y-97475090D01*
X77595273Y-97474631D01*
X77595268Y-97474630D01*
X77324639Y-97446186D01*
X77324636Y-97446186D01*
X77320270Y-97445727D01*
X77315882Y-97445880D01*
X77315876Y-97445880D01*
X77043929Y-97455376D01*
X77043922Y-97455377D01*
X77039532Y-97455530D01*
X77035208Y-97456293D01*
X77035203Y-97456293D01*
X76888224Y-97482210D01*
X76762890Y-97504310D01*
X76495730Y-97591115D01*
X76491777Y-97593043D01*
X76491772Y-97593045D01*
X76396249Y-97639635D01*
X76243250Y-97714258D01*
X76239611Y-97716713D01*
X76239605Y-97716716D01*
X76090562Y-97817247D01*
X76010366Y-97871340D01*
X75801609Y-98059305D01*
X75754084Y-98115943D01*
X75623872Y-98271123D01*
X75623868Y-98271128D01*
X75621044Y-98274494D01*
X75472185Y-98512719D01*
X75357929Y-98769342D01*
X75280500Y-99039370D01*
X75241405Y-99317545D01*
X72073679Y-99317545D01*
X72063905Y-99177775D01*
X72005500Y-98903004D01*
X71969215Y-98803310D01*
X71910933Y-98643181D01*
X71910931Y-98643177D01*
X71909424Y-98639036D01*
X71907356Y-98635146D01*
X71907353Y-98635140D01*
X71779615Y-98394900D01*
X71779611Y-98394894D01*
X71777545Y-98391008D01*
X71772002Y-98383378D01*
X71615019Y-98167310D01*
X71615017Y-98167307D01*
X71612430Y-98163747D01*
X71607309Y-98158444D01*
X71420348Y-97964840D01*
X71420344Y-97964837D01*
X71417294Y-97961678D01*
X71413830Y-97958972D01*
X71413826Y-97958968D01*
X71199401Y-97791441D01*
X71199402Y-97791441D01*
X71195935Y-97788733D01*
X71036912Y-97696921D01*
X70956480Y-97650483D01*
X70956475Y-97650480D01*
X70952660Y-97648278D01*
X70948576Y-97646628D01*
X70948570Y-97646625D01*
X70712546Y-97551266D01*
X70692206Y-97543048D01*
X70419641Y-97475090D01*
X70415273Y-97474631D01*
X70415268Y-97474630D01*
X70144639Y-97446186D01*
X70144636Y-97446186D01*
X70140270Y-97445727D01*
X70135882Y-97445880D01*
X70135876Y-97445880D01*
X69863929Y-97455376D01*
X69863922Y-97455377D01*
X69859532Y-97455530D01*
X69855208Y-97456293D01*
X69855203Y-97456293D01*
X69708224Y-97482210D01*
X69582890Y-97504310D01*
X69315730Y-97591115D01*
X69311777Y-97593043D01*
X69311772Y-97593045D01*
X69216249Y-97639635D01*
X69063250Y-97714258D01*
X69059611Y-97716713D01*
X69059605Y-97716716D01*
X68910562Y-97817247D01*
X68830366Y-97871340D01*
X68621609Y-98059305D01*
X68574084Y-98115943D01*
X68443872Y-98271123D01*
X68443868Y-98271128D01*
X68441044Y-98274494D01*
X68292185Y-98512719D01*
X68177929Y-98769342D01*
X68100500Y-99039370D01*
X68061405Y-99317545D01*
X58933679Y-99317545D01*
X58923905Y-99177775D01*
X58865500Y-98903004D01*
X58829215Y-98803310D01*
X58770933Y-98643181D01*
X58770931Y-98643177D01*
X58769424Y-98639036D01*
X58767356Y-98635146D01*
X58767353Y-98635140D01*
X58639615Y-98394900D01*
X58639611Y-98394894D01*
X58637545Y-98391008D01*
X58632002Y-98383378D01*
X58475019Y-98167310D01*
X58475017Y-98167307D01*
X58472430Y-98163747D01*
X58467309Y-98158444D01*
X58280348Y-97964840D01*
X58280344Y-97964837D01*
X58277294Y-97961678D01*
X58273830Y-97958972D01*
X58273826Y-97958968D01*
X58059401Y-97791441D01*
X58059402Y-97791441D01*
X58055935Y-97788733D01*
X57896912Y-97696921D01*
X57816480Y-97650483D01*
X57816475Y-97650480D01*
X57812660Y-97648278D01*
X57808576Y-97646628D01*
X57808570Y-97646625D01*
X57572546Y-97551266D01*
X57552206Y-97543048D01*
X57279641Y-97475090D01*
X57275273Y-97474631D01*
X57275268Y-97474630D01*
X57004639Y-97446186D01*
X57004636Y-97446186D01*
X57000270Y-97445727D01*
X56995882Y-97445880D01*
X56995876Y-97445880D01*
X56723929Y-97455376D01*
X56723922Y-97455377D01*
X56719532Y-97455530D01*
X56715208Y-97456293D01*
X56715203Y-97456293D01*
X56568224Y-97482210D01*
X56442890Y-97504310D01*
X56175730Y-97591115D01*
X56171777Y-97593043D01*
X56171772Y-97593045D01*
X56076249Y-97639635D01*
X55923250Y-97714258D01*
X55843945Y-97767750D01*
X55775048Y-97814221D01*
X55707388Y-97835731D01*
X55638840Y-97817247D01*
X55600356Y-97774638D01*
X55597641Y-97776334D01*
X55597641Y-97776333D01*
X55579866Y-97747887D01*
X55572535Y-97734385D01*
X55558363Y-97703994D01*
X55554049Y-97698433D01*
X55554047Y-97698429D01*
X55531801Y-97669750D01*
X55524507Y-97659294D01*
X55505268Y-97628504D01*
X55505265Y-97628500D01*
X55501535Y-97622531D01*
X55473626Y-97594427D01*
X55472160Y-97592860D01*
X55471271Y-97591714D01*
X55422605Y-97543048D01*
X55422343Y-97542785D01*
X55401165Y-97521459D01*
X55373742Y-97493844D01*
X55373001Y-97493374D01*
X55372318Y-97492761D01*
X53877557Y-95998000D01*
X58686500Y-95998000D01*
X58686500Y-97498000D01*
X58691727Y-97571079D01*
X58709681Y-97632225D01*
X58726774Y-97690438D01*
X58732904Y-97711316D01*
X58737775Y-97718895D01*
X58807051Y-97826691D01*
X58807053Y-97826694D01*
X58811923Y-97834271D01*
X58818733Y-97840172D01*
X58915569Y-97924082D01*
X58915572Y-97924084D01*
X58922381Y-97929984D01*
X59055330Y-97990700D01*
X59064245Y-97991982D01*
X59064246Y-97991982D01*
X59195552Y-98010861D01*
X59195559Y-98010862D01*
X59200000Y-98011500D01*
X60800000Y-98011500D01*
X60873079Y-98006273D01*
X60954772Y-97982286D01*
X61004670Y-97967635D01*
X61004672Y-97967634D01*
X61013316Y-97965096D01*
X61095589Y-97912222D01*
X61128691Y-97890949D01*
X61128694Y-97890947D01*
X61136271Y-97886077D01*
X61176048Y-97840172D01*
X61226082Y-97782431D01*
X61226084Y-97782428D01*
X61231984Y-97775619D01*
X61274054Y-97683500D01*
X61292700Y-97642670D01*
X61293917Y-97643226D01*
X61327295Y-97591283D01*
X61391874Y-97561786D01*
X61462148Y-97571887D01*
X61498907Y-97597408D01*
X61655698Y-97754199D01*
X61660206Y-97757356D01*
X61660209Y-97757358D01*
X61838741Y-97882367D01*
X61843250Y-97885524D01*
X61848232Y-97887847D01*
X61848237Y-97887850D01*
X62044763Y-97979491D01*
X62050757Y-97982286D01*
X62056065Y-97983708D01*
X62056067Y-97983709D01*
X62266598Y-98040121D01*
X62266600Y-98040121D01*
X62271913Y-98041545D01*
X62500000Y-98061500D01*
X62728087Y-98041545D01*
X62733400Y-98040121D01*
X62733402Y-98040121D01*
X62943933Y-97983709D01*
X62943935Y-97983708D01*
X62949243Y-97982286D01*
X62955237Y-97979491D01*
X63151763Y-97887850D01*
X63151768Y-97887847D01*
X63156750Y-97885524D01*
X63161259Y-97882367D01*
X63339791Y-97757358D01*
X63339794Y-97757356D01*
X63344302Y-97754199D01*
X63410905Y-97687596D01*
X63473217Y-97653570D01*
X63544032Y-97658635D01*
X63589095Y-97687596D01*
X63655698Y-97754199D01*
X63660206Y-97757356D01*
X63660209Y-97757358D01*
X63838741Y-97882367D01*
X63843250Y-97885524D01*
X63848232Y-97887847D01*
X63848237Y-97887850D01*
X64044763Y-97979491D01*
X64050757Y-97982286D01*
X64056065Y-97983708D01*
X64056067Y-97983709D01*
X64266598Y-98040121D01*
X64266600Y-98040121D01*
X64271913Y-98041545D01*
X64500000Y-98061500D01*
X64728087Y-98041545D01*
X64733400Y-98040121D01*
X64733402Y-98040121D01*
X64943933Y-97983709D01*
X64943935Y-97983708D01*
X64949243Y-97982286D01*
X64955237Y-97979491D01*
X65151763Y-97887850D01*
X65151768Y-97887847D01*
X65156750Y-97885524D01*
X65161259Y-97882367D01*
X65230243Y-97834064D01*
X66278490Y-97834064D01*
X66287787Y-97846080D01*
X66338995Y-97881936D01*
X66348481Y-97887414D01*
X66545943Y-97979491D01*
X66556239Y-97983239D01*
X66766690Y-98039630D01*
X66777477Y-98041532D01*
X66994525Y-98060521D01*
X67005475Y-98060521D01*
X67222523Y-98041532D01*
X67233310Y-98039630D01*
X67443761Y-97983239D01*
X67454057Y-97979491D01*
X67651519Y-97887414D01*
X67661005Y-97881936D01*
X67713051Y-97845494D01*
X67721426Y-97835016D01*
X67714358Y-97821568D01*
X67012812Y-97120022D01*
X66998868Y-97112408D01*
X66997035Y-97112539D01*
X66990420Y-97116790D01*
X66284920Y-97822290D01*
X66278490Y-97834064D01*
X65230243Y-97834064D01*
X65339791Y-97757358D01*
X65339794Y-97757356D01*
X65344302Y-97754199D01*
X65506199Y-97592302D01*
X65509358Y-97587791D01*
X65634370Y-97409255D01*
X65634372Y-97409252D01*
X65637524Y-97404750D01*
X65639847Y-97399768D01*
X65641171Y-97397475D01*
X65692554Y-97348483D01*
X65762268Y-97335048D01*
X65828178Y-97361435D01*
X65859408Y-97397476D01*
X65866069Y-97409013D01*
X65902506Y-97461051D01*
X65912984Y-97469426D01*
X65926432Y-97462358D01*
X66627978Y-96760812D01*
X66634356Y-96749132D01*
X67364408Y-96749132D01*
X67364539Y-96750965D01*
X67368790Y-96757580D01*
X68074290Y-97463080D01*
X68086064Y-97469510D01*
X68098080Y-97460213D01*
X68133936Y-97409005D01*
X68139414Y-97399519D01*
X68231491Y-97202057D01*
X68235239Y-97191761D01*
X68291630Y-96981310D01*
X68293532Y-96970523D01*
X68312521Y-96753475D01*
X68312521Y-96742525D01*
X68293532Y-96525477D01*
X68291630Y-96514690D01*
X68235239Y-96304239D01*
X68231491Y-96293943D01*
X68139414Y-96096481D01*
X68133936Y-96086995D01*
X68097494Y-96034949D01*
X68087016Y-96026574D01*
X68073568Y-96033642D01*
X67372022Y-96735188D01*
X67364408Y-96749132D01*
X66634356Y-96749132D01*
X66635592Y-96746868D01*
X66635461Y-96745035D01*
X66631210Y-96738420D01*
X65925710Y-96032920D01*
X65913936Y-96026490D01*
X65901920Y-96035787D01*
X65866069Y-96086987D01*
X65859408Y-96098524D01*
X65808024Y-96147517D01*
X65738311Y-96160952D01*
X65672400Y-96134565D01*
X65641171Y-96098525D01*
X65639847Y-96096232D01*
X65637524Y-96091250D01*
X65598689Y-96035787D01*
X65509358Y-95908209D01*
X65509356Y-95908206D01*
X65506199Y-95903698D01*
X65344302Y-95741801D01*
X65339794Y-95738644D01*
X65339791Y-95738642D01*
X65228883Y-95660984D01*
X66278574Y-95660984D01*
X66285642Y-95674432D01*
X66987188Y-96375978D01*
X67001132Y-96383592D01*
X67002965Y-96383461D01*
X67009580Y-96379210D01*
X67715080Y-95673710D01*
X67721510Y-95661936D01*
X67712213Y-95649920D01*
X67661005Y-95614064D01*
X67651519Y-95608586D01*
X67454057Y-95516509D01*
X67443761Y-95512761D01*
X67233310Y-95456370D01*
X67222523Y-95454468D01*
X67005475Y-95435479D01*
X66994525Y-95435479D01*
X66777477Y-95454468D01*
X66766690Y-95456370D01*
X66556239Y-95512761D01*
X66545943Y-95516509D01*
X66348481Y-95608586D01*
X66338995Y-95614064D01*
X66286949Y-95650506D01*
X66278574Y-95660984D01*
X65228883Y-95660984D01*
X65161259Y-95613633D01*
X65161257Y-95613632D01*
X65156750Y-95610476D01*
X65151768Y-95608153D01*
X65151763Y-95608150D01*
X64954225Y-95516037D01*
X64954224Y-95516036D01*
X64949243Y-95513714D01*
X64943935Y-95512292D01*
X64943933Y-95512291D01*
X64733402Y-95455879D01*
X64733400Y-95455879D01*
X64728087Y-95454455D01*
X64500000Y-95434500D01*
X64271913Y-95454455D01*
X64266600Y-95455879D01*
X64266598Y-95455879D01*
X64056067Y-95512291D01*
X64056065Y-95512292D01*
X64050757Y-95513714D01*
X64045776Y-95516036D01*
X64045775Y-95516037D01*
X63848237Y-95608150D01*
X63848232Y-95608153D01*
X63843250Y-95610476D01*
X63838743Y-95613632D01*
X63838741Y-95613633D01*
X63660209Y-95738642D01*
X63660206Y-95738644D01*
X63655698Y-95741801D01*
X63589095Y-95808404D01*
X63526783Y-95842430D01*
X63455968Y-95837365D01*
X63410905Y-95808404D01*
X63344302Y-95741801D01*
X63339794Y-95738644D01*
X63339791Y-95738642D01*
X63161259Y-95613633D01*
X63161257Y-95613632D01*
X63156750Y-95610476D01*
X63151768Y-95608153D01*
X63151763Y-95608150D01*
X62954225Y-95516037D01*
X62954224Y-95516036D01*
X62949243Y-95513714D01*
X62943935Y-95512292D01*
X62943933Y-95512291D01*
X62733402Y-95455879D01*
X62733400Y-95455879D01*
X62728087Y-95454455D01*
X62500000Y-95434500D01*
X62271913Y-95454455D01*
X62266600Y-95455879D01*
X62266598Y-95455879D01*
X62056067Y-95512291D01*
X62056065Y-95512292D01*
X62050757Y-95513714D01*
X62045776Y-95516036D01*
X62045775Y-95516037D01*
X61848237Y-95608150D01*
X61848232Y-95608153D01*
X61843250Y-95610476D01*
X61838743Y-95613632D01*
X61838741Y-95613633D01*
X61660209Y-95738642D01*
X61660206Y-95738644D01*
X61655698Y-95741801D01*
X61495729Y-95901770D01*
X61433417Y-95935796D01*
X61362602Y-95930731D01*
X61305766Y-95888184D01*
X61285738Y-95848173D01*
X61269635Y-95793330D01*
X61269634Y-95793328D01*
X61267096Y-95784684D01*
X61195777Y-95673710D01*
X61192949Y-95669309D01*
X61192947Y-95669306D01*
X61188077Y-95661729D01*
X61174449Y-95649920D01*
X61084431Y-95571918D01*
X61084428Y-95571916D01*
X61077619Y-95566016D01*
X60944670Y-95505300D01*
X60935755Y-95504018D01*
X60935754Y-95504018D01*
X60804448Y-95485139D01*
X60804441Y-95485138D01*
X60800000Y-95484500D01*
X59200000Y-95484500D01*
X59126921Y-95489727D01*
X59073884Y-95505300D01*
X58995330Y-95528365D01*
X58995328Y-95528366D01*
X58986684Y-95530904D01*
X58979105Y-95535775D01*
X58871309Y-95605051D01*
X58871306Y-95605053D01*
X58863729Y-95609923D01*
X58857828Y-95616733D01*
X58773918Y-95713569D01*
X58773916Y-95713572D01*
X58768016Y-95720381D01*
X58764272Y-95728579D01*
X58747192Y-95765980D01*
X58707300Y-95853330D01*
X58706018Y-95862245D01*
X58706018Y-95862246D01*
X58687139Y-95993552D01*
X58687138Y-95993559D01*
X58686500Y-95998000D01*
X53877557Y-95998000D01*
X52835957Y-94956400D01*
X71341588Y-94956400D01*
X71341588Y-96556400D01*
X71346815Y-96629479D01*
X71348719Y-96635962D01*
X71385378Y-96760812D01*
X71387992Y-96769716D01*
X71392863Y-96777295D01*
X71462139Y-96885091D01*
X71462141Y-96885094D01*
X71467011Y-96892671D01*
X71506206Y-96926634D01*
X71570657Y-96982482D01*
X71570660Y-96982484D01*
X71577469Y-96988384D01*
X71585667Y-96992128D01*
X71670796Y-97031005D01*
X71710418Y-97049100D01*
X71719333Y-97050382D01*
X71719334Y-97050382D01*
X71850640Y-97069261D01*
X71850647Y-97069262D01*
X71855088Y-97069900D01*
X73455088Y-97069900D01*
X73528167Y-97064673D01*
X73642831Y-97031005D01*
X73659758Y-97026035D01*
X73659760Y-97026034D01*
X73668404Y-97023496D01*
X73732223Y-96982482D01*
X73783779Y-96949349D01*
X73783782Y-96949347D01*
X73791359Y-96944477D01*
X73797261Y-96937666D01*
X73822698Y-96908311D01*
X73882424Y-96869928D01*
X73953421Y-96869929D01*
X73990192Y-96887612D01*
X73994080Y-96890334D01*
X74003575Y-96895817D01*
X74201031Y-96987891D01*
X74211327Y-96991639D01*
X74421778Y-97048030D01*
X74432565Y-97049932D01*
X74649613Y-97068921D01*
X74660563Y-97068921D01*
X74877611Y-97049932D01*
X74888398Y-97048030D01*
X75098849Y-96991639D01*
X75109145Y-96987891D01*
X75306607Y-96895814D01*
X75316093Y-96890336D01*
X75368139Y-96853894D01*
X75376514Y-96843416D01*
X75369446Y-96829968D01*
X74384973Y-95845495D01*
X74350947Y-95783183D01*
X74352782Y-95757532D01*
X75019496Y-95757532D01*
X75019627Y-95759365D01*
X75023878Y-95765980D01*
X75729378Y-96471480D01*
X75741152Y-96477910D01*
X75753168Y-96468613D01*
X75789024Y-96417405D01*
X75794502Y-96407919D01*
X75886579Y-96210457D01*
X75890327Y-96200161D01*
X75944497Y-95998000D01*
X79006500Y-95998000D01*
X79006500Y-97498000D01*
X79011727Y-97571079D01*
X79029681Y-97632225D01*
X79046774Y-97690438D01*
X79052904Y-97711316D01*
X79057775Y-97718895D01*
X79127051Y-97826691D01*
X79127053Y-97826694D01*
X79131923Y-97834271D01*
X79138733Y-97840172D01*
X79235569Y-97924082D01*
X79235572Y-97924084D01*
X79242381Y-97929984D01*
X79375330Y-97990700D01*
X79384245Y-97991982D01*
X79384246Y-97991982D01*
X79515552Y-98010861D01*
X79515559Y-98010862D01*
X79520000Y-98011500D01*
X81120000Y-98011500D01*
X81193079Y-98006273D01*
X81274772Y-97982286D01*
X81324670Y-97967635D01*
X81324672Y-97967634D01*
X81333316Y-97965096D01*
X81415589Y-97912222D01*
X81448691Y-97890949D01*
X81448694Y-97890947D01*
X81456271Y-97886077D01*
X81496048Y-97840172D01*
X81546082Y-97782431D01*
X81546084Y-97782428D01*
X81551984Y-97775619D01*
X81594054Y-97683500D01*
X81612700Y-97642670D01*
X81613917Y-97643226D01*
X81647295Y-97591283D01*
X81711874Y-97561786D01*
X81782148Y-97571887D01*
X81818907Y-97597408D01*
X81975698Y-97754199D01*
X81980206Y-97757356D01*
X81980209Y-97757358D01*
X82158741Y-97882367D01*
X82163250Y-97885524D01*
X82168232Y-97887847D01*
X82168237Y-97887850D01*
X82364763Y-97979491D01*
X82370757Y-97982286D01*
X82376065Y-97983708D01*
X82376067Y-97983709D01*
X82586598Y-98040121D01*
X82586600Y-98040121D01*
X82591913Y-98041545D01*
X82820000Y-98061500D01*
X83048087Y-98041545D01*
X83053400Y-98040121D01*
X83053402Y-98040121D01*
X83263933Y-97983709D01*
X83263935Y-97983708D01*
X83269243Y-97982286D01*
X83275237Y-97979491D01*
X83471763Y-97887850D01*
X83471768Y-97887847D01*
X83476750Y-97885524D01*
X83481259Y-97882367D01*
X83659791Y-97757358D01*
X83659794Y-97757356D01*
X83664302Y-97754199D01*
X83730905Y-97687596D01*
X83793217Y-97653570D01*
X83864032Y-97658635D01*
X83909095Y-97687596D01*
X83975698Y-97754199D01*
X83980206Y-97757356D01*
X83980209Y-97757358D01*
X84158741Y-97882367D01*
X84163250Y-97885524D01*
X84168232Y-97887847D01*
X84168237Y-97887850D01*
X84364763Y-97979491D01*
X84370757Y-97982286D01*
X84376065Y-97983708D01*
X84376067Y-97983709D01*
X84586598Y-98040121D01*
X84586600Y-98040121D01*
X84591913Y-98041545D01*
X84820000Y-98061500D01*
X85048087Y-98041545D01*
X85053400Y-98040121D01*
X85053402Y-98040121D01*
X85263933Y-97983709D01*
X85263935Y-97983708D01*
X85269243Y-97982286D01*
X85275237Y-97979491D01*
X85471763Y-97887850D01*
X85471768Y-97887847D01*
X85476750Y-97885524D01*
X85481259Y-97882367D01*
X85550243Y-97834064D01*
X86598490Y-97834064D01*
X86607787Y-97846080D01*
X86658995Y-97881936D01*
X86668481Y-97887414D01*
X86865943Y-97979491D01*
X86876239Y-97983239D01*
X87086690Y-98039630D01*
X87097477Y-98041532D01*
X87314525Y-98060521D01*
X87325475Y-98060521D01*
X87542523Y-98041532D01*
X87553310Y-98039630D01*
X87763761Y-97983239D01*
X87774057Y-97979491D01*
X87971519Y-97887414D01*
X87981005Y-97881936D01*
X88033051Y-97845494D01*
X88041426Y-97835016D01*
X88034358Y-97821568D01*
X87332812Y-97120022D01*
X87318868Y-97112408D01*
X87317035Y-97112539D01*
X87310420Y-97116790D01*
X86604920Y-97822290D01*
X86598490Y-97834064D01*
X85550243Y-97834064D01*
X85659791Y-97757358D01*
X85659794Y-97757356D01*
X85664302Y-97754199D01*
X85826199Y-97592302D01*
X85829358Y-97587791D01*
X85954370Y-97409255D01*
X85954372Y-97409252D01*
X85957524Y-97404750D01*
X85959847Y-97399768D01*
X85961171Y-97397475D01*
X86012554Y-97348483D01*
X86082268Y-97335048D01*
X86148178Y-97361435D01*
X86179408Y-97397476D01*
X86186069Y-97409013D01*
X86222506Y-97461051D01*
X86232984Y-97469426D01*
X86246432Y-97462358D01*
X86947978Y-96760812D01*
X86954356Y-96749132D01*
X87684408Y-96749132D01*
X87684539Y-96750965D01*
X87688790Y-96757580D01*
X88394290Y-97463080D01*
X88406064Y-97469510D01*
X88418080Y-97460213D01*
X88453936Y-97409005D01*
X88459414Y-97399519D01*
X88551491Y-97202057D01*
X88555239Y-97191761D01*
X88611630Y-96981310D01*
X88613532Y-96970523D01*
X88632521Y-96753475D01*
X88632521Y-96742525D01*
X88613532Y-96525477D01*
X88611630Y-96514690D01*
X88555239Y-96304239D01*
X88551491Y-96293943D01*
X88459414Y-96096481D01*
X88453936Y-96086995D01*
X88417494Y-96034949D01*
X88407016Y-96026574D01*
X88393568Y-96033642D01*
X87692022Y-96735188D01*
X87684408Y-96749132D01*
X86954356Y-96749132D01*
X86955592Y-96746868D01*
X86955461Y-96745035D01*
X86951210Y-96738420D01*
X86245710Y-96032920D01*
X86233936Y-96026490D01*
X86221920Y-96035787D01*
X86186069Y-96086987D01*
X86179408Y-96098524D01*
X86128024Y-96147517D01*
X86058311Y-96160952D01*
X85992400Y-96134565D01*
X85961171Y-96098525D01*
X85959847Y-96096232D01*
X85957524Y-96091250D01*
X85918689Y-96035787D01*
X85829358Y-95908209D01*
X85829356Y-95908206D01*
X85826199Y-95903698D01*
X85664302Y-95741801D01*
X85659794Y-95738644D01*
X85659791Y-95738642D01*
X85548883Y-95660984D01*
X86598574Y-95660984D01*
X86605642Y-95674432D01*
X87307188Y-96375978D01*
X87321132Y-96383592D01*
X87322965Y-96383461D01*
X87329580Y-96379210D01*
X88035080Y-95673710D01*
X88041510Y-95661936D01*
X88032213Y-95649920D01*
X87981005Y-95614064D01*
X87971519Y-95608586D01*
X87774057Y-95516509D01*
X87763761Y-95512761D01*
X87553310Y-95456370D01*
X87542523Y-95454468D01*
X87325475Y-95435479D01*
X87314525Y-95435479D01*
X87097477Y-95454468D01*
X87086690Y-95456370D01*
X86876239Y-95512761D01*
X86865943Y-95516509D01*
X86668481Y-95608586D01*
X86658995Y-95614064D01*
X86606949Y-95650506D01*
X86598574Y-95660984D01*
X85548883Y-95660984D01*
X85481259Y-95613633D01*
X85481257Y-95613632D01*
X85476750Y-95610476D01*
X85471768Y-95608153D01*
X85471763Y-95608150D01*
X85274225Y-95516037D01*
X85274224Y-95516036D01*
X85269243Y-95513714D01*
X85263935Y-95512292D01*
X85263933Y-95512291D01*
X85053402Y-95455879D01*
X85053400Y-95455879D01*
X85048087Y-95454455D01*
X84820000Y-95434500D01*
X84591913Y-95454455D01*
X84586600Y-95455879D01*
X84586598Y-95455879D01*
X84376067Y-95512291D01*
X84376065Y-95512292D01*
X84370757Y-95513714D01*
X84365776Y-95516036D01*
X84365775Y-95516037D01*
X84168237Y-95608150D01*
X84168232Y-95608153D01*
X84163250Y-95610476D01*
X84158743Y-95613632D01*
X84158741Y-95613633D01*
X83980209Y-95738642D01*
X83980206Y-95738644D01*
X83975698Y-95741801D01*
X83909095Y-95808404D01*
X83846783Y-95842430D01*
X83775968Y-95837365D01*
X83730905Y-95808404D01*
X83664302Y-95741801D01*
X83659794Y-95738644D01*
X83659791Y-95738642D01*
X83481259Y-95613633D01*
X83481257Y-95613632D01*
X83476750Y-95610476D01*
X83471768Y-95608153D01*
X83471763Y-95608150D01*
X83274225Y-95516037D01*
X83274224Y-95516036D01*
X83269243Y-95513714D01*
X83263935Y-95512292D01*
X83263933Y-95512291D01*
X83053402Y-95455879D01*
X83053400Y-95455879D01*
X83048087Y-95454455D01*
X82820000Y-95434500D01*
X82591913Y-95454455D01*
X82586600Y-95455879D01*
X82586598Y-95455879D01*
X82376067Y-95512291D01*
X82376065Y-95512292D01*
X82370757Y-95513714D01*
X82365776Y-95516036D01*
X82365775Y-95516037D01*
X82168237Y-95608150D01*
X82168232Y-95608153D01*
X82163250Y-95610476D01*
X82158743Y-95613632D01*
X82158741Y-95613633D01*
X81980209Y-95738642D01*
X81980206Y-95738644D01*
X81975698Y-95741801D01*
X81815729Y-95901770D01*
X81753417Y-95935796D01*
X81682602Y-95930731D01*
X81625766Y-95888184D01*
X81605738Y-95848173D01*
X81589635Y-95793330D01*
X81589634Y-95793328D01*
X81587096Y-95784684D01*
X81515777Y-95673710D01*
X81512949Y-95669309D01*
X81512947Y-95669306D01*
X81508077Y-95661729D01*
X81494449Y-95649920D01*
X81404431Y-95571918D01*
X81404428Y-95571916D01*
X81397619Y-95566016D01*
X81264670Y-95505300D01*
X81255755Y-95504018D01*
X81255754Y-95504018D01*
X81124448Y-95485139D01*
X81124441Y-95485138D01*
X81120000Y-95484500D01*
X79520000Y-95484500D01*
X79446921Y-95489727D01*
X79393884Y-95505300D01*
X79315330Y-95528365D01*
X79315328Y-95528366D01*
X79306684Y-95530904D01*
X79299105Y-95535775D01*
X79191309Y-95605051D01*
X79191306Y-95605053D01*
X79183729Y-95609923D01*
X79177828Y-95616733D01*
X79093918Y-95713569D01*
X79093916Y-95713572D01*
X79088016Y-95720381D01*
X79084272Y-95728579D01*
X79067192Y-95765980D01*
X79027300Y-95853330D01*
X79026018Y-95862245D01*
X79026018Y-95862246D01*
X79007139Y-95993552D01*
X79007138Y-95993559D01*
X79006500Y-95998000D01*
X75944497Y-95998000D01*
X75946718Y-95989710D01*
X75948620Y-95978923D01*
X75967609Y-95761875D01*
X75967609Y-95750925D01*
X75948620Y-95533877D01*
X75946718Y-95523090D01*
X75890327Y-95312639D01*
X75886579Y-95302343D01*
X75794502Y-95104881D01*
X75789024Y-95095395D01*
X75752582Y-95043349D01*
X75742104Y-95034974D01*
X75728656Y-95042042D01*
X75027110Y-95743588D01*
X75019496Y-95757532D01*
X74352782Y-95757532D01*
X74356012Y-95712368D01*
X74384973Y-95667305D01*
X75370168Y-94682110D01*
X75376598Y-94670336D01*
X75367301Y-94658320D01*
X75316093Y-94622464D01*
X75306607Y-94616986D01*
X75109145Y-94524909D01*
X75098849Y-94521161D01*
X74888398Y-94464770D01*
X74877611Y-94462868D01*
X74660563Y-94443879D01*
X74649613Y-94443879D01*
X74432565Y-94462868D01*
X74421778Y-94464770D01*
X74211327Y-94521161D01*
X74201031Y-94524909D01*
X74003575Y-94616983D01*
X73994081Y-94622465D01*
X73992607Y-94623497D01*
X73991854Y-94623751D01*
X73989318Y-94625215D01*
X73989024Y-94624705D01*
X73925331Y-94646181D01*
X73856472Y-94628893D01*
X73837828Y-94615504D01*
X73739519Y-94530318D01*
X73739516Y-94530316D01*
X73732707Y-94524416D01*
X73724509Y-94520672D01*
X73607952Y-94467442D01*
X73607951Y-94467442D01*
X73599758Y-94463700D01*
X73590843Y-94462418D01*
X73590842Y-94462418D01*
X73459536Y-94443539D01*
X73459529Y-94443538D01*
X73455088Y-94442900D01*
X73389588Y-94442900D01*
X73321467Y-94422898D01*
X73274974Y-94369242D01*
X73263588Y-94316900D01*
X73263588Y-92469151D01*
X73283590Y-92401030D01*
X73300493Y-92380056D01*
X74617378Y-91063171D01*
X74629769Y-91052304D01*
X74647060Y-91039036D01*
X74653610Y-91034010D01*
X74751107Y-90906950D01*
X74773549Y-90852769D01*
X74787580Y-90818897D01*
X74809236Y-90766615D01*
X74809236Y-90766614D01*
X74812396Y-90758986D01*
X74813701Y-90749078D01*
X74832222Y-90608388D01*
X74833300Y-90600200D01*
X74829378Y-90570408D01*
X74828300Y-90553962D01*
X74828300Y-88990926D01*
X74829378Y-88974480D01*
X74832222Y-88952877D01*
X74832222Y-88952876D01*
X74833300Y-88944688D01*
X74827417Y-88900000D01*
X80722500Y-88900000D01*
X80742980Y-89160229D01*
X80744134Y-89165036D01*
X80744135Y-89165042D01*
X80779606Y-89312786D01*
X80803917Y-89414050D01*
X80903811Y-89655213D01*
X81040200Y-89877781D01*
X81209728Y-90076272D01*
X81408219Y-90245800D01*
X81630787Y-90382189D01*
X81807455Y-90455368D01*
X81853634Y-90474496D01*
X81871950Y-90482083D01*
X81901503Y-90489178D01*
X82120958Y-90541865D01*
X82120964Y-90541866D01*
X82125771Y-90543020D01*
X82386000Y-90563500D01*
X82646229Y-90543020D01*
X82651036Y-90541866D01*
X82651042Y-90541865D01*
X82870497Y-90489178D01*
X82900050Y-90482083D01*
X82918367Y-90474496D01*
X82964545Y-90455368D01*
X83141213Y-90382189D01*
X83363781Y-90245800D01*
X83562272Y-90076272D01*
X83731800Y-89877781D01*
X83868189Y-89655213D01*
X83968083Y-89414050D01*
X83992394Y-89312786D01*
X84027865Y-89165042D01*
X84027866Y-89165036D01*
X84029020Y-89160229D01*
X84049500Y-88900000D01*
X85622500Y-88900000D01*
X85642980Y-89160229D01*
X85644134Y-89165036D01*
X85644135Y-89165042D01*
X85679606Y-89312786D01*
X85703917Y-89414050D01*
X85803811Y-89655213D01*
X85940200Y-89877781D01*
X86109728Y-90076272D01*
X86308219Y-90245800D01*
X86530787Y-90382189D01*
X86707455Y-90455368D01*
X86753634Y-90474496D01*
X86771950Y-90482083D01*
X86801503Y-90489178D01*
X87020958Y-90541865D01*
X87020964Y-90541866D01*
X87025771Y-90543020D01*
X87286000Y-90563500D01*
X87546229Y-90543020D01*
X87551036Y-90541866D01*
X87551042Y-90541865D01*
X87770497Y-90489178D01*
X87800050Y-90482083D01*
X87818367Y-90474496D01*
X87864545Y-90455368D01*
X88041213Y-90382189D01*
X88263781Y-90245800D01*
X88462272Y-90076272D01*
X88631800Y-89877781D01*
X88768189Y-89655213D01*
X88868083Y-89414050D01*
X88892394Y-89312786D01*
X88927865Y-89165042D01*
X88927866Y-89165036D01*
X88929020Y-89160229D01*
X88949500Y-88900000D01*
X88929020Y-88639771D01*
X88924561Y-88621195D01*
X88869236Y-88390753D01*
X88868083Y-88385950D01*
X88768189Y-88144787D01*
X88631800Y-87922219D01*
X88462272Y-87723728D01*
X88263781Y-87554200D01*
X88041213Y-87417811D01*
X87800050Y-87317917D01*
X87753719Y-87306794D01*
X87551042Y-87258135D01*
X87551036Y-87258134D01*
X87546229Y-87256980D01*
X87286000Y-87236500D01*
X87025771Y-87256980D01*
X87020964Y-87258134D01*
X87020958Y-87258135D01*
X86818281Y-87306794D01*
X86771950Y-87317917D01*
X86530787Y-87417811D01*
X86308219Y-87554200D01*
X86109728Y-87723728D01*
X85940200Y-87922219D01*
X85803811Y-88144787D01*
X85703917Y-88385950D01*
X85702764Y-88390753D01*
X85647440Y-88621195D01*
X85642980Y-88639771D01*
X85622500Y-88900000D01*
X84049500Y-88900000D01*
X84029020Y-88639771D01*
X84024561Y-88621195D01*
X83969236Y-88390753D01*
X83968083Y-88385950D01*
X83868189Y-88144787D01*
X83731800Y-87922219D01*
X83562272Y-87723728D01*
X83363781Y-87554200D01*
X83141213Y-87417811D01*
X82900050Y-87317917D01*
X82853719Y-87306794D01*
X82651042Y-87258135D01*
X82651036Y-87258134D01*
X82646229Y-87256980D01*
X82386000Y-87236500D01*
X82125771Y-87256980D01*
X82120964Y-87258134D01*
X82120958Y-87258135D01*
X81918281Y-87306794D01*
X81871950Y-87317917D01*
X81630787Y-87417811D01*
X81408219Y-87554200D01*
X81209728Y-87723728D01*
X81040200Y-87922219D01*
X80903811Y-88144787D01*
X80803917Y-88385950D01*
X80802764Y-88390753D01*
X80747440Y-88621195D01*
X80742980Y-88639771D01*
X80722500Y-88900000D01*
X74827417Y-88900000D01*
X74812396Y-88785902D01*
X74775517Y-88696871D01*
X74751107Y-88637938D01*
X74653610Y-88510878D01*
X74629769Y-88492584D01*
X74617378Y-88481717D01*
X74040405Y-87904744D01*
X74006379Y-87842432D01*
X74003500Y-87815649D01*
X74003500Y-86614888D01*
X73998273Y-86541809D01*
X73957096Y-86401572D01*
X73932574Y-86363416D01*
X73882949Y-86286197D01*
X73882947Y-86286194D01*
X73878077Y-86278617D01*
X73859042Y-86262123D01*
X73774431Y-86188806D01*
X73774428Y-86188804D01*
X73767619Y-86182904D01*
X73672773Y-86139589D01*
X73642864Y-86125930D01*
X73642863Y-86125930D01*
X73634670Y-86122188D01*
X73625755Y-86120906D01*
X73625754Y-86120906D01*
X73494448Y-86102027D01*
X73494441Y-86102026D01*
X73490000Y-86101388D01*
X71890000Y-86101388D01*
X71816921Y-86106615D01*
X71751140Y-86125930D01*
X71685330Y-86145253D01*
X71685328Y-86145254D01*
X71676684Y-86147792D01*
X71643093Y-86169380D01*
X71561309Y-86221939D01*
X71561306Y-86221941D01*
X71553729Y-86226811D01*
X71547828Y-86233621D01*
X71463918Y-86330457D01*
X71463916Y-86330460D01*
X71458016Y-86337269D01*
X71397300Y-86470218D01*
X71396018Y-86479133D01*
X71396018Y-86479134D01*
X71377139Y-86610440D01*
X71377138Y-86610447D01*
X71376500Y-86614888D01*
X71376500Y-88214888D01*
X71381727Y-88287967D01*
X71396164Y-88337134D01*
X71420300Y-88419334D01*
X71422904Y-88428204D01*
X71427775Y-88435783D01*
X71497051Y-88543579D01*
X71497053Y-88543582D01*
X71501923Y-88551159D01*
X71508733Y-88557060D01*
X71508734Y-88557061D01*
X71538089Y-88582498D01*
X71576472Y-88642224D01*
X71576471Y-88713221D01*
X71558788Y-88749992D01*
X71556066Y-88753880D01*
X71550583Y-88763375D01*
X71458509Y-88960831D01*
X71454761Y-88971127D01*
X71398370Y-89181578D01*
X71396468Y-89192365D01*
X71377479Y-89409413D01*
X71377479Y-89420363D01*
X71396468Y-89637411D01*
X71398370Y-89648198D01*
X71454761Y-89858649D01*
X71458509Y-89868945D01*
X71550586Y-90066407D01*
X71556064Y-90075893D01*
X71592506Y-90127939D01*
X71602984Y-90136314D01*
X71616432Y-90129246D01*
X72600905Y-89144773D01*
X72663217Y-89110747D01*
X72734032Y-89115812D01*
X72779095Y-89144773D01*
X72960115Y-89325793D01*
X72994141Y-89388105D01*
X72989076Y-89458920D01*
X72960115Y-89503983D01*
X71974920Y-90489178D01*
X71968490Y-90500952D01*
X71977787Y-90512968D01*
X72028995Y-90548824D01*
X72038481Y-90554302D01*
X72235943Y-90646379D01*
X72246239Y-90650127D01*
X72456690Y-90706518D01*
X72467477Y-90708420D01*
X72684525Y-90727409D01*
X72695475Y-90727409D01*
X72912523Y-90708420D01*
X72928733Y-90705562D01*
X72929128Y-90707803D01*
X72990368Y-90709272D01*
X73049156Y-90749078D01*
X73077091Y-90814348D01*
X73065304Y-90884359D01*
X73041074Y-90918377D01*
X72257510Y-91701941D01*
X72245119Y-91712808D01*
X72221278Y-91731102D01*
X72123781Y-91858162D01*
X72120621Y-91865792D01*
X72118880Y-91869996D01*
X72118877Y-91870000D01*
X72118878Y-91870000D01*
X72062492Y-92006126D01*
X72041588Y-92164912D01*
X72042666Y-92173100D01*
X72042666Y-92173101D01*
X72045510Y-92194704D01*
X72046588Y-92211150D01*
X72046588Y-94316900D01*
X72026586Y-94385021D01*
X71972930Y-94431514D01*
X71920588Y-94442900D01*
X71855088Y-94442900D01*
X71782009Y-94448127D01*
X71716228Y-94467442D01*
X71650418Y-94486765D01*
X71650416Y-94486766D01*
X71641772Y-94489304D01*
X71629694Y-94497066D01*
X71526397Y-94563451D01*
X71526394Y-94563453D01*
X71518817Y-94568323D01*
X71512916Y-94575133D01*
X71429006Y-94671969D01*
X71429004Y-94671972D01*
X71423104Y-94678781D01*
X71362388Y-94811730D01*
X71361106Y-94820645D01*
X71361106Y-94820646D01*
X71342227Y-94951952D01*
X71342226Y-94951959D01*
X71341588Y-94956400D01*
X52835957Y-94956400D01*
X52377126Y-94497569D01*
X52376198Y-94496632D01*
X52325738Y-94445104D01*
X52325737Y-94445103D01*
X52320810Y-94440072D01*
X52284370Y-94416588D01*
X52274035Y-94409162D01*
X52240149Y-94382111D01*
X52209967Y-94367520D01*
X52196554Y-94359993D01*
X52174291Y-94345646D01*
X52174290Y-94345646D01*
X52168365Y-94341827D01*
X52127631Y-94327001D01*
X52115889Y-94322041D01*
X52076867Y-94303177D01*
X52044191Y-94295633D01*
X52029455Y-94291269D01*
X51997942Y-94279799D01*
X51954953Y-94274368D01*
X51942400Y-94272133D01*
X51934512Y-94270312D01*
X51900155Y-94262380D01*
X51893117Y-94262355D01*
X51893113Y-94262355D01*
X51873527Y-94262287D01*
X51860555Y-94262242D01*
X51858402Y-94262170D01*
X51856965Y-94261989D01*
X51788106Y-94261989D01*
X51787667Y-94261988D01*
X51787710Y-94261988D01*
X51718797Y-94261748D01*
X51717940Y-94261940D01*
X51717027Y-94261989D01*
X50032623Y-94261989D01*
X50031304Y-94261982D01*
X49952190Y-94261154D01*
X49909833Y-94270312D01*
X49897250Y-94272373D01*
X49861167Y-94276420D01*
X49861166Y-94276420D01*
X49854169Y-94277205D01*
X49822502Y-94288233D01*
X49807705Y-94292391D01*
X49781812Y-94297989D01*
X49781804Y-94297992D01*
X49774925Y-94299479D01*
X49768546Y-94302454D01*
X49768545Y-94302454D01*
X49735644Y-94317797D01*
X49723827Y-94322595D01*
X49689550Y-94334531D01*
X49689548Y-94334532D01*
X49682897Y-94336848D01*
X49654451Y-94354623D01*
X49640949Y-94361954D01*
X49610558Y-94376126D01*
X49604997Y-94380440D01*
X49604993Y-94380442D01*
X49576314Y-94402688D01*
X49565858Y-94409982D01*
X49535068Y-94429221D01*
X49535064Y-94429224D01*
X49529095Y-94432954D01*
X49524099Y-94437916D01*
X49524097Y-94437917D01*
X49500991Y-94460863D01*
X49499424Y-94462329D01*
X49498278Y-94463218D01*
X49449660Y-94511836D01*
X49449349Y-94512146D01*
X49400408Y-94560747D01*
X49399938Y-94561488D01*
X49399325Y-94562171D01*
X48941901Y-95019595D01*
X48879589Y-95053621D01*
X48852806Y-95056500D01*
X47934888Y-95056500D01*
X47861809Y-95061727D01*
X47783723Y-95084655D01*
X47730218Y-95100365D01*
X47730216Y-95100366D01*
X47721572Y-95102904D01*
X47713993Y-95107775D01*
X47606197Y-95177051D01*
X47606194Y-95177053D01*
X47598617Y-95181923D01*
X47592716Y-95188733D01*
X47508806Y-95285569D01*
X47508804Y-95285572D01*
X47502904Y-95292381D01*
X47442188Y-95425330D01*
X47440906Y-95434245D01*
X47440906Y-95434246D01*
X47422027Y-95565552D01*
X47422026Y-95565559D01*
X47421388Y-95570000D01*
X47421388Y-97170000D01*
X47426615Y-97243079D01*
X47443436Y-97300365D01*
X47454636Y-97338509D01*
X47467792Y-97383316D01*
X47484307Y-97409013D01*
X47541939Y-97498691D01*
X47541941Y-97498694D01*
X47546811Y-97506271D01*
X47586006Y-97540234D01*
X47650457Y-97596082D01*
X47650460Y-97596084D01*
X47657269Y-97601984D01*
X47665467Y-97605728D01*
X47763467Y-97650483D01*
X47790218Y-97662700D01*
X47799133Y-97663982D01*
X47799134Y-97663982D01*
X47930440Y-97682861D01*
X47930447Y-97682862D01*
X47934888Y-97683500D01*
X49534888Y-97683500D01*
X49607967Y-97678273D01*
X49702612Y-97650483D01*
X49739558Y-97639635D01*
X49739560Y-97639634D01*
X49748204Y-97637096D01*
X49808259Y-97598501D01*
X49863579Y-97562949D01*
X49863582Y-97562947D01*
X49871159Y-97558077D01*
X49877061Y-97551266D01*
X49902498Y-97521911D01*
X49962224Y-97483528D01*
X50033221Y-97483529D01*
X50069992Y-97501212D01*
X50073880Y-97503934D01*
X50083375Y-97509417D01*
X50280831Y-97601491D01*
X50291127Y-97605239D01*
X50501578Y-97661630D01*
X50512365Y-97663532D01*
X50729413Y-97682521D01*
X50740363Y-97682521D01*
X50957411Y-97663532D01*
X50968198Y-97661630D01*
X51178649Y-97605239D01*
X51188945Y-97601491D01*
X51386407Y-97509414D01*
X51395893Y-97503936D01*
X51447939Y-97467494D01*
X51456314Y-97457016D01*
X51449246Y-97443568D01*
X50464773Y-96459095D01*
X50430747Y-96396783D01*
X50435812Y-96325968D01*
X50464773Y-96280905D01*
X50645793Y-96099885D01*
X50708105Y-96065859D01*
X50778920Y-96070924D01*
X50823983Y-96099885D01*
X51809178Y-97085080D01*
X51820952Y-97091510D01*
X51832968Y-97082213D01*
X51868824Y-97031005D01*
X51874302Y-97021519D01*
X51966379Y-96824057D01*
X51970128Y-96813758D01*
X52005867Y-96680380D01*
X52042819Y-96619757D01*
X52106680Y-96588736D01*
X52177174Y-96597164D01*
X52216669Y-96623896D01*
X54018595Y-98425822D01*
X54052621Y-98488134D01*
X54055500Y-98514917D01*
X54055500Y-100298518D01*
X54035498Y-100366639D01*
X54018595Y-100387613D01*
X53582795Y-100823413D01*
X53520483Y-100857439D01*
X53449668Y-100852374D01*
X53404605Y-100823413D01*
X50965073Y-98383881D01*
X50964145Y-98382944D01*
X50913684Y-98331415D01*
X50913683Y-98331414D01*
X50908756Y-98326383D01*
X50872316Y-98302899D01*
X50861981Y-98295473D01*
X50828095Y-98268422D01*
X50797913Y-98253831D01*
X50784500Y-98246304D01*
X50762237Y-98231957D01*
X50762236Y-98231957D01*
X50756311Y-98228138D01*
X50715577Y-98213312D01*
X50703835Y-98208352D01*
X50664813Y-98189488D01*
X50632137Y-98181944D01*
X50617401Y-98177580D01*
X50585888Y-98166110D01*
X50542899Y-98160679D01*
X50530346Y-98158444D01*
X50525676Y-98157366D01*
X50488101Y-98148691D01*
X50481063Y-98148666D01*
X50481059Y-98148666D01*
X50461473Y-98148598D01*
X50448501Y-98148553D01*
X50446348Y-98148481D01*
X50444911Y-98148300D01*
X50376052Y-98148300D01*
X50375613Y-98148299D01*
X50375656Y-98148299D01*
X50306743Y-98148059D01*
X50305886Y-98148251D01*
X50304973Y-98148300D01*
X45523881Y-98148300D01*
X45455760Y-98128298D01*
X45434786Y-98111395D01*
X44153405Y-96830013D01*
X44119379Y-96767701D01*
X44116500Y-96740918D01*
X44116500Y-95494858D01*
X44133381Y-95431858D01*
X44138220Y-95423477D01*
X44138221Y-95423476D01*
X44141524Y-95417754D01*
X44200538Y-95236127D01*
X44220500Y-95046200D01*
X44200538Y-94856273D01*
X44198100Y-94848768D01*
X44143566Y-94680931D01*
X44141524Y-94674646D01*
X44112691Y-94624705D01*
X44075764Y-94560747D01*
X44046037Y-94509258D01*
X44028071Y-94489304D01*
X43922673Y-94372248D01*
X43922672Y-94372247D01*
X43918251Y-94367337D01*
X43912909Y-94363456D01*
X43912907Y-94363454D01*
X43769092Y-94258967D01*
X43769091Y-94258966D01*
X43763750Y-94255086D01*
X43757722Y-94252402D01*
X43757720Y-94252401D01*
X43595318Y-94180095D01*
X43595317Y-94180095D01*
X43589287Y-94177410D01*
X43495887Y-94157557D01*
X43408944Y-94139076D01*
X43408939Y-94139076D01*
X43402487Y-94137704D01*
X43211513Y-94137704D01*
X43205061Y-94139076D01*
X43205056Y-94139076D01*
X43118113Y-94157557D01*
X43024713Y-94177410D01*
X43018683Y-94180095D01*
X43018682Y-94180095D01*
X42856280Y-94252401D01*
X42856278Y-94252402D01*
X42850250Y-94255086D01*
X42844909Y-94258966D01*
X42844908Y-94258967D01*
X42701093Y-94363454D01*
X42701091Y-94363456D01*
X42695749Y-94367337D01*
X42691328Y-94372247D01*
X42691327Y-94372248D01*
X42585930Y-94489304D01*
X42567963Y-94509258D01*
X42538236Y-94560747D01*
X42501310Y-94624705D01*
X42472476Y-94674646D01*
X42470434Y-94680931D01*
X42415901Y-94848768D01*
X42413462Y-94856273D01*
X42393500Y-95046200D01*
X42413462Y-95236127D01*
X42472476Y-95417754D01*
X42482620Y-95435323D01*
X42499500Y-95498322D01*
X42499500Y-97129776D01*
X42499493Y-97131095D01*
X42498665Y-97210209D01*
X42507823Y-97252566D01*
X42509884Y-97265149D01*
X42514716Y-97308230D01*
X42525744Y-97339897D01*
X42529902Y-97354694D01*
X42535500Y-97380587D01*
X42535503Y-97380595D01*
X42536990Y-97387474D01*
X42539965Y-97393853D01*
X42539965Y-97393854D01*
X42555308Y-97426755D01*
X42560106Y-97438572D01*
X42570880Y-97469510D01*
X42574359Y-97479502D01*
X42592134Y-97507948D01*
X42599465Y-97521450D01*
X42613637Y-97551841D01*
X42617951Y-97557402D01*
X42617953Y-97557406D01*
X42640199Y-97586085D01*
X42647493Y-97596541D01*
X42666732Y-97627331D01*
X42666735Y-97627335D01*
X42670465Y-97633304D01*
X42675427Y-97638300D01*
X42675428Y-97638302D01*
X42698374Y-97661408D01*
X42699840Y-97662975D01*
X42700729Y-97664121D01*
X42749347Y-97712739D01*
X42749657Y-97713050D01*
X42798258Y-97761991D01*
X42798999Y-97762461D01*
X42799682Y-97763074D01*
X44566328Y-99529720D01*
X44567256Y-99530657D01*
X44622644Y-99587217D01*
X44628558Y-99591029D01*
X44628560Y-99591030D01*
X44642930Y-99600291D01*
X44659084Y-99610701D01*
X44669417Y-99618126D01*
X44703306Y-99645179D01*
X44725823Y-99656064D01*
X44733489Y-99659770D01*
X44746903Y-99667298D01*
X44769163Y-99681643D01*
X44775089Y-99685462D01*
X44781708Y-99687871D01*
X44781710Y-99687872D01*
X44798158Y-99693858D01*
X44815821Y-99700287D01*
X44827560Y-99705245D01*
X44866587Y-99724112D01*
X44899263Y-99731656D01*
X44913999Y-99736020D01*
X44945512Y-99747490D01*
X44982491Y-99752162D01*
X44988502Y-99752921D01*
X45001055Y-99755156D01*
X45043299Y-99764909D01*
X45050337Y-99764934D01*
X45050341Y-99764934D01*
X45069645Y-99765001D01*
X45082904Y-99765047D01*
X45085052Y-99765118D01*
X45086489Y-99765300D01*
X45155170Y-99765300D01*
X45155609Y-99765301D01*
X45224657Y-99765542D01*
X45225518Y-99765350D01*
X45226436Y-99765300D01*
X50007518Y-99765300D01*
X50075639Y-99785302D01*
X50096613Y-99802205D01*
X52721328Y-102426920D01*
X52722256Y-102427857D01*
X52777644Y-102484417D01*
X52814084Y-102507901D01*
X52824417Y-102515326D01*
X52858306Y-102542379D01*
X52888489Y-102556970D01*
X52901903Y-102564498D01*
X52924163Y-102578843D01*
X52930089Y-102582662D01*
X52936708Y-102585071D01*
X52936710Y-102585072D01*
X52953158Y-102591058D01*
X52970821Y-102597487D01*
X52982560Y-102602445D01*
X52996447Y-102609159D01*
X53015242Y-102618245D01*
X53015245Y-102618246D01*
X53021587Y-102621312D01*
X53054269Y-102628857D01*
X53069005Y-102633223D01*
X53093892Y-102642281D01*
X53093896Y-102642282D01*
X53100512Y-102644690D01*
X53107498Y-102645573D01*
X53107500Y-102645573D01*
X53143502Y-102650121D01*
X53156054Y-102652357D01*
X53191428Y-102660524D01*
X53191431Y-102660524D01*
X53198299Y-102662110D01*
X53205344Y-102662135D01*
X53205347Y-102662135D01*
X53223631Y-102662198D01*
X53237919Y-102662248D01*
X53240057Y-102662319D01*
X53241489Y-102662500D01*
X53251117Y-102662500D01*
X53302366Y-102673393D01*
X53413313Y-102722790D01*
X53506713Y-102742643D01*
X53593656Y-102761124D01*
X53593661Y-102761124D01*
X53600113Y-102762496D01*
X53791087Y-102762496D01*
X53797539Y-102761124D01*
X53797544Y-102761124D01*
X53884487Y-102742643D01*
X53977887Y-102722790D01*
X53983918Y-102720105D01*
X54146320Y-102647799D01*
X54146322Y-102647798D01*
X54152350Y-102645114D01*
X54172342Y-102630589D01*
X54301507Y-102536746D01*
X54301509Y-102536744D01*
X54306851Y-102532863D01*
X54311273Y-102527952D01*
X54430218Y-102395850D01*
X54430219Y-102395849D01*
X54434637Y-102390942D01*
X54509846Y-102260676D01*
X54526820Y-102231277D01*
X54526821Y-102231276D01*
X54530124Y-102225554D01*
X54550948Y-102161464D01*
X54581686Y-102111306D01*
X54739550Y-101953442D01*
X54801862Y-101919416D01*
X54872677Y-101924481D01*
X54917740Y-101953442D01*
X59412597Y-106448299D01*
X59419739Y-106456065D01*
X59452914Y-106495322D01*
X59458333Y-106499465D01*
X59458335Y-106499467D01*
X59517447Y-106544662D01*
X59519843Y-106546541D01*
X59583171Y-106597458D01*
X59589290Y-106600495D01*
X59592090Y-106602286D01*
X59592446Y-106602535D01*
X59592834Y-106602749D01*
X59595666Y-106604464D01*
X59601084Y-106608607D01*
X59607264Y-106611489D01*
X59607266Y-106611490D01*
X59674687Y-106642929D01*
X59677458Y-106644263D01*
X59750235Y-106680389D01*
X59756859Y-106682040D01*
X59759983Y-106683190D01*
X59760376Y-106683354D01*
X59760802Y-106683479D01*
X59763931Y-106684544D01*
X59770124Y-106687432D01*
X59849481Y-106705171D01*
X59852362Y-106705852D01*
X59931209Y-106725511D01*
X59938031Y-106725702D01*
X59941332Y-106726154D01*
X59942236Y-106726316D01*
X59947100Y-106726991D01*
X59952147Y-106728119D01*
X59958962Y-106728500D01*
X60036449Y-106728500D01*
X60039967Y-106728549D01*
X60117651Y-106730719D01*
X60124355Y-106729440D01*
X60130994Y-106728906D01*
X60141100Y-106728500D01*
X71248212Y-106728500D01*
X71316333Y-106748502D01*
X71362826Y-106802158D01*
X71369107Y-106819000D01*
X71387992Y-106883316D01*
X71392863Y-106890895D01*
X71462139Y-106998691D01*
X71462141Y-106998694D01*
X71467011Y-107006271D01*
X71577469Y-107101984D01*
X71585669Y-107105729D01*
X71591540Y-107109502D01*
X71638033Y-107163158D01*
X71648137Y-107233431D01*
X71618644Y-107298012D01*
X71558917Y-107336396D01*
X71523419Y-107341500D01*
X58114639Y-107341500D01*
X58046518Y-107321498D01*
X58025544Y-107304595D01*
X55834971Y-105114022D01*
X55824104Y-105101631D01*
X55810836Y-105084340D01*
X55805810Y-105077790D01*
X55678750Y-104980293D01*
X55671120Y-104977133D01*
X55671119Y-104977132D01*
X55617461Y-104954907D01*
X55617459Y-104954906D01*
X55538417Y-104922165D01*
X55530786Y-104919004D01*
X55372000Y-104898100D01*
X55363812Y-104899178D01*
X55363811Y-104899178D01*
X55342208Y-104902022D01*
X55325762Y-104903100D01*
X54527904Y-104903100D01*
X54459783Y-104883098D01*
X54434272Y-104861414D01*
X54408451Y-104832737D01*
X54403109Y-104828856D01*
X54403107Y-104828854D01*
X54259292Y-104724367D01*
X54259291Y-104724366D01*
X54253950Y-104720486D01*
X54247922Y-104717802D01*
X54247920Y-104717801D01*
X54085518Y-104645495D01*
X54085517Y-104645495D01*
X54079487Y-104642810D01*
X53986087Y-104622957D01*
X53899144Y-104604476D01*
X53899139Y-104604476D01*
X53892687Y-104603104D01*
X53701713Y-104603104D01*
X53695261Y-104604476D01*
X53695256Y-104604476D01*
X53608313Y-104622957D01*
X53514913Y-104642810D01*
X53508883Y-104645495D01*
X53508882Y-104645495D01*
X53346480Y-104717801D01*
X53346478Y-104717802D01*
X53340450Y-104720486D01*
X53335109Y-104724366D01*
X53335108Y-104724367D01*
X53191293Y-104828854D01*
X53191291Y-104828856D01*
X53185949Y-104832737D01*
X53181528Y-104837647D01*
X53181527Y-104837648D01*
X53109245Y-104917926D01*
X53058163Y-104974658D01*
X53036892Y-105011500D01*
X52970175Y-105127058D01*
X52962676Y-105140046D01*
X52960634Y-105146331D01*
X52913500Y-105291396D01*
X52903662Y-105321673D01*
X52883700Y-105511600D01*
X52884390Y-105518165D01*
X52902957Y-105694815D01*
X52903662Y-105701527D01*
X52905702Y-105707805D01*
X52905702Y-105707806D01*
X52911591Y-105725929D01*
X52962676Y-105883154D01*
X52965979Y-105888876D01*
X52965980Y-105888877D01*
X52987656Y-105926420D01*
X53058163Y-106048542D01*
X53062581Y-106053449D01*
X53062582Y-106053450D01*
X53152860Y-106153714D01*
X53185949Y-106190463D01*
X53191291Y-106194344D01*
X53191293Y-106194346D01*
X53335108Y-106298833D01*
X53340450Y-106302714D01*
X53346478Y-106305398D01*
X53346480Y-106305399D01*
X53439347Y-106346746D01*
X53514913Y-106380390D01*
X53608313Y-106400243D01*
X53695256Y-106418724D01*
X53695261Y-106418724D01*
X53701713Y-106420096D01*
X53892687Y-106420096D01*
X53899139Y-106418724D01*
X53899144Y-106418724D01*
X53986087Y-106400243D01*
X54079487Y-106380390D01*
X54155053Y-106346746D01*
X54247920Y-106305399D01*
X54247922Y-106305398D01*
X54253950Y-106302714D01*
X54259292Y-106298833D01*
X54403107Y-106194346D01*
X54403109Y-106194344D01*
X54408451Y-106190463D01*
X54434270Y-106161788D01*
X54494713Y-106124550D01*
X54527904Y-106120100D01*
X55067761Y-106120100D01*
X55135882Y-106140102D01*
X55156856Y-106157005D01*
X57347429Y-108347578D01*
X57358296Y-108359969D01*
X57376590Y-108383810D01*
X57498845Y-108477620D01*
X57498847Y-108477622D01*
X57503650Y-108481307D01*
X57503075Y-108482056D01*
X57547134Y-108528265D01*
X57560569Y-108597979D01*
X57534181Y-108663890D01*
X57476348Y-108705071D01*
X57435140Y-108712000D01*
X35274000Y-108712000D01*
X35205879Y-108691998D01*
X35159386Y-108638342D01*
X35148000Y-108586000D01*
X35148000Y-106238551D01*
X35168002Y-106170430D01*
X35221658Y-106123937D01*
X35291932Y-106113833D01*
X35356512Y-106143327D01*
X35382619Y-106174693D01*
X35387762Y-106183441D01*
X35585894Y-106443057D01*
X35598567Y-106456066D01*
X35806973Y-106670000D01*
X35813781Y-106676989D01*
X35883770Y-106733362D01*
X36065168Y-106879471D01*
X36065173Y-106879475D01*
X36068121Y-106881849D01*
X36345230Y-107054670D01*
X36641094Y-107192948D01*
X36951428Y-107294681D01*
X37271736Y-107358394D01*
X37275508Y-107358681D01*
X37275516Y-107358682D01*
X37593601Y-107382878D01*
X37593606Y-107382878D01*
X37597378Y-107383165D01*
X37923638Y-107368635D01*
X37983436Y-107358682D01*
X38242048Y-107315638D01*
X38242053Y-107315637D01*
X38245789Y-107315015D01*
X38559165Y-107223080D01*
X38562632Y-107221590D01*
X38562636Y-107221589D01*
X38855743Y-107095660D01*
X38855745Y-107095659D01*
X38859227Y-107094163D01*
X39141628Y-106930132D01*
X39205586Y-106881849D01*
X39399250Y-106735647D01*
X39402277Y-106733362D01*
X39596053Y-106546561D01*
X39609506Y-106533592D01*
X40441500Y-106533592D01*
X40441500Y-107478225D01*
X40456179Y-107622739D01*
X40514413Y-107808563D01*
X40608823Y-107978883D01*
X40735552Y-108126740D01*
X40889423Y-108246094D01*
X41064151Y-108332071D01*
X41070329Y-108333680D01*
X41070331Y-108333681D01*
X41246415Y-108379548D01*
X41246420Y-108379549D01*
X41252598Y-108381158D01*
X41338608Y-108385666D01*
X41440685Y-108391016D01*
X41440690Y-108391016D01*
X41447067Y-108391350D01*
X41639613Y-108362230D01*
X41729242Y-108329253D01*
X41816385Y-108297191D01*
X41816390Y-108297189D01*
X41822371Y-108294988D01*
X41987875Y-108192371D01*
X42129365Y-108058571D01*
X42241060Y-107899053D01*
X42318399Y-107720333D01*
X42358222Y-107529713D01*
X42358500Y-107524408D01*
X42358500Y-106579775D01*
X42353809Y-106533592D01*
X49081500Y-106533592D01*
X49081500Y-107478225D01*
X49096179Y-107622739D01*
X49154413Y-107808563D01*
X49248823Y-107978883D01*
X49375552Y-108126740D01*
X49529423Y-108246094D01*
X49704151Y-108332071D01*
X49710329Y-108333680D01*
X49710331Y-108333681D01*
X49886415Y-108379548D01*
X49886420Y-108379549D01*
X49892598Y-108381158D01*
X49978608Y-108385666D01*
X50080685Y-108391016D01*
X50080690Y-108391016D01*
X50087067Y-108391350D01*
X50279613Y-108362230D01*
X50369242Y-108329253D01*
X50456385Y-108297191D01*
X50456390Y-108297189D01*
X50462371Y-108294988D01*
X50627875Y-108192371D01*
X50769365Y-108058571D01*
X50881060Y-107899053D01*
X50958399Y-107720333D01*
X50998222Y-107529713D01*
X50998500Y-107524408D01*
X50998500Y-106579775D01*
X50985525Y-106452038D01*
X50984466Y-106441609D01*
X50984466Y-106441607D01*
X50983821Y-106435261D01*
X50925587Y-106249437D01*
X50831177Y-106079117D01*
X50704448Y-105931260D01*
X50550577Y-105811906D01*
X50375849Y-105725929D01*
X50369671Y-105724320D01*
X50369669Y-105724319D01*
X50193585Y-105678452D01*
X50193580Y-105678451D01*
X50187402Y-105676842D01*
X50101392Y-105672334D01*
X49999315Y-105666984D01*
X49999310Y-105666984D01*
X49992933Y-105666650D01*
X49800387Y-105695770D01*
X49794394Y-105697975D01*
X49623615Y-105760809D01*
X49623610Y-105760811D01*
X49617629Y-105763012D01*
X49545864Y-105807508D01*
X49481687Y-105847300D01*
X49452125Y-105865629D01*
X49310635Y-105999429D01*
X49306973Y-106004659D01*
X49306972Y-106004660D01*
X49276246Y-106048542D01*
X49198940Y-106158947D01*
X49183242Y-106195224D01*
X49127491Y-106324057D01*
X49121601Y-106337667D01*
X49120296Y-106343914D01*
X49097876Y-106451233D01*
X49081778Y-106528287D01*
X49081500Y-106533592D01*
X42353809Y-106533592D01*
X42345525Y-106452038D01*
X42344466Y-106441609D01*
X42344466Y-106441607D01*
X42343821Y-106435261D01*
X42285587Y-106249437D01*
X42191177Y-106079117D01*
X42064448Y-105931260D01*
X41910577Y-105811906D01*
X41735849Y-105725929D01*
X41729671Y-105724320D01*
X41729669Y-105724319D01*
X41553585Y-105678452D01*
X41553580Y-105678451D01*
X41547402Y-105676842D01*
X41461392Y-105672334D01*
X41359315Y-105666984D01*
X41359310Y-105666984D01*
X41352933Y-105666650D01*
X41160387Y-105695770D01*
X41154394Y-105697975D01*
X40983615Y-105760809D01*
X40983610Y-105760811D01*
X40977629Y-105763012D01*
X40905864Y-105807508D01*
X40841687Y-105847300D01*
X40812125Y-105865629D01*
X40670635Y-105999429D01*
X40666973Y-106004659D01*
X40666972Y-106004660D01*
X40636246Y-106048542D01*
X40558940Y-106158947D01*
X40543242Y-106195224D01*
X40487491Y-106324057D01*
X40481601Y-106337667D01*
X40480296Y-106343914D01*
X40457876Y-106451233D01*
X40441778Y-106528287D01*
X40441500Y-106533592D01*
X39609506Y-106533592D01*
X39634672Y-106509332D01*
X39634673Y-106509331D01*
X39637399Y-106506703D01*
X39843589Y-106253439D01*
X40000557Y-106004660D01*
X40015835Y-105980446D01*
X40015838Y-105980440D01*
X40017858Y-105977239D01*
X40157684Y-105682102D01*
X40261040Y-105372305D01*
X40326429Y-105052335D01*
X40352905Y-104726827D01*
X40353500Y-104670000D01*
X40352512Y-104653601D01*
X40334075Y-104347787D01*
X40334075Y-104347783D01*
X40333847Y-104344009D01*
X40333120Y-104340025D01*
X40304269Y-104182056D01*
X40275173Y-104022739D01*
X40178327Y-103710846D01*
X40044713Y-103412846D01*
X39876266Y-103133057D01*
X39873939Y-103130073D01*
X39873934Y-103130066D01*
X39677756Y-102878518D01*
X39675426Y-102875530D01*
X39445103Y-102643997D01*
X39272461Y-102507898D01*
X39191601Y-102444153D01*
X39191597Y-102444150D01*
X39188631Y-102441812D01*
X38909728Y-102271902D01*
X38906284Y-102270336D01*
X38906280Y-102270334D01*
X38781481Y-102213592D01*
X40441500Y-102213592D01*
X40441500Y-103458225D01*
X40441823Y-103461404D01*
X40452550Y-103567008D01*
X40456179Y-103602739D01*
X40514413Y-103788563D01*
X40608823Y-103958883D01*
X40735552Y-104106740D01*
X40889423Y-104226094D01*
X41064151Y-104312071D01*
X41070329Y-104313680D01*
X41070331Y-104313681D01*
X41246415Y-104359548D01*
X41246420Y-104359549D01*
X41252598Y-104361158D01*
X41338608Y-104365666D01*
X41440685Y-104371016D01*
X41440690Y-104371016D01*
X41447067Y-104371350D01*
X41639613Y-104342230D01*
X41665080Y-104332860D01*
X41816385Y-104277191D01*
X41816390Y-104277189D01*
X41822371Y-104274988D01*
X41907533Y-104222185D01*
X41982453Y-104175733D01*
X41982454Y-104175732D01*
X41987875Y-104172371D01*
X41997340Y-104163421D01*
X42124728Y-104042956D01*
X42129365Y-104038571D01*
X42138978Y-104024843D01*
X42237396Y-103884286D01*
X42237397Y-103884285D01*
X42241060Y-103879053D01*
X42314995Y-103708200D01*
X42315865Y-103706189D01*
X42315865Y-103706188D01*
X42318399Y-103700333D01*
X42340114Y-103596391D01*
X42357231Y-103514458D01*
X42357231Y-103514454D01*
X42358222Y-103509713D01*
X42358500Y-103504408D01*
X42358500Y-102259775D01*
X42353809Y-102213592D01*
X49081500Y-102213592D01*
X49081500Y-103458225D01*
X49081823Y-103461404D01*
X49092550Y-103567008D01*
X49096179Y-103602739D01*
X49154413Y-103788563D01*
X49248823Y-103958883D01*
X49375552Y-104106740D01*
X49529423Y-104226094D01*
X49704151Y-104312071D01*
X49710329Y-104313680D01*
X49710331Y-104313681D01*
X49886415Y-104359548D01*
X49886420Y-104359549D01*
X49892598Y-104361158D01*
X49978608Y-104365666D01*
X50080685Y-104371016D01*
X50080690Y-104371016D01*
X50087067Y-104371350D01*
X50279613Y-104342230D01*
X50305080Y-104332860D01*
X50456385Y-104277191D01*
X50456390Y-104277189D01*
X50462371Y-104274988D01*
X50547533Y-104222185D01*
X50622453Y-104175733D01*
X50622454Y-104175732D01*
X50627875Y-104172371D01*
X50637340Y-104163421D01*
X50764728Y-104042956D01*
X50769365Y-104038571D01*
X50778978Y-104024843D01*
X50877396Y-103884286D01*
X50877397Y-103884285D01*
X50881060Y-103879053D01*
X50954995Y-103708200D01*
X50955865Y-103706189D01*
X50955865Y-103706188D01*
X50958399Y-103700333D01*
X50980114Y-103596391D01*
X50997231Y-103514458D01*
X50997231Y-103514454D01*
X50998222Y-103509713D01*
X50998500Y-103504408D01*
X50998500Y-102259775D01*
X50985137Y-102128218D01*
X50984466Y-102121609D01*
X50984466Y-102121607D01*
X50983821Y-102115261D01*
X50925587Y-101929437D01*
X50831177Y-101759117D01*
X50704448Y-101611260D01*
X50550577Y-101491906D01*
X50432153Y-101433634D01*
X50381576Y-101408747D01*
X50375849Y-101405929D01*
X50369671Y-101404320D01*
X50369669Y-101404319D01*
X50193585Y-101358452D01*
X50193580Y-101358451D01*
X50187402Y-101356842D01*
X50101392Y-101352334D01*
X49999315Y-101346984D01*
X49999310Y-101346984D01*
X49992933Y-101346650D01*
X49800387Y-101375770D01*
X49794394Y-101377975D01*
X49623615Y-101440809D01*
X49623610Y-101440811D01*
X49617629Y-101443012D01*
X49452125Y-101545629D01*
X49310635Y-101679429D01*
X49198940Y-101838947D01*
X49121601Y-102017667D01*
X49120296Y-102023914D01*
X49099057Y-102125580D01*
X49081778Y-102208287D01*
X49081500Y-102213592D01*
X42353809Y-102213592D01*
X42345137Y-102128218D01*
X42344466Y-102121609D01*
X42344466Y-102121607D01*
X42343821Y-102115261D01*
X42285587Y-101929437D01*
X42191177Y-101759117D01*
X42064448Y-101611260D01*
X41910577Y-101491906D01*
X41792153Y-101433634D01*
X41741576Y-101408747D01*
X41735849Y-101405929D01*
X41729671Y-101404320D01*
X41729669Y-101404319D01*
X41553585Y-101358452D01*
X41553580Y-101358451D01*
X41547402Y-101356842D01*
X41461392Y-101352334D01*
X41359315Y-101346984D01*
X41359310Y-101346984D01*
X41352933Y-101346650D01*
X41160387Y-101375770D01*
X41154394Y-101377975D01*
X40983615Y-101440809D01*
X40983610Y-101440811D01*
X40977629Y-101443012D01*
X40812125Y-101545629D01*
X40670635Y-101679429D01*
X40558940Y-101838947D01*
X40481601Y-102017667D01*
X40480296Y-102023914D01*
X40459057Y-102125580D01*
X40441778Y-102208287D01*
X40441500Y-102213592D01*
X38781481Y-102213592D01*
X38759377Y-102203542D01*
X38612431Y-102136730D01*
X38301049Y-102038252D01*
X38158785Y-102011500D01*
X37983816Y-101978597D01*
X37983811Y-101978596D01*
X37980092Y-101977897D01*
X37654208Y-101956537D01*
X37650428Y-101956745D01*
X37650427Y-101956745D01*
X37554605Y-101962019D01*
X37328118Y-101974483D01*
X37324391Y-101975144D01*
X37324387Y-101975144D01*
X37210857Y-101995265D01*
X37006546Y-102031474D01*
X37002930Y-102032576D01*
X37002922Y-102032578D01*
X36697774Y-102125580D01*
X36697767Y-102125583D01*
X36694150Y-102126685D01*
X36395454Y-102258737D01*
X36392200Y-102260673D01*
X36392194Y-102260676D01*
X36118046Y-102423778D01*
X36114787Y-102425717D01*
X36111786Y-102428032D01*
X36111782Y-102428035D01*
X36045219Y-102479388D01*
X35856212Y-102625206D01*
X35853511Y-102627865D01*
X35853504Y-102627871D01*
X35638617Y-102839410D01*
X35623477Y-102854314D01*
X35621113Y-102857281D01*
X35621110Y-102857284D01*
X35422619Y-103106375D01*
X35419951Y-103109723D01*
X35417960Y-103112953D01*
X35381260Y-103172491D01*
X35328487Y-103219984D01*
X35258416Y-103231408D01*
X35193292Y-103203134D01*
X35153793Y-103144140D01*
X35148000Y-103106375D01*
X35148000Y-90470000D01*
X41521388Y-90470000D01*
X41521388Y-92070000D01*
X41526615Y-92143079D01*
X41546602Y-92211150D01*
X41561812Y-92262949D01*
X41567792Y-92283316D01*
X41592314Y-92321472D01*
X41641939Y-92398691D01*
X41641941Y-92398694D01*
X41646811Y-92406271D01*
X41686006Y-92440234D01*
X41750457Y-92496082D01*
X41750460Y-92496084D01*
X41757269Y-92501984D01*
X41890218Y-92562700D01*
X41899133Y-92563982D01*
X41899134Y-92563982D01*
X42030440Y-92582861D01*
X42030447Y-92582862D01*
X42034888Y-92583500D01*
X43634888Y-92583500D01*
X43707967Y-92578273D01*
X43786053Y-92555345D01*
X43839558Y-92539635D01*
X43839560Y-92539634D01*
X43848204Y-92537096D01*
X43953928Y-92469151D01*
X43963579Y-92462949D01*
X43963582Y-92462947D01*
X43971159Y-92458077D01*
X43977061Y-92451266D01*
X44002498Y-92421911D01*
X44062224Y-92383528D01*
X44133221Y-92383529D01*
X44169992Y-92401212D01*
X44173880Y-92403934D01*
X44183375Y-92409417D01*
X44380831Y-92501491D01*
X44391127Y-92505239D01*
X44601578Y-92561630D01*
X44612365Y-92563532D01*
X44829413Y-92582521D01*
X44840363Y-92582521D01*
X45057411Y-92563532D01*
X45068198Y-92561630D01*
X45278649Y-92505239D01*
X45288945Y-92501491D01*
X45486407Y-92409414D01*
X45495893Y-92403936D01*
X45547939Y-92367494D01*
X45556314Y-92357016D01*
X45549246Y-92343568D01*
X44564773Y-91359095D01*
X44530747Y-91296783D01*
X44532582Y-91271132D01*
X45199296Y-91271132D01*
X45199427Y-91272965D01*
X45203678Y-91279580D01*
X45909178Y-91985080D01*
X45920952Y-91991510D01*
X45932968Y-91982213D01*
X45968824Y-91931005D01*
X45974302Y-91921519D01*
X46066379Y-91724057D01*
X46070127Y-91713761D01*
X46126518Y-91503310D01*
X46128420Y-91492523D01*
X46147409Y-91275475D01*
X46147409Y-91264525D01*
X46128420Y-91047477D01*
X46126518Y-91036690D01*
X46070127Y-90826239D01*
X46066379Y-90815943D01*
X45974302Y-90618481D01*
X45968824Y-90608995D01*
X45932382Y-90556949D01*
X45921904Y-90548574D01*
X45908456Y-90555642D01*
X45206910Y-91257188D01*
X45199296Y-91271132D01*
X44532582Y-91271132D01*
X44535812Y-91225968D01*
X44564773Y-91180905D01*
X45549968Y-90195710D01*
X45556398Y-90183936D01*
X45547101Y-90171920D01*
X45495893Y-90136064D01*
X45486407Y-90130586D01*
X45288945Y-90038509D01*
X45278649Y-90034761D01*
X45068198Y-89978370D01*
X45057411Y-89976468D01*
X44840363Y-89957479D01*
X44829413Y-89957479D01*
X44612365Y-89976468D01*
X44601578Y-89978370D01*
X44391127Y-90034761D01*
X44380831Y-90038509D01*
X44183375Y-90130583D01*
X44173881Y-90136065D01*
X44172407Y-90137097D01*
X44171654Y-90137351D01*
X44169118Y-90138815D01*
X44168824Y-90138305D01*
X44105131Y-90159781D01*
X44036272Y-90142493D01*
X44017628Y-90129104D01*
X43919319Y-90043918D01*
X43919316Y-90043916D01*
X43912507Y-90038016D01*
X43846289Y-90007775D01*
X43787752Y-89981042D01*
X43787751Y-89981042D01*
X43779558Y-89977300D01*
X43770643Y-89976018D01*
X43770642Y-89976018D01*
X43639336Y-89957139D01*
X43639329Y-89957138D01*
X43634888Y-89956500D01*
X42034888Y-89956500D01*
X41961809Y-89961727D01*
X41908772Y-89977300D01*
X41830218Y-90000365D01*
X41830216Y-90000366D01*
X41821572Y-90002904D01*
X41813993Y-90007775D01*
X41706197Y-90077051D01*
X41706194Y-90077053D01*
X41698617Y-90081923D01*
X41692716Y-90088733D01*
X41608806Y-90185569D01*
X41608804Y-90185572D01*
X41602904Y-90192381D01*
X41599160Y-90200579D01*
X41551867Y-90304137D01*
X41542188Y-90325330D01*
X41540906Y-90334245D01*
X41540906Y-90334246D01*
X41522027Y-90465552D01*
X41522026Y-90465559D01*
X41521388Y-90470000D01*
X35148000Y-90470000D01*
X35148000Y-88038551D01*
X35168002Y-87970430D01*
X35221658Y-87923937D01*
X35291932Y-87913833D01*
X35356512Y-87943327D01*
X35382619Y-87974693D01*
X35387762Y-87983441D01*
X35585894Y-88243057D01*
X35631851Y-88290233D01*
X35766257Y-88428204D01*
X35813781Y-88476989D01*
X35913193Y-88557061D01*
X36065168Y-88679471D01*
X36065173Y-88679475D01*
X36068121Y-88681849D01*
X36345230Y-88854670D01*
X36641094Y-88992948D01*
X36951428Y-89094681D01*
X37271736Y-89158394D01*
X37275508Y-89158681D01*
X37275516Y-89158682D01*
X37593601Y-89182878D01*
X37593606Y-89182878D01*
X37597378Y-89183165D01*
X37923638Y-89168635D01*
X37983436Y-89158682D01*
X38242048Y-89115638D01*
X38242053Y-89115637D01*
X38245789Y-89115015D01*
X38559165Y-89023080D01*
X38562632Y-89021590D01*
X38562636Y-89021589D01*
X38855743Y-88895660D01*
X38855745Y-88895659D01*
X38859227Y-88894163D01*
X39141628Y-88730132D01*
X39205586Y-88681849D01*
X39319585Y-88595788D01*
X39402277Y-88533362D01*
X39637399Y-88306703D01*
X39692030Y-88239600D01*
X48870500Y-88239600D01*
X48871190Y-88246165D01*
X48883916Y-88367241D01*
X48890462Y-88429527D01*
X48892502Y-88435805D01*
X48892502Y-88435806D01*
X48909317Y-88487558D01*
X48949476Y-88611154D01*
X49044963Y-88776542D01*
X49143137Y-88885576D01*
X49173853Y-88949581D01*
X49175500Y-88969884D01*
X49175500Y-89107762D01*
X49174422Y-89124208D01*
X49170500Y-89154000D01*
X49191404Y-89312786D01*
X49218870Y-89379093D01*
X49252693Y-89460750D01*
X49350190Y-89587810D01*
X49356740Y-89592836D01*
X49374031Y-89606104D01*
X49386422Y-89616971D01*
X49756549Y-89987098D01*
X49767416Y-89999489D01*
X49785710Y-90023330D01*
X49912770Y-90120827D01*
X49920400Y-90123987D01*
X49920401Y-90123988D01*
X49936331Y-90130586D01*
X49966473Y-90143071D01*
X50060734Y-90182116D01*
X50068922Y-90183194D01*
X50086963Y-90185569D01*
X50219520Y-90203020D01*
X50227708Y-90201942D01*
X50227709Y-90201942D01*
X50249312Y-90199098D01*
X50265758Y-90198020D01*
X51824223Y-90198020D01*
X51840669Y-90199098D01*
X51862272Y-90201942D01*
X51862273Y-90201942D01*
X51870461Y-90203020D01*
X51878649Y-90201942D01*
X51889003Y-90200579D01*
X52003018Y-90185569D01*
X52021059Y-90183194D01*
X52029247Y-90182116D01*
X52123508Y-90143071D01*
X52169580Y-90123988D01*
X52169581Y-90123987D01*
X52177211Y-90120827D01*
X52304271Y-90023330D01*
X52322565Y-89999489D01*
X52333432Y-89987098D01*
X52368725Y-89951805D01*
X52431037Y-89917779D01*
X52457820Y-89914900D01*
X53289761Y-89914900D01*
X53357882Y-89934902D01*
X53378856Y-89951805D01*
X53761885Y-90334834D01*
X53795911Y-90397146D01*
X53798445Y-90420719D01*
X53798100Y-90424000D01*
X53798790Y-90430565D01*
X53815759Y-90592011D01*
X53818062Y-90613927D01*
X53820102Y-90620205D01*
X53820102Y-90620206D01*
X53838694Y-90677427D01*
X53877076Y-90795554D01*
X53880379Y-90801276D01*
X53880380Y-90801277D01*
X53890553Y-90818897D01*
X53972563Y-90960942D01*
X53976981Y-90965849D01*
X53976982Y-90965850D01*
X54095927Y-91097952D01*
X54100349Y-91102863D01*
X54105691Y-91106744D01*
X54105693Y-91106746D01*
X54191240Y-91168899D01*
X54254850Y-91215114D01*
X54260878Y-91217798D01*
X54260880Y-91217799D01*
X54423282Y-91290105D01*
X54429313Y-91292790D01*
X54522713Y-91312643D01*
X54609656Y-91331124D01*
X54609661Y-91331124D01*
X54616113Y-91332496D01*
X54807087Y-91332496D01*
X54813539Y-91331124D01*
X54813544Y-91331124D01*
X54900487Y-91312643D01*
X54993887Y-91292790D01*
X54999918Y-91290105D01*
X55162320Y-91217799D01*
X55162322Y-91217798D01*
X55168350Y-91215114D01*
X55231960Y-91168899D01*
X55317507Y-91106746D01*
X55317509Y-91106744D01*
X55322851Y-91102863D01*
X55327273Y-91097952D01*
X55446218Y-90965850D01*
X55446219Y-90965849D01*
X55450637Y-90960942D01*
X55532647Y-90818897D01*
X55542820Y-90801277D01*
X55542821Y-90801276D01*
X55546124Y-90795554D01*
X55584506Y-90677427D01*
X55603098Y-90620206D01*
X55603098Y-90620205D01*
X55605138Y-90613927D01*
X55614902Y-90521024D01*
X55641915Y-90455368D01*
X55700136Y-90414738D01*
X55771081Y-90412035D01*
X55829307Y-90445100D01*
X56086663Y-90702456D01*
X56120689Y-90764768D01*
X56123223Y-90788341D01*
X56122878Y-90791622D01*
X56142840Y-90981549D01*
X56144880Y-90987827D01*
X56144880Y-90987828D01*
X56169800Y-91064525D01*
X56201854Y-91163176D01*
X56297341Y-91328564D01*
X56301759Y-91333471D01*
X56301760Y-91333472D01*
X56358057Y-91395996D01*
X56425127Y-91470485D01*
X56430469Y-91474366D01*
X56430471Y-91474368D01*
X56498863Y-91524057D01*
X56579628Y-91582736D01*
X56585656Y-91585420D01*
X56585658Y-91585421D01*
X56748060Y-91657727D01*
X56754091Y-91660412D01*
X56847491Y-91680265D01*
X56934434Y-91698746D01*
X56934439Y-91698746D01*
X56940891Y-91700118D01*
X57131865Y-91700118D01*
X57138317Y-91698746D01*
X57138322Y-91698746D01*
X57225265Y-91680265D01*
X57318665Y-91660412D01*
X57324696Y-91657727D01*
X57487098Y-91585421D01*
X57487100Y-91585420D01*
X57493128Y-91582736D01*
X57573893Y-91524057D01*
X57642285Y-91474368D01*
X57642287Y-91474366D01*
X57647629Y-91470485D01*
X57714699Y-91395996D01*
X57770996Y-91333472D01*
X57770997Y-91333471D01*
X57775415Y-91328564D01*
X57870902Y-91163176D01*
X57902956Y-91064525D01*
X57927876Y-90987828D01*
X57927876Y-90987827D01*
X57929916Y-90981549D01*
X57949878Y-90791622D01*
X57935006Y-90650127D01*
X57930606Y-90608259D01*
X57930606Y-90608258D01*
X57929916Y-90601695D01*
X57926770Y-90592011D01*
X57872944Y-90426353D01*
X57870902Y-90420068D01*
X57784260Y-90270000D01*
X65321388Y-90270000D01*
X65321388Y-91870000D01*
X65326615Y-91943079D01*
X65328519Y-91949562D01*
X65364543Y-92072250D01*
X65367792Y-92083316D01*
X65372663Y-92090895D01*
X65441939Y-92198691D01*
X65441941Y-92198694D01*
X65446811Y-92206271D01*
X65486006Y-92240234D01*
X65550457Y-92296082D01*
X65550460Y-92296084D01*
X65557269Y-92301984D01*
X65690218Y-92362700D01*
X65699133Y-92363982D01*
X65699134Y-92363982D01*
X65830440Y-92382861D01*
X65830447Y-92382862D01*
X65834888Y-92383500D01*
X67434888Y-92383500D01*
X67507967Y-92378273D01*
X67612366Y-92347619D01*
X67639558Y-92339635D01*
X67639560Y-92339634D01*
X67648204Y-92337096D01*
X67731887Y-92283316D01*
X67763579Y-92262949D01*
X67763582Y-92262947D01*
X67771159Y-92258077D01*
X67777061Y-92251266D01*
X67802498Y-92221911D01*
X67862224Y-92183528D01*
X67933221Y-92183529D01*
X67969992Y-92201212D01*
X67973880Y-92203934D01*
X67983375Y-92209417D01*
X68180831Y-92301491D01*
X68191127Y-92305239D01*
X68401578Y-92361630D01*
X68412365Y-92363532D01*
X68629413Y-92382521D01*
X68640363Y-92382521D01*
X68857411Y-92363532D01*
X68868198Y-92361630D01*
X69078649Y-92305239D01*
X69088945Y-92301491D01*
X69286407Y-92209414D01*
X69295893Y-92203936D01*
X69347939Y-92167494D01*
X69356314Y-92157016D01*
X69349246Y-92143568D01*
X68364773Y-91159095D01*
X68330747Y-91096783D01*
X68332582Y-91071132D01*
X68999296Y-91071132D01*
X68999427Y-91072965D01*
X69003678Y-91079580D01*
X69709178Y-91785080D01*
X69720952Y-91791510D01*
X69732968Y-91782213D01*
X69768824Y-91731005D01*
X69774302Y-91721519D01*
X69866379Y-91524057D01*
X69870127Y-91513761D01*
X69926518Y-91303310D01*
X69928420Y-91292523D01*
X69947409Y-91075475D01*
X69947409Y-91064525D01*
X69928420Y-90847477D01*
X69926518Y-90836690D01*
X69870127Y-90626239D01*
X69866379Y-90615943D01*
X69774302Y-90418481D01*
X69768824Y-90408995D01*
X69732382Y-90356949D01*
X69721904Y-90348574D01*
X69708456Y-90355642D01*
X69006910Y-91057188D01*
X68999296Y-91071132D01*
X68332582Y-91071132D01*
X68335812Y-91025968D01*
X68364773Y-90980905D01*
X69349968Y-89995710D01*
X69356398Y-89983936D01*
X69347101Y-89971920D01*
X69295893Y-89936064D01*
X69286407Y-89930586D01*
X69088945Y-89838509D01*
X69078649Y-89834761D01*
X68868198Y-89778370D01*
X68857411Y-89776468D01*
X68640363Y-89757479D01*
X68629413Y-89757479D01*
X68412365Y-89776468D01*
X68401578Y-89778370D01*
X68191127Y-89834761D01*
X68180831Y-89838509D01*
X67983375Y-89930583D01*
X67973881Y-89936065D01*
X67972407Y-89937097D01*
X67971654Y-89937351D01*
X67969118Y-89938815D01*
X67968824Y-89938305D01*
X67905131Y-89959781D01*
X67836272Y-89942493D01*
X67817628Y-89929104D01*
X67719319Y-89843918D01*
X67719316Y-89843916D01*
X67712507Y-89838016D01*
X67612824Y-89792492D01*
X67587752Y-89781042D01*
X67587751Y-89781042D01*
X67579558Y-89777300D01*
X67570643Y-89776018D01*
X67570642Y-89776018D01*
X67439336Y-89757139D01*
X67439329Y-89757138D01*
X67434888Y-89756500D01*
X65834888Y-89756500D01*
X65761809Y-89761727D01*
X65708772Y-89777300D01*
X65630218Y-89800365D01*
X65630216Y-89800366D01*
X65621572Y-89802904D01*
X65593050Y-89821234D01*
X65506197Y-89877051D01*
X65506194Y-89877053D01*
X65498617Y-89881923D01*
X65492716Y-89888733D01*
X65408806Y-89985569D01*
X65408804Y-89985572D01*
X65402904Y-89992381D01*
X65399160Y-90000579D01*
X65346474Y-90115946D01*
X65342188Y-90125330D01*
X65340906Y-90134245D01*
X65340906Y-90134246D01*
X65322027Y-90265552D01*
X65322026Y-90265559D01*
X65321388Y-90270000D01*
X57784260Y-90270000D01*
X57775415Y-90254680D01*
X57767420Y-90245800D01*
X57652051Y-90117670D01*
X57652050Y-90117669D01*
X57647629Y-90112759D01*
X57642287Y-90108878D01*
X57642285Y-90108876D01*
X57498470Y-90004389D01*
X57498469Y-90004388D01*
X57493128Y-90000508D01*
X57487100Y-89997824D01*
X57487098Y-89997823D01*
X57324696Y-89925517D01*
X57324695Y-89925517D01*
X57318665Y-89922832D01*
X57225265Y-89902979D01*
X57138322Y-89884498D01*
X57138317Y-89884498D01*
X57131865Y-89883126D01*
X57040621Y-89883126D01*
X56972500Y-89863124D01*
X56951526Y-89846221D01*
X55763405Y-88658100D01*
X55729379Y-88595788D01*
X55726500Y-88569005D01*
X55726500Y-87979284D01*
X55746502Y-87911163D01*
X55758857Y-87894982D01*
X55857037Y-87785942D01*
X55938646Y-87644592D01*
X59241500Y-87644592D01*
X59241500Y-88889225D01*
X59256179Y-89033739D01*
X59314413Y-89219563D01*
X59317511Y-89225152D01*
X59355675Y-89294001D01*
X59408823Y-89389883D01*
X59535552Y-89537740D01*
X59689423Y-89657094D01*
X59864151Y-89743071D01*
X59870329Y-89744680D01*
X59870331Y-89744681D01*
X60046415Y-89790548D01*
X60046420Y-89790549D01*
X60052598Y-89792158D01*
X60138608Y-89796666D01*
X60240685Y-89802016D01*
X60240690Y-89802016D01*
X60247067Y-89802350D01*
X60439613Y-89773230D01*
X60529242Y-89740253D01*
X60616385Y-89708191D01*
X60616390Y-89708189D01*
X60622371Y-89705988D01*
X60732974Y-89637411D01*
X60782453Y-89606733D01*
X60782454Y-89606732D01*
X60787875Y-89603371D01*
X60799016Y-89592836D01*
X60924728Y-89473956D01*
X60929365Y-89469571D01*
X60935542Y-89460750D01*
X61037396Y-89315286D01*
X61037397Y-89315285D01*
X61041060Y-89310053D01*
X61118399Y-89131333D01*
X61140114Y-89027391D01*
X61157231Y-88945458D01*
X61157231Y-88945454D01*
X61158222Y-88940713D01*
X61158500Y-88935408D01*
X61158500Y-87690775D01*
X61145790Y-87565647D01*
X61144466Y-87552609D01*
X61144466Y-87552607D01*
X61143821Y-87546261D01*
X61085587Y-87360437D01*
X61064363Y-87322147D01*
X60994270Y-87195697D01*
X60991177Y-87190117D01*
X60864448Y-87042260D01*
X60710577Y-86922906D01*
X60535849Y-86836929D01*
X60529671Y-86835320D01*
X60529669Y-86835319D01*
X60353585Y-86789452D01*
X60353580Y-86789451D01*
X60347402Y-86787842D01*
X60261392Y-86783334D01*
X60159315Y-86777984D01*
X60159310Y-86777984D01*
X60152933Y-86777650D01*
X59960387Y-86806770D01*
X59954394Y-86808975D01*
X59783615Y-86871809D01*
X59783610Y-86871811D01*
X59777629Y-86874012D01*
X59772207Y-86877374D01*
X59624449Y-86968988D01*
X59612125Y-86976629D01*
X59607492Y-86981010D01*
X59607491Y-86981011D01*
X59524943Y-87059073D01*
X59470635Y-87110429D01*
X59466973Y-87115659D01*
X59466972Y-87115660D01*
X59367211Y-87258135D01*
X59358940Y-87269947D01*
X59281601Y-87448667D01*
X59280296Y-87454914D01*
X59245692Y-87620554D01*
X59241778Y-87639287D01*
X59241500Y-87644592D01*
X55938646Y-87644592D01*
X55940390Y-87641571D01*
X55949220Y-87626277D01*
X55949221Y-87626276D01*
X55952524Y-87620554D01*
X55988844Y-87508771D01*
X56009498Y-87445206D01*
X56009498Y-87445205D01*
X56011538Y-87438927D01*
X56022395Y-87335634D01*
X56030810Y-87255565D01*
X56031500Y-87249000D01*
X56018543Y-87125723D01*
X56012228Y-87065637D01*
X56012228Y-87065636D01*
X56011538Y-87059073D01*
X55982714Y-86970360D01*
X55954566Y-86883731D01*
X55952524Y-86877446D01*
X55930759Y-86839747D01*
X55903780Y-86793019D01*
X55857037Y-86712058D01*
X55785705Y-86632835D01*
X55733673Y-86575048D01*
X55733672Y-86575047D01*
X55729251Y-86570137D01*
X55723909Y-86566256D01*
X55723907Y-86566254D01*
X55580092Y-86461767D01*
X55580091Y-86461766D01*
X55574750Y-86457886D01*
X55568722Y-86455202D01*
X55568720Y-86455201D01*
X55406318Y-86382895D01*
X55406317Y-86382895D01*
X55400287Y-86380210D01*
X55306887Y-86360357D01*
X55219944Y-86341876D01*
X55219939Y-86341876D01*
X55213487Y-86340504D01*
X55022513Y-86340504D01*
X55016061Y-86341876D01*
X55016056Y-86341876D01*
X54929113Y-86360357D01*
X54835713Y-86380210D01*
X54829683Y-86382895D01*
X54829682Y-86382895D01*
X54667280Y-86455201D01*
X54667278Y-86455202D01*
X54661250Y-86457886D01*
X54655909Y-86461766D01*
X54655908Y-86461767D01*
X54512093Y-86566254D01*
X54512091Y-86566256D01*
X54506749Y-86570137D01*
X54502328Y-86575047D01*
X54502327Y-86575048D01*
X54450296Y-86632835D01*
X54378963Y-86712058D01*
X54332220Y-86793019D01*
X54305242Y-86839747D01*
X54283476Y-86877446D01*
X54281434Y-86883731D01*
X54253287Y-86970360D01*
X54224462Y-87059073D01*
X54223772Y-87065636D01*
X54223772Y-87065637D01*
X54217457Y-87125723D01*
X54204500Y-87249000D01*
X54205190Y-87255565D01*
X54213606Y-87335634D01*
X54224462Y-87438927D01*
X54226502Y-87445205D01*
X54226502Y-87445206D01*
X54247156Y-87508771D01*
X54283476Y-87620554D01*
X54286779Y-87626276D01*
X54286780Y-87626277D01*
X54295610Y-87641571D01*
X54378963Y-87785942D01*
X54477137Y-87894976D01*
X54507853Y-87958981D01*
X54509500Y-87979284D01*
X54509500Y-88827006D01*
X54508422Y-88843452D01*
X54504500Y-88873244D01*
X54525404Y-89032030D01*
X54528565Y-89039661D01*
X54530702Y-89047636D01*
X54528409Y-89048251D01*
X54534698Y-89106727D01*
X54502921Y-89170215D01*
X54441864Y-89206445D01*
X54370912Y-89203913D01*
X54321604Y-89173455D01*
X54056971Y-88908822D01*
X54046104Y-88896431D01*
X54032836Y-88879140D01*
X54027810Y-88872590D01*
X53900750Y-88775093D01*
X53831174Y-88746274D01*
X53752786Y-88713804D01*
X53705570Y-88707588D01*
X53631980Y-88697900D01*
X53594000Y-88692900D01*
X53585812Y-88693978D01*
X53585811Y-88693978D01*
X53564208Y-88696822D01*
X53547762Y-88697900D01*
X52644500Y-88697900D01*
X52576379Y-88677898D01*
X52529886Y-88624242D01*
X52518500Y-88571900D01*
X52518500Y-87690775D01*
X52505790Y-87565647D01*
X52504466Y-87552609D01*
X52504466Y-87552607D01*
X52503821Y-87546261D01*
X52445587Y-87360437D01*
X52424363Y-87322147D01*
X52354270Y-87195697D01*
X52351177Y-87190117D01*
X52224448Y-87042260D01*
X52070577Y-86922906D01*
X51895849Y-86836929D01*
X51889671Y-86835320D01*
X51889669Y-86835319D01*
X51713585Y-86789452D01*
X51713580Y-86789451D01*
X51707402Y-86787842D01*
X51621392Y-86783334D01*
X51519315Y-86777984D01*
X51519310Y-86777984D01*
X51512933Y-86777650D01*
X51320387Y-86806770D01*
X51314394Y-86808975D01*
X51143615Y-86871809D01*
X51143610Y-86871811D01*
X51137629Y-86874012D01*
X51132207Y-86877374D01*
X50984449Y-86968988D01*
X50972125Y-86976629D01*
X50967492Y-86981010D01*
X50967491Y-86981011D01*
X50884943Y-87059073D01*
X50830635Y-87110429D01*
X50826973Y-87115659D01*
X50826972Y-87115660D01*
X50727211Y-87258135D01*
X50718940Y-87269947D01*
X50641601Y-87448667D01*
X50628879Y-87509565D01*
X50626992Y-87518596D01*
X50593482Y-87581186D01*
X50531453Y-87615724D01*
X50460598Y-87611244D01*
X50410018Y-87577138D01*
X50399672Y-87565647D01*
X50395251Y-87560737D01*
X50389909Y-87556856D01*
X50389907Y-87556854D01*
X50246092Y-87452367D01*
X50246091Y-87452366D01*
X50240750Y-87448486D01*
X50234722Y-87445802D01*
X50234720Y-87445801D01*
X50072318Y-87373495D01*
X50072317Y-87373495D01*
X50066287Y-87370810D01*
X49950790Y-87346260D01*
X49885944Y-87332476D01*
X49885939Y-87332476D01*
X49879487Y-87331104D01*
X49688513Y-87331104D01*
X49682061Y-87332476D01*
X49682056Y-87332476D01*
X49617210Y-87346260D01*
X49501713Y-87370810D01*
X49495683Y-87373495D01*
X49495682Y-87373495D01*
X49333280Y-87445801D01*
X49333278Y-87445802D01*
X49327250Y-87448486D01*
X49321909Y-87452366D01*
X49321908Y-87452367D01*
X49178093Y-87556854D01*
X49178091Y-87556856D01*
X49172749Y-87560737D01*
X49168328Y-87565647D01*
X49168327Y-87565648D01*
X49064214Y-87681278D01*
X49044963Y-87702658D01*
X48949476Y-87868046D01*
X48934599Y-87913833D01*
X48913043Y-87980177D01*
X48890462Y-88049673D01*
X48889772Y-88056236D01*
X48889772Y-88056237D01*
X48876568Y-88181863D01*
X48870500Y-88239600D01*
X39692030Y-88239600D01*
X39843589Y-88053439D01*
X39933358Y-87911163D01*
X40015835Y-87780446D01*
X40015838Y-87780440D01*
X40017858Y-87777239D01*
X40157684Y-87482102D01*
X40261040Y-87172305D01*
X40326429Y-86852335D01*
X40352905Y-86526827D01*
X40353280Y-86491051D01*
X40353477Y-86472221D01*
X40353477Y-86472214D01*
X40353500Y-86470000D01*
X40352659Y-86456037D01*
X40334075Y-86147787D01*
X40334075Y-86147783D01*
X40333847Y-86144009D01*
X40326259Y-86102458D01*
X40280547Y-85852167D01*
X40275173Y-85822739D01*
X40178327Y-85510846D01*
X40044713Y-85212846D01*
X39876266Y-84933057D01*
X39873939Y-84930073D01*
X39873934Y-84930066D01*
X39705224Y-84713739D01*
X39675426Y-84675530D01*
X39445103Y-84443997D01*
X39188631Y-84241812D01*
X38909728Y-84071902D01*
X38906284Y-84070336D01*
X38906280Y-84070334D01*
X38794938Y-84019710D01*
X38612431Y-83936730D01*
X38301049Y-83838252D01*
X38158785Y-83811500D01*
X37983816Y-83778597D01*
X37983811Y-83778596D01*
X37980092Y-83777897D01*
X37654208Y-83756537D01*
X37650428Y-83756745D01*
X37650427Y-83756745D01*
X37554605Y-83762019D01*
X37328118Y-83774483D01*
X37324391Y-83775144D01*
X37324387Y-83775144D01*
X37210857Y-83795265D01*
X37006546Y-83831474D01*
X37002930Y-83832576D01*
X37002922Y-83832578D01*
X36697774Y-83925580D01*
X36697767Y-83925583D01*
X36694150Y-83926685D01*
X36395454Y-84058737D01*
X36392200Y-84060673D01*
X36392194Y-84060676D01*
X36246348Y-84147446D01*
X36114787Y-84225717D01*
X36111786Y-84228032D01*
X36111782Y-84228035D01*
X36078158Y-84253976D01*
X35856212Y-84425206D01*
X35853511Y-84427865D01*
X35853504Y-84427871D01*
X35657610Y-84620713D01*
X35623477Y-84654314D01*
X35621113Y-84657281D01*
X35621110Y-84657284D01*
X35524410Y-84778635D01*
X35419951Y-84909723D01*
X35417960Y-84912953D01*
X35381260Y-84972491D01*
X35328487Y-85019984D01*
X35258416Y-85031408D01*
X35193292Y-85003134D01*
X35153793Y-84944140D01*
X35148000Y-84906375D01*
X35148000Y-82676000D01*
X35168002Y-82607879D01*
X35221658Y-82561386D01*
X35274000Y-82550000D01*
X43285261Y-82550000D01*
X43353382Y-82570002D01*
G37*
%TD.AperFunction*%
%TA.AperFunction,Conductor*%
G36*
X96530282Y-99903502D02*
G01*
X96576775Y-99957158D01*
X96586879Y-100027432D01*
X96557385Y-100092012D01*
X96551256Y-100098595D01*
X89345256Y-107304595D01*
X89282944Y-107338621D01*
X89256161Y-107341500D01*
X75162795Y-107341500D01*
X75094674Y-107321498D01*
X75048181Y-107267842D01*
X75038077Y-107197568D01*
X75067571Y-107132988D01*
X75109545Y-107101305D01*
X75306607Y-107009414D01*
X75316093Y-107003936D01*
X75368139Y-106967494D01*
X75376514Y-106957016D01*
X75369446Y-106943568D01*
X74384973Y-105959095D01*
X74350947Y-105896783D01*
X74352782Y-105871132D01*
X75019496Y-105871132D01*
X75019627Y-105872965D01*
X75023878Y-105879580D01*
X75729378Y-106585080D01*
X75741152Y-106591510D01*
X75753168Y-106582213D01*
X75789024Y-106531005D01*
X75794502Y-106521519D01*
X75886579Y-106324057D01*
X75890327Y-106313761D01*
X75946718Y-106103310D01*
X75948620Y-106092523D01*
X75967609Y-105875475D01*
X75967609Y-105864525D01*
X75948620Y-105647477D01*
X75946718Y-105636690D01*
X75890327Y-105426239D01*
X75886579Y-105415943D01*
X75794502Y-105218481D01*
X75789024Y-105208995D01*
X75752582Y-105156949D01*
X75742104Y-105148574D01*
X75728656Y-105155642D01*
X75027110Y-105857188D01*
X75019496Y-105871132D01*
X74352782Y-105871132D01*
X74356012Y-105825968D01*
X74384973Y-105780905D01*
X75360673Y-104805205D01*
X75422985Y-104771179D01*
X75449768Y-104768300D01*
X90809546Y-104768300D01*
X90820088Y-104768742D01*
X90871297Y-104773042D01*
X90951829Y-104762296D01*
X90954829Y-104761934D01*
X90982906Y-104758884D01*
X91028834Y-104753895D01*
X91028838Y-104753894D01*
X91035624Y-104753157D01*
X91042096Y-104750979D01*
X91045347Y-104750264D01*
X91045772Y-104750189D01*
X91046195Y-104750066D01*
X91049410Y-104749276D01*
X91056174Y-104748374D01*
X91062582Y-104746042D01*
X91062589Y-104746040D01*
X91132508Y-104720592D01*
X91135393Y-104719581D01*
X91197142Y-104698800D01*
X91205935Y-104695841D01*
X91205937Y-104695840D01*
X91212397Y-104693666D01*
X91218242Y-104690154D01*
X91221266Y-104688757D01*
X91221661Y-104688594D01*
X91222031Y-104688392D01*
X91225027Y-104686918D01*
X91231441Y-104684583D01*
X91299195Y-104641585D01*
X91300027Y-104641057D01*
X91302646Y-104639439D01*
X91335705Y-104619575D01*
X91372271Y-104597604D01*
X91377229Y-104592915D01*
X91379873Y-104590909D01*
X91380641Y-104590375D01*
X91384557Y-104587413D01*
X91388921Y-104584643D01*
X91394009Y-104580093D01*
X91448796Y-104525306D01*
X91451318Y-104522853D01*
X91502830Y-104474141D01*
X91502832Y-104474139D01*
X91507788Y-104469452D01*
X91511622Y-104463811D01*
X91515951Y-104458724D01*
X91522808Y-104451294D01*
X96053697Y-99920405D01*
X96116009Y-99886379D01*
X96142792Y-99883500D01*
X96462161Y-99883500D01*
X96530282Y-99903502D01*
G37*
%TD.AperFunction*%
%TD*%
M02*
