%TF.GenerationSoftware,KiCad,Pcbnew,(5.99.0-10847-g28909c1a72)*%
%TF.CreationDate,2021-07-19T23:24:54+02:00*%
%TF.ProjectId,Project Hub,50726f6a-6563-4742-9048-75622e6b6963,rev?*%
%TF.SameCoordinates,Original*%
%TF.FileFunction,Paste,Top*%
%TF.FilePolarity,Positive*%
%FSLAX46Y46*%
G04 Gerber Fmt 4.6, Leading zero omitted, Abs format (unit mm)*
G04 Created by KiCad (PCBNEW (5.99.0-10847-g28909c1a72)) date 2021-07-19 23:24:54*
%MOMM*%
%LPD*%
G01*
G04 APERTURE LIST*
G04 Aperture macros list*
%AMRoundRect*
0 Rectangle with rounded corners*
0 $1 Rounding radius*
0 $2 $3 $4 $5 $6 $7 $8 $9 X,Y pos of 4 corners*
0 Add a 4 corners polygon primitive as box body*
4,1,4,$2,$3,$4,$5,$6,$7,$8,$9,$2,$3,0*
0 Add four circle primitives for the rounded corners*
1,1,$1+$1,$2,$3*
1,1,$1+$1,$4,$5*
1,1,$1+$1,$6,$7*
1,1,$1+$1,$8,$9*
0 Add four rect primitives between the rounded corners*
20,1,$1+$1,$2,$3,$4,$5,0*
20,1,$1+$1,$4,$5,$6,$7,0*
20,1,$1+$1,$6,$7,$8,$9,0*
20,1,$1+$1,$8,$9,$2,$3,0*%
G04 Aperture macros list end*
%ADD10RoundRect,0.225000X0.225000X0.250000X-0.225000X0.250000X-0.225000X-0.250000X0.225000X-0.250000X0*%
%ADD11RoundRect,0.200000X0.275000X-0.200000X0.275000X0.200000X-0.275000X0.200000X-0.275000X-0.200000X0*%
%ADD12R,0.600000X1.160000*%
%ADD13R,0.300000X1.160000*%
%ADD14RoundRect,0.225000X-0.225000X-0.250000X0.225000X-0.250000X0.225000X0.250000X-0.225000X0.250000X0*%
%ADD15RoundRect,0.200000X-0.275000X0.200000X-0.275000X-0.200000X0.275000X-0.200000X0.275000X0.200000X0*%
%ADD16R,1.750000X0.450000*%
%ADD17RoundRect,0.200000X-0.200000X-0.275000X0.200000X-0.275000X0.200000X0.275000X-0.200000X0.275000X0*%
%ADD18RoundRect,0.218750X0.381250X-0.218750X0.381250X0.218750X-0.381250X0.218750X-0.381250X-0.218750X0*%
%ADD19RoundRect,0.200000X0.200000X0.275000X-0.200000X0.275000X-0.200000X-0.275000X0.200000X-0.275000X0*%
%ADD20RoundRect,0.218750X0.218750X0.381250X-0.218750X0.381250X-0.218750X-0.381250X0.218750X-0.381250X0*%
%ADD21RoundRect,0.243750X0.456250X-0.243750X0.456250X0.243750X-0.456250X0.243750X-0.456250X-0.243750X0*%
%ADD22RoundRect,0.225000X-0.250000X0.225000X-0.250000X-0.225000X0.250000X-0.225000X0.250000X0.225000X0*%
%ADD23RoundRect,0.250000X0.312500X1.450000X-0.312500X1.450000X-0.312500X-1.450000X0.312500X-1.450000X0*%
%ADD24RoundRect,0.225000X0.250000X-0.225000X0.250000X0.225000X-0.250000X0.225000X-0.250000X-0.225000X0*%
%ADD25RoundRect,0.218750X-0.218750X-0.381250X0.218750X-0.381250X0.218750X0.381250X-0.218750X0.381250X0*%
G04 APERTURE END LIST*
D10*
%TO.C,C2*%
X55334200Y-95859600D03*
X53784200Y-95859600D03*
%TD*%
D11*
%TO.C,R13*%
X55168800Y-107442000D03*
X55168800Y-105792000D03*
%TD*%
D12*
%TO.C,USB3*%
X59080000Y-88870000D03*
X58280000Y-88870000D03*
D13*
X57130000Y-88870000D03*
X56130000Y-88870000D03*
X55630000Y-88870000D03*
X54630000Y-88870000D03*
D12*
X53480000Y-88870000D03*
X52680000Y-88870000D03*
X52680000Y-88870000D03*
X53480000Y-88870000D03*
D13*
X54130000Y-88870000D03*
X55130000Y-88870000D03*
X56630000Y-88870000D03*
X57630000Y-88870000D03*
D12*
X58280000Y-88870000D03*
X59080000Y-88870000D03*
%TD*%
D11*
%TO.C,R5*%
X103378000Y-95821000D03*
X103378000Y-94171000D03*
%TD*%
%TO.C,R8*%
X43307000Y-86169000D03*
X43307000Y-84519000D03*
%TD*%
%TO.C,R1*%
X63881000Y-85534000D03*
X63881000Y-83884000D03*
%TD*%
D14*
%TO.C,C8*%
X101460000Y-97790000D03*
X103010000Y-97790000D03*
%TD*%
D15*
%TO.C,R9*%
X41656000Y-84519000D03*
X41656000Y-86169000D03*
%TD*%
D14*
%TO.C,C6*%
X76314000Y-88773000D03*
X77864000Y-88773000D03*
%TD*%
D15*
%TO.C,R10*%
X95250000Y-106490000D03*
X95250000Y-108140000D03*
%TD*%
D11*
%TO.C,R3*%
X93573600Y-104037600D03*
X93573600Y-102387600D03*
%TD*%
D16*
%TO.C,U1*%
X94190000Y-85945000D03*
X94190000Y-86595000D03*
X94190000Y-87245000D03*
X94190000Y-87895000D03*
X94190000Y-88545000D03*
X94190000Y-89195000D03*
X94190000Y-89845000D03*
X94190000Y-90495000D03*
X94190000Y-91145000D03*
X94190000Y-91795000D03*
X94190000Y-92445000D03*
X94190000Y-93095000D03*
X94190000Y-93745000D03*
X94190000Y-94395000D03*
X101390000Y-94395000D03*
X101390000Y-93745000D03*
X101390000Y-93095000D03*
X101390000Y-92445000D03*
X101390000Y-91795000D03*
X101390000Y-91145000D03*
X101390000Y-90495000D03*
X101390000Y-89845000D03*
X101390000Y-89195000D03*
X101390000Y-88545000D03*
X101390000Y-87895000D03*
X101390000Y-87245000D03*
X101390000Y-86595000D03*
X101390000Y-85945000D03*
%TD*%
D17*
%TO.C,R11*%
X103442000Y-100203000D03*
X105092000Y-100203000D03*
%TD*%
D10*
%TO.C,C7*%
X77864000Y-90551000D03*
X76314000Y-90551000D03*
%TD*%
D18*
%TO.C,FB4*%
X43307000Y-98471500D03*
X43307000Y-96346500D03*
%TD*%
D19*
%TO.C,R2*%
X49847000Y-89204800D03*
X48197000Y-89204800D03*
%TD*%
%TO.C,R7*%
X100774000Y-83312000D03*
X99124000Y-83312000D03*
%TD*%
D20*
%TO.C,FB2*%
X74773300Y-102006400D03*
X72648300Y-102006400D03*
%TD*%
%TO.C,L1*%
X49703500Y-91440000D03*
X47578500Y-91440000D03*
%TD*%
D10*
%TO.C,C9*%
X105270600Y-83312000D03*
X103720600Y-83312000D03*
%TD*%
D21*
%TO.C,D1*%
X52273200Y-103807500D03*
X52273200Y-101932500D03*
%TD*%
D22*
%TO.C,C1*%
X105029000Y-92316000D03*
X105029000Y-93866000D03*
%TD*%
D10*
%TO.C,C11*%
X81356800Y-93167200D03*
X79806800Y-93167200D03*
%TD*%
D12*
%TO.C,USB4*%
X98400000Y-102279000D03*
X99200000Y-102279000D03*
D13*
X100350000Y-102279000D03*
X101350000Y-102279000D03*
X101850000Y-102279000D03*
X102850000Y-102279000D03*
D12*
X104000000Y-102279000D03*
X104800000Y-102279000D03*
X104800000Y-102279000D03*
X104000000Y-102279000D03*
D13*
X103350000Y-102279000D03*
X102350000Y-102279000D03*
X100850000Y-102279000D03*
X99850000Y-102279000D03*
D12*
X99200000Y-102279000D03*
X98400000Y-102279000D03*
%TD*%
D14*
%TO.C,C12*%
X76745800Y-93167200D03*
X78295800Y-93167200D03*
%TD*%
D22*
%TO.C,C5*%
X105029000Y-89141000D03*
X105029000Y-90691000D03*
%TD*%
D23*
%TO.C,F1*%
X49381500Y-85852000D03*
X45106500Y-85852000D03*
%TD*%
D24*
%TO.C,C13*%
X41562000Y-98184000D03*
X41562000Y-96634000D03*
%TD*%
D18*
%TO.C,FB3*%
X99568000Y-99868500D03*
X99568000Y-97743500D03*
%TD*%
D15*
%TO.C,R4*%
X91846400Y-94882200D03*
X91846400Y-96532200D03*
%TD*%
D25*
%TO.C,L2*%
X75899500Y-85750400D03*
X78024500Y-85750400D03*
%TD*%
D11*
%TO.C,R12*%
X55168800Y-103796600D03*
X55168800Y-102146600D03*
%TD*%
D10*
%TO.C,C3*%
X74435000Y-100126800D03*
X72885000Y-100126800D03*
%TD*%
D22*
%TO.C,C4*%
X91846400Y-102437600D03*
X91846400Y-103987600D03*
%TD*%
D17*
%TO.C,R15*%
X47308000Y-100203000D03*
X48958000Y-100203000D03*
%TD*%
D20*
%TO.C,FB1*%
X55367700Y-94081600D03*
X53242700Y-94081600D03*
%TD*%
D10*
%TO.C,C10*%
X92215000Y-84175600D03*
X90665000Y-84175600D03*
%TD*%
D11*
%TO.C,R14*%
X45085000Y-98234000D03*
X45085000Y-96584000D03*
%TD*%
D21*
%TO.C,D2*%
X52273200Y-107414300D03*
X52273200Y-105539300D03*
%TD*%
D12*
%TO.C,USB5*%
X42520000Y-102279000D03*
X43320000Y-102279000D03*
D13*
X44470000Y-102279000D03*
X45470000Y-102279000D03*
X45970000Y-102279000D03*
X46970000Y-102279000D03*
D12*
X48120000Y-102279000D03*
X48920000Y-102279000D03*
X48920000Y-102279000D03*
X48120000Y-102279000D03*
D13*
X47470000Y-102279000D03*
X46470000Y-102279000D03*
X44970000Y-102279000D03*
X43970000Y-102279000D03*
D12*
X43320000Y-102279000D03*
X42520000Y-102279000D03*
%TD*%
D15*
%TO.C,R6*%
X103378000Y-91123000D03*
X103378000Y-92773000D03*
%TD*%
M02*
