M48
; DRILL file {KiCad (5.99.0-10847-g28909c1a72)} date Mon Jul 19 23:24:51 2021
; FORMAT={-:-/ absolute / inch / decimal}
; #@! TF.CreationDate,2021-07-19T23:24:51+02:00
; #@! TF.GenerationSoftware,Kicad,Pcbnew,(5.99.0-10847-g28909c1a72)
; #@! TF.FileFunction,Plated,1,2,PTH
FMAT,2
INCH
; #@! TA.AperFunction,Plated,PTH,ViaDrill
T1C0.0157
; #@! TA.AperFunction,Plated,PTH,ComponentDrill
T2C0.0157
; #@! TA.AperFunction,Plated,PTH,ComponentDrill
T3C0.0236
; #@! TA.AperFunction,Plated,PTH,ComponentDrill
T4C0.0315
; #@! TA.AperFunction,Plated,PTH,ComponentDrill
T5C0.0374
; #@! TA.AperFunction,Plated,PTH,ComponentDrill
T6C0.0591
; #@! TA.AperFunction,Plated,PTH,ComponentDrill
T7C0.0866
; #@! TA.AperFunction,Plated,PTH,ComponentDrill
T8C0.0906
%
G90
G05
T1
X1.413Y-3.2744
X1.413Y-3.55
X1.413Y-3.5992
X1.413Y-3.6484
X1.413Y-3.6976
X1.413Y-3.7469
X1.413Y-3.7961
X1.413Y-3.8453
X1.413Y-3.8945
X1.413Y-3.9437
X1.413Y-3.9929
X1.413Y-4.2488
X1.4622Y-3.2744
X1.4622Y-3.55
X1.4622Y-3.5992
X1.4622Y-3.6484
X1.4622Y-3.6976
X1.4622Y-3.7469
X1.4622Y-3.7961
X1.4622Y-3.8453
X1.4622Y-3.8945
X1.4622Y-3.9437
X1.4622Y-3.9929
X1.4622Y-4.2488
X1.5114Y-3.2744
X1.5114Y-3.55
X1.5114Y-3.5992
X1.5114Y-3.6484
X1.5114Y-3.6976
X1.5114Y-3.7469
X1.5114Y-3.7961
X1.5114Y-3.8453
X1.5114Y-3.8945
X1.5114Y-3.9437
X1.5114Y-3.9929
X1.5114Y-4.2488
X1.5606Y-3.2744
X1.5606Y-3.55
X1.5606Y-3.5992
X1.5606Y-3.6484
X1.5606Y-3.6976
X1.5606Y-3.7469
X1.5606Y-3.7961
X1.5606Y-3.8453
X1.5606Y-3.8945
X1.5606Y-3.9437
X1.5606Y-3.9929
X1.5606Y-4.2488
X1.6098Y-4.1307
X1.6363Y-3.7537
X1.64Y-3.44
X1.6591Y-4.1307
X1.6725Y-3.3275
X1.674Y-3.954
X1.705Y-3.742
X1.7083Y-4.1504
X1.7083Y-4.1996
X1.7083Y-4.2488
X1.7575Y-4.1504
X1.7575Y-4.1996
X1.7575Y-4.2488
X1.775Y-3.755
X1.8067Y-4.1504
X1.8067Y-4.1996
X1.8067Y-4.2488
X1.8362Y-3.4614
X1.8559Y-3.3039
X1.8559Y-3.3531
X1.8559Y-3.4024
X1.8559Y-4.1504
X1.8559Y-4.1996
X1.8559Y-4.2488
X1.9051Y-4.1504
X1.9051Y-4.1996
X1.9051Y-4.2488
X1.926Y-3.979
X1.96Y-3.474
X2.0675Y-3.5475
X2.114Y-4.01
X2.118Y-4.154
X2.154Y-3.56
X2.17Y-3.435
X2.2104Y-4.1267
X2.2455Y-3.5745
X2.326Y-3.554
X2.3972Y-3.9634
X2.3972Y-4.0126
X2.3972Y-4.0618
X2.3972Y-4.111
X2.4465Y-3.865
X2.4465Y-3.9142
X2.4465Y-3.9634
X2.4465Y-4.0126
X2.4465Y-4.0618
X2.4465Y-4.111
X2.4957Y-3.865
X2.4957Y-3.9142
X2.4957Y-3.9634
X2.4957Y-4.0126
X2.4957Y-4.0618
X2.4957Y-4.111
X2.5449Y-3.865
X2.5449Y-3.9142
X2.5449Y-3.9634
X2.5449Y-4.0126
X2.5449Y-4.0618
X2.5449Y-4.111
X2.5744Y-3.6681
X2.5941Y-3.865
X2.5941Y-3.9142
X2.5941Y-3.9634
X2.5941Y-4.0126
X2.5941Y-4.0618
X2.5941Y-4.111
X2.6236Y-3.6681
X2.6433Y-3.9142
X2.6433Y-3.9634
X2.6433Y-4.0126
X2.6433Y-4.0618
X2.6433Y-4.111
X2.6925Y-4.0618
X2.6925Y-4.111
X2.7319Y-3.4614
X2.7319Y-3.5106
X2.7417Y-4.0618
X2.7417Y-4.111
X2.7811Y-3.4122
X2.7811Y-3.4614
X2.7811Y-3.5106
X2.7909Y-4.0618
X2.7909Y-4.111
X3.0665Y-4.0323
X3.0665Y-4.1504
X3.0665Y-4.1996
X3.1157Y-3.9831
X3.1157Y-4.0323
X3.1157Y-4.1504
X3.1157Y-4.1996
X3.118Y-3.708
X3.165Y-3.8846
X3.165Y-3.9339
X3.165Y-3.9831
X3.165Y-4.0323
X3.165Y-4.1504
X3.165Y-4.1996
X3.2142Y-3.8846
X3.2142Y-3.9339
X3.2142Y-3.9831
X3.2142Y-4.0323
X3.2142Y-4.1504
X3.2142Y-4.1996
X3.2634Y-3.8846
X3.2634Y-3.9339
X3.2634Y-3.9831
X3.2634Y-4.0323
X3.2634Y-4.1504
X3.2634Y-4.1996
X3.3126Y-3.8846
X3.3126Y-3.9339
X3.3126Y-3.9831
X3.3126Y-4.0323
X3.3126Y-4.1504
X3.3126Y-4.1996
X3.3618Y-3.8846
X3.3618Y-3.9339
X3.3618Y-3.9831
X3.3618Y-4.0323
X3.3618Y-4.1504
X3.3618Y-4.1996
X3.411Y-3.8846
X3.411Y-3.9339
X3.411Y-3.9831
X3.411Y-4.0323
X3.411Y-4.1504
X3.411Y-4.1996
X3.4602Y-3.8846
X3.4602Y-3.9339
X3.4602Y-3.9831
X3.4602Y-4.0323
X3.4602Y-4.1504
X3.4602Y-4.1996
X3.5094Y-4.0323
X3.5094Y-4.1504
X3.5094Y-4.1996
X3.626Y-3.372
X3.6396Y-3.4597
X3.684Y-4.16
X3.842Y-4.122
X3.87Y-3.28
X3.874Y-3.966
X3.8933Y-4.1504
X3.8933Y-4.1996
X3.8933Y-4.2488
X3.9275Y-3.5625
X3.93Y-3.688
X3.9425Y-4.1504
X3.9425Y-4.1996
X3.9425Y-4.2488
X3.947Y-4.083
X3.9917Y-3.7543
X3.9917Y-4.1504
X3.9917Y-4.1996
X3.9917Y-4.2488
X4.01Y-3.338
X4.025Y-3.28
X4.0409Y-4.1504
X4.0409Y-4.1996
X4.0409Y-4.2488
X4.0622Y-3.5398
X4.063Y-3.445
X4.0902Y-4.1504
X4.0902Y-4.1996
X4.0902Y-4.2488
X4.115Y-3.85
X4.135Y-3.6
X4.1394Y-4.1307
X4.175Y-3.411
X4.175Y-3.945
X4.1886Y-4.1307
X4.2378Y-3.5402
X4.2378Y-3.5894
X4.2378Y-3.6386
X4.2378Y-3.6878
X4.2378Y-3.737
X4.2378Y-3.7862
X4.2378Y-3.8354
X4.2378Y-3.8846
X4.2378Y-3.9339
X4.2378Y-3.9831
X4.2378Y-4.2488
X4.287Y-3.5402
X4.287Y-3.5894
X4.287Y-3.6386
X4.287Y-3.6878
X4.287Y-3.737
X4.287Y-3.7862
X4.287Y-3.8354
X4.287Y-3.8846
X4.287Y-3.9339
X4.287Y-3.9831
X4.287Y-4.2488
X4.3362Y-3.5402
X4.3362Y-3.5894
X4.3362Y-3.6386
X4.3362Y-3.6878
X4.3362Y-3.737
X4.3362Y-3.7862
X4.3362Y-3.8354
X4.3362Y-3.8846
X4.3362Y-3.9339
X4.3362Y-3.9831
X4.3362Y-4.2488
X4.3854Y-3.5402
X4.3854Y-3.5894
X4.3854Y-3.6386
X4.3854Y-3.6878
X4.3854Y-3.737
X4.3854Y-3.7862
X4.3854Y-3.8354
X4.3854Y-3.8846
X4.3854Y-3.9339
X4.3854Y-3.9831
X4.3854Y-4.2488
T2
X1.4169Y-3.4043
X1.4169Y-4.1209
X1.436Y-3.3584
X1.436Y-3.4503
X1.436Y-4.0749
X1.436Y-4.1668
X1.4819Y-3.3394
X1.4819Y-3.4693
X1.4819Y-4.0559
X1.4819Y-4.1858
X1.5278Y-3.3584
X1.5278Y-3.4503
X1.5278Y-4.0749
X1.5278Y-4.1668
X1.5469Y-3.4043
X1.5469Y-4.1209
X4.2457Y-3.4043
X4.2457Y-4.1209
X4.2647Y-3.3584
X4.2647Y-3.4503
X4.2647Y-4.0749
X4.2647Y-4.1668
X4.3106Y-3.3394
X4.3106Y-3.4693
X4.3106Y-4.0559
X4.3106Y-4.1858
X4.3566Y-3.3584
X4.3566Y-3.4503
X4.3566Y-4.0749
X4.3566Y-4.1668
X4.3756Y-3.4043
X4.3756Y-4.1209
T4
X1.6864Y-3.5933
X1.7652Y-3.5933
X1.9187Y-3.7941
X1.9974Y-3.7941
X2.6234Y-3.5854
X2.7022Y-3.5854
X2.8604Y-3.7699
X2.8604Y-4.1681
X2.8618Y-3.4415
X2.8618Y-3.5203
X2.9392Y-3.7699
X2.9392Y-4.1681
X3.7083Y-3.8807
X3.787Y-3.8807
T5
X2.3622Y-3.809
X2.4606Y-3.809
X2.5394Y-3.809
X2.6378Y-3.809
X3.1622Y-3.809
X3.2606Y-3.809
X3.3394Y-3.809
X3.4378Y-3.809
T6
X3.2435Y-3.5
X3.4365Y-3.5
T7
X1.4819Y-3.4043
X1.4819Y-4.1209
X4.3106Y-3.4043
X4.3106Y-4.1209
T8
X2.2413Y-3.9157
X2.7587Y-3.9157
X3.0413Y-3.9157
X3.5587Y-3.9157
T3
G00X1.6299Y-4.0712
M15
G01X1.6299Y-4.0279
M16
G05
G00X1.6299Y-4.2295
M15
G01X1.6299Y-4.198
M16
G05
G00X1.9701Y-4.0712
M15
G01X1.9701Y-4.0279
M16
G05
G00X1.9701Y-4.2295
M15
G01X1.9701Y-4.198
M16
G05
G00X2.0299Y-3.2961
M15
G01X2.0299Y-3.3276
M16
G05
G00X2.0299Y-3.4543
M15
G01X2.0299Y-3.4976
M16
G05
G00X2.3701Y-3.2961
M15
G01X2.3701Y-3.3276
M16
G05
G00X2.3701Y-3.4543
M15
G01X2.3701Y-3.4976
M16
G05
G00X3.8299Y-4.0712
M15
G01X3.8299Y-4.0279
M16
G05
G00X3.8299Y-4.2295
M15
G01X3.8299Y-4.198
M16
G05
G00X4.1701Y-4.0712
M15
G01X4.1701Y-4.0279
M16
G05
G00X4.1701Y-4.2295
M15
G01X4.1701Y-4.198
M16
G05
T0
M30
