%TF.GenerationSoftware,KiCad,Pcbnew,(5.99.0-10847-g28909c1a72)*%
%TF.CreationDate,2021-07-19T23:24:54+02:00*%
%TF.ProjectId,Project Hub,50726f6a-6563-4742-9048-75622e6b6963,rev?*%
%TF.SameCoordinates,Original*%
%TF.FileFunction,Soldermask,Top*%
%TF.FilePolarity,Negative*%
%FSLAX46Y46*%
G04 Gerber Fmt 4.6, Leading zero omitted, Abs format (unit mm)*
G04 Created by KiCad (PCBNEW (5.99.0-10847-g28909c1a72)) date 2021-07-19 23:24:54*
%MOMM*%
%LPD*%
G01*
G04 APERTURE LIST*
G04 Aperture macros list*
%AMRoundRect*
0 Rectangle with rounded corners*
0 $1 Rounding radius*
0 $2 $3 $4 $5 $6 $7 $8 $9 X,Y pos of 4 corners*
0 Add a 4 corners polygon primitive as box body*
4,1,4,$2,$3,$4,$5,$6,$7,$8,$9,$2,$3,0*
0 Add four circle primitives for the rounded corners*
1,1,$1+$1,$2,$3*
1,1,$1+$1,$4,$5*
1,1,$1+$1,$6,$7*
1,1,$1+$1,$8,$9*
0 Add four rect primitives between the rounded corners*
20,1,$1+$1,$2,$3,$4,$5,0*
20,1,$1+$1,$4,$5,$6,$7,0*
20,1,$1+$1,$6,$7,$8,$9,0*
20,1,$1+$1,$8,$9,$2,$3,0*%
G04 Aperture macros list end*
%ADD10RoundRect,0.225000X0.225000X0.250000X-0.225000X0.250000X-0.225000X-0.250000X0.225000X-0.250000X0*%
%ADD11R,1.600000X1.600000*%
%ADD12C,1.600000*%
%ADD13RoundRect,0.200000X0.275000X-0.200000X0.275000X0.200000X-0.275000X0.200000X-0.275000X-0.200000X0*%
%ADD14R,0.600000X1.160000*%
%ADD15R,0.300000X1.160000*%
%ADD16O,0.900000X2.000000*%
%ADD17O,0.900000X1.700000*%
%ADD18C,0.700000*%
%ADD19C,4.400000*%
%ADD20RoundRect,0.225000X-0.225000X-0.250000X0.225000X-0.250000X0.225000X0.250000X-0.225000X0.250000X0*%
%ADD21RoundRect,0.200000X-0.275000X0.200000X-0.275000X-0.200000X0.275000X-0.200000X0.275000X0.200000X0*%
%ADD22R,1.600000X1.500000*%
%ADD23C,3.000000*%
%ADD24R,1.750000X0.450000*%
%ADD25RoundRect,0.200000X-0.200000X-0.275000X0.200000X-0.275000X0.200000X0.275000X-0.200000X0.275000X0*%
%ADD26RoundRect,0.218750X0.381250X-0.218750X0.381250X0.218750X-0.381250X0.218750X-0.381250X-0.218750X0*%
%ADD27RoundRect,0.200000X0.200000X0.275000X-0.200000X0.275000X-0.200000X-0.275000X0.200000X-0.275000X0*%
%ADD28RoundRect,0.218750X0.218750X0.381250X-0.218750X0.381250X-0.218750X-0.381250X0.218750X-0.381250X0*%
%ADD29RoundRect,0.243750X0.456250X-0.243750X0.456250X0.243750X-0.456250X0.243750X-0.456250X-0.243750X0*%
%ADD30RoundRect,0.225000X-0.250000X0.225000X-0.250000X-0.225000X0.250000X-0.225000X0.250000X0.225000X0*%
%ADD31RoundRect,0.250000X0.312500X1.450000X-0.312500X1.450000X-0.312500X-1.450000X0.312500X-1.450000X0*%
%ADD32RoundRect,0.225000X0.250000X-0.225000X0.250000X0.225000X-0.250000X0.225000X-0.250000X-0.225000X0*%
%ADD33RoundRect,0.218750X-0.218750X-0.381250X0.218750X-0.381250X0.218750X0.381250X-0.218750X0.381250X0*%
%ADD34C,2.300000*%
G04 APERTURE END LIST*
D10*
%TO.C,C2*%
X55334200Y-95859600D03*
X53784200Y-95859600D03*
%TD*%
D11*
%TO.C,PC6*%
X72655088Y-95756400D03*
D12*
X74655088Y-95756400D03*
%TD*%
D13*
%TO.C,R13*%
X55168800Y-107442000D03*
X55168800Y-105792000D03*
%TD*%
D14*
%TO.C,USB3*%
X59080000Y-88870000D03*
X58280000Y-88870000D03*
D15*
X57130000Y-88870000D03*
X56130000Y-88870000D03*
X55630000Y-88870000D03*
X54630000Y-88870000D03*
D14*
X53480000Y-88870000D03*
X52680000Y-88870000D03*
X52680000Y-88870000D03*
X53480000Y-88870000D03*
D15*
X54130000Y-88870000D03*
X55130000Y-88870000D03*
X56630000Y-88870000D03*
X57630000Y-88870000D03*
D14*
X58280000Y-88870000D03*
X59080000Y-88870000D03*
D16*
X51560000Y-88290000D03*
D17*
X60200000Y-84120000D03*
X51560000Y-84120000D03*
D16*
X60200000Y-88290000D03*
%TD*%
D13*
%TO.C,R5*%
X103378000Y-95821000D03*
X103378000Y-94171000D03*
%TD*%
D11*
%TO.C,PC2*%
X72655088Y-105870000D03*
D12*
X74655088Y-105870000D03*
%TD*%
D13*
%TO.C,R8*%
X43307000Y-86169000D03*
X43307000Y-84519000D03*
%TD*%
%TO.C,R1*%
X63881000Y-85534000D03*
X63881000Y-83884000D03*
%TD*%
D18*
%TO.C,M2*%
X38806726Y-85303274D03*
X35990000Y-86470000D03*
X38806726Y-87636726D03*
X37640000Y-88120000D03*
X37640000Y-84820000D03*
X39290000Y-86470000D03*
X36473274Y-85303274D03*
D19*
X37640000Y-86470000D03*
D18*
X36473274Y-87636726D03*
%TD*%
D20*
%TO.C,C8*%
X101460000Y-97790000D03*
X103010000Y-97790000D03*
%TD*%
D21*
%TO.C,R9*%
X41656000Y-84519000D03*
X41656000Y-86169000D03*
%TD*%
D18*
%TO.C,M2*%
X38806726Y-103503274D03*
X35990000Y-104670000D03*
X38806726Y-105836726D03*
X37640000Y-106320000D03*
X37640000Y-103020000D03*
X39290000Y-104670000D03*
X36473274Y-103503274D03*
D19*
X37640000Y-104670000D03*
D18*
X36473274Y-105836726D03*
%TD*%
D20*
%TO.C,C6*%
X76314000Y-88773000D03*
X77864000Y-88773000D03*
%TD*%
D22*
%TO.C,USB2*%
X80320000Y-96748000D03*
D12*
X82820000Y-96748000D03*
X84820000Y-96748000D03*
X87320000Y-96748000D03*
D23*
X77250000Y-99458000D03*
X90390000Y-99458000D03*
%TD*%
D21*
%TO.C,R10*%
X95250000Y-106490000D03*
X95250000Y-108140000D03*
%TD*%
D11*
%TO.C,PC7*%
X96190000Y-98570000D03*
D12*
X94190000Y-98570000D03*
%TD*%
D13*
%TO.C,R3*%
X93573600Y-104037600D03*
X93573600Y-102387600D03*
%TD*%
D24*
%TO.C,U1*%
X94190000Y-85945000D03*
X94190000Y-86595000D03*
X94190000Y-87245000D03*
X94190000Y-87895000D03*
X94190000Y-88545000D03*
X94190000Y-89195000D03*
X94190000Y-89845000D03*
X94190000Y-90495000D03*
X94190000Y-91145000D03*
X94190000Y-91795000D03*
X94190000Y-92445000D03*
X94190000Y-93095000D03*
X94190000Y-93745000D03*
X94190000Y-94395000D03*
X101390000Y-94395000D03*
X101390000Y-93745000D03*
X101390000Y-93095000D03*
X101390000Y-92445000D03*
X101390000Y-91795000D03*
X101390000Y-91145000D03*
X101390000Y-90495000D03*
X101390000Y-89845000D03*
X101390000Y-89195000D03*
X101390000Y-88545000D03*
X101390000Y-87895000D03*
X101390000Y-87245000D03*
X101390000Y-86595000D03*
X101390000Y-85945000D03*
%TD*%
D25*
%TO.C,R11*%
X103442000Y-100203000D03*
X105092000Y-100203000D03*
%TD*%
D11*
%TO.C,PC1*%
X48734888Y-96370000D03*
D12*
X50734888Y-96370000D03*
%TD*%
D10*
%TO.C,C7*%
X77864000Y-90551000D03*
X76314000Y-90551000D03*
%TD*%
D22*
%TO.C,USB1*%
X60000000Y-96748000D03*
D12*
X62500000Y-96748000D03*
X64500000Y-96748000D03*
X67000000Y-96748000D03*
D23*
X70070000Y-99458000D03*
X56930000Y-99458000D03*
%TD*%
D26*
%TO.C,FB4*%
X43307000Y-98471500D03*
X43307000Y-96346500D03*
%TD*%
D18*
%TO.C,M2*%
X110656726Y-103503274D03*
X107840000Y-104670000D03*
X110656726Y-105836726D03*
X109490000Y-106320000D03*
X109490000Y-103020000D03*
X111140000Y-104670000D03*
X108323274Y-103503274D03*
D19*
X109490000Y-104670000D03*
D18*
X108323274Y-105836726D03*
%TD*%
D27*
%TO.C,R2*%
X49847000Y-89204800D03*
X48197000Y-89204800D03*
%TD*%
D11*
%TO.C,PC3*%
X42834888Y-91270000D03*
D12*
X44834888Y-91270000D03*
%TD*%
D27*
%TO.C,R7*%
X100774000Y-83312000D03*
X99124000Y-83312000D03*
%TD*%
D28*
%TO.C,FB2*%
X74773300Y-102006400D03*
X72648300Y-102006400D03*
%TD*%
%TO.C,L1*%
X49703500Y-91440000D03*
X47578500Y-91440000D03*
%TD*%
D11*
%TO.C,PC5*%
X72690000Y-87414888D03*
D12*
X72690000Y-89414888D03*
%TD*%
D10*
%TO.C,C9*%
X105270600Y-83312000D03*
X103720600Y-83312000D03*
%TD*%
D29*
%TO.C,D1*%
X52273200Y-103807500D03*
X52273200Y-101932500D03*
%TD*%
D30*
%TO.C,C1*%
X105029000Y-92316000D03*
X105029000Y-93866000D03*
%TD*%
D11*
%TO.C,PC4*%
X66634888Y-91070000D03*
D12*
X68634888Y-91070000D03*
%TD*%
D10*
%TO.C,C11*%
X81356800Y-93167200D03*
X79806800Y-93167200D03*
%TD*%
D14*
%TO.C,USB4*%
X98400000Y-102279000D03*
X99200000Y-102279000D03*
D15*
X100350000Y-102279000D03*
X101350000Y-102279000D03*
X101850000Y-102279000D03*
X102850000Y-102279000D03*
D14*
X104000000Y-102279000D03*
X104800000Y-102279000D03*
X104800000Y-102279000D03*
X104000000Y-102279000D03*
D15*
X103350000Y-102279000D03*
X102350000Y-102279000D03*
X100850000Y-102279000D03*
X99850000Y-102279000D03*
D14*
X99200000Y-102279000D03*
X98400000Y-102279000D03*
D17*
X97280000Y-107029000D03*
D16*
X105920000Y-102859000D03*
X97280000Y-102859000D03*
D17*
X105920000Y-107029000D03*
%TD*%
D18*
%TO.C,M2*%
X110656726Y-85303274D03*
X107840000Y-86470000D03*
X110656726Y-87636726D03*
X109490000Y-88120000D03*
X109490000Y-84820000D03*
X111140000Y-86470000D03*
X108323274Y-85303274D03*
D19*
X109490000Y-86470000D03*
D18*
X108323274Y-87636726D03*
%TD*%
D20*
%TO.C,C12*%
X76745800Y-93167200D03*
X78295800Y-93167200D03*
%TD*%
D30*
%TO.C,C5*%
X105029000Y-89141000D03*
X105029000Y-90691000D03*
%TD*%
D31*
%TO.C,F1*%
X49381500Y-85852000D03*
X45106500Y-85852000D03*
%TD*%
D32*
%TO.C,C13*%
X41562000Y-98184000D03*
X41562000Y-96634000D03*
%TD*%
D26*
%TO.C,FB3*%
X99568000Y-99868500D03*
X99568000Y-97743500D03*
%TD*%
D21*
%TO.C,R4*%
X91846400Y-94882200D03*
X91846400Y-96532200D03*
%TD*%
D33*
%TO.C,L2*%
X75899500Y-85750400D03*
X78024500Y-85750400D03*
%TD*%
D13*
%TO.C,R12*%
X55168800Y-103796600D03*
X55168800Y-102146600D03*
%TD*%
D10*
%TO.C,C3*%
X74435000Y-100126800D03*
X72885000Y-100126800D03*
%TD*%
D30*
%TO.C,C4*%
X91846400Y-102437600D03*
X91846400Y-103987600D03*
%TD*%
D25*
%TO.C,R15*%
X47308000Y-100203000D03*
X48958000Y-100203000D03*
%TD*%
D28*
%TO.C,FB1*%
X55367700Y-94081600D03*
X53242700Y-94081600D03*
%TD*%
D34*
%TO.C,Y1*%
X87286000Y-88900000D03*
X82386000Y-88900000D03*
%TD*%
D10*
%TO.C,C10*%
X92215000Y-84175600D03*
X90665000Y-84175600D03*
%TD*%
D13*
%TO.C,R14*%
X45085000Y-98234000D03*
X45085000Y-96584000D03*
%TD*%
D29*
%TO.C,D2*%
X52273200Y-107414300D03*
X52273200Y-105539300D03*
%TD*%
D14*
%TO.C,USB5*%
X42520000Y-102279000D03*
X43320000Y-102279000D03*
D15*
X44470000Y-102279000D03*
X45470000Y-102279000D03*
X45970000Y-102279000D03*
X46970000Y-102279000D03*
D14*
X48120000Y-102279000D03*
X48920000Y-102279000D03*
X48920000Y-102279000D03*
X48120000Y-102279000D03*
D15*
X47470000Y-102279000D03*
X46470000Y-102279000D03*
X44970000Y-102279000D03*
X43970000Y-102279000D03*
D14*
X43320000Y-102279000D03*
X42520000Y-102279000D03*
D16*
X50040000Y-102859000D03*
D17*
X41400000Y-107029000D03*
X50040000Y-107029000D03*
D16*
X41400000Y-102859000D03*
%TD*%
D21*
%TO.C,R6*%
X103378000Y-91123000D03*
X103378000Y-92773000D03*
%TD*%
M02*
