M48
;DRILL file {KiCad 4.0.5} date 08/02/17 15:31:27
;FORMAT={-:-/ absolute / inch / decimal}
FMAT,2
INCH,TZ
T1C0.016
T2C0.031
T3C0.039
T4C0.059
T5C0.091
%
G90
G05
M72
T1
X5.2535Y-2.4701
X5.2795Y-2.2874
X5.2953Y-2.0236
X5.3315Y-2.4768
X5.3465Y-2.0276
X5.3622Y-2.2441
X5.5118Y-3.1496
X5.5157Y-2.2402
X5.6102Y-2.1024
X5.6457Y-2.1063
X5.6646Y-2.6508
X5.6669Y-2.5937
X5.6984Y-2.5311
X5.722Y-2.635
X5.7264Y-2.5638
X5.7783Y-2.1559
X5.7819Y-2.3795
X5.7827Y-2.5457
X5.7913Y-2.2142
X5.8114Y-2.35
X5.8248Y-2.3004
X5.8606Y-3.3461
X5.874Y-2.3114
X5.8996Y-2.5906
X6.1339Y-2.4961
X6.1614Y-2.4488
T2
X5.0984Y-3.878
X5.0984Y-3.9764
X5.6693Y-3.878
X5.6693Y-3.9764
X5.9252Y-3.878
X5.9252Y-3.9764
X6.0039Y-4.2126
X6.0236Y-2.7756
X6.0236Y-3.4843
X6.0433Y-1.9882
X6.0433Y-2.0866
X6.1024Y-4.2126
X6.122Y-2.7756
X6.122Y-3.4843
T3
X5.2677Y-3.1693
X5.2677Y-3.2693
X5.2677Y-3.3492
X5.2677Y-3.4492
X6.3386Y-2.102
X6.3386Y-2.202
X6.3386Y-2.2819
X6.3386Y-2.3819
X6.3386Y-2.8303
X6.3386Y-2.9303
X6.3386Y-3.0102
X6.3386Y-3.1102
X6.3386Y-3.5587
X6.3386Y-3.6587
X6.3386Y-3.7386
X6.3386Y-3.8386
X6.3386Y-4.287
X6.3386Y-4.387
X6.3386Y-4.4669
X6.3386Y-4.5669
T4
X5.0984Y-2.2047
X5.0984Y-2.3976
T5
X5.1626Y-3.0291
X5.1626Y-3.5693
X6.4437Y-1.9819
X6.4437Y-2.522
X6.4437Y-2.7102
X6.4437Y-3.2504
X6.4437Y-3.4386
X6.4437Y-3.9787
X6.4437Y-4.1669
X6.4437Y-4.7071
T0
M30
