G04 #@! TF.FileFunction,Soldermask,Top*
%FSLAX46Y46*%
G04 Gerber Fmt 4.6, Leading zero omitted, Abs format (unit mm)*
G04 Created by KiCad (PCBNEW 4.0.5) date 08/02/17 15:31:24*
%MOMM*%
%LPD*%
G01*
G04 APERTURE LIST*
%ADD10C,0.100000*%
%ADD11C,2.900000*%
%ADD12R,2.150000X0.850000*%
%ADD13R,1.600000X1.150000*%
%ADD14R,1.150000X1.600000*%
%ADD15R,2.400000X2.100000*%
%ADD16R,2.100000X2.400000*%
%ADD17R,1.799540X1.550620*%
%ADD18R,2.000000X2.000000*%
%ADD19C,2.000000*%
%ADD20R,1.550620X1.799540*%
%ADD21C,1.900000*%
%ADD22C,3.400000*%
%ADD23C,2.700000*%
G04 APERTURE END LIST*
D10*
D11*
X166000000Y-45500000D03*
X166000000Y-124500000D03*
X128000000Y-124500000D03*
D12*
X137900000Y-51275000D03*
X137900000Y-51925000D03*
X137900000Y-52575000D03*
X137900000Y-53225000D03*
X137900000Y-53875000D03*
X137900000Y-54525000D03*
X137900000Y-55175000D03*
X137900000Y-55825000D03*
X137900000Y-56475000D03*
X137900000Y-57125000D03*
X137900000Y-57775000D03*
X137900000Y-58425000D03*
X137900000Y-59075000D03*
X137900000Y-59725000D03*
X145100000Y-59725000D03*
X145100000Y-59075000D03*
X145100000Y-58425000D03*
X145100000Y-57775000D03*
X145100000Y-57125000D03*
X145100000Y-56475000D03*
X145100000Y-55825000D03*
X145100000Y-55175000D03*
X145100000Y-54525000D03*
X145100000Y-53875000D03*
X145100000Y-53225000D03*
X145100000Y-52575000D03*
X145100000Y-51925000D03*
X145100000Y-51275000D03*
D13*
X152950000Y-78500000D03*
X151050000Y-78500000D03*
D14*
X133500000Y-98050000D03*
X133500000Y-99950000D03*
X154500000Y-98550000D03*
X154500000Y-100450000D03*
X156500000Y-98550000D03*
X156500000Y-100450000D03*
D15*
X134500000Y-66000000D03*
X138500000Y-66000000D03*
D16*
X134500000Y-73000000D03*
X134500000Y-69000000D03*
X143000000Y-85500000D03*
X143000000Y-81500000D03*
X146000000Y-85500000D03*
X146000000Y-81500000D03*
D15*
X133000000Y-46000000D03*
X137000000Y-46000000D03*
D16*
X149000000Y-73000000D03*
X149000000Y-69000000D03*
X143000000Y-73000000D03*
X143000000Y-69000000D03*
X140000000Y-73000000D03*
X140000000Y-69000000D03*
X146000000Y-73000000D03*
X146000000Y-69000000D03*
D17*
X155500000Y-111374400D03*
X155500000Y-114625600D03*
D13*
X152450000Y-60000000D03*
X150550000Y-60000000D03*
X152450000Y-114500000D03*
X150550000Y-114500000D03*
D17*
X155500000Y-92874400D03*
X155500000Y-96125600D03*
X156000000Y-75374400D03*
X156000000Y-78625600D03*
D18*
X155500000Y-70500000D03*
D19*
X153000000Y-70500000D03*
D18*
X155500000Y-88500000D03*
D19*
X153000000Y-88500000D03*
D13*
X134050000Y-64000000D03*
X135950000Y-64000000D03*
D14*
X133500000Y-59850000D03*
X133500000Y-61750000D03*
X137500000Y-74950000D03*
X137500000Y-73050000D03*
D18*
X129500000Y-98500000D03*
D19*
X129500000Y-101000000D03*
D13*
X136550000Y-93000000D03*
X138450000Y-93000000D03*
D14*
X140000000Y-98050000D03*
X140000000Y-99950000D03*
D18*
X144000000Y-98500000D03*
D19*
X144000000Y-101000000D03*
D18*
X150500000Y-98500000D03*
D19*
X150500000Y-101000000D03*
D17*
X155200000Y-56774400D03*
X155200000Y-60025600D03*
D15*
X141000000Y-77500000D03*
X145000000Y-77500000D03*
D17*
X137500000Y-80625600D03*
X137500000Y-77374400D03*
D20*
X138625600Y-95500000D03*
X135374400Y-95500000D03*
D21*
X161000000Y-71890000D03*
X161000000Y-74430000D03*
X161000000Y-76460000D03*
X161000000Y-79000000D03*
D22*
X163670000Y-68840000D03*
X163670000Y-82560000D03*
D21*
X161000000Y-90390000D03*
X161000000Y-92930000D03*
X161000000Y-94960000D03*
X161000000Y-97500000D03*
D22*
X163670000Y-87340000D03*
X163670000Y-101060000D03*
D21*
X161000000Y-53390000D03*
X161000000Y-55930000D03*
X161000000Y-57960000D03*
X161000000Y-60500000D03*
D22*
X163670000Y-50340000D03*
X163670000Y-64060000D03*
D21*
X133800000Y-87610000D03*
X133800000Y-85070000D03*
X133800000Y-83040000D03*
X133800000Y-80500000D03*
D22*
X131130000Y-90660000D03*
X131130000Y-76940000D03*
D21*
X161000000Y-108890000D03*
X161000000Y-111430000D03*
X161000000Y-113460000D03*
X161000000Y-116000000D03*
D22*
X163670000Y-105840000D03*
X163670000Y-119560000D03*
D18*
X153500000Y-53000000D03*
D19*
X153500000Y-50500000D03*
D13*
X152450000Y-95500000D03*
X150550000Y-95500000D03*
D18*
X155000000Y-107000000D03*
D19*
X152500000Y-107000000D03*
D14*
X133500000Y-55750000D03*
X133500000Y-53850000D03*
D23*
X129500000Y-56000000D03*
X129500000Y-60900000D03*
D11*
X128000000Y-45500000D03*
M02*
