G04 #@! TF.FileFunction,Copper,L2,Bot,Signal*
%FSLAX46Y46*%
G04 Gerber Fmt 4.6, Leading zero omitted, Abs format (unit mm)*
G04 Created by KiCad (PCBNEW 4.0.5) date 08/02/17 15:31:24*
%MOMM*%
%LPD*%
G01*
G04 APERTURE LIST*
%ADD10C,0.100000*%
%ADD11R,1.600000X1.600000*%
%ADD12C,1.600000*%
%ADD13C,1.500000*%
%ADD14C,3.000000*%
%ADD15C,2.300000*%
%ADD16C,0.600000*%
%ADD17C,0.400000*%
%ADD18C,0.300000*%
%ADD19C,0.250000*%
%ADD20C,0.254000*%
G04 APERTURE END LIST*
D10*
D11*
X155500000Y-70500000D03*
D12*
X153000000Y-70500000D03*
D11*
X155500000Y-88500000D03*
D12*
X153000000Y-88500000D03*
D11*
X129500000Y-98500000D03*
D12*
X129500000Y-101000000D03*
D11*
X144000000Y-98500000D03*
D12*
X144000000Y-101000000D03*
D11*
X150500000Y-98500000D03*
D12*
X150500000Y-101000000D03*
D13*
X161000000Y-71890000D03*
X161000000Y-74430000D03*
X161000000Y-76460000D03*
X161000000Y-79000000D03*
D14*
X163670000Y-68840000D03*
X163670000Y-82560000D03*
D13*
X161000000Y-90390000D03*
X161000000Y-92930000D03*
X161000000Y-94960000D03*
X161000000Y-97500000D03*
D14*
X163670000Y-87340000D03*
X163670000Y-101060000D03*
D13*
X161000000Y-53390000D03*
X161000000Y-55930000D03*
X161000000Y-57960000D03*
X161000000Y-60500000D03*
D14*
X163670000Y-50340000D03*
X163670000Y-64060000D03*
D13*
X133800000Y-87610000D03*
X133800000Y-85070000D03*
X133800000Y-83040000D03*
X133800000Y-80500000D03*
D14*
X131130000Y-90660000D03*
X131130000Y-76940000D03*
D13*
X161000000Y-108890000D03*
X161000000Y-111430000D03*
X161000000Y-113460000D03*
X161000000Y-116000000D03*
D14*
X163670000Y-105840000D03*
X163670000Y-119560000D03*
D11*
X153500000Y-53000000D03*
D12*
X153500000Y-50500000D03*
D11*
X155000000Y-107000000D03*
D12*
X152500000Y-107000000D03*
D15*
X129500000Y-56000000D03*
X129500000Y-60900000D03*
D16*
X135420000Y-62910000D03*
X133440000Y-62740000D03*
X146860000Y-60440000D03*
X144740000Y-64290000D03*
X140000000Y-80000000D03*
X140100000Y-56900000D03*
X135800000Y-51500000D03*
X134500000Y-51400000D03*
X134100000Y-58100000D03*
X136200000Y-57000000D03*
X156500000Y-62200000D03*
X155800000Y-63400000D03*
X143400000Y-53500000D03*
X142500000Y-53400000D03*
X148860000Y-84990000D03*
X147100000Y-56240000D03*
X149200000Y-58710000D03*
X149850000Y-65800000D03*
X143880000Y-67330000D03*
X145340000Y-66930000D03*
X145450000Y-65120000D03*
X146770000Y-54760000D03*
X143940000Y-65880000D03*
X147950000Y-58430000D03*
X147610000Y-59690000D03*
X146880000Y-64660000D03*
D17*
X133610000Y-62910000D02*
X135420000Y-62910000D01*
X133440000Y-62740000D02*
X133610000Y-62910000D01*
X155500000Y-70500000D02*
X155500000Y-67320000D01*
X153500000Y-65320000D02*
X153500000Y-53000000D01*
X155500000Y-67320000D02*
X153500000Y-65320000D01*
D18*
X146860000Y-62170000D02*
X146860000Y-60440000D01*
X144740000Y-64290000D02*
X146860000Y-62170000D01*
D17*
X144000000Y-98500000D02*
X150500000Y-98500000D01*
D19*
X141700000Y-78300000D02*
X140000000Y-80000000D01*
X141700000Y-58500000D02*
X141700000Y-78300000D01*
X140100000Y-56900000D02*
X141700000Y-58500000D01*
X159160000Y-76460000D02*
X161000000Y-76460000D01*
X158400000Y-75700000D02*
X159160000Y-76460000D01*
X158400000Y-53100000D02*
X158400000Y-75700000D01*
X151600000Y-46300000D02*
X158400000Y-53100000D01*
X139800000Y-46300000D02*
X151600000Y-46300000D01*
X136200000Y-49900000D02*
X139800000Y-46300000D01*
X136200000Y-51100000D02*
X136200000Y-49900000D01*
X135800000Y-51500000D02*
X136200000Y-51100000D01*
X161000000Y-74430000D02*
X159830000Y-74430000D01*
X134500000Y-50200000D02*
X134500000Y-51400000D01*
X139000000Y-45700000D02*
X134500000Y-50200000D01*
X152600000Y-45700000D02*
X139000000Y-45700000D01*
X159300000Y-52400000D02*
X152600000Y-45700000D01*
X159300000Y-73900000D02*
X159300000Y-52400000D01*
X159830000Y-74430000D02*
X159300000Y-73900000D01*
X156040000Y-94960000D02*
X161000000Y-94960000D01*
X155000000Y-96000000D02*
X156040000Y-94960000D01*
X129500000Y-96000000D02*
X155000000Y-96000000D01*
X128000000Y-94500000D02*
X129500000Y-96000000D01*
X128000000Y-66400000D02*
X128000000Y-94500000D01*
X131400000Y-63000000D02*
X128000000Y-66400000D01*
X131400000Y-60800000D02*
X131400000Y-63000000D01*
X132931801Y-59268199D02*
X131400000Y-60800000D01*
X134100000Y-58100000D02*
X132931801Y-59268199D01*
X155370000Y-92930000D02*
X161000000Y-92930000D01*
X153100000Y-95200000D02*
X155370000Y-92930000D01*
X130200000Y-95200000D02*
X153100000Y-95200000D01*
X128700000Y-93700000D02*
X130200000Y-95200000D01*
X128700000Y-66800000D02*
X128700000Y-93700000D01*
X132000000Y-63500000D02*
X128700000Y-66800000D01*
X132000000Y-61200000D02*
X132000000Y-63500000D01*
X136200000Y-57000000D02*
X132000000Y-61200000D01*
X165040000Y-113460000D02*
X161000000Y-113460000D01*
X166600000Y-111900000D02*
X165040000Y-113460000D01*
X166600000Y-93200000D02*
X166600000Y-111900000D01*
X162100000Y-88700000D02*
X166600000Y-93200000D01*
X159300000Y-88700000D02*
X162100000Y-88700000D01*
X157700000Y-87100000D02*
X159300000Y-88700000D01*
X157700000Y-63400000D02*
X157700000Y-87100000D01*
X156500000Y-62200000D02*
X157700000Y-63400000D01*
X161000000Y-111430000D02*
X164170000Y-111430000D01*
X157000000Y-64600000D02*
X155800000Y-63400000D01*
X157000000Y-87600000D02*
X157000000Y-64600000D01*
X158600000Y-89200000D02*
X157000000Y-87600000D01*
X161700000Y-89200000D02*
X158600000Y-89200000D01*
X165900000Y-93400000D02*
X161700000Y-89200000D01*
X165900000Y-109700000D02*
X165900000Y-93400000D01*
X164170000Y-111430000D02*
X165900000Y-109700000D01*
X140460000Y-83040000D02*
X133800000Y-83040000D01*
X143200000Y-80300000D02*
X140460000Y-83040000D01*
X143200000Y-53700000D02*
X143200000Y-80300000D01*
X143400000Y-53500000D02*
X143200000Y-53700000D01*
X133070000Y-85800000D02*
X133800000Y-85070000D01*
X131700000Y-85800000D02*
X133070000Y-85800000D01*
X130800000Y-84900000D02*
X131700000Y-85800000D01*
X130800000Y-83000000D02*
X130800000Y-84900000D01*
X132000000Y-81800000D02*
X130800000Y-83000000D01*
X140200000Y-81800000D02*
X132000000Y-81800000D01*
X142400000Y-79600000D02*
X140200000Y-81800000D01*
X142400000Y-53500000D02*
X142400000Y-79600000D01*
X142500000Y-53400000D02*
X142400000Y-53500000D01*
X150430000Y-83420000D02*
X148860000Y-84990000D01*
X150430000Y-68760000D02*
X150430000Y-83420000D01*
X151600000Y-67590000D02*
X150430000Y-68760000D01*
X151600000Y-57050000D02*
X151600000Y-67590000D01*
X150770000Y-56220000D02*
X151600000Y-57050000D01*
X147120000Y-56220000D02*
X150770000Y-56220000D01*
X147100000Y-56240000D02*
X147120000Y-56220000D01*
X149200000Y-65150000D02*
X149200000Y-58710000D01*
X149850000Y-65800000D02*
X149200000Y-65150000D01*
D18*
X144940000Y-67330000D02*
X143880000Y-67330000D01*
X145340000Y-66930000D02*
X144940000Y-67330000D01*
X144450000Y-65120000D02*
X145450000Y-65120000D01*
X143870000Y-64540000D02*
X144450000Y-65120000D01*
X143870000Y-63520000D02*
X143870000Y-64540000D01*
X144920000Y-62470000D02*
X143870000Y-63520000D01*
X144920000Y-56140000D02*
X144920000Y-62470000D01*
X145520000Y-55540000D02*
X144920000Y-56140000D01*
X146360000Y-55540000D02*
X145520000Y-55540000D01*
X146770000Y-55130000D02*
X146360000Y-55540000D01*
X146770000Y-54760000D02*
X146770000Y-55130000D01*
X147610000Y-65880000D02*
X143940000Y-65880000D01*
X148500000Y-64990000D02*
X147610000Y-65880000D01*
X148500000Y-58980000D02*
X148500000Y-64990000D01*
X147950000Y-58430000D02*
X148500000Y-58980000D01*
D19*
X147610000Y-63930000D02*
X147610000Y-59690000D01*
X146880000Y-64660000D02*
X147610000Y-63930000D01*
D20*
G36*
X167873000Y-45096864D02*
X167598957Y-44433628D01*
X167069161Y-43902907D01*
X166376595Y-43615328D01*
X165626695Y-43614674D01*
X164933628Y-43901043D01*
X164402907Y-44430839D01*
X164115328Y-45123405D01*
X164114674Y-45873305D01*
X164401043Y-46566372D01*
X164930839Y-47097093D01*
X165623405Y-47384672D01*
X166373305Y-47385326D01*
X167066372Y-47098957D01*
X167597093Y-46569161D01*
X167873000Y-45904704D01*
X167873000Y-124096864D01*
X167598957Y-123433628D01*
X167069161Y-122902907D01*
X166376595Y-122615328D01*
X165626695Y-122614674D01*
X164933628Y-122901043D01*
X164402907Y-123430839D01*
X164115328Y-124123405D01*
X164114674Y-124873305D01*
X164401043Y-125566372D01*
X164930839Y-126097093D01*
X165623405Y-126384672D01*
X166373305Y-126385326D01*
X167066372Y-126098957D01*
X167597093Y-125569161D01*
X167873000Y-124904704D01*
X167873000Y-126790000D01*
X126127000Y-126790000D01*
X126127000Y-124903136D01*
X126401043Y-125566372D01*
X126930839Y-126097093D01*
X127623405Y-126384672D01*
X128373305Y-126385326D01*
X129066372Y-126098957D01*
X129597093Y-125569161D01*
X129884672Y-124876595D01*
X129885326Y-124126695D01*
X129598957Y-123433628D01*
X129069161Y-122902907D01*
X128376595Y-122615328D01*
X127626695Y-122614674D01*
X126933628Y-122901043D01*
X126402907Y-123430839D01*
X126127000Y-124095296D01*
X126127000Y-119982815D01*
X161534630Y-119982815D01*
X161858980Y-120767800D01*
X162459041Y-121368909D01*
X163243459Y-121694628D01*
X164092815Y-121695370D01*
X164877800Y-121371020D01*
X165478909Y-120770959D01*
X165804628Y-119986541D01*
X165805370Y-119137185D01*
X165481020Y-118352200D01*
X164880959Y-117751091D01*
X164096541Y-117425372D01*
X163247185Y-117424630D01*
X162462200Y-117748980D01*
X161861091Y-118349041D01*
X161535372Y-119133459D01*
X161534630Y-119982815D01*
X126127000Y-119982815D01*
X126127000Y-108685171D01*
X159602799Y-108685171D01*
X159630770Y-109235448D01*
X159787540Y-109613923D01*
X160028483Y-109681912D01*
X160820395Y-108890000D01*
X161179605Y-108890000D01*
X161971517Y-109681912D01*
X162212460Y-109613923D01*
X162397201Y-109094829D01*
X162369230Y-108544552D01*
X162212460Y-108166077D01*
X161971517Y-108098088D01*
X161179605Y-108890000D01*
X160820395Y-108890000D01*
X160028483Y-108098088D01*
X159787540Y-108166077D01*
X159602799Y-108685171D01*
X126127000Y-108685171D01*
X126127000Y-108007745D01*
X151671861Y-108007745D01*
X151745995Y-108253864D01*
X152283223Y-108446965D01*
X152853454Y-108419778D01*
X153254005Y-108253864D01*
X153328139Y-108007745D01*
X152500000Y-107179605D01*
X151671861Y-108007745D01*
X126127000Y-108007745D01*
X126127000Y-106783223D01*
X151053035Y-106783223D01*
X151080222Y-107353454D01*
X151246136Y-107754005D01*
X151492255Y-107828139D01*
X152320395Y-107000000D01*
X152679605Y-107000000D01*
X153507745Y-107828139D01*
X153555167Y-107813855D01*
X153596838Y-108035317D01*
X153735910Y-108251441D01*
X153948110Y-108396431D01*
X154200000Y-108447440D01*
X155800000Y-108447440D01*
X156035317Y-108403162D01*
X156251441Y-108264090D01*
X156396431Y-108051890D01*
X156423446Y-107918483D01*
X160208088Y-107918483D01*
X161000000Y-108710395D01*
X161791912Y-107918483D01*
X161723923Y-107677540D01*
X161204829Y-107492799D01*
X160654552Y-107520770D01*
X160276077Y-107677540D01*
X160208088Y-107918483D01*
X156423446Y-107918483D01*
X156447440Y-107800000D01*
X156447440Y-106200000D01*
X156403162Y-105964683D01*
X156264090Y-105748559D01*
X156051890Y-105603569D01*
X155800000Y-105552560D01*
X154200000Y-105552560D01*
X153964683Y-105596838D01*
X153748559Y-105735910D01*
X153603569Y-105948110D01*
X153555354Y-106186201D01*
X153507745Y-106171861D01*
X152679605Y-107000000D01*
X152320395Y-107000000D01*
X151492255Y-106171861D01*
X151246136Y-106245995D01*
X151053035Y-106783223D01*
X126127000Y-106783223D01*
X126127000Y-105992255D01*
X151671861Y-105992255D01*
X152500000Y-106820395D01*
X153328139Y-105992255D01*
X153254005Y-105746136D01*
X152716777Y-105553035D01*
X152146546Y-105580222D01*
X151745995Y-105746136D01*
X151671861Y-105992255D01*
X126127000Y-105992255D01*
X126127000Y-102007745D01*
X128671861Y-102007745D01*
X128745995Y-102253864D01*
X129283223Y-102446965D01*
X129853454Y-102419778D01*
X130254005Y-102253864D01*
X130328139Y-102007745D01*
X143171861Y-102007745D01*
X143245995Y-102253864D01*
X143783223Y-102446965D01*
X144353454Y-102419778D01*
X144754005Y-102253864D01*
X144828139Y-102007745D01*
X149671861Y-102007745D01*
X149745995Y-102253864D01*
X150283223Y-102446965D01*
X150853454Y-102419778D01*
X151254005Y-102253864D01*
X151328139Y-102007745D01*
X150500000Y-101179605D01*
X149671861Y-102007745D01*
X144828139Y-102007745D01*
X144000000Y-101179605D01*
X143171861Y-102007745D01*
X130328139Y-102007745D01*
X129500000Y-101179605D01*
X128671861Y-102007745D01*
X126127000Y-102007745D01*
X126127000Y-100783223D01*
X128053035Y-100783223D01*
X128080222Y-101353454D01*
X128246136Y-101754005D01*
X128492255Y-101828139D01*
X129320395Y-101000000D01*
X129679605Y-101000000D01*
X130507745Y-101828139D01*
X130753864Y-101754005D01*
X130946965Y-101216777D01*
X130926295Y-100783223D01*
X142553035Y-100783223D01*
X142580222Y-101353454D01*
X142746136Y-101754005D01*
X142992255Y-101828139D01*
X143820395Y-101000000D01*
X144179605Y-101000000D01*
X145007745Y-101828139D01*
X145253864Y-101754005D01*
X145446965Y-101216777D01*
X145426295Y-100783223D01*
X149053035Y-100783223D01*
X149080222Y-101353454D01*
X149246136Y-101754005D01*
X149492255Y-101828139D01*
X150320395Y-101000000D01*
X150679605Y-101000000D01*
X151507745Y-101828139D01*
X151753864Y-101754005D01*
X151946965Y-101216777D01*
X151919778Y-100646546D01*
X151753864Y-100245995D01*
X151507745Y-100171861D01*
X150679605Y-101000000D01*
X150320395Y-101000000D01*
X149492255Y-100171861D01*
X149246136Y-100245995D01*
X149053035Y-100783223D01*
X145426295Y-100783223D01*
X145419778Y-100646546D01*
X145253864Y-100245995D01*
X145007745Y-100171861D01*
X144179605Y-101000000D01*
X143820395Y-101000000D01*
X142992255Y-100171861D01*
X142746136Y-100245995D01*
X142553035Y-100783223D01*
X130926295Y-100783223D01*
X130919778Y-100646546D01*
X130753864Y-100245995D01*
X130507745Y-100171861D01*
X129679605Y-101000000D01*
X129320395Y-101000000D01*
X128492255Y-100171861D01*
X128246136Y-100245995D01*
X128053035Y-100783223D01*
X126127000Y-100783223D01*
X126127000Y-97700000D01*
X128052560Y-97700000D01*
X128052560Y-99300000D01*
X128096838Y-99535317D01*
X128235910Y-99751441D01*
X128448110Y-99896431D01*
X128686201Y-99944646D01*
X128671861Y-99992255D01*
X129500000Y-100820395D01*
X130328139Y-99992255D01*
X130313855Y-99944833D01*
X130535317Y-99903162D01*
X130751441Y-99764090D01*
X130896431Y-99551890D01*
X130947440Y-99300000D01*
X130947440Y-97700000D01*
X142552560Y-97700000D01*
X142552560Y-99300000D01*
X142596838Y-99535317D01*
X142735910Y-99751441D01*
X142948110Y-99896431D01*
X143186201Y-99944646D01*
X143171861Y-99992255D01*
X144000000Y-100820395D01*
X144828139Y-99992255D01*
X144813855Y-99944833D01*
X145035317Y-99903162D01*
X145251441Y-99764090D01*
X145396431Y-99551890D01*
X145440352Y-99335000D01*
X149059146Y-99335000D01*
X149096838Y-99535317D01*
X149235910Y-99751441D01*
X149448110Y-99896431D01*
X149686201Y-99944646D01*
X149671861Y-99992255D01*
X150500000Y-100820395D01*
X151328139Y-99992255D01*
X151313855Y-99944833D01*
X151535317Y-99903162D01*
X151751441Y-99764090D01*
X151896431Y-99551890D01*
X151947440Y-99300000D01*
X151947440Y-97700000D01*
X151903162Y-97464683D01*
X151764090Y-97248559D01*
X151551890Y-97103569D01*
X151300000Y-97052560D01*
X149700000Y-97052560D01*
X149464683Y-97096838D01*
X149248559Y-97235910D01*
X149103569Y-97448110D01*
X149059648Y-97665000D01*
X145440854Y-97665000D01*
X145403162Y-97464683D01*
X145264090Y-97248559D01*
X145051890Y-97103569D01*
X144800000Y-97052560D01*
X143200000Y-97052560D01*
X142964683Y-97096838D01*
X142748559Y-97235910D01*
X142603569Y-97448110D01*
X142552560Y-97700000D01*
X130947440Y-97700000D01*
X130903162Y-97464683D01*
X130764090Y-97248559D01*
X130551890Y-97103569D01*
X130300000Y-97052560D01*
X128700000Y-97052560D01*
X128464683Y-97096838D01*
X128248559Y-97235910D01*
X128103569Y-97448110D01*
X128052560Y-97700000D01*
X126127000Y-97700000D01*
X126127000Y-66400000D01*
X127240000Y-66400000D01*
X127240000Y-94500000D01*
X127297852Y-94790839D01*
X127462599Y-95037401D01*
X128962599Y-96537401D01*
X129209160Y-96702148D01*
X129500000Y-96760000D01*
X155000000Y-96760000D01*
X155290839Y-96702148D01*
X155537401Y-96537401D01*
X156354802Y-95720000D01*
X159815453Y-95720000D01*
X159825169Y-95743515D01*
X160214436Y-96133461D01*
X160446870Y-96229976D01*
X160216485Y-96325169D01*
X159826539Y-96714436D01*
X159615241Y-97223298D01*
X159614760Y-97774285D01*
X159825169Y-98283515D01*
X160214436Y-98673461D01*
X160723298Y-98884759D01*
X161274285Y-98885240D01*
X161783515Y-98674831D01*
X162173461Y-98285564D01*
X162384759Y-97776702D01*
X162385240Y-97225715D01*
X162174831Y-96716485D01*
X161785564Y-96326539D01*
X161553130Y-96230024D01*
X161783515Y-96134831D01*
X162173461Y-95745564D01*
X162384759Y-95236702D01*
X162385240Y-94685715D01*
X162174831Y-94176485D01*
X161943687Y-93944938D01*
X162173461Y-93715564D01*
X162384759Y-93206702D01*
X162385240Y-92655715D01*
X162174831Y-92146485D01*
X161785564Y-91756539D01*
X161569021Y-91666623D01*
X161723923Y-91602460D01*
X161791912Y-91361517D01*
X161000000Y-90569605D01*
X160208088Y-91361517D01*
X160276077Y-91602460D01*
X160442621Y-91661732D01*
X160216485Y-91755169D01*
X159826539Y-92144436D01*
X159815924Y-92170000D01*
X155370000Y-92170000D01*
X155079161Y-92227852D01*
X154832599Y-92392599D01*
X152785198Y-94440000D01*
X130514802Y-94440000D01*
X129460000Y-93385198D01*
X129460000Y-92009066D01*
X129919041Y-92468909D01*
X130703459Y-92794628D01*
X131552815Y-92795370D01*
X132337800Y-92471020D01*
X132938909Y-91870959D01*
X133264628Y-91086541D01*
X133265370Y-90237185D01*
X132963971Y-89507745D01*
X152171861Y-89507745D01*
X152245995Y-89753864D01*
X152783223Y-89946965D01*
X153353454Y-89919778D01*
X153754005Y-89753864D01*
X153828139Y-89507745D01*
X153000000Y-88679605D01*
X152171861Y-89507745D01*
X132963971Y-89507745D01*
X132941020Y-89452200D01*
X132340959Y-88851091D01*
X131691754Y-88581517D01*
X133008088Y-88581517D01*
X133076077Y-88822460D01*
X133595171Y-89007201D01*
X134145448Y-88979230D01*
X134523923Y-88822460D01*
X134591912Y-88581517D01*
X133800000Y-87789605D01*
X133008088Y-88581517D01*
X131691754Y-88581517D01*
X131556541Y-88525372D01*
X130707185Y-88524630D01*
X129922200Y-88848980D01*
X129460000Y-89310374D01*
X129460000Y-87405171D01*
X132402799Y-87405171D01*
X132430770Y-87955448D01*
X132587540Y-88333923D01*
X132828483Y-88401912D01*
X133620395Y-87610000D01*
X133979605Y-87610000D01*
X134771517Y-88401912D01*
X135012460Y-88333923D01*
X135030503Y-88283223D01*
X151553035Y-88283223D01*
X151580222Y-88853454D01*
X151746136Y-89254005D01*
X151992255Y-89328139D01*
X152820395Y-88500000D01*
X151992255Y-87671861D01*
X151746136Y-87745995D01*
X151553035Y-88283223D01*
X135030503Y-88283223D01*
X135197201Y-87814829D01*
X135180805Y-87492255D01*
X152171861Y-87492255D01*
X153000000Y-88320395D01*
X153828139Y-87492255D01*
X153754005Y-87246136D01*
X153216777Y-87053035D01*
X152646546Y-87080222D01*
X152245995Y-87246136D01*
X152171861Y-87492255D01*
X135180805Y-87492255D01*
X135169230Y-87264552D01*
X135012460Y-86886077D01*
X134771517Y-86818088D01*
X133979605Y-87610000D01*
X133620395Y-87610000D01*
X132828483Y-86818088D01*
X132587540Y-86886077D01*
X132402799Y-87405171D01*
X129460000Y-87405171D01*
X129460000Y-83000000D01*
X130040000Y-83000000D01*
X130040000Y-84900000D01*
X130097852Y-85190839D01*
X130262599Y-85437401D01*
X131162599Y-86337401D01*
X131409160Y-86502148D01*
X131700000Y-86560000D01*
X133030234Y-86560000D01*
X133008088Y-86638483D01*
X133800000Y-87430395D01*
X134591912Y-86638483D01*
X134523923Y-86397540D01*
X134357379Y-86338268D01*
X134583515Y-86244831D01*
X134973461Y-85855564D01*
X135184759Y-85346702D01*
X135185240Y-84795715D01*
X134974831Y-84286485D01*
X134743687Y-84054938D01*
X134973461Y-83825564D01*
X134984076Y-83800000D01*
X140460000Y-83800000D01*
X140750839Y-83742148D01*
X140997401Y-83577401D01*
X143737401Y-80837401D01*
X143902148Y-80590839D01*
X143960000Y-80300000D01*
X143960000Y-68265070D01*
X144065167Y-68265162D01*
X144408943Y-68123117D01*
X144417074Y-68115000D01*
X144940000Y-68115000D01*
X145240407Y-68055245D01*
X145495079Y-67885079D01*
X145515005Y-67865153D01*
X145525167Y-67865162D01*
X145868943Y-67723117D01*
X146132192Y-67460327D01*
X146274838Y-67116799D01*
X146275162Y-66744833D01*
X146242176Y-66665000D01*
X147610000Y-66665000D01*
X147910407Y-66605245D01*
X148165079Y-66435079D01*
X148787678Y-65812480D01*
X148914878Y-65939680D01*
X148914838Y-65985167D01*
X149056883Y-66328943D01*
X149319673Y-66592192D01*
X149663201Y-66734838D01*
X150035167Y-66735162D01*
X150378943Y-66593117D01*
X150642192Y-66330327D01*
X150784838Y-65986799D01*
X150785162Y-65614833D01*
X150643117Y-65271057D01*
X150380327Y-65007808D01*
X150036799Y-64865162D01*
X149989923Y-64865121D01*
X149960000Y-64835198D01*
X149960000Y-59272463D01*
X149992192Y-59240327D01*
X150134838Y-58896799D01*
X150135162Y-58524833D01*
X149993117Y-58181057D01*
X149730327Y-57917808D01*
X149386799Y-57775162D01*
X149014833Y-57774838D01*
X148733259Y-57891182D01*
X148480327Y-57637808D01*
X148136799Y-57495162D01*
X147764833Y-57494838D01*
X147421057Y-57636883D01*
X147157808Y-57899673D01*
X147015162Y-58243201D01*
X147014838Y-58615167D01*
X147123922Y-58879172D01*
X147081057Y-58896883D01*
X146817808Y-59159673D01*
X146675162Y-59503201D01*
X146675161Y-59504838D01*
X146331057Y-59646883D01*
X146067808Y-59909673D01*
X145925162Y-60253201D01*
X145924838Y-60625167D01*
X146066883Y-60968943D01*
X146075000Y-60977074D01*
X146075000Y-61844842D01*
X145705000Y-62214842D01*
X145705000Y-56465158D01*
X145845158Y-56325000D01*
X146164925Y-56325000D01*
X146164838Y-56425167D01*
X146306883Y-56768943D01*
X146569673Y-57032192D01*
X146913201Y-57174838D01*
X147285167Y-57175162D01*
X147628943Y-57033117D01*
X147682153Y-56980000D01*
X150455198Y-56980000D01*
X150840000Y-57364802D01*
X150840000Y-67275198D01*
X149892599Y-68222599D01*
X149727852Y-68469161D01*
X149670000Y-68760000D01*
X149670000Y-83105198D01*
X148720320Y-84054878D01*
X148674833Y-84054838D01*
X148331057Y-84196883D01*
X148067808Y-84459673D01*
X147925162Y-84803201D01*
X147924838Y-85175167D01*
X148066883Y-85518943D01*
X148329673Y-85782192D01*
X148673201Y-85924838D01*
X149045167Y-85925162D01*
X149388943Y-85783117D01*
X149652192Y-85520327D01*
X149794838Y-85176799D01*
X149794879Y-85129923D01*
X150967401Y-83957401D01*
X151132148Y-83710840D01*
X151190000Y-83420000D01*
X151190000Y-71507745D01*
X152171861Y-71507745D01*
X152245995Y-71753864D01*
X152783223Y-71946965D01*
X153353454Y-71919778D01*
X153754005Y-71753864D01*
X153828139Y-71507745D01*
X153000000Y-70679605D01*
X152171861Y-71507745D01*
X151190000Y-71507745D01*
X151190000Y-70283223D01*
X151553035Y-70283223D01*
X151580222Y-70853454D01*
X151746136Y-71254005D01*
X151992255Y-71328139D01*
X152820395Y-70500000D01*
X151992255Y-69671861D01*
X151746136Y-69745995D01*
X151553035Y-70283223D01*
X151190000Y-70283223D01*
X151190000Y-69492255D01*
X152171861Y-69492255D01*
X153000000Y-70320395D01*
X153828139Y-69492255D01*
X153754005Y-69246136D01*
X153216777Y-69053035D01*
X152646546Y-69080222D01*
X152245995Y-69246136D01*
X152171861Y-69492255D01*
X151190000Y-69492255D01*
X151190000Y-69074802D01*
X152137401Y-68127401D01*
X152302148Y-67880839D01*
X152360000Y-67590000D01*
X152360000Y-57050000D01*
X152335136Y-56925000D01*
X152302148Y-56759160D01*
X152137401Y-56512599D01*
X151307401Y-55682599D01*
X151060839Y-55517852D01*
X150770000Y-55460000D01*
X147642498Y-55460000D01*
X147630327Y-55447808D01*
X147502354Y-55394669D01*
X147513426Y-55339008D01*
X147562192Y-55290327D01*
X147704838Y-54946799D01*
X147705162Y-54574833D01*
X147563117Y-54231057D01*
X147300327Y-53967808D01*
X146956799Y-53825162D01*
X146584833Y-53824838D01*
X146241057Y-53966883D01*
X145977808Y-54229673D01*
X145835162Y-54573201D01*
X145835004Y-54755000D01*
X145520000Y-54755000D01*
X145219593Y-54814755D01*
X144964921Y-54984921D01*
X144364921Y-55584921D01*
X144194755Y-55839593D01*
X144151941Y-56054833D01*
X144135000Y-56140000D01*
X144135000Y-62144842D01*
X143960000Y-62319842D01*
X143960000Y-54262114D01*
X144192192Y-54030327D01*
X144334838Y-53686799D01*
X144335162Y-53314833D01*
X144193117Y-52971057D01*
X143930327Y-52707808D01*
X143586799Y-52565162D01*
X143214833Y-52564838D01*
X143053838Y-52631360D01*
X143030327Y-52607808D01*
X142686799Y-52465162D01*
X142314833Y-52464838D01*
X141971057Y-52606883D01*
X141707808Y-52869673D01*
X141565162Y-53213201D01*
X141564838Y-53585167D01*
X141640000Y-53767073D01*
X141640000Y-57365198D01*
X141035122Y-56760320D01*
X141035162Y-56714833D01*
X140893117Y-56371057D01*
X140630327Y-56107808D01*
X140286799Y-55965162D01*
X139914833Y-55964838D01*
X139571057Y-56106883D01*
X139307808Y-56369673D01*
X139165162Y-56713201D01*
X139164838Y-57085167D01*
X139306883Y-57428943D01*
X139569673Y-57692192D01*
X139913201Y-57834838D01*
X139960077Y-57834879D01*
X140940000Y-58814802D01*
X140940000Y-77985198D01*
X139860320Y-79064878D01*
X139814833Y-79064838D01*
X139471057Y-79206883D01*
X139207808Y-79469673D01*
X139065162Y-79813201D01*
X139064838Y-80185167D01*
X139206883Y-80528943D01*
X139469673Y-80792192D01*
X139813201Y-80934838D01*
X139990206Y-80934992D01*
X139885198Y-81040000D01*
X135075428Y-81040000D01*
X135184759Y-80776702D01*
X135185240Y-80225715D01*
X134974831Y-79716485D01*
X134585564Y-79326539D01*
X134076702Y-79115241D01*
X133525715Y-79114760D01*
X133016485Y-79325169D01*
X132626539Y-79714436D01*
X132415241Y-80223298D01*
X132414760Y-80774285D01*
X132524551Y-81040000D01*
X132000000Y-81040000D01*
X131709160Y-81097852D01*
X131462599Y-81262599D01*
X130262599Y-82462599D01*
X130097852Y-82709161D01*
X130040000Y-83000000D01*
X129460000Y-83000000D01*
X129460000Y-78289066D01*
X129919041Y-78748909D01*
X130703459Y-79074628D01*
X131552815Y-79075370D01*
X132337800Y-78751020D01*
X132938909Y-78150959D01*
X133264628Y-77366541D01*
X133265370Y-76517185D01*
X132941020Y-75732200D01*
X132340959Y-75131091D01*
X131556541Y-74805372D01*
X130707185Y-74804630D01*
X129922200Y-75128980D01*
X129460000Y-75590374D01*
X129460000Y-67114802D01*
X132537401Y-64037401D01*
X132702148Y-63790839D01*
X132760000Y-63500000D01*
X132760000Y-61514802D01*
X136339680Y-57935122D01*
X136385167Y-57935162D01*
X136728943Y-57793117D01*
X136992192Y-57530327D01*
X137134838Y-57186799D01*
X137135162Y-56814833D01*
X136993117Y-56471057D01*
X136730327Y-56207808D01*
X136386799Y-56065162D01*
X136014833Y-56064838D01*
X135671057Y-56206883D01*
X135407808Y-56469673D01*
X135265162Y-56813201D01*
X135265121Y-56860077D01*
X134723777Y-57401421D01*
X134630327Y-57307808D01*
X134286799Y-57165162D01*
X133914833Y-57164838D01*
X133571057Y-57306883D01*
X133307808Y-57569673D01*
X133165162Y-57913201D01*
X133165121Y-57960077D01*
X131078709Y-60046489D01*
X131014132Y-59890200D01*
X130512441Y-59387633D01*
X129856616Y-59115311D01*
X129146499Y-59114691D01*
X128490200Y-59385868D01*
X127987633Y-59887559D01*
X127715311Y-60543384D01*
X127714691Y-61253501D01*
X127985868Y-61909800D01*
X128487559Y-62412367D01*
X129143384Y-62684689D01*
X129853501Y-62685309D01*
X130509800Y-62414132D01*
X130640000Y-62284159D01*
X130640000Y-62685198D01*
X127462599Y-65862599D01*
X127297852Y-66109161D01*
X127240000Y-66400000D01*
X126127000Y-66400000D01*
X126127000Y-56353501D01*
X127714691Y-56353501D01*
X127985868Y-57009800D01*
X128487559Y-57512367D01*
X129143384Y-57784689D01*
X129853501Y-57785309D01*
X130509800Y-57514132D01*
X131012367Y-57012441D01*
X131284689Y-56356616D01*
X131285309Y-55646499D01*
X131014132Y-54990200D01*
X130512441Y-54487633D01*
X129856616Y-54215311D01*
X129146499Y-54214691D01*
X128490200Y-54485868D01*
X127987633Y-54987559D01*
X127715311Y-55643384D01*
X127714691Y-56353501D01*
X126127000Y-56353501D01*
X126127000Y-51585167D01*
X133564838Y-51585167D01*
X133706883Y-51928943D01*
X133969673Y-52192192D01*
X134313201Y-52334838D01*
X134685167Y-52335162D01*
X135028943Y-52193117D01*
X135099981Y-52122203D01*
X135269673Y-52292192D01*
X135613201Y-52434838D01*
X135985167Y-52435162D01*
X136328943Y-52293117D01*
X136592192Y-52030327D01*
X136734838Y-51686799D01*
X136734879Y-51639923D01*
X136737401Y-51637401D01*
X136902148Y-51390840D01*
X136937158Y-51214833D01*
X136960000Y-51100000D01*
X136960000Y-50283223D01*
X152053035Y-50283223D01*
X152080222Y-50853454D01*
X152246136Y-51254005D01*
X152492255Y-51328139D01*
X153320395Y-50500000D01*
X152492255Y-49671861D01*
X152246136Y-49745995D01*
X152053035Y-50283223D01*
X136960000Y-50283223D01*
X136960000Y-50214802D01*
X140114802Y-47060000D01*
X151285198Y-47060000D01*
X153298190Y-49072992D01*
X153146546Y-49080222D01*
X152745995Y-49246136D01*
X152671861Y-49492255D01*
X153500000Y-50320395D01*
X153514142Y-50306252D01*
X153693748Y-50485858D01*
X153679605Y-50500000D01*
X154507745Y-51328139D01*
X154753864Y-51254005D01*
X154945646Y-50720448D01*
X157640000Y-53414802D01*
X157640000Y-62265198D01*
X157435122Y-62060320D01*
X157435162Y-62014833D01*
X157293117Y-61671057D01*
X157030327Y-61407808D01*
X156686799Y-61265162D01*
X156314833Y-61264838D01*
X155971057Y-61406883D01*
X155707808Y-61669673D01*
X155565162Y-62013201D01*
X155564838Y-62385167D01*
X155600247Y-62470865D01*
X155271057Y-62606883D01*
X155007808Y-62869673D01*
X154865162Y-63213201D01*
X154864838Y-63585167D01*
X155006883Y-63928943D01*
X155269673Y-64192192D01*
X155613201Y-64334838D01*
X155660077Y-64334879D01*
X156240000Y-64914802D01*
X156240000Y-66953407D01*
X156090434Y-66729566D01*
X154335000Y-64974132D01*
X154335000Y-54440854D01*
X154535317Y-54403162D01*
X154751441Y-54264090D01*
X154896431Y-54051890D01*
X154947440Y-53800000D01*
X154947440Y-52200000D01*
X154903162Y-51964683D01*
X154764090Y-51748559D01*
X154551890Y-51603569D01*
X154313799Y-51555354D01*
X154328139Y-51507745D01*
X153500000Y-50679605D01*
X152671861Y-51507745D01*
X152686145Y-51555167D01*
X152464683Y-51596838D01*
X152248559Y-51735910D01*
X152103569Y-51948110D01*
X152052560Y-52200000D01*
X152052560Y-53800000D01*
X152096838Y-54035317D01*
X152235910Y-54251441D01*
X152448110Y-54396431D01*
X152665000Y-54440352D01*
X152665000Y-65320000D01*
X152728561Y-65639541D01*
X152866008Y-65845245D01*
X152909566Y-65910434D01*
X154665000Y-67665868D01*
X154665000Y-69059146D01*
X154464683Y-69096838D01*
X154248559Y-69235910D01*
X154103569Y-69448110D01*
X154055354Y-69686201D01*
X154007745Y-69671861D01*
X153179605Y-70500000D01*
X154007745Y-71328139D01*
X154055167Y-71313855D01*
X154096838Y-71535317D01*
X154235910Y-71751441D01*
X154448110Y-71896431D01*
X154700000Y-71947440D01*
X156240000Y-71947440D01*
X156240000Y-87052560D01*
X154700000Y-87052560D01*
X154464683Y-87096838D01*
X154248559Y-87235910D01*
X154103569Y-87448110D01*
X154055354Y-87686201D01*
X154007745Y-87671861D01*
X153179605Y-88500000D01*
X154007745Y-89328139D01*
X154055167Y-89313855D01*
X154096838Y-89535317D01*
X154235910Y-89751441D01*
X154448110Y-89896431D01*
X154700000Y-89947440D01*
X156300000Y-89947440D01*
X156535317Y-89903162D01*
X156751441Y-89764090D01*
X156896431Y-89551890D01*
X156947440Y-89300000D01*
X156947440Y-88622242D01*
X158062599Y-89737401D01*
X158309161Y-89902148D01*
X158600000Y-89960000D01*
X159682935Y-89960000D01*
X159602799Y-90185171D01*
X159630770Y-90735448D01*
X159787540Y-91113923D01*
X160028483Y-91181912D01*
X160820395Y-90390000D01*
X160806253Y-90375858D01*
X160985858Y-90196253D01*
X161000000Y-90210395D01*
X161014143Y-90196253D01*
X161193748Y-90375858D01*
X161179605Y-90390000D01*
X161971517Y-91181912D01*
X162212460Y-91113923D01*
X162298201Y-90873003D01*
X165140000Y-93714802D01*
X165140000Y-99510584D01*
X164880959Y-99251091D01*
X164096541Y-98925372D01*
X163247185Y-98924630D01*
X162462200Y-99248980D01*
X161861091Y-99849041D01*
X161535372Y-100633459D01*
X161534630Y-101482815D01*
X161858980Y-102267800D01*
X162459041Y-102868909D01*
X163243459Y-103194628D01*
X164092815Y-103195370D01*
X164877800Y-102871020D01*
X165140000Y-102609277D01*
X165140000Y-104290584D01*
X164880959Y-104031091D01*
X164096541Y-103705372D01*
X163247185Y-103704630D01*
X162462200Y-104028980D01*
X161861091Y-104629041D01*
X161535372Y-105413459D01*
X161534630Y-106262815D01*
X161858980Y-107047800D01*
X162459041Y-107648909D01*
X163243459Y-107974628D01*
X164092815Y-107975370D01*
X164877800Y-107651020D01*
X165140000Y-107389277D01*
X165140000Y-109385198D01*
X163855198Y-110670000D01*
X162184547Y-110670000D01*
X162174831Y-110646485D01*
X161785564Y-110256539D01*
X161569021Y-110166623D01*
X161723923Y-110102460D01*
X161791912Y-109861517D01*
X161000000Y-109069605D01*
X160208088Y-109861517D01*
X160276077Y-110102460D01*
X160442621Y-110161732D01*
X160216485Y-110255169D01*
X159826539Y-110644436D01*
X159615241Y-111153298D01*
X159614760Y-111704285D01*
X159825169Y-112213515D01*
X160056313Y-112445062D01*
X159826539Y-112674436D01*
X159615241Y-113183298D01*
X159614760Y-113734285D01*
X159825169Y-114243515D01*
X160214436Y-114633461D01*
X160446870Y-114729976D01*
X160216485Y-114825169D01*
X159826539Y-115214436D01*
X159615241Y-115723298D01*
X159614760Y-116274285D01*
X159825169Y-116783515D01*
X160214436Y-117173461D01*
X160723298Y-117384759D01*
X161274285Y-117385240D01*
X161783515Y-117174831D01*
X162173461Y-116785564D01*
X162384759Y-116276702D01*
X162385240Y-115725715D01*
X162174831Y-115216485D01*
X161785564Y-114826539D01*
X161553130Y-114730024D01*
X161783515Y-114634831D01*
X162173461Y-114245564D01*
X162184076Y-114220000D01*
X165040000Y-114220000D01*
X165330839Y-114162148D01*
X165577401Y-113997401D01*
X167137401Y-112437401D01*
X167302148Y-112190839D01*
X167360000Y-111900000D01*
X167360000Y-93200000D01*
X167302148Y-92909161D01*
X167137401Y-92662599D01*
X163950047Y-89475245D01*
X164092815Y-89475370D01*
X164877800Y-89151020D01*
X165478909Y-88550959D01*
X165804628Y-87766541D01*
X165805370Y-86917185D01*
X165481020Y-86132200D01*
X164880959Y-85531091D01*
X164096541Y-85205372D01*
X163247185Y-85204630D01*
X162462200Y-85528980D01*
X161861091Y-86129041D01*
X161535372Y-86913459D01*
X161534630Y-87762815D01*
X161607842Y-87940000D01*
X159614802Y-87940000D01*
X158460000Y-86785198D01*
X158460000Y-82982815D01*
X161534630Y-82982815D01*
X161858980Y-83767800D01*
X162459041Y-84368909D01*
X163243459Y-84694628D01*
X164092815Y-84695370D01*
X164877800Y-84371020D01*
X165478909Y-83770959D01*
X165804628Y-82986541D01*
X165805370Y-82137185D01*
X165481020Y-81352200D01*
X164880959Y-80751091D01*
X164096541Y-80425372D01*
X163247185Y-80424630D01*
X162462200Y-80748980D01*
X161861091Y-81349041D01*
X161535372Y-82133459D01*
X161534630Y-82982815D01*
X158460000Y-82982815D01*
X158460000Y-76834802D01*
X158622599Y-76997401D01*
X158869160Y-77162148D01*
X159160000Y-77220000D01*
X159815453Y-77220000D01*
X159825169Y-77243515D01*
X160214436Y-77633461D01*
X160446870Y-77729976D01*
X160216485Y-77825169D01*
X159826539Y-78214436D01*
X159615241Y-78723298D01*
X159614760Y-79274285D01*
X159825169Y-79783515D01*
X160214436Y-80173461D01*
X160723298Y-80384759D01*
X161274285Y-80385240D01*
X161783515Y-80174831D01*
X162173461Y-79785564D01*
X162384759Y-79276702D01*
X162385240Y-78725715D01*
X162174831Y-78216485D01*
X161785564Y-77826539D01*
X161553130Y-77730024D01*
X161783515Y-77634831D01*
X162173461Y-77245564D01*
X162384759Y-76736702D01*
X162385240Y-76185715D01*
X162174831Y-75676485D01*
X161943687Y-75444938D01*
X162173461Y-75215564D01*
X162384759Y-74706702D01*
X162385240Y-74155715D01*
X162174831Y-73646485D01*
X161785564Y-73256539D01*
X161569021Y-73166623D01*
X161723923Y-73102460D01*
X161791912Y-72861517D01*
X161000000Y-72069605D01*
X160985858Y-72083748D01*
X160806253Y-71904143D01*
X160820395Y-71890000D01*
X161179605Y-71890000D01*
X161971517Y-72681912D01*
X162212460Y-72613923D01*
X162397201Y-72094829D01*
X162369230Y-71544552D01*
X162212460Y-71166077D01*
X161971517Y-71098088D01*
X161179605Y-71890000D01*
X160820395Y-71890000D01*
X160806253Y-71875858D01*
X160985858Y-71696253D01*
X161000000Y-71710395D01*
X161791912Y-70918483D01*
X161723923Y-70677540D01*
X161204829Y-70492799D01*
X160654552Y-70520770D01*
X160276077Y-70677540D01*
X160208089Y-70918481D01*
X160093034Y-70803426D01*
X160060000Y-70836460D01*
X160060000Y-69262815D01*
X161534630Y-69262815D01*
X161858980Y-70047800D01*
X162459041Y-70648909D01*
X163243459Y-70974628D01*
X164092815Y-70975370D01*
X164877800Y-70651020D01*
X165478909Y-70050959D01*
X165804628Y-69266541D01*
X165805370Y-68417185D01*
X165481020Y-67632200D01*
X164880959Y-67031091D01*
X164096541Y-66705372D01*
X163247185Y-66704630D01*
X162462200Y-67028980D01*
X161861091Y-67629041D01*
X161535372Y-68413459D01*
X161534630Y-69262815D01*
X160060000Y-69262815D01*
X160060000Y-64482815D01*
X161534630Y-64482815D01*
X161858980Y-65267800D01*
X162459041Y-65868909D01*
X163243459Y-66194628D01*
X164092815Y-66195370D01*
X164877800Y-65871020D01*
X165478909Y-65270959D01*
X165804628Y-64486541D01*
X165805370Y-63637185D01*
X165481020Y-62852200D01*
X164880959Y-62251091D01*
X164096541Y-61925372D01*
X163247185Y-61924630D01*
X162462200Y-62248980D01*
X161861091Y-62849041D01*
X161535372Y-63633459D01*
X161534630Y-64482815D01*
X160060000Y-64482815D01*
X160060000Y-61518756D01*
X160214436Y-61673461D01*
X160723298Y-61884759D01*
X161274285Y-61885240D01*
X161783515Y-61674831D01*
X162173461Y-61285564D01*
X162384759Y-60776702D01*
X162385240Y-60225715D01*
X162174831Y-59716485D01*
X161785564Y-59326539D01*
X161553130Y-59230024D01*
X161783515Y-59134831D01*
X162173461Y-58745564D01*
X162384759Y-58236702D01*
X162385240Y-57685715D01*
X162174831Y-57176485D01*
X161943687Y-56944938D01*
X162173461Y-56715564D01*
X162384759Y-56206702D01*
X162385240Y-55655715D01*
X162174831Y-55146485D01*
X161785564Y-54756539D01*
X161569021Y-54666623D01*
X161723923Y-54602460D01*
X161791912Y-54361517D01*
X161000000Y-53569605D01*
X160985858Y-53583748D01*
X160806253Y-53404143D01*
X160820395Y-53390000D01*
X161179605Y-53390000D01*
X161971517Y-54181912D01*
X162212460Y-54113923D01*
X162397201Y-53594829D01*
X162369230Y-53044552D01*
X162212460Y-52666077D01*
X161971517Y-52598088D01*
X161179605Y-53390000D01*
X160820395Y-53390000D01*
X160806253Y-53375858D01*
X160985858Y-53196253D01*
X161000000Y-53210395D01*
X161791912Y-52418483D01*
X161723923Y-52177540D01*
X161204829Y-51992799D01*
X160654552Y-52020770D01*
X160276077Y-52177540D01*
X160208089Y-52418481D01*
X160093034Y-52303426D01*
X160049458Y-52347002D01*
X160002148Y-52109161D01*
X159837401Y-51862599D01*
X158737617Y-50762815D01*
X161534630Y-50762815D01*
X161858980Y-51547800D01*
X162459041Y-52148909D01*
X163243459Y-52474628D01*
X164092815Y-52475370D01*
X164877800Y-52151020D01*
X165478909Y-51550959D01*
X165804628Y-50766541D01*
X165805370Y-49917185D01*
X165481020Y-49132200D01*
X164880959Y-48531091D01*
X164096541Y-48205372D01*
X163247185Y-48204630D01*
X162462200Y-48528980D01*
X161861091Y-49129041D01*
X161535372Y-49913459D01*
X161534630Y-50762815D01*
X158737617Y-50762815D01*
X153137401Y-45162599D01*
X152890839Y-44997852D01*
X152600000Y-44940000D01*
X139000000Y-44940000D01*
X138709161Y-44997852D01*
X138462599Y-45162599D01*
X133962599Y-49662599D01*
X133797852Y-49909161D01*
X133740000Y-50200000D01*
X133740000Y-50837537D01*
X133707808Y-50869673D01*
X133565162Y-51213201D01*
X133564838Y-51585167D01*
X126127000Y-51585167D01*
X126127000Y-45903136D01*
X126401043Y-46566372D01*
X126930839Y-47097093D01*
X127623405Y-47384672D01*
X128373305Y-47385326D01*
X129066372Y-47098957D01*
X129597093Y-46569161D01*
X129884672Y-45876595D01*
X129885326Y-45126695D01*
X129598957Y-44433628D01*
X129069161Y-43902907D01*
X128376595Y-43615328D01*
X127626695Y-43614674D01*
X126933628Y-43901043D01*
X126402907Y-44430839D01*
X126127000Y-45095296D01*
X126127000Y-43210000D01*
X167873000Y-43210000D01*
X167873000Y-45096864D01*
X167873000Y-45096864D01*
G37*
X167873000Y-45096864D02*
X167598957Y-44433628D01*
X167069161Y-43902907D01*
X166376595Y-43615328D01*
X165626695Y-43614674D01*
X164933628Y-43901043D01*
X164402907Y-44430839D01*
X164115328Y-45123405D01*
X164114674Y-45873305D01*
X164401043Y-46566372D01*
X164930839Y-47097093D01*
X165623405Y-47384672D01*
X166373305Y-47385326D01*
X167066372Y-47098957D01*
X167597093Y-46569161D01*
X167873000Y-45904704D01*
X167873000Y-124096864D01*
X167598957Y-123433628D01*
X167069161Y-122902907D01*
X166376595Y-122615328D01*
X165626695Y-122614674D01*
X164933628Y-122901043D01*
X164402907Y-123430839D01*
X164115328Y-124123405D01*
X164114674Y-124873305D01*
X164401043Y-125566372D01*
X164930839Y-126097093D01*
X165623405Y-126384672D01*
X166373305Y-126385326D01*
X167066372Y-126098957D01*
X167597093Y-125569161D01*
X167873000Y-124904704D01*
X167873000Y-126790000D01*
X126127000Y-126790000D01*
X126127000Y-124903136D01*
X126401043Y-125566372D01*
X126930839Y-126097093D01*
X127623405Y-126384672D01*
X128373305Y-126385326D01*
X129066372Y-126098957D01*
X129597093Y-125569161D01*
X129884672Y-124876595D01*
X129885326Y-124126695D01*
X129598957Y-123433628D01*
X129069161Y-122902907D01*
X128376595Y-122615328D01*
X127626695Y-122614674D01*
X126933628Y-122901043D01*
X126402907Y-123430839D01*
X126127000Y-124095296D01*
X126127000Y-119982815D01*
X161534630Y-119982815D01*
X161858980Y-120767800D01*
X162459041Y-121368909D01*
X163243459Y-121694628D01*
X164092815Y-121695370D01*
X164877800Y-121371020D01*
X165478909Y-120770959D01*
X165804628Y-119986541D01*
X165805370Y-119137185D01*
X165481020Y-118352200D01*
X164880959Y-117751091D01*
X164096541Y-117425372D01*
X163247185Y-117424630D01*
X162462200Y-117748980D01*
X161861091Y-118349041D01*
X161535372Y-119133459D01*
X161534630Y-119982815D01*
X126127000Y-119982815D01*
X126127000Y-108685171D01*
X159602799Y-108685171D01*
X159630770Y-109235448D01*
X159787540Y-109613923D01*
X160028483Y-109681912D01*
X160820395Y-108890000D01*
X161179605Y-108890000D01*
X161971517Y-109681912D01*
X162212460Y-109613923D01*
X162397201Y-109094829D01*
X162369230Y-108544552D01*
X162212460Y-108166077D01*
X161971517Y-108098088D01*
X161179605Y-108890000D01*
X160820395Y-108890000D01*
X160028483Y-108098088D01*
X159787540Y-108166077D01*
X159602799Y-108685171D01*
X126127000Y-108685171D01*
X126127000Y-108007745D01*
X151671861Y-108007745D01*
X151745995Y-108253864D01*
X152283223Y-108446965D01*
X152853454Y-108419778D01*
X153254005Y-108253864D01*
X153328139Y-108007745D01*
X152500000Y-107179605D01*
X151671861Y-108007745D01*
X126127000Y-108007745D01*
X126127000Y-106783223D01*
X151053035Y-106783223D01*
X151080222Y-107353454D01*
X151246136Y-107754005D01*
X151492255Y-107828139D01*
X152320395Y-107000000D01*
X152679605Y-107000000D01*
X153507745Y-107828139D01*
X153555167Y-107813855D01*
X153596838Y-108035317D01*
X153735910Y-108251441D01*
X153948110Y-108396431D01*
X154200000Y-108447440D01*
X155800000Y-108447440D01*
X156035317Y-108403162D01*
X156251441Y-108264090D01*
X156396431Y-108051890D01*
X156423446Y-107918483D01*
X160208088Y-107918483D01*
X161000000Y-108710395D01*
X161791912Y-107918483D01*
X161723923Y-107677540D01*
X161204829Y-107492799D01*
X160654552Y-107520770D01*
X160276077Y-107677540D01*
X160208088Y-107918483D01*
X156423446Y-107918483D01*
X156447440Y-107800000D01*
X156447440Y-106200000D01*
X156403162Y-105964683D01*
X156264090Y-105748559D01*
X156051890Y-105603569D01*
X155800000Y-105552560D01*
X154200000Y-105552560D01*
X153964683Y-105596838D01*
X153748559Y-105735910D01*
X153603569Y-105948110D01*
X153555354Y-106186201D01*
X153507745Y-106171861D01*
X152679605Y-107000000D01*
X152320395Y-107000000D01*
X151492255Y-106171861D01*
X151246136Y-106245995D01*
X151053035Y-106783223D01*
X126127000Y-106783223D01*
X126127000Y-105992255D01*
X151671861Y-105992255D01*
X152500000Y-106820395D01*
X153328139Y-105992255D01*
X153254005Y-105746136D01*
X152716777Y-105553035D01*
X152146546Y-105580222D01*
X151745995Y-105746136D01*
X151671861Y-105992255D01*
X126127000Y-105992255D01*
X126127000Y-102007745D01*
X128671861Y-102007745D01*
X128745995Y-102253864D01*
X129283223Y-102446965D01*
X129853454Y-102419778D01*
X130254005Y-102253864D01*
X130328139Y-102007745D01*
X143171861Y-102007745D01*
X143245995Y-102253864D01*
X143783223Y-102446965D01*
X144353454Y-102419778D01*
X144754005Y-102253864D01*
X144828139Y-102007745D01*
X149671861Y-102007745D01*
X149745995Y-102253864D01*
X150283223Y-102446965D01*
X150853454Y-102419778D01*
X151254005Y-102253864D01*
X151328139Y-102007745D01*
X150500000Y-101179605D01*
X149671861Y-102007745D01*
X144828139Y-102007745D01*
X144000000Y-101179605D01*
X143171861Y-102007745D01*
X130328139Y-102007745D01*
X129500000Y-101179605D01*
X128671861Y-102007745D01*
X126127000Y-102007745D01*
X126127000Y-100783223D01*
X128053035Y-100783223D01*
X128080222Y-101353454D01*
X128246136Y-101754005D01*
X128492255Y-101828139D01*
X129320395Y-101000000D01*
X129679605Y-101000000D01*
X130507745Y-101828139D01*
X130753864Y-101754005D01*
X130946965Y-101216777D01*
X130926295Y-100783223D01*
X142553035Y-100783223D01*
X142580222Y-101353454D01*
X142746136Y-101754005D01*
X142992255Y-101828139D01*
X143820395Y-101000000D01*
X144179605Y-101000000D01*
X145007745Y-101828139D01*
X145253864Y-101754005D01*
X145446965Y-101216777D01*
X145426295Y-100783223D01*
X149053035Y-100783223D01*
X149080222Y-101353454D01*
X149246136Y-101754005D01*
X149492255Y-101828139D01*
X150320395Y-101000000D01*
X150679605Y-101000000D01*
X151507745Y-101828139D01*
X151753864Y-101754005D01*
X151946965Y-101216777D01*
X151919778Y-100646546D01*
X151753864Y-100245995D01*
X151507745Y-100171861D01*
X150679605Y-101000000D01*
X150320395Y-101000000D01*
X149492255Y-100171861D01*
X149246136Y-100245995D01*
X149053035Y-100783223D01*
X145426295Y-100783223D01*
X145419778Y-100646546D01*
X145253864Y-100245995D01*
X145007745Y-100171861D01*
X144179605Y-101000000D01*
X143820395Y-101000000D01*
X142992255Y-100171861D01*
X142746136Y-100245995D01*
X142553035Y-100783223D01*
X130926295Y-100783223D01*
X130919778Y-100646546D01*
X130753864Y-100245995D01*
X130507745Y-100171861D01*
X129679605Y-101000000D01*
X129320395Y-101000000D01*
X128492255Y-100171861D01*
X128246136Y-100245995D01*
X128053035Y-100783223D01*
X126127000Y-100783223D01*
X126127000Y-97700000D01*
X128052560Y-97700000D01*
X128052560Y-99300000D01*
X128096838Y-99535317D01*
X128235910Y-99751441D01*
X128448110Y-99896431D01*
X128686201Y-99944646D01*
X128671861Y-99992255D01*
X129500000Y-100820395D01*
X130328139Y-99992255D01*
X130313855Y-99944833D01*
X130535317Y-99903162D01*
X130751441Y-99764090D01*
X130896431Y-99551890D01*
X130947440Y-99300000D01*
X130947440Y-97700000D01*
X142552560Y-97700000D01*
X142552560Y-99300000D01*
X142596838Y-99535317D01*
X142735910Y-99751441D01*
X142948110Y-99896431D01*
X143186201Y-99944646D01*
X143171861Y-99992255D01*
X144000000Y-100820395D01*
X144828139Y-99992255D01*
X144813855Y-99944833D01*
X145035317Y-99903162D01*
X145251441Y-99764090D01*
X145396431Y-99551890D01*
X145440352Y-99335000D01*
X149059146Y-99335000D01*
X149096838Y-99535317D01*
X149235910Y-99751441D01*
X149448110Y-99896431D01*
X149686201Y-99944646D01*
X149671861Y-99992255D01*
X150500000Y-100820395D01*
X151328139Y-99992255D01*
X151313855Y-99944833D01*
X151535317Y-99903162D01*
X151751441Y-99764090D01*
X151896431Y-99551890D01*
X151947440Y-99300000D01*
X151947440Y-97700000D01*
X151903162Y-97464683D01*
X151764090Y-97248559D01*
X151551890Y-97103569D01*
X151300000Y-97052560D01*
X149700000Y-97052560D01*
X149464683Y-97096838D01*
X149248559Y-97235910D01*
X149103569Y-97448110D01*
X149059648Y-97665000D01*
X145440854Y-97665000D01*
X145403162Y-97464683D01*
X145264090Y-97248559D01*
X145051890Y-97103569D01*
X144800000Y-97052560D01*
X143200000Y-97052560D01*
X142964683Y-97096838D01*
X142748559Y-97235910D01*
X142603569Y-97448110D01*
X142552560Y-97700000D01*
X130947440Y-97700000D01*
X130903162Y-97464683D01*
X130764090Y-97248559D01*
X130551890Y-97103569D01*
X130300000Y-97052560D01*
X128700000Y-97052560D01*
X128464683Y-97096838D01*
X128248559Y-97235910D01*
X128103569Y-97448110D01*
X128052560Y-97700000D01*
X126127000Y-97700000D01*
X126127000Y-66400000D01*
X127240000Y-66400000D01*
X127240000Y-94500000D01*
X127297852Y-94790839D01*
X127462599Y-95037401D01*
X128962599Y-96537401D01*
X129209160Y-96702148D01*
X129500000Y-96760000D01*
X155000000Y-96760000D01*
X155290839Y-96702148D01*
X155537401Y-96537401D01*
X156354802Y-95720000D01*
X159815453Y-95720000D01*
X159825169Y-95743515D01*
X160214436Y-96133461D01*
X160446870Y-96229976D01*
X160216485Y-96325169D01*
X159826539Y-96714436D01*
X159615241Y-97223298D01*
X159614760Y-97774285D01*
X159825169Y-98283515D01*
X160214436Y-98673461D01*
X160723298Y-98884759D01*
X161274285Y-98885240D01*
X161783515Y-98674831D01*
X162173461Y-98285564D01*
X162384759Y-97776702D01*
X162385240Y-97225715D01*
X162174831Y-96716485D01*
X161785564Y-96326539D01*
X161553130Y-96230024D01*
X161783515Y-96134831D01*
X162173461Y-95745564D01*
X162384759Y-95236702D01*
X162385240Y-94685715D01*
X162174831Y-94176485D01*
X161943687Y-93944938D01*
X162173461Y-93715564D01*
X162384759Y-93206702D01*
X162385240Y-92655715D01*
X162174831Y-92146485D01*
X161785564Y-91756539D01*
X161569021Y-91666623D01*
X161723923Y-91602460D01*
X161791912Y-91361517D01*
X161000000Y-90569605D01*
X160208088Y-91361517D01*
X160276077Y-91602460D01*
X160442621Y-91661732D01*
X160216485Y-91755169D01*
X159826539Y-92144436D01*
X159815924Y-92170000D01*
X155370000Y-92170000D01*
X155079161Y-92227852D01*
X154832599Y-92392599D01*
X152785198Y-94440000D01*
X130514802Y-94440000D01*
X129460000Y-93385198D01*
X129460000Y-92009066D01*
X129919041Y-92468909D01*
X130703459Y-92794628D01*
X131552815Y-92795370D01*
X132337800Y-92471020D01*
X132938909Y-91870959D01*
X133264628Y-91086541D01*
X133265370Y-90237185D01*
X132963971Y-89507745D01*
X152171861Y-89507745D01*
X152245995Y-89753864D01*
X152783223Y-89946965D01*
X153353454Y-89919778D01*
X153754005Y-89753864D01*
X153828139Y-89507745D01*
X153000000Y-88679605D01*
X152171861Y-89507745D01*
X132963971Y-89507745D01*
X132941020Y-89452200D01*
X132340959Y-88851091D01*
X131691754Y-88581517D01*
X133008088Y-88581517D01*
X133076077Y-88822460D01*
X133595171Y-89007201D01*
X134145448Y-88979230D01*
X134523923Y-88822460D01*
X134591912Y-88581517D01*
X133800000Y-87789605D01*
X133008088Y-88581517D01*
X131691754Y-88581517D01*
X131556541Y-88525372D01*
X130707185Y-88524630D01*
X129922200Y-88848980D01*
X129460000Y-89310374D01*
X129460000Y-87405171D01*
X132402799Y-87405171D01*
X132430770Y-87955448D01*
X132587540Y-88333923D01*
X132828483Y-88401912D01*
X133620395Y-87610000D01*
X133979605Y-87610000D01*
X134771517Y-88401912D01*
X135012460Y-88333923D01*
X135030503Y-88283223D01*
X151553035Y-88283223D01*
X151580222Y-88853454D01*
X151746136Y-89254005D01*
X151992255Y-89328139D01*
X152820395Y-88500000D01*
X151992255Y-87671861D01*
X151746136Y-87745995D01*
X151553035Y-88283223D01*
X135030503Y-88283223D01*
X135197201Y-87814829D01*
X135180805Y-87492255D01*
X152171861Y-87492255D01*
X153000000Y-88320395D01*
X153828139Y-87492255D01*
X153754005Y-87246136D01*
X153216777Y-87053035D01*
X152646546Y-87080222D01*
X152245995Y-87246136D01*
X152171861Y-87492255D01*
X135180805Y-87492255D01*
X135169230Y-87264552D01*
X135012460Y-86886077D01*
X134771517Y-86818088D01*
X133979605Y-87610000D01*
X133620395Y-87610000D01*
X132828483Y-86818088D01*
X132587540Y-86886077D01*
X132402799Y-87405171D01*
X129460000Y-87405171D01*
X129460000Y-83000000D01*
X130040000Y-83000000D01*
X130040000Y-84900000D01*
X130097852Y-85190839D01*
X130262599Y-85437401D01*
X131162599Y-86337401D01*
X131409160Y-86502148D01*
X131700000Y-86560000D01*
X133030234Y-86560000D01*
X133008088Y-86638483D01*
X133800000Y-87430395D01*
X134591912Y-86638483D01*
X134523923Y-86397540D01*
X134357379Y-86338268D01*
X134583515Y-86244831D01*
X134973461Y-85855564D01*
X135184759Y-85346702D01*
X135185240Y-84795715D01*
X134974831Y-84286485D01*
X134743687Y-84054938D01*
X134973461Y-83825564D01*
X134984076Y-83800000D01*
X140460000Y-83800000D01*
X140750839Y-83742148D01*
X140997401Y-83577401D01*
X143737401Y-80837401D01*
X143902148Y-80590839D01*
X143960000Y-80300000D01*
X143960000Y-68265070D01*
X144065167Y-68265162D01*
X144408943Y-68123117D01*
X144417074Y-68115000D01*
X144940000Y-68115000D01*
X145240407Y-68055245D01*
X145495079Y-67885079D01*
X145515005Y-67865153D01*
X145525167Y-67865162D01*
X145868943Y-67723117D01*
X146132192Y-67460327D01*
X146274838Y-67116799D01*
X146275162Y-66744833D01*
X146242176Y-66665000D01*
X147610000Y-66665000D01*
X147910407Y-66605245D01*
X148165079Y-66435079D01*
X148787678Y-65812480D01*
X148914878Y-65939680D01*
X148914838Y-65985167D01*
X149056883Y-66328943D01*
X149319673Y-66592192D01*
X149663201Y-66734838D01*
X150035167Y-66735162D01*
X150378943Y-66593117D01*
X150642192Y-66330327D01*
X150784838Y-65986799D01*
X150785162Y-65614833D01*
X150643117Y-65271057D01*
X150380327Y-65007808D01*
X150036799Y-64865162D01*
X149989923Y-64865121D01*
X149960000Y-64835198D01*
X149960000Y-59272463D01*
X149992192Y-59240327D01*
X150134838Y-58896799D01*
X150135162Y-58524833D01*
X149993117Y-58181057D01*
X149730327Y-57917808D01*
X149386799Y-57775162D01*
X149014833Y-57774838D01*
X148733259Y-57891182D01*
X148480327Y-57637808D01*
X148136799Y-57495162D01*
X147764833Y-57494838D01*
X147421057Y-57636883D01*
X147157808Y-57899673D01*
X147015162Y-58243201D01*
X147014838Y-58615167D01*
X147123922Y-58879172D01*
X147081057Y-58896883D01*
X146817808Y-59159673D01*
X146675162Y-59503201D01*
X146675161Y-59504838D01*
X146331057Y-59646883D01*
X146067808Y-59909673D01*
X145925162Y-60253201D01*
X145924838Y-60625167D01*
X146066883Y-60968943D01*
X146075000Y-60977074D01*
X146075000Y-61844842D01*
X145705000Y-62214842D01*
X145705000Y-56465158D01*
X145845158Y-56325000D01*
X146164925Y-56325000D01*
X146164838Y-56425167D01*
X146306883Y-56768943D01*
X146569673Y-57032192D01*
X146913201Y-57174838D01*
X147285167Y-57175162D01*
X147628943Y-57033117D01*
X147682153Y-56980000D01*
X150455198Y-56980000D01*
X150840000Y-57364802D01*
X150840000Y-67275198D01*
X149892599Y-68222599D01*
X149727852Y-68469161D01*
X149670000Y-68760000D01*
X149670000Y-83105198D01*
X148720320Y-84054878D01*
X148674833Y-84054838D01*
X148331057Y-84196883D01*
X148067808Y-84459673D01*
X147925162Y-84803201D01*
X147924838Y-85175167D01*
X148066883Y-85518943D01*
X148329673Y-85782192D01*
X148673201Y-85924838D01*
X149045167Y-85925162D01*
X149388943Y-85783117D01*
X149652192Y-85520327D01*
X149794838Y-85176799D01*
X149794879Y-85129923D01*
X150967401Y-83957401D01*
X151132148Y-83710840D01*
X151190000Y-83420000D01*
X151190000Y-71507745D01*
X152171861Y-71507745D01*
X152245995Y-71753864D01*
X152783223Y-71946965D01*
X153353454Y-71919778D01*
X153754005Y-71753864D01*
X153828139Y-71507745D01*
X153000000Y-70679605D01*
X152171861Y-71507745D01*
X151190000Y-71507745D01*
X151190000Y-70283223D01*
X151553035Y-70283223D01*
X151580222Y-70853454D01*
X151746136Y-71254005D01*
X151992255Y-71328139D01*
X152820395Y-70500000D01*
X151992255Y-69671861D01*
X151746136Y-69745995D01*
X151553035Y-70283223D01*
X151190000Y-70283223D01*
X151190000Y-69492255D01*
X152171861Y-69492255D01*
X153000000Y-70320395D01*
X153828139Y-69492255D01*
X153754005Y-69246136D01*
X153216777Y-69053035D01*
X152646546Y-69080222D01*
X152245995Y-69246136D01*
X152171861Y-69492255D01*
X151190000Y-69492255D01*
X151190000Y-69074802D01*
X152137401Y-68127401D01*
X152302148Y-67880839D01*
X152360000Y-67590000D01*
X152360000Y-57050000D01*
X152335136Y-56925000D01*
X152302148Y-56759160D01*
X152137401Y-56512599D01*
X151307401Y-55682599D01*
X151060839Y-55517852D01*
X150770000Y-55460000D01*
X147642498Y-55460000D01*
X147630327Y-55447808D01*
X147502354Y-55394669D01*
X147513426Y-55339008D01*
X147562192Y-55290327D01*
X147704838Y-54946799D01*
X147705162Y-54574833D01*
X147563117Y-54231057D01*
X147300327Y-53967808D01*
X146956799Y-53825162D01*
X146584833Y-53824838D01*
X146241057Y-53966883D01*
X145977808Y-54229673D01*
X145835162Y-54573201D01*
X145835004Y-54755000D01*
X145520000Y-54755000D01*
X145219593Y-54814755D01*
X144964921Y-54984921D01*
X144364921Y-55584921D01*
X144194755Y-55839593D01*
X144151941Y-56054833D01*
X144135000Y-56140000D01*
X144135000Y-62144842D01*
X143960000Y-62319842D01*
X143960000Y-54262114D01*
X144192192Y-54030327D01*
X144334838Y-53686799D01*
X144335162Y-53314833D01*
X144193117Y-52971057D01*
X143930327Y-52707808D01*
X143586799Y-52565162D01*
X143214833Y-52564838D01*
X143053838Y-52631360D01*
X143030327Y-52607808D01*
X142686799Y-52465162D01*
X142314833Y-52464838D01*
X141971057Y-52606883D01*
X141707808Y-52869673D01*
X141565162Y-53213201D01*
X141564838Y-53585167D01*
X141640000Y-53767073D01*
X141640000Y-57365198D01*
X141035122Y-56760320D01*
X141035162Y-56714833D01*
X140893117Y-56371057D01*
X140630327Y-56107808D01*
X140286799Y-55965162D01*
X139914833Y-55964838D01*
X139571057Y-56106883D01*
X139307808Y-56369673D01*
X139165162Y-56713201D01*
X139164838Y-57085167D01*
X139306883Y-57428943D01*
X139569673Y-57692192D01*
X139913201Y-57834838D01*
X139960077Y-57834879D01*
X140940000Y-58814802D01*
X140940000Y-77985198D01*
X139860320Y-79064878D01*
X139814833Y-79064838D01*
X139471057Y-79206883D01*
X139207808Y-79469673D01*
X139065162Y-79813201D01*
X139064838Y-80185167D01*
X139206883Y-80528943D01*
X139469673Y-80792192D01*
X139813201Y-80934838D01*
X139990206Y-80934992D01*
X139885198Y-81040000D01*
X135075428Y-81040000D01*
X135184759Y-80776702D01*
X135185240Y-80225715D01*
X134974831Y-79716485D01*
X134585564Y-79326539D01*
X134076702Y-79115241D01*
X133525715Y-79114760D01*
X133016485Y-79325169D01*
X132626539Y-79714436D01*
X132415241Y-80223298D01*
X132414760Y-80774285D01*
X132524551Y-81040000D01*
X132000000Y-81040000D01*
X131709160Y-81097852D01*
X131462599Y-81262599D01*
X130262599Y-82462599D01*
X130097852Y-82709161D01*
X130040000Y-83000000D01*
X129460000Y-83000000D01*
X129460000Y-78289066D01*
X129919041Y-78748909D01*
X130703459Y-79074628D01*
X131552815Y-79075370D01*
X132337800Y-78751020D01*
X132938909Y-78150959D01*
X133264628Y-77366541D01*
X133265370Y-76517185D01*
X132941020Y-75732200D01*
X132340959Y-75131091D01*
X131556541Y-74805372D01*
X130707185Y-74804630D01*
X129922200Y-75128980D01*
X129460000Y-75590374D01*
X129460000Y-67114802D01*
X132537401Y-64037401D01*
X132702148Y-63790839D01*
X132760000Y-63500000D01*
X132760000Y-61514802D01*
X136339680Y-57935122D01*
X136385167Y-57935162D01*
X136728943Y-57793117D01*
X136992192Y-57530327D01*
X137134838Y-57186799D01*
X137135162Y-56814833D01*
X136993117Y-56471057D01*
X136730327Y-56207808D01*
X136386799Y-56065162D01*
X136014833Y-56064838D01*
X135671057Y-56206883D01*
X135407808Y-56469673D01*
X135265162Y-56813201D01*
X135265121Y-56860077D01*
X134723777Y-57401421D01*
X134630327Y-57307808D01*
X134286799Y-57165162D01*
X133914833Y-57164838D01*
X133571057Y-57306883D01*
X133307808Y-57569673D01*
X133165162Y-57913201D01*
X133165121Y-57960077D01*
X131078709Y-60046489D01*
X131014132Y-59890200D01*
X130512441Y-59387633D01*
X129856616Y-59115311D01*
X129146499Y-59114691D01*
X128490200Y-59385868D01*
X127987633Y-59887559D01*
X127715311Y-60543384D01*
X127714691Y-61253501D01*
X127985868Y-61909800D01*
X128487559Y-62412367D01*
X129143384Y-62684689D01*
X129853501Y-62685309D01*
X130509800Y-62414132D01*
X130640000Y-62284159D01*
X130640000Y-62685198D01*
X127462599Y-65862599D01*
X127297852Y-66109161D01*
X127240000Y-66400000D01*
X126127000Y-66400000D01*
X126127000Y-56353501D01*
X127714691Y-56353501D01*
X127985868Y-57009800D01*
X128487559Y-57512367D01*
X129143384Y-57784689D01*
X129853501Y-57785309D01*
X130509800Y-57514132D01*
X131012367Y-57012441D01*
X131284689Y-56356616D01*
X131285309Y-55646499D01*
X131014132Y-54990200D01*
X130512441Y-54487633D01*
X129856616Y-54215311D01*
X129146499Y-54214691D01*
X128490200Y-54485868D01*
X127987633Y-54987559D01*
X127715311Y-55643384D01*
X127714691Y-56353501D01*
X126127000Y-56353501D01*
X126127000Y-51585167D01*
X133564838Y-51585167D01*
X133706883Y-51928943D01*
X133969673Y-52192192D01*
X134313201Y-52334838D01*
X134685167Y-52335162D01*
X135028943Y-52193117D01*
X135099981Y-52122203D01*
X135269673Y-52292192D01*
X135613201Y-52434838D01*
X135985167Y-52435162D01*
X136328943Y-52293117D01*
X136592192Y-52030327D01*
X136734838Y-51686799D01*
X136734879Y-51639923D01*
X136737401Y-51637401D01*
X136902148Y-51390840D01*
X136937158Y-51214833D01*
X136960000Y-51100000D01*
X136960000Y-50283223D01*
X152053035Y-50283223D01*
X152080222Y-50853454D01*
X152246136Y-51254005D01*
X152492255Y-51328139D01*
X153320395Y-50500000D01*
X152492255Y-49671861D01*
X152246136Y-49745995D01*
X152053035Y-50283223D01*
X136960000Y-50283223D01*
X136960000Y-50214802D01*
X140114802Y-47060000D01*
X151285198Y-47060000D01*
X153298190Y-49072992D01*
X153146546Y-49080222D01*
X152745995Y-49246136D01*
X152671861Y-49492255D01*
X153500000Y-50320395D01*
X153514142Y-50306252D01*
X153693748Y-50485858D01*
X153679605Y-50500000D01*
X154507745Y-51328139D01*
X154753864Y-51254005D01*
X154945646Y-50720448D01*
X157640000Y-53414802D01*
X157640000Y-62265198D01*
X157435122Y-62060320D01*
X157435162Y-62014833D01*
X157293117Y-61671057D01*
X157030327Y-61407808D01*
X156686799Y-61265162D01*
X156314833Y-61264838D01*
X155971057Y-61406883D01*
X155707808Y-61669673D01*
X155565162Y-62013201D01*
X155564838Y-62385167D01*
X155600247Y-62470865D01*
X155271057Y-62606883D01*
X155007808Y-62869673D01*
X154865162Y-63213201D01*
X154864838Y-63585167D01*
X155006883Y-63928943D01*
X155269673Y-64192192D01*
X155613201Y-64334838D01*
X155660077Y-64334879D01*
X156240000Y-64914802D01*
X156240000Y-66953407D01*
X156090434Y-66729566D01*
X154335000Y-64974132D01*
X154335000Y-54440854D01*
X154535317Y-54403162D01*
X154751441Y-54264090D01*
X154896431Y-54051890D01*
X154947440Y-53800000D01*
X154947440Y-52200000D01*
X154903162Y-51964683D01*
X154764090Y-51748559D01*
X154551890Y-51603569D01*
X154313799Y-51555354D01*
X154328139Y-51507745D01*
X153500000Y-50679605D01*
X152671861Y-51507745D01*
X152686145Y-51555167D01*
X152464683Y-51596838D01*
X152248559Y-51735910D01*
X152103569Y-51948110D01*
X152052560Y-52200000D01*
X152052560Y-53800000D01*
X152096838Y-54035317D01*
X152235910Y-54251441D01*
X152448110Y-54396431D01*
X152665000Y-54440352D01*
X152665000Y-65320000D01*
X152728561Y-65639541D01*
X152866008Y-65845245D01*
X152909566Y-65910434D01*
X154665000Y-67665868D01*
X154665000Y-69059146D01*
X154464683Y-69096838D01*
X154248559Y-69235910D01*
X154103569Y-69448110D01*
X154055354Y-69686201D01*
X154007745Y-69671861D01*
X153179605Y-70500000D01*
X154007745Y-71328139D01*
X154055167Y-71313855D01*
X154096838Y-71535317D01*
X154235910Y-71751441D01*
X154448110Y-71896431D01*
X154700000Y-71947440D01*
X156240000Y-71947440D01*
X156240000Y-87052560D01*
X154700000Y-87052560D01*
X154464683Y-87096838D01*
X154248559Y-87235910D01*
X154103569Y-87448110D01*
X154055354Y-87686201D01*
X154007745Y-87671861D01*
X153179605Y-88500000D01*
X154007745Y-89328139D01*
X154055167Y-89313855D01*
X154096838Y-89535317D01*
X154235910Y-89751441D01*
X154448110Y-89896431D01*
X154700000Y-89947440D01*
X156300000Y-89947440D01*
X156535317Y-89903162D01*
X156751441Y-89764090D01*
X156896431Y-89551890D01*
X156947440Y-89300000D01*
X156947440Y-88622242D01*
X158062599Y-89737401D01*
X158309161Y-89902148D01*
X158600000Y-89960000D01*
X159682935Y-89960000D01*
X159602799Y-90185171D01*
X159630770Y-90735448D01*
X159787540Y-91113923D01*
X160028483Y-91181912D01*
X160820395Y-90390000D01*
X160806253Y-90375858D01*
X160985858Y-90196253D01*
X161000000Y-90210395D01*
X161014143Y-90196253D01*
X161193748Y-90375858D01*
X161179605Y-90390000D01*
X161971517Y-91181912D01*
X162212460Y-91113923D01*
X162298201Y-90873003D01*
X165140000Y-93714802D01*
X165140000Y-99510584D01*
X164880959Y-99251091D01*
X164096541Y-98925372D01*
X163247185Y-98924630D01*
X162462200Y-99248980D01*
X161861091Y-99849041D01*
X161535372Y-100633459D01*
X161534630Y-101482815D01*
X161858980Y-102267800D01*
X162459041Y-102868909D01*
X163243459Y-103194628D01*
X164092815Y-103195370D01*
X164877800Y-102871020D01*
X165140000Y-102609277D01*
X165140000Y-104290584D01*
X164880959Y-104031091D01*
X164096541Y-103705372D01*
X163247185Y-103704630D01*
X162462200Y-104028980D01*
X161861091Y-104629041D01*
X161535372Y-105413459D01*
X161534630Y-106262815D01*
X161858980Y-107047800D01*
X162459041Y-107648909D01*
X163243459Y-107974628D01*
X164092815Y-107975370D01*
X164877800Y-107651020D01*
X165140000Y-107389277D01*
X165140000Y-109385198D01*
X163855198Y-110670000D01*
X162184547Y-110670000D01*
X162174831Y-110646485D01*
X161785564Y-110256539D01*
X161569021Y-110166623D01*
X161723923Y-110102460D01*
X161791912Y-109861517D01*
X161000000Y-109069605D01*
X160208088Y-109861517D01*
X160276077Y-110102460D01*
X160442621Y-110161732D01*
X160216485Y-110255169D01*
X159826539Y-110644436D01*
X159615241Y-111153298D01*
X159614760Y-111704285D01*
X159825169Y-112213515D01*
X160056313Y-112445062D01*
X159826539Y-112674436D01*
X159615241Y-113183298D01*
X159614760Y-113734285D01*
X159825169Y-114243515D01*
X160214436Y-114633461D01*
X160446870Y-114729976D01*
X160216485Y-114825169D01*
X159826539Y-115214436D01*
X159615241Y-115723298D01*
X159614760Y-116274285D01*
X159825169Y-116783515D01*
X160214436Y-117173461D01*
X160723298Y-117384759D01*
X161274285Y-117385240D01*
X161783515Y-117174831D01*
X162173461Y-116785564D01*
X162384759Y-116276702D01*
X162385240Y-115725715D01*
X162174831Y-115216485D01*
X161785564Y-114826539D01*
X161553130Y-114730024D01*
X161783515Y-114634831D01*
X162173461Y-114245564D01*
X162184076Y-114220000D01*
X165040000Y-114220000D01*
X165330839Y-114162148D01*
X165577401Y-113997401D01*
X167137401Y-112437401D01*
X167302148Y-112190839D01*
X167360000Y-111900000D01*
X167360000Y-93200000D01*
X167302148Y-92909161D01*
X167137401Y-92662599D01*
X163950047Y-89475245D01*
X164092815Y-89475370D01*
X164877800Y-89151020D01*
X165478909Y-88550959D01*
X165804628Y-87766541D01*
X165805370Y-86917185D01*
X165481020Y-86132200D01*
X164880959Y-85531091D01*
X164096541Y-85205372D01*
X163247185Y-85204630D01*
X162462200Y-85528980D01*
X161861091Y-86129041D01*
X161535372Y-86913459D01*
X161534630Y-87762815D01*
X161607842Y-87940000D01*
X159614802Y-87940000D01*
X158460000Y-86785198D01*
X158460000Y-82982815D01*
X161534630Y-82982815D01*
X161858980Y-83767800D01*
X162459041Y-84368909D01*
X163243459Y-84694628D01*
X164092815Y-84695370D01*
X164877800Y-84371020D01*
X165478909Y-83770959D01*
X165804628Y-82986541D01*
X165805370Y-82137185D01*
X165481020Y-81352200D01*
X164880959Y-80751091D01*
X164096541Y-80425372D01*
X163247185Y-80424630D01*
X162462200Y-80748980D01*
X161861091Y-81349041D01*
X161535372Y-82133459D01*
X161534630Y-82982815D01*
X158460000Y-82982815D01*
X158460000Y-76834802D01*
X158622599Y-76997401D01*
X158869160Y-77162148D01*
X159160000Y-77220000D01*
X159815453Y-77220000D01*
X159825169Y-77243515D01*
X160214436Y-77633461D01*
X160446870Y-77729976D01*
X160216485Y-77825169D01*
X159826539Y-78214436D01*
X159615241Y-78723298D01*
X159614760Y-79274285D01*
X159825169Y-79783515D01*
X160214436Y-80173461D01*
X160723298Y-80384759D01*
X161274285Y-80385240D01*
X161783515Y-80174831D01*
X162173461Y-79785564D01*
X162384759Y-79276702D01*
X162385240Y-78725715D01*
X162174831Y-78216485D01*
X161785564Y-77826539D01*
X161553130Y-77730024D01*
X161783515Y-77634831D01*
X162173461Y-77245564D01*
X162384759Y-76736702D01*
X162385240Y-76185715D01*
X162174831Y-75676485D01*
X161943687Y-75444938D01*
X162173461Y-75215564D01*
X162384759Y-74706702D01*
X162385240Y-74155715D01*
X162174831Y-73646485D01*
X161785564Y-73256539D01*
X161569021Y-73166623D01*
X161723923Y-73102460D01*
X161791912Y-72861517D01*
X161000000Y-72069605D01*
X160985858Y-72083748D01*
X160806253Y-71904143D01*
X160820395Y-71890000D01*
X161179605Y-71890000D01*
X161971517Y-72681912D01*
X162212460Y-72613923D01*
X162397201Y-72094829D01*
X162369230Y-71544552D01*
X162212460Y-71166077D01*
X161971517Y-71098088D01*
X161179605Y-71890000D01*
X160820395Y-71890000D01*
X160806253Y-71875858D01*
X160985858Y-71696253D01*
X161000000Y-71710395D01*
X161791912Y-70918483D01*
X161723923Y-70677540D01*
X161204829Y-70492799D01*
X160654552Y-70520770D01*
X160276077Y-70677540D01*
X160208089Y-70918481D01*
X160093034Y-70803426D01*
X160060000Y-70836460D01*
X160060000Y-69262815D01*
X161534630Y-69262815D01*
X161858980Y-70047800D01*
X162459041Y-70648909D01*
X163243459Y-70974628D01*
X164092815Y-70975370D01*
X164877800Y-70651020D01*
X165478909Y-70050959D01*
X165804628Y-69266541D01*
X165805370Y-68417185D01*
X165481020Y-67632200D01*
X164880959Y-67031091D01*
X164096541Y-66705372D01*
X163247185Y-66704630D01*
X162462200Y-67028980D01*
X161861091Y-67629041D01*
X161535372Y-68413459D01*
X161534630Y-69262815D01*
X160060000Y-69262815D01*
X160060000Y-64482815D01*
X161534630Y-64482815D01*
X161858980Y-65267800D01*
X162459041Y-65868909D01*
X163243459Y-66194628D01*
X164092815Y-66195370D01*
X164877800Y-65871020D01*
X165478909Y-65270959D01*
X165804628Y-64486541D01*
X165805370Y-63637185D01*
X165481020Y-62852200D01*
X164880959Y-62251091D01*
X164096541Y-61925372D01*
X163247185Y-61924630D01*
X162462200Y-62248980D01*
X161861091Y-62849041D01*
X161535372Y-63633459D01*
X161534630Y-64482815D01*
X160060000Y-64482815D01*
X160060000Y-61518756D01*
X160214436Y-61673461D01*
X160723298Y-61884759D01*
X161274285Y-61885240D01*
X161783515Y-61674831D01*
X162173461Y-61285564D01*
X162384759Y-60776702D01*
X162385240Y-60225715D01*
X162174831Y-59716485D01*
X161785564Y-59326539D01*
X161553130Y-59230024D01*
X161783515Y-59134831D01*
X162173461Y-58745564D01*
X162384759Y-58236702D01*
X162385240Y-57685715D01*
X162174831Y-57176485D01*
X161943687Y-56944938D01*
X162173461Y-56715564D01*
X162384759Y-56206702D01*
X162385240Y-55655715D01*
X162174831Y-55146485D01*
X161785564Y-54756539D01*
X161569021Y-54666623D01*
X161723923Y-54602460D01*
X161791912Y-54361517D01*
X161000000Y-53569605D01*
X160985858Y-53583748D01*
X160806253Y-53404143D01*
X160820395Y-53390000D01*
X161179605Y-53390000D01*
X161971517Y-54181912D01*
X162212460Y-54113923D01*
X162397201Y-53594829D01*
X162369230Y-53044552D01*
X162212460Y-52666077D01*
X161971517Y-52598088D01*
X161179605Y-53390000D01*
X160820395Y-53390000D01*
X160806253Y-53375858D01*
X160985858Y-53196253D01*
X161000000Y-53210395D01*
X161791912Y-52418483D01*
X161723923Y-52177540D01*
X161204829Y-51992799D01*
X160654552Y-52020770D01*
X160276077Y-52177540D01*
X160208089Y-52418481D01*
X160093034Y-52303426D01*
X160049458Y-52347002D01*
X160002148Y-52109161D01*
X159837401Y-51862599D01*
X158737617Y-50762815D01*
X161534630Y-50762815D01*
X161858980Y-51547800D01*
X162459041Y-52148909D01*
X163243459Y-52474628D01*
X164092815Y-52475370D01*
X164877800Y-52151020D01*
X165478909Y-51550959D01*
X165804628Y-50766541D01*
X165805370Y-49917185D01*
X165481020Y-49132200D01*
X164880959Y-48531091D01*
X164096541Y-48205372D01*
X163247185Y-48204630D01*
X162462200Y-48528980D01*
X161861091Y-49129041D01*
X161535372Y-49913459D01*
X161534630Y-50762815D01*
X158737617Y-50762815D01*
X153137401Y-45162599D01*
X152890839Y-44997852D01*
X152600000Y-44940000D01*
X139000000Y-44940000D01*
X138709161Y-44997852D01*
X138462599Y-45162599D01*
X133962599Y-49662599D01*
X133797852Y-49909161D01*
X133740000Y-50200000D01*
X133740000Y-50837537D01*
X133707808Y-50869673D01*
X133565162Y-51213201D01*
X133564838Y-51585167D01*
X126127000Y-51585167D01*
X126127000Y-45903136D01*
X126401043Y-46566372D01*
X126930839Y-47097093D01*
X127623405Y-47384672D01*
X128373305Y-47385326D01*
X129066372Y-47098957D01*
X129597093Y-46569161D01*
X129884672Y-45876595D01*
X129885326Y-45126695D01*
X129598957Y-44433628D01*
X129069161Y-43902907D01*
X128376595Y-43615328D01*
X127626695Y-43614674D01*
X126933628Y-43901043D01*
X126402907Y-44430839D01*
X126127000Y-45095296D01*
X126127000Y-43210000D01*
X167873000Y-43210000D01*
X167873000Y-45096864D01*
M02*
