G04 #@! TF.FileFunction,Copper,L1,Top,Signal*
%FSLAX46Y46*%
G04 Gerber Fmt 4.6, Leading zero omitted, Abs format (unit mm)*
G04 Created by KiCad (PCBNEW 4.0.5) date 08/02/17 15:31:24*
%MOMM*%
%LPD*%
G01*
G04 APERTURE LIST*
%ADD10C,0.100000*%
%ADD11R,1.750000X0.450000*%
%ADD12R,1.200000X0.750000*%
%ADD13R,0.750000X1.200000*%
%ADD14R,2.000000X1.700000*%
%ADD15R,1.700000X2.000000*%
%ADD16R,1.399540X1.150620*%
%ADD17R,1.600000X1.600000*%
%ADD18C,1.600000*%
%ADD19R,1.150620X1.399540*%
%ADD20C,1.500000*%
%ADD21C,3.000000*%
%ADD22C,2.300000*%
%ADD23C,0.600000*%
%ADD24C,0.400000*%
%ADD25C,0.300000*%
%ADD26C,0.250000*%
%ADD27C,0.254000*%
G04 APERTURE END LIST*
D10*
D11*
X137900000Y-51275000D03*
X137900000Y-51925000D03*
X137900000Y-52575000D03*
X137900000Y-53225000D03*
X137900000Y-53875000D03*
X137900000Y-54525000D03*
X137900000Y-55175000D03*
X137900000Y-55825000D03*
X137900000Y-56475000D03*
X137900000Y-57125000D03*
X137900000Y-57775000D03*
X137900000Y-58425000D03*
X137900000Y-59075000D03*
X137900000Y-59725000D03*
X145100000Y-59725000D03*
X145100000Y-59075000D03*
X145100000Y-58425000D03*
X145100000Y-57775000D03*
X145100000Y-57125000D03*
X145100000Y-56475000D03*
X145100000Y-55825000D03*
X145100000Y-55175000D03*
X145100000Y-54525000D03*
X145100000Y-53875000D03*
X145100000Y-53225000D03*
X145100000Y-52575000D03*
X145100000Y-51925000D03*
X145100000Y-51275000D03*
D12*
X152950000Y-78500000D03*
X151050000Y-78500000D03*
D13*
X133500000Y-98050000D03*
X133500000Y-99950000D03*
X154500000Y-98550000D03*
X154500000Y-100450000D03*
X156500000Y-98550000D03*
X156500000Y-100450000D03*
D14*
X134500000Y-66000000D03*
X138500000Y-66000000D03*
D15*
X134500000Y-73000000D03*
X134500000Y-69000000D03*
X143000000Y-85500000D03*
X143000000Y-81500000D03*
X146000000Y-85500000D03*
X146000000Y-81500000D03*
D14*
X133000000Y-46000000D03*
X137000000Y-46000000D03*
D15*
X149000000Y-73000000D03*
X149000000Y-69000000D03*
X143000000Y-73000000D03*
X143000000Y-69000000D03*
X140000000Y-73000000D03*
X140000000Y-69000000D03*
X146000000Y-73000000D03*
X146000000Y-69000000D03*
D16*
X155500000Y-111374400D03*
X155500000Y-114625600D03*
D12*
X152450000Y-60000000D03*
X150550000Y-60000000D03*
X152450000Y-114500000D03*
X150550000Y-114500000D03*
D16*
X155500000Y-92874400D03*
X155500000Y-96125600D03*
X156000000Y-75374400D03*
X156000000Y-78625600D03*
D17*
X155500000Y-70500000D03*
D18*
X153000000Y-70500000D03*
D17*
X155500000Y-88500000D03*
D18*
X153000000Y-88500000D03*
D12*
X134050000Y-64000000D03*
X135950000Y-64000000D03*
D13*
X133500000Y-59850000D03*
X133500000Y-61750000D03*
X137500000Y-74950000D03*
X137500000Y-73050000D03*
D17*
X129500000Y-98500000D03*
D18*
X129500000Y-101000000D03*
D12*
X136550000Y-93000000D03*
X138450000Y-93000000D03*
D13*
X140000000Y-98050000D03*
X140000000Y-99950000D03*
D17*
X144000000Y-98500000D03*
D18*
X144000000Y-101000000D03*
D17*
X150500000Y-98500000D03*
D18*
X150500000Y-101000000D03*
D16*
X155200000Y-56774400D03*
X155200000Y-60025600D03*
D14*
X141000000Y-77500000D03*
X145000000Y-77500000D03*
D16*
X137500000Y-80625600D03*
X137500000Y-77374400D03*
D19*
X138625600Y-95500000D03*
X135374400Y-95500000D03*
D20*
X161000000Y-71890000D03*
X161000000Y-74430000D03*
X161000000Y-76460000D03*
X161000000Y-79000000D03*
D21*
X163670000Y-68840000D03*
X163670000Y-82560000D03*
D20*
X161000000Y-90390000D03*
X161000000Y-92930000D03*
X161000000Y-94960000D03*
X161000000Y-97500000D03*
D21*
X163670000Y-87340000D03*
X163670000Y-101060000D03*
D20*
X161000000Y-53390000D03*
X161000000Y-55930000D03*
X161000000Y-57960000D03*
X161000000Y-60500000D03*
D21*
X163670000Y-50340000D03*
X163670000Y-64060000D03*
D20*
X133800000Y-87610000D03*
X133800000Y-85070000D03*
X133800000Y-83040000D03*
X133800000Y-80500000D03*
D21*
X131130000Y-90660000D03*
X131130000Y-76940000D03*
D20*
X161000000Y-108890000D03*
X161000000Y-111430000D03*
X161000000Y-113460000D03*
X161000000Y-116000000D03*
D21*
X163670000Y-105840000D03*
X163670000Y-119560000D03*
D17*
X153500000Y-53000000D03*
D18*
X153500000Y-50500000D03*
D12*
X152450000Y-95500000D03*
X150550000Y-95500000D03*
D17*
X155000000Y-107000000D03*
D18*
X152500000Y-107000000D03*
D13*
X133500000Y-55750000D03*
X133500000Y-53850000D03*
D22*
X129500000Y-56000000D03*
X129500000Y-60900000D03*
D23*
X135420000Y-62910000D03*
X133440000Y-62740000D03*
X146860000Y-60440000D03*
X144740000Y-64290000D03*
X140000000Y-80000000D03*
X140100000Y-56900000D03*
X135800000Y-51500000D03*
X134500000Y-51400000D03*
X134100000Y-58100000D03*
X136200000Y-57000000D03*
X156500000Y-62200000D03*
X155800000Y-63400000D03*
X143400000Y-53500000D03*
X142500000Y-53400000D03*
X148860000Y-84990000D03*
X147100000Y-56240000D03*
X149200000Y-58710000D03*
X149850000Y-65800000D03*
X143880000Y-67330000D03*
X145340000Y-66930000D03*
X145450000Y-65120000D03*
X146770000Y-54760000D03*
X143940000Y-65880000D03*
X147950000Y-58430000D03*
X147610000Y-59690000D03*
X146880000Y-64660000D03*
D24*
X133500000Y-61750000D02*
X133500000Y-62680000D01*
X135950000Y-63440000D02*
X135950000Y-64000000D01*
X135420000Y-62910000D02*
X135950000Y-63440000D01*
X133500000Y-62680000D02*
X133440000Y-62740000D01*
X145100000Y-59725000D02*
X143785000Y-59725000D01*
X143785000Y-59725000D02*
X143450000Y-59390000D01*
X155500000Y-92874400D02*
X149665600Y-92874400D01*
X155000000Y-105170000D02*
X155000000Y-107000000D01*
X153730000Y-103900000D02*
X155000000Y-105170000D01*
X149240000Y-103900000D02*
X153730000Y-103900000D01*
X147290000Y-101950000D02*
X149240000Y-103900000D01*
X147290000Y-95250000D02*
X147290000Y-101950000D01*
X149665600Y-92874400D02*
X147290000Y-95250000D01*
X145000000Y-77500000D02*
X145890000Y-77500000D01*
X145890000Y-77500000D02*
X150000000Y-81610000D01*
X155500000Y-83950000D02*
X155500000Y-88500000D01*
X153160000Y-81610000D02*
X155500000Y-83950000D01*
X150000000Y-81610000D02*
X153160000Y-81610000D01*
D25*
X143000000Y-81500000D02*
X143000000Y-80800000D01*
X143000000Y-80800000D02*
X145000000Y-78800000D01*
X145000000Y-78800000D02*
X145000000Y-77500000D01*
D24*
X155200000Y-56774400D02*
X155200000Y-56200000D01*
X155200000Y-56200000D02*
X153500000Y-54500000D01*
X153500000Y-54500000D02*
X153500000Y-53000000D01*
X156000000Y-75374400D02*
X156000000Y-71000000D01*
X156000000Y-71000000D02*
X155500000Y-70500000D01*
X145000000Y-77500000D02*
X147500000Y-77500000D01*
X149625600Y-75374400D02*
X156000000Y-75374400D01*
X147500000Y-77500000D02*
X149625600Y-75374400D01*
X155500000Y-92874400D02*
X155500000Y-88500000D01*
X155500000Y-111374400D02*
X155500000Y-107500000D01*
X155500000Y-107500000D02*
X155000000Y-107000000D01*
X155374400Y-111500000D02*
X155500000Y-111374400D01*
X152950000Y-78500000D02*
X155874400Y-78500000D01*
X155874400Y-78500000D02*
X156000000Y-78625600D01*
X152950000Y-78500000D02*
X153060000Y-78500000D01*
X153060000Y-78500000D02*
X155370000Y-80810000D01*
X155370000Y-80810000D02*
X157960000Y-80810000D01*
X157960000Y-80810000D02*
X159770000Y-79000000D01*
X159770000Y-79000000D02*
X161000000Y-79000000D01*
X140000000Y-73000000D02*
X138000000Y-71000000D01*
X138500000Y-68000000D02*
X138500000Y-66000000D01*
X138000000Y-68500000D02*
X138500000Y-68000000D01*
X138000000Y-71000000D02*
X138000000Y-68500000D01*
X140000000Y-73000000D02*
X143000000Y-73000000D01*
X137500000Y-74950000D02*
X139050000Y-74950000D01*
X139050000Y-74950000D02*
X140000000Y-74000000D01*
X140000000Y-74000000D02*
X140000000Y-73000000D01*
X137500000Y-74950000D02*
X137500000Y-77374400D01*
X137500000Y-77374400D02*
X140874400Y-77374400D01*
X140874400Y-77374400D02*
X141000000Y-77500000D01*
D25*
X146000000Y-73000000D02*
X145480000Y-73000000D01*
X145480000Y-73000000D02*
X144620000Y-72140000D01*
X146055000Y-59075000D02*
X145100000Y-59075000D01*
X146600000Y-59620000D02*
X146055000Y-59075000D01*
X146600000Y-60180000D02*
X146600000Y-59620000D01*
X146860000Y-60440000D02*
X146600000Y-60180000D01*
X144620000Y-64410000D02*
X144740000Y-64290000D01*
X144620000Y-72140000D02*
X144620000Y-64410000D01*
X136550000Y-93000000D02*
X136550000Y-90330000D01*
X142990000Y-76810000D02*
X146000000Y-73800000D01*
X142990000Y-78330000D02*
X142990000Y-76810000D01*
X142150000Y-79170000D02*
X142990000Y-78330000D01*
X139750000Y-79170000D02*
X142150000Y-79170000D01*
X139230000Y-79690000D02*
X139750000Y-79170000D01*
X139230000Y-87650000D02*
X139230000Y-79690000D01*
X136550000Y-90330000D02*
X139230000Y-87650000D01*
X146000000Y-73800000D02*
X146000000Y-73000000D01*
D24*
X136550000Y-93000000D02*
X136500000Y-93000000D01*
X136500000Y-93000000D02*
X135374400Y-94125600D01*
X135374400Y-94125600D02*
X135374400Y-95500000D01*
X133500000Y-98050000D02*
X133500000Y-97500000D01*
X133500000Y-97500000D02*
X135000000Y-96000000D01*
X135000000Y-96000000D02*
X135374400Y-95500000D01*
X129500000Y-98500000D02*
X133050000Y-98500000D01*
X133050000Y-98500000D02*
X133500000Y-98050000D01*
X146000000Y-73000000D02*
X149000000Y-73000000D01*
D26*
X139500000Y-56900000D02*
X140100000Y-56900000D01*
X139800000Y-95500000D02*
X138625600Y-95500000D01*
X140700000Y-94600000D02*
X139800000Y-95500000D01*
X140700000Y-80700000D02*
X140700000Y-94600000D01*
X140000000Y-80000000D02*
X140700000Y-80700000D01*
X139600000Y-53600000D02*
X139600000Y-56800000D01*
X139300000Y-57100000D02*
X137925000Y-57100000D01*
X139600000Y-56800000D02*
X139500000Y-56900000D01*
X139500000Y-56900000D02*
X139300000Y-57100000D01*
X137925000Y-57100000D02*
X137900000Y-57125000D01*
X137900000Y-51275000D02*
X138975000Y-51275000D01*
X139325000Y-53875000D02*
X137900000Y-53875000D01*
X139700000Y-53500000D02*
X139600000Y-53600000D01*
X139600000Y-53600000D02*
X139325000Y-53875000D01*
X139700000Y-52000000D02*
X139700000Y-53500000D01*
X138975000Y-51275000D02*
X139700000Y-52000000D01*
D24*
X154500000Y-98550000D02*
X156500000Y-98550000D01*
X150500000Y-98500000D02*
X154450000Y-98500000D01*
X154450000Y-98500000D02*
X154500000Y-98550000D01*
X140000000Y-98050000D02*
X143550000Y-98050000D01*
X143550000Y-98050000D02*
X144000000Y-98500000D01*
X138625600Y-95500000D02*
X138625600Y-97625600D01*
X138625600Y-97625600D02*
X139050000Y-98050000D01*
X139050000Y-98050000D02*
X140000000Y-98050000D01*
D26*
X161000000Y-57960000D02*
X158960000Y-57960000D01*
X147575000Y-51925000D02*
X145100000Y-51925000D01*
X151000000Y-48500000D02*
X147575000Y-51925000D01*
X155500000Y-48500000D02*
X151000000Y-48500000D01*
X156500000Y-49500000D02*
X155500000Y-48500000D01*
X156500000Y-55500000D02*
X156500000Y-49500000D01*
X158960000Y-57960000D02*
X156500000Y-55500000D01*
X145100000Y-51275000D02*
X146725000Y-51275000D01*
X158330000Y-55930000D02*
X161000000Y-55930000D01*
X157300000Y-54900000D02*
X158330000Y-55930000D01*
X157300000Y-49400000D02*
X157300000Y-54900000D01*
X155700000Y-47800000D02*
X157300000Y-49400000D01*
X150200000Y-47800000D02*
X155700000Y-47800000D01*
X146725000Y-51275000D02*
X150200000Y-47800000D01*
X137900000Y-51925000D02*
X136225000Y-51925000D01*
X136225000Y-51925000D02*
X135800000Y-51500000D01*
X135675000Y-52575000D02*
X137900000Y-52575000D01*
X134500000Y-51400000D02*
X135675000Y-52575000D01*
X137900000Y-55825000D02*
X136375000Y-55825000D01*
X136375000Y-55825000D02*
X134100000Y-58100000D01*
X137900000Y-56475000D02*
X136725000Y-56475000D01*
X136725000Y-56475000D02*
X136200000Y-57000000D01*
X137900000Y-57775000D02*
X140275000Y-57775000D01*
X156300000Y-62200000D02*
X156500000Y-62200000D01*
X156000000Y-61900000D02*
X156300000Y-62200000D01*
X144400000Y-61900000D02*
X156000000Y-61900000D01*
X140275000Y-57775000D02*
X144400000Y-61900000D01*
X139725000Y-58425000D02*
X137900000Y-58425000D01*
X144200000Y-62900000D02*
X139725000Y-58425000D01*
X155300000Y-62900000D02*
X144200000Y-62900000D01*
X155800000Y-63400000D02*
X155300000Y-62900000D01*
X145100000Y-53225000D02*
X143675000Y-53225000D01*
X143675000Y-53225000D02*
X143400000Y-53500000D01*
X145100000Y-52575000D02*
X143225000Y-52575000D01*
X142500000Y-53300000D02*
X142500000Y-53400000D01*
X143225000Y-52575000D02*
X142500000Y-53300000D01*
X145100000Y-55825000D02*
X146685000Y-55825000D01*
X148350000Y-85500000D02*
X146000000Y-85500000D01*
X148860000Y-84990000D02*
X148350000Y-85500000D01*
X146685000Y-55825000D02*
X147100000Y-56240000D01*
D24*
X143000000Y-85500000D02*
X146000000Y-85500000D01*
D26*
X137900000Y-53225000D02*
X135025000Y-53225000D01*
X133700000Y-49300000D02*
X137000000Y-46000000D01*
X133700000Y-51900000D02*
X133700000Y-49300000D01*
X135025000Y-53225000D02*
X133700000Y-51900000D01*
X149000000Y-69000000D02*
X149000000Y-67450000D01*
X147025000Y-53875000D02*
X145100000Y-53875000D01*
X149280000Y-56130000D02*
X147025000Y-53875000D01*
X149280000Y-58630000D02*
X149280000Y-56130000D01*
X149200000Y-58710000D02*
X149280000Y-58630000D01*
X149850000Y-66600000D02*
X149850000Y-65800000D01*
X149000000Y-67450000D02*
X149850000Y-66600000D01*
D25*
X145100000Y-54525000D02*
X146535000Y-54525000D01*
X143880000Y-67330000D02*
X143000000Y-68210000D01*
X145280000Y-66870000D02*
X145340000Y-66930000D01*
X145280000Y-65290000D02*
X145280000Y-66870000D01*
X145450000Y-65120000D02*
X145280000Y-65290000D01*
X146535000Y-54525000D02*
X146770000Y-54760000D01*
X143000000Y-68210000D02*
X143000000Y-69000000D01*
X145100000Y-57775000D02*
X147305000Y-57775000D01*
X140000000Y-67690000D02*
X140000000Y-69000000D01*
X140770000Y-66920000D02*
X140000000Y-67690000D01*
X142900000Y-66920000D02*
X140770000Y-66920000D01*
X143940000Y-65880000D02*
X142900000Y-66920000D01*
X147950000Y-58420000D02*
X147950000Y-58430000D01*
X147305000Y-57775000D02*
X147950000Y-58420000D01*
D24*
X155500000Y-114625600D02*
X157625600Y-114625600D01*
X159000000Y-116000000D02*
X161000000Y-116000000D01*
X157625600Y-114625600D02*
X159000000Y-116000000D01*
X152450000Y-114500000D02*
X155374400Y-114500000D01*
X155374400Y-114500000D02*
X155500000Y-114625600D01*
X155200000Y-60025600D02*
X159025600Y-60025600D01*
X159500000Y-60500000D02*
X161000000Y-60500000D01*
X159025600Y-60025600D02*
X159500000Y-60500000D01*
X152450000Y-60000000D02*
X155174400Y-60000000D01*
X155174400Y-60000000D02*
X155200000Y-60025600D01*
X134500000Y-66000000D02*
X134500000Y-69000000D01*
X134050000Y-64000000D02*
X134050000Y-65550000D01*
X134050000Y-65550000D02*
X134500000Y-66000000D01*
D26*
X137900000Y-59075000D02*
X136225000Y-59075000D01*
X134500000Y-63550000D02*
X134050000Y-64000000D01*
X134500000Y-60800000D02*
X134500000Y-63550000D01*
X136225000Y-59075000D02*
X134500000Y-60800000D01*
X133500000Y-59850000D02*
X130550000Y-59850000D01*
X130550000Y-59850000D02*
X129500000Y-60900000D01*
X133500000Y-59850000D02*
X133500000Y-58700000D01*
X135725000Y-55175000D02*
X137900000Y-55175000D01*
X133000000Y-57900000D02*
X135725000Y-55175000D01*
X133000000Y-58200000D02*
X133000000Y-57900000D01*
X133500000Y-58700000D02*
X133000000Y-58200000D01*
X129500000Y-60100000D02*
X129500000Y-60900000D01*
D24*
X133800000Y-80500000D02*
X137374400Y-80500000D01*
X137374400Y-80500000D02*
X137500000Y-80625600D01*
X131130000Y-90660000D02*
X131130000Y-87240000D01*
X131130000Y-78650000D02*
X131130000Y-76940000D01*
X129840000Y-79940000D02*
X131130000Y-78650000D01*
X129840000Y-85950000D02*
X129840000Y-79940000D01*
X131130000Y-87240000D02*
X129840000Y-85950000D01*
D26*
X146000000Y-69000000D02*
X146000000Y-65540000D01*
X146345000Y-58425000D02*
X145100000Y-58425000D01*
X147610000Y-59690000D02*
X146345000Y-58425000D01*
X146000000Y-65540000D02*
X146880000Y-64660000D01*
D24*
X155500000Y-96125600D02*
X158625600Y-96125600D01*
X160000000Y-97500000D02*
X161000000Y-97500000D01*
X158625600Y-96125600D02*
X160000000Y-97500000D01*
X152450000Y-95500000D02*
X154874400Y-95500000D01*
X154874400Y-95500000D02*
X155500000Y-96125600D01*
D26*
X133500000Y-55750000D02*
X134450000Y-55750000D01*
X135675000Y-54525000D02*
X137900000Y-54525000D01*
X134450000Y-55750000D02*
X135675000Y-54525000D01*
X129500000Y-56000000D02*
X132400000Y-56000000D01*
X132650000Y-55750000D02*
X133500000Y-55750000D01*
X132400000Y-56000000D02*
X132650000Y-55750000D01*
D27*
G36*
X167873000Y-45096864D02*
X167598957Y-44433628D01*
X167069161Y-43902907D01*
X166376595Y-43615328D01*
X165626695Y-43614674D01*
X164933628Y-43901043D01*
X164402907Y-44430839D01*
X164115328Y-45123405D01*
X164114674Y-45873305D01*
X164401043Y-46566372D01*
X164930839Y-47097093D01*
X165623405Y-47384672D01*
X166373305Y-47385326D01*
X167066372Y-47098957D01*
X167597093Y-46569161D01*
X167873000Y-45904704D01*
X167873000Y-124096864D01*
X167598957Y-123433628D01*
X167069161Y-122902907D01*
X166376595Y-122615328D01*
X165626695Y-122614674D01*
X164933628Y-122901043D01*
X164402907Y-123430839D01*
X164115328Y-124123405D01*
X164114674Y-124873305D01*
X164401043Y-125566372D01*
X164930839Y-126097093D01*
X165623405Y-126384672D01*
X166373305Y-126385326D01*
X167066372Y-126098957D01*
X167597093Y-125569161D01*
X167873000Y-124904704D01*
X167873000Y-126790000D01*
X126127000Y-126790000D01*
X126127000Y-124903136D01*
X126401043Y-125566372D01*
X126930839Y-126097093D01*
X127623405Y-126384672D01*
X128373305Y-126385326D01*
X129066372Y-126098957D01*
X129597093Y-125569161D01*
X129884672Y-124876595D01*
X129885326Y-124126695D01*
X129598957Y-123433628D01*
X129069161Y-122902907D01*
X128376595Y-122615328D01*
X127626695Y-122614674D01*
X126933628Y-122901043D01*
X126402907Y-123430839D01*
X126127000Y-124095296D01*
X126127000Y-119982815D01*
X161534630Y-119982815D01*
X161858980Y-120767800D01*
X162459041Y-121368909D01*
X163243459Y-121694628D01*
X164092815Y-121695370D01*
X164877800Y-121371020D01*
X165478909Y-120770959D01*
X165804628Y-119986541D01*
X165805370Y-119137185D01*
X165481020Y-118352200D01*
X164880959Y-117751091D01*
X164096541Y-117425372D01*
X163247185Y-117424630D01*
X162462200Y-117748980D01*
X161861091Y-118349041D01*
X161535372Y-119133459D01*
X161534630Y-119982815D01*
X126127000Y-119982815D01*
X126127000Y-114785750D01*
X149315000Y-114785750D01*
X149315000Y-115001310D01*
X149411673Y-115234699D01*
X149590302Y-115413327D01*
X149823691Y-115510000D01*
X150264250Y-115510000D01*
X150423000Y-115351250D01*
X150423000Y-114627000D01*
X149473750Y-114627000D01*
X149315000Y-114785750D01*
X126127000Y-114785750D01*
X126127000Y-113998690D01*
X149315000Y-113998690D01*
X149315000Y-114214250D01*
X149473750Y-114373000D01*
X150423000Y-114373000D01*
X150423000Y-113648750D01*
X150677000Y-113648750D01*
X150677000Y-114373000D01*
X150697000Y-114373000D01*
X150697000Y-114627000D01*
X150677000Y-114627000D01*
X150677000Y-115351250D01*
X150835750Y-115510000D01*
X151276309Y-115510000D01*
X151509698Y-115413327D01*
X151511068Y-115411957D01*
X151598110Y-115471431D01*
X151850000Y-115522440D01*
X153050000Y-115522440D01*
X153285317Y-115478162D01*
X153501441Y-115339090D01*
X153504236Y-115335000D01*
X154178021Y-115335000D01*
X154197068Y-115436227D01*
X154336140Y-115652351D01*
X154548340Y-115797341D01*
X154800230Y-115848350D01*
X156199770Y-115848350D01*
X156435087Y-115804072D01*
X156651211Y-115665000D01*
X156790871Y-115460600D01*
X157279732Y-115460600D01*
X158409566Y-116590434D01*
X158680459Y-116771439D01*
X159000000Y-116835000D01*
X159876564Y-116835000D01*
X160214436Y-117173461D01*
X160723298Y-117384759D01*
X161274285Y-117385240D01*
X161783515Y-117174831D01*
X162173461Y-116785564D01*
X162384759Y-116276702D01*
X162385240Y-115725715D01*
X162174831Y-115216485D01*
X161785564Y-114826539D01*
X161553130Y-114730024D01*
X161783515Y-114634831D01*
X162173461Y-114245564D01*
X162384759Y-113736702D01*
X162385240Y-113185715D01*
X162174831Y-112676485D01*
X161943687Y-112444938D01*
X162173461Y-112215564D01*
X162384759Y-111706702D01*
X162385240Y-111155715D01*
X162174831Y-110646485D01*
X161785564Y-110256539D01*
X161569021Y-110166623D01*
X161723923Y-110102460D01*
X161791912Y-109861517D01*
X161000000Y-109069605D01*
X160208088Y-109861517D01*
X160276077Y-110102460D01*
X160442621Y-110161732D01*
X160216485Y-110255169D01*
X159826539Y-110644436D01*
X159615241Y-111153298D01*
X159614760Y-111704285D01*
X159825169Y-112213515D01*
X160056313Y-112445062D01*
X159826539Y-112674436D01*
X159615241Y-113183298D01*
X159614760Y-113734285D01*
X159825169Y-114243515D01*
X160214436Y-114633461D01*
X160446870Y-114729976D01*
X160216485Y-114825169D01*
X159876061Y-115165000D01*
X159345868Y-115165000D01*
X158216034Y-114035166D01*
X157998303Y-113889683D01*
X157945141Y-113854161D01*
X157625600Y-113790600D01*
X156787248Y-113790600D01*
X156663860Y-113598849D01*
X156451660Y-113453859D01*
X156199770Y-113402850D01*
X154800230Y-113402850D01*
X154564913Y-113447128D01*
X154348789Y-113586200D01*
X154294947Y-113665000D01*
X153501563Y-113665000D01*
X153301890Y-113528569D01*
X153050000Y-113477560D01*
X151850000Y-113477560D01*
X151614683Y-113521838D01*
X151511354Y-113588329D01*
X151509698Y-113586673D01*
X151276309Y-113490000D01*
X150835750Y-113490000D01*
X150677000Y-113648750D01*
X150423000Y-113648750D01*
X150264250Y-113490000D01*
X149823691Y-113490000D01*
X149590302Y-113586673D01*
X149411673Y-113765301D01*
X149315000Y-113998690D01*
X126127000Y-113998690D01*
X126127000Y-108007745D01*
X151671861Y-108007745D01*
X151745995Y-108253864D01*
X152283223Y-108446965D01*
X152853454Y-108419778D01*
X153254005Y-108253864D01*
X153328139Y-108007745D01*
X152500000Y-107179605D01*
X151671861Y-108007745D01*
X126127000Y-108007745D01*
X126127000Y-106783223D01*
X151053035Y-106783223D01*
X151080222Y-107353454D01*
X151246136Y-107754005D01*
X151492255Y-107828139D01*
X152320395Y-107000000D01*
X151492255Y-106171861D01*
X151246136Y-106245995D01*
X151053035Y-106783223D01*
X126127000Y-106783223D01*
X126127000Y-105992255D01*
X151671861Y-105992255D01*
X152500000Y-106820395D01*
X153328139Y-105992255D01*
X153254005Y-105746136D01*
X152716777Y-105553035D01*
X152146546Y-105580222D01*
X151745995Y-105746136D01*
X151671861Y-105992255D01*
X126127000Y-105992255D01*
X126127000Y-102007745D01*
X128671861Y-102007745D01*
X128745995Y-102253864D01*
X129283223Y-102446965D01*
X129853454Y-102419778D01*
X130254005Y-102253864D01*
X130328139Y-102007745D01*
X143171861Y-102007745D01*
X143245995Y-102253864D01*
X143783223Y-102446965D01*
X144353454Y-102419778D01*
X144754005Y-102253864D01*
X144828139Y-102007745D01*
X144000000Y-101179605D01*
X143171861Y-102007745D01*
X130328139Y-102007745D01*
X129500000Y-101179605D01*
X128671861Y-102007745D01*
X126127000Y-102007745D01*
X126127000Y-100783223D01*
X128053035Y-100783223D01*
X128080222Y-101353454D01*
X128246136Y-101754005D01*
X128492255Y-101828139D01*
X129320395Y-101000000D01*
X129679605Y-101000000D01*
X130507745Y-101828139D01*
X130753864Y-101754005D01*
X130946965Y-101216777D01*
X130919778Y-100646546D01*
X130753864Y-100245995D01*
X130719852Y-100235750D01*
X132490000Y-100235750D01*
X132490000Y-100676309D01*
X132586673Y-100909698D01*
X132765301Y-101088327D01*
X132998690Y-101185000D01*
X133214250Y-101185000D01*
X133373000Y-101026250D01*
X133373000Y-100077000D01*
X133627000Y-100077000D01*
X133627000Y-101026250D01*
X133785750Y-101185000D01*
X134001310Y-101185000D01*
X134234699Y-101088327D01*
X134413327Y-100909698D01*
X134510000Y-100676309D01*
X134510000Y-100235750D01*
X138990000Y-100235750D01*
X138990000Y-100676309D01*
X139086673Y-100909698D01*
X139265301Y-101088327D01*
X139498690Y-101185000D01*
X139714250Y-101185000D01*
X139873000Y-101026250D01*
X139873000Y-100077000D01*
X140127000Y-100077000D01*
X140127000Y-101026250D01*
X140285750Y-101185000D01*
X140501310Y-101185000D01*
X140734699Y-101088327D01*
X140913327Y-100909698D01*
X140965714Y-100783223D01*
X142553035Y-100783223D01*
X142580222Y-101353454D01*
X142746136Y-101754005D01*
X142992255Y-101828139D01*
X143820395Y-101000000D01*
X144179605Y-101000000D01*
X145007745Y-101828139D01*
X145253864Y-101754005D01*
X145446965Y-101216777D01*
X145419778Y-100646546D01*
X145253864Y-100245995D01*
X145007745Y-100171861D01*
X144179605Y-101000000D01*
X143820395Y-101000000D01*
X142992255Y-100171861D01*
X142746136Y-100245995D01*
X142553035Y-100783223D01*
X140965714Y-100783223D01*
X141010000Y-100676309D01*
X141010000Y-100235750D01*
X140851250Y-100077000D01*
X140127000Y-100077000D01*
X139873000Y-100077000D01*
X139148750Y-100077000D01*
X138990000Y-100235750D01*
X134510000Y-100235750D01*
X134351250Y-100077000D01*
X133627000Y-100077000D01*
X133373000Y-100077000D01*
X132648750Y-100077000D01*
X132490000Y-100235750D01*
X130719852Y-100235750D01*
X130507745Y-100171861D01*
X129679605Y-101000000D01*
X129320395Y-101000000D01*
X128492255Y-100171861D01*
X128246136Y-100245995D01*
X128053035Y-100783223D01*
X126127000Y-100783223D01*
X126127000Y-77362815D01*
X128994630Y-77362815D01*
X129318980Y-78147800D01*
X129884662Y-78714470D01*
X129249566Y-79349566D01*
X129068561Y-79620459D01*
X129005000Y-79940000D01*
X129005000Y-85950000D01*
X129068561Y-86269541D01*
X129159072Y-86405000D01*
X129249566Y-86540434D01*
X130295000Y-87585869D01*
X130295000Y-88694942D01*
X129922200Y-88848980D01*
X129321091Y-89449041D01*
X128995372Y-90233459D01*
X128994630Y-91082815D01*
X129318980Y-91867800D01*
X129919041Y-92468909D01*
X130703459Y-92794628D01*
X131552815Y-92795370D01*
X132337800Y-92471020D01*
X132938909Y-91870959D01*
X133264628Y-91086541D01*
X133265370Y-90237185D01*
X132941020Y-89452200D01*
X132340959Y-88851091D01*
X131965000Y-88694979D01*
X131965000Y-88581517D01*
X133008088Y-88581517D01*
X133076077Y-88822460D01*
X133595171Y-89007201D01*
X134145448Y-88979230D01*
X134523923Y-88822460D01*
X134591912Y-88581517D01*
X133800000Y-87789605D01*
X133008088Y-88581517D01*
X131965000Y-88581517D01*
X131965000Y-87405171D01*
X132402799Y-87405171D01*
X132430770Y-87955448D01*
X132587540Y-88333923D01*
X132828483Y-88401912D01*
X133620395Y-87610000D01*
X133979605Y-87610000D01*
X134771517Y-88401912D01*
X135012460Y-88333923D01*
X135197201Y-87814829D01*
X135169230Y-87264552D01*
X135012460Y-86886077D01*
X134771517Y-86818088D01*
X133979605Y-87610000D01*
X133620395Y-87610000D01*
X132828483Y-86818088D01*
X132587540Y-86886077D01*
X132402799Y-87405171D01*
X131965000Y-87405171D01*
X131965000Y-87240000D01*
X131901439Y-86920459D01*
X131768458Y-86721439D01*
X131720434Y-86649565D01*
X130675000Y-85604132D01*
X130675000Y-80285868D01*
X131720434Y-79240435D01*
X131837547Y-79065162D01*
X131901439Y-78969541D01*
X131909722Y-78927899D01*
X132337800Y-78751020D01*
X132938909Y-78150959D01*
X133264628Y-77366541D01*
X133265370Y-76517185D01*
X132941020Y-75732200D01*
X132340959Y-75131091D01*
X131556541Y-74805372D01*
X130707185Y-74804630D01*
X129922200Y-75128980D01*
X129321091Y-75729041D01*
X128995372Y-76513459D01*
X128994630Y-77362815D01*
X126127000Y-77362815D01*
X126127000Y-73285750D01*
X133015000Y-73285750D01*
X133015000Y-74126309D01*
X133111673Y-74359698D01*
X133290301Y-74538327D01*
X133523690Y-74635000D01*
X134214250Y-74635000D01*
X134373000Y-74476250D01*
X134373000Y-73127000D01*
X134627000Y-73127000D01*
X134627000Y-74476250D01*
X134785750Y-74635000D01*
X135476310Y-74635000D01*
X135709699Y-74538327D01*
X135888327Y-74359698D01*
X135985000Y-74126309D01*
X135985000Y-73285750D01*
X135826250Y-73127000D01*
X134627000Y-73127000D01*
X134373000Y-73127000D01*
X133173750Y-73127000D01*
X133015000Y-73285750D01*
X126127000Y-73285750D01*
X126127000Y-71873691D01*
X133015000Y-71873691D01*
X133015000Y-72714250D01*
X133173750Y-72873000D01*
X134373000Y-72873000D01*
X134373000Y-71523750D01*
X134627000Y-71523750D01*
X134627000Y-72873000D01*
X135826250Y-72873000D01*
X135985000Y-72714250D01*
X135985000Y-72323691D01*
X136490000Y-72323691D01*
X136490000Y-72764250D01*
X136648750Y-72923000D01*
X137373000Y-72923000D01*
X137373000Y-71973750D01*
X137214250Y-71815000D01*
X136998690Y-71815000D01*
X136765301Y-71911673D01*
X136586673Y-72090302D01*
X136490000Y-72323691D01*
X135985000Y-72323691D01*
X135985000Y-71873691D01*
X135888327Y-71640302D01*
X135709699Y-71461673D01*
X135476310Y-71365000D01*
X134785750Y-71365000D01*
X134627000Y-71523750D01*
X134373000Y-71523750D01*
X134214250Y-71365000D01*
X133523690Y-71365000D01*
X133290301Y-71461673D01*
X133111673Y-71640302D01*
X133015000Y-71873691D01*
X126127000Y-71873691D01*
X126127000Y-56353501D01*
X127714691Y-56353501D01*
X127985868Y-57009800D01*
X128487559Y-57512367D01*
X129143384Y-57784689D01*
X129853501Y-57785309D01*
X130509800Y-57514132D01*
X131012367Y-57012441D01*
X131117190Y-56760000D01*
X132400000Y-56760000D01*
X132607663Y-56718693D01*
X132660910Y-56801441D01*
X132873110Y-56946431D01*
X132877814Y-56947384D01*
X132462599Y-57362599D01*
X132297852Y-57609161D01*
X132240000Y-57900000D01*
X132240000Y-58200000D01*
X132297852Y-58490839D01*
X132462599Y-58737401D01*
X132607617Y-58882419D01*
X132528569Y-58998110D01*
X132509961Y-59090000D01*
X130550000Y-59090000D01*
X130259160Y-59147852D01*
X130134914Y-59230870D01*
X129856616Y-59115311D01*
X129146499Y-59114691D01*
X128490200Y-59385868D01*
X127987633Y-59887559D01*
X127715311Y-60543384D01*
X127714691Y-61253501D01*
X127985868Y-61909800D01*
X128487559Y-62412367D01*
X129143384Y-62684689D01*
X129853501Y-62685309D01*
X130509800Y-62414132D01*
X131012367Y-61912441D01*
X131284689Y-61256616D01*
X131285254Y-60610000D01*
X132507666Y-60610000D01*
X132521838Y-60685317D01*
X132588329Y-60788646D01*
X132586673Y-60790302D01*
X132490000Y-61023691D01*
X132490000Y-61464250D01*
X132648750Y-61623000D01*
X133373000Y-61623000D01*
X133373000Y-61603000D01*
X133627000Y-61603000D01*
X133627000Y-61623000D01*
X133647000Y-61623000D01*
X133647000Y-61877000D01*
X133627000Y-61877000D01*
X133627000Y-61897000D01*
X133373000Y-61897000D01*
X133373000Y-61877000D01*
X132648750Y-61877000D01*
X132490000Y-62035750D01*
X132490000Y-62476309D01*
X132586673Y-62709698D01*
X132765301Y-62888327D01*
X132998690Y-62985000D01*
X133214250Y-62985000D01*
X133372998Y-62826252D01*
X133372998Y-62985000D01*
X133410460Y-62985000D01*
X133214683Y-63021838D01*
X132998559Y-63160910D01*
X132853569Y-63373110D01*
X132802560Y-63625000D01*
X132802560Y-64375000D01*
X132846838Y-64610317D01*
X132969725Y-64801288D01*
X132903569Y-64898110D01*
X132852560Y-65150000D01*
X132852560Y-66850000D01*
X132896838Y-67085317D01*
X133035910Y-67301441D01*
X133248110Y-67446431D01*
X133316189Y-67460217D01*
X133198559Y-67535910D01*
X133053569Y-67748110D01*
X133002560Y-68000000D01*
X133002560Y-70000000D01*
X133046838Y-70235317D01*
X133185910Y-70451441D01*
X133398110Y-70596431D01*
X133650000Y-70647440D01*
X135350000Y-70647440D01*
X135585317Y-70603162D01*
X135801441Y-70464090D01*
X135946431Y-70251890D01*
X135997440Y-70000000D01*
X135997440Y-68000000D01*
X135953162Y-67764683D01*
X135814090Y-67548559D01*
X135687610Y-67462139D01*
X135735317Y-67453162D01*
X135951441Y-67314090D01*
X136096431Y-67101890D01*
X136147440Y-66850000D01*
X136147440Y-65150000D01*
X136103162Y-64914683D01*
X136077002Y-64874029D01*
X136077002Y-64851252D01*
X136235750Y-65010000D01*
X136676309Y-65010000D01*
X136899644Y-64917491D01*
X136852560Y-65150000D01*
X136852560Y-66850000D01*
X136896838Y-67085317D01*
X137035910Y-67301441D01*
X137248110Y-67446431D01*
X137500000Y-67497440D01*
X137665000Y-67497440D01*
X137665000Y-67654132D01*
X137409566Y-67909566D01*
X137228561Y-68180459D01*
X137165000Y-68500000D01*
X137165000Y-71000000D01*
X137228561Y-71319541D01*
X137284707Y-71403569D01*
X137409566Y-71590434D01*
X137709941Y-71890809D01*
X137627000Y-71973750D01*
X137627000Y-72923000D01*
X137647000Y-72923000D01*
X137647000Y-73177000D01*
X137627000Y-73177000D01*
X137627000Y-73197000D01*
X137373000Y-73197000D01*
X137373000Y-73177000D01*
X136648750Y-73177000D01*
X136490000Y-73335750D01*
X136490000Y-73776309D01*
X136586673Y-74009698D01*
X136588043Y-74011068D01*
X136528569Y-74098110D01*
X136477560Y-74350000D01*
X136477560Y-75550000D01*
X136521838Y-75785317D01*
X136660910Y-76001441D01*
X136665000Y-76004236D01*
X136665000Y-76177095D01*
X136564913Y-76195928D01*
X136348789Y-76335000D01*
X136203799Y-76547200D01*
X136152790Y-76799090D01*
X136152790Y-77949710D01*
X136197068Y-78185027D01*
X136336140Y-78401151D01*
X136548340Y-78546141D01*
X136800230Y-78597150D01*
X138199770Y-78597150D01*
X138435087Y-78552872D01*
X138651211Y-78413800D01*
X138790871Y-78209400D01*
X139352560Y-78209400D01*
X139352560Y-78350000D01*
X139379235Y-78491766D01*
X139194921Y-78614921D01*
X138674921Y-79134921D01*
X138504755Y-79389593D01*
X138487148Y-79478107D01*
X138451660Y-79453859D01*
X138199770Y-79402850D01*
X136800230Y-79402850D01*
X136564913Y-79447128D01*
X136348789Y-79586200D01*
X136294947Y-79665000D01*
X134923436Y-79665000D01*
X134585564Y-79326539D01*
X134076702Y-79115241D01*
X133525715Y-79114760D01*
X133016485Y-79325169D01*
X132626539Y-79714436D01*
X132415241Y-80223298D01*
X132414760Y-80774285D01*
X132625169Y-81283515D01*
X133014436Y-81673461D01*
X133246870Y-81769976D01*
X133016485Y-81865169D01*
X132626539Y-82254436D01*
X132415241Y-82763298D01*
X132414760Y-83314285D01*
X132625169Y-83823515D01*
X132856313Y-84055062D01*
X132626539Y-84284436D01*
X132415241Y-84793298D01*
X132414760Y-85344285D01*
X132625169Y-85853515D01*
X133014436Y-86243461D01*
X133230979Y-86333377D01*
X133076077Y-86397540D01*
X133008088Y-86638483D01*
X133800000Y-87430395D01*
X134591912Y-86638483D01*
X134523923Y-86397540D01*
X134357379Y-86338268D01*
X134583515Y-86244831D01*
X134973461Y-85855564D01*
X135184759Y-85346702D01*
X135185240Y-84795715D01*
X134974831Y-84286485D01*
X134743687Y-84054938D01*
X134973461Y-83825564D01*
X135184759Y-83316702D01*
X135185240Y-82765715D01*
X134974831Y-82256485D01*
X134585564Y-81866539D01*
X134353130Y-81770024D01*
X134583515Y-81674831D01*
X134923939Y-81335000D01*
X136178021Y-81335000D01*
X136197068Y-81436227D01*
X136336140Y-81652351D01*
X136548340Y-81797341D01*
X136800230Y-81848350D01*
X138199770Y-81848350D01*
X138435087Y-81804072D01*
X138445000Y-81797693D01*
X138445000Y-87324842D01*
X135994921Y-89774921D01*
X135824755Y-90029593D01*
X135788791Y-90210395D01*
X135765000Y-90330000D01*
X135765000Y-92012370D01*
X135714683Y-92021838D01*
X135498559Y-92160910D01*
X135353569Y-92373110D01*
X135302560Y-92625000D01*
X135302560Y-93016572D01*
X134783966Y-93535166D01*
X134602961Y-93806059D01*
X134539400Y-94125600D01*
X134539400Y-94212752D01*
X134347649Y-94336140D01*
X134202659Y-94548340D01*
X134151650Y-94800230D01*
X134151650Y-95667482D01*
X132991441Y-96827691D01*
X132889683Y-96846838D01*
X132673559Y-96985910D01*
X132528569Y-97198110D01*
X132477560Y-97450000D01*
X132477560Y-97665000D01*
X130940854Y-97665000D01*
X130903162Y-97464683D01*
X130764090Y-97248559D01*
X130551890Y-97103569D01*
X130300000Y-97052560D01*
X128700000Y-97052560D01*
X128464683Y-97096838D01*
X128248559Y-97235910D01*
X128103569Y-97448110D01*
X128052560Y-97700000D01*
X128052560Y-99300000D01*
X128096838Y-99535317D01*
X128235910Y-99751441D01*
X128448110Y-99896431D01*
X128686201Y-99944646D01*
X128671861Y-99992255D01*
X129500000Y-100820395D01*
X130328139Y-99992255D01*
X130313855Y-99944833D01*
X130535317Y-99903162D01*
X130751441Y-99764090D01*
X130896431Y-99551890D01*
X130940352Y-99335000D01*
X132490000Y-99335000D01*
X132490000Y-99664250D01*
X132648750Y-99823000D01*
X133373000Y-99823000D01*
X133373000Y-99803000D01*
X133627000Y-99803000D01*
X133627000Y-99823000D01*
X134351250Y-99823000D01*
X134510000Y-99664250D01*
X134510000Y-99223691D01*
X134413327Y-98990302D01*
X134411957Y-98988932D01*
X134471431Y-98901890D01*
X134522440Y-98650000D01*
X134522440Y-97658428D01*
X135333658Y-96847210D01*
X135949710Y-96847210D01*
X136185027Y-96802932D01*
X136401151Y-96663860D01*
X136546141Y-96451660D01*
X136597150Y-96199770D01*
X136597150Y-94800230D01*
X136552872Y-94564913D01*
X136413800Y-94348789D01*
X136365251Y-94315617D01*
X136658428Y-94022440D01*
X137150000Y-94022440D01*
X137385317Y-93978162D01*
X137488646Y-93911671D01*
X137490302Y-93913327D01*
X137723691Y-94010000D01*
X138164250Y-94010000D01*
X138323000Y-93851250D01*
X138323000Y-93127000D01*
X138577000Y-93127000D01*
X138577000Y-93851250D01*
X138735750Y-94010000D01*
X139176309Y-94010000D01*
X139409698Y-93913327D01*
X139588327Y-93734699D01*
X139685000Y-93501310D01*
X139685000Y-93285750D01*
X139526250Y-93127000D01*
X138577000Y-93127000D01*
X138323000Y-93127000D01*
X138303000Y-93127000D01*
X138303000Y-92873000D01*
X138323000Y-92873000D01*
X138323000Y-92148750D01*
X138577000Y-92148750D01*
X138577000Y-92873000D01*
X139526250Y-92873000D01*
X139685000Y-92714250D01*
X139685000Y-92498690D01*
X139588327Y-92265301D01*
X139409698Y-92086673D01*
X139176309Y-91990000D01*
X138735750Y-91990000D01*
X138577000Y-92148750D01*
X138323000Y-92148750D01*
X138164250Y-91990000D01*
X137723691Y-91990000D01*
X137490302Y-92086673D01*
X137488932Y-92088043D01*
X137401890Y-92028569D01*
X137335000Y-92015023D01*
X137335000Y-90655158D01*
X139785079Y-88205079D01*
X139940000Y-87973223D01*
X139940000Y-94285198D01*
X139747774Y-94477424D01*
X139665000Y-94348789D01*
X139452800Y-94203799D01*
X139200910Y-94152790D01*
X138050290Y-94152790D01*
X137814973Y-94197068D01*
X137598849Y-94336140D01*
X137453859Y-94548340D01*
X137402850Y-94800230D01*
X137402850Y-96199770D01*
X137447128Y-96435087D01*
X137586200Y-96651211D01*
X137790600Y-96790871D01*
X137790600Y-97625600D01*
X137854161Y-97945141D01*
X137924226Y-98050000D01*
X138035166Y-98216034D01*
X138459566Y-98640434D01*
X138730459Y-98821439D01*
X139020681Y-98879168D01*
X139021838Y-98885317D01*
X139088329Y-98988646D01*
X139086673Y-98990302D01*
X138990000Y-99223691D01*
X138990000Y-99664250D01*
X139148750Y-99823000D01*
X139873000Y-99823000D01*
X139873000Y-99803000D01*
X140127000Y-99803000D01*
X140127000Y-99823000D01*
X140851250Y-99823000D01*
X141010000Y-99664250D01*
X141010000Y-99223691D01*
X140913327Y-98990302D01*
X140911957Y-98988932D01*
X140971431Y-98901890D01*
X140974851Y-98885000D01*
X142552560Y-98885000D01*
X142552560Y-99300000D01*
X142596838Y-99535317D01*
X142735910Y-99751441D01*
X142948110Y-99896431D01*
X143186201Y-99944646D01*
X143171861Y-99992255D01*
X144000000Y-100820395D01*
X144828139Y-99992255D01*
X144813855Y-99944833D01*
X145035317Y-99903162D01*
X145251441Y-99764090D01*
X145396431Y-99551890D01*
X145447440Y-99300000D01*
X145447440Y-97700000D01*
X145403162Y-97464683D01*
X145264090Y-97248559D01*
X145051890Y-97103569D01*
X144800000Y-97052560D01*
X143200000Y-97052560D01*
X142964683Y-97096838D01*
X142781054Y-97215000D01*
X140978222Y-97215000D01*
X140978162Y-97214683D01*
X140839090Y-96998559D01*
X140626890Y-96853569D01*
X140375000Y-96802560D01*
X139625000Y-96802560D01*
X139460600Y-96833494D01*
X139460600Y-96787248D01*
X139652351Y-96663860D01*
X139797341Y-96451660D01*
X139837671Y-96252507D01*
X140090839Y-96202148D01*
X140337401Y-96037401D01*
X141237401Y-95137401D01*
X141402148Y-94890840D01*
X141460000Y-94600000D01*
X141460000Y-89507745D01*
X152171861Y-89507745D01*
X152245995Y-89753864D01*
X152783223Y-89946965D01*
X153353454Y-89919778D01*
X153754005Y-89753864D01*
X153828139Y-89507745D01*
X153000000Y-88679605D01*
X152171861Y-89507745D01*
X141460000Y-89507745D01*
X141460000Y-88283223D01*
X151553035Y-88283223D01*
X151580222Y-88853454D01*
X151746136Y-89254005D01*
X151992255Y-89328139D01*
X152820395Y-88500000D01*
X151992255Y-87671861D01*
X151746136Y-87745995D01*
X151553035Y-88283223D01*
X141460000Y-88283223D01*
X141460000Y-87492255D01*
X152171861Y-87492255D01*
X153000000Y-88320395D01*
X153828139Y-87492255D01*
X153754005Y-87246136D01*
X153216777Y-87053035D01*
X152646546Y-87080222D01*
X152245995Y-87246136D01*
X152171861Y-87492255D01*
X141460000Y-87492255D01*
X141460000Y-84500000D01*
X141502560Y-84500000D01*
X141502560Y-86500000D01*
X141546838Y-86735317D01*
X141685910Y-86951441D01*
X141898110Y-87096431D01*
X142150000Y-87147440D01*
X143850000Y-87147440D01*
X144085317Y-87103162D01*
X144301441Y-86964090D01*
X144446431Y-86751890D01*
X144497440Y-86500000D01*
X144497440Y-86335000D01*
X144502560Y-86335000D01*
X144502560Y-86500000D01*
X144546838Y-86735317D01*
X144685910Y-86951441D01*
X144898110Y-87096431D01*
X145150000Y-87147440D01*
X146850000Y-87147440D01*
X147085317Y-87103162D01*
X147301441Y-86964090D01*
X147446431Y-86751890D01*
X147497440Y-86500000D01*
X147497440Y-86260000D01*
X148350000Y-86260000D01*
X148640839Y-86202148D01*
X148887401Y-86037401D01*
X148999680Y-85925122D01*
X149045167Y-85925162D01*
X149388943Y-85783117D01*
X149652192Y-85520327D01*
X149794838Y-85176799D01*
X149795162Y-84804833D01*
X149653117Y-84461057D01*
X149390327Y-84197808D01*
X149046799Y-84055162D01*
X148674833Y-84054838D01*
X148331057Y-84196883D01*
X148067808Y-84459673D01*
X147951405Y-84740000D01*
X147497440Y-84740000D01*
X147497440Y-84500000D01*
X147453162Y-84264683D01*
X147314090Y-84048559D01*
X147101890Y-83903569D01*
X146850000Y-83852560D01*
X145150000Y-83852560D01*
X144914683Y-83896838D01*
X144698559Y-84035910D01*
X144553569Y-84248110D01*
X144502560Y-84500000D01*
X144502560Y-84665000D01*
X144497440Y-84665000D01*
X144497440Y-84500000D01*
X144453162Y-84264683D01*
X144314090Y-84048559D01*
X144101890Y-83903569D01*
X143850000Y-83852560D01*
X142150000Y-83852560D01*
X141914683Y-83896838D01*
X141698559Y-84035910D01*
X141553569Y-84248110D01*
X141502560Y-84500000D01*
X141460000Y-84500000D01*
X141460000Y-80700000D01*
X141402148Y-80409161D01*
X141302175Y-80259540D01*
X141237401Y-80162598D01*
X141029803Y-79955000D01*
X141824297Y-79955000D01*
X141698559Y-80035910D01*
X141553569Y-80248110D01*
X141502560Y-80500000D01*
X141502560Y-82500000D01*
X141546838Y-82735317D01*
X141685910Y-82951441D01*
X141898110Y-83096431D01*
X142150000Y-83147440D01*
X143850000Y-83147440D01*
X144085317Y-83103162D01*
X144301441Y-82964090D01*
X144446431Y-82751890D01*
X144497440Y-82500000D01*
X144497440Y-81785750D01*
X144515000Y-81785750D01*
X144515000Y-82626309D01*
X144611673Y-82859698D01*
X144790301Y-83038327D01*
X145023690Y-83135000D01*
X145714250Y-83135000D01*
X145873000Y-82976250D01*
X145873000Y-81627000D01*
X146127000Y-81627000D01*
X146127000Y-82976250D01*
X146285750Y-83135000D01*
X146976310Y-83135000D01*
X147209699Y-83038327D01*
X147388327Y-82859698D01*
X147485000Y-82626309D01*
X147485000Y-81785750D01*
X147326250Y-81627000D01*
X146127000Y-81627000D01*
X145873000Y-81627000D01*
X144673750Y-81627000D01*
X144515000Y-81785750D01*
X144497440Y-81785750D01*
X144497440Y-80500000D01*
X144483618Y-80426540D01*
X144515000Y-80395158D01*
X144515000Y-81214250D01*
X144673750Y-81373000D01*
X145873000Y-81373000D01*
X145873000Y-80023750D01*
X145714250Y-79865000D01*
X145045158Y-79865000D01*
X145555079Y-79355079D01*
X145725245Y-79100407D01*
X145745727Y-78997440D01*
X146000000Y-78997440D01*
X146173858Y-78964726D01*
X147143303Y-79934171D01*
X146976310Y-79865000D01*
X146285750Y-79865000D01*
X146127000Y-80023750D01*
X146127000Y-81373000D01*
X147326250Y-81373000D01*
X147485000Y-81214250D01*
X147485000Y-80373691D01*
X147415829Y-80206697D01*
X149409566Y-82200434D01*
X149680460Y-82381440D01*
X150000000Y-82445000D01*
X152814132Y-82445000D01*
X154665000Y-84295868D01*
X154665000Y-87059146D01*
X154464683Y-87096838D01*
X154248559Y-87235910D01*
X154103569Y-87448110D01*
X154055354Y-87686201D01*
X154007745Y-87671861D01*
X153179605Y-88500000D01*
X154007745Y-89328139D01*
X154055167Y-89313855D01*
X154096838Y-89535317D01*
X154235910Y-89751441D01*
X154448110Y-89896431D01*
X154665000Y-89940352D01*
X154665000Y-91677095D01*
X154564913Y-91695928D01*
X154348789Y-91835000D01*
X154209129Y-92039400D01*
X149665600Y-92039400D01*
X149346060Y-92102960D01*
X149075166Y-92283966D01*
X146699566Y-94659566D01*
X146518561Y-94930459D01*
X146455000Y-95250000D01*
X146455000Y-101950000D01*
X146518561Y-102269541D01*
X146618946Y-102419778D01*
X146699566Y-102540434D01*
X148649566Y-104490434D01*
X148920459Y-104671439D01*
X149240000Y-104735000D01*
X153384132Y-104735000D01*
X154165000Y-105515868D01*
X154165000Y-105559146D01*
X153964683Y-105596838D01*
X153748559Y-105735910D01*
X153603569Y-105948110D01*
X153555354Y-106186201D01*
X153507745Y-106171861D01*
X152679605Y-107000000D01*
X153507745Y-107828139D01*
X153555167Y-107813855D01*
X153596838Y-108035317D01*
X153735910Y-108251441D01*
X153948110Y-108396431D01*
X154200000Y-108447440D01*
X154665000Y-108447440D01*
X154665000Y-110177095D01*
X154564913Y-110195928D01*
X154348789Y-110335000D01*
X154203799Y-110547200D01*
X154152790Y-110799090D01*
X154152790Y-111949710D01*
X154197068Y-112185027D01*
X154336140Y-112401151D01*
X154548340Y-112546141D01*
X154800230Y-112597150D01*
X156199770Y-112597150D01*
X156435087Y-112552872D01*
X156651211Y-112413800D01*
X156796201Y-112201600D01*
X156847210Y-111949710D01*
X156847210Y-110799090D01*
X156802932Y-110563773D01*
X156663860Y-110347649D01*
X156451660Y-110202659D01*
X156335000Y-110179035D01*
X156335000Y-108685171D01*
X159602799Y-108685171D01*
X159630770Y-109235448D01*
X159787540Y-109613923D01*
X160028483Y-109681912D01*
X160820395Y-108890000D01*
X161179605Y-108890000D01*
X161971517Y-109681912D01*
X162212460Y-109613923D01*
X162397201Y-109094829D01*
X162369230Y-108544552D01*
X162212460Y-108166077D01*
X161971517Y-108098088D01*
X161179605Y-108890000D01*
X160820395Y-108890000D01*
X160028483Y-108098088D01*
X159787540Y-108166077D01*
X159602799Y-108685171D01*
X156335000Y-108685171D01*
X156335000Y-108141797D01*
X156396431Y-108051890D01*
X156423446Y-107918483D01*
X160208088Y-107918483D01*
X161000000Y-108710395D01*
X161791912Y-107918483D01*
X161723923Y-107677540D01*
X161204829Y-107492799D01*
X160654552Y-107520770D01*
X160276077Y-107677540D01*
X160208088Y-107918483D01*
X156423446Y-107918483D01*
X156447440Y-107800000D01*
X156447440Y-106262815D01*
X161534630Y-106262815D01*
X161858980Y-107047800D01*
X162459041Y-107648909D01*
X163243459Y-107974628D01*
X164092815Y-107975370D01*
X164877800Y-107651020D01*
X165478909Y-107050959D01*
X165804628Y-106266541D01*
X165805370Y-105417185D01*
X165481020Y-104632200D01*
X164880959Y-104031091D01*
X164096541Y-103705372D01*
X163247185Y-103704630D01*
X162462200Y-104028980D01*
X161861091Y-104629041D01*
X161535372Y-105413459D01*
X161534630Y-106262815D01*
X156447440Y-106262815D01*
X156447440Y-106200000D01*
X156403162Y-105964683D01*
X156264090Y-105748559D01*
X156051890Y-105603569D01*
X155835000Y-105559648D01*
X155835000Y-105170000D01*
X155771439Y-104850459D01*
X155590434Y-104579566D01*
X154320434Y-103309566D01*
X154049541Y-103128561D01*
X153730000Y-103065000D01*
X149585868Y-103065000D01*
X148528613Y-102007745D01*
X149671861Y-102007745D01*
X149745995Y-102253864D01*
X150283223Y-102446965D01*
X150853454Y-102419778D01*
X151254005Y-102253864D01*
X151328139Y-102007745D01*
X150500000Y-101179605D01*
X149671861Y-102007745D01*
X148528613Y-102007745D01*
X148125000Y-101604132D01*
X148125000Y-100783223D01*
X149053035Y-100783223D01*
X149080222Y-101353454D01*
X149246136Y-101754005D01*
X149492255Y-101828139D01*
X150320395Y-101000000D01*
X150679605Y-101000000D01*
X151507745Y-101828139D01*
X151753864Y-101754005D01*
X151946965Y-101216777D01*
X151924031Y-100735750D01*
X153490000Y-100735750D01*
X153490000Y-101176309D01*
X153586673Y-101409698D01*
X153765301Y-101588327D01*
X153998690Y-101685000D01*
X154214250Y-101685000D01*
X154373000Y-101526250D01*
X154373000Y-100577000D01*
X154627000Y-100577000D01*
X154627000Y-101526250D01*
X154785750Y-101685000D01*
X155001310Y-101685000D01*
X155234699Y-101588327D01*
X155413327Y-101409698D01*
X155500000Y-101200451D01*
X155586673Y-101409698D01*
X155765301Y-101588327D01*
X155998690Y-101685000D01*
X156214250Y-101685000D01*
X156373000Y-101526250D01*
X156373000Y-100577000D01*
X156627000Y-100577000D01*
X156627000Y-101526250D01*
X156785750Y-101685000D01*
X157001310Y-101685000D01*
X157234699Y-101588327D01*
X157340210Y-101482815D01*
X161534630Y-101482815D01*
X161858980Y-102267800D01*
X162459041Y-102868909D01*
X163243459Y-103194628D01*
X164092815Y-103195370D01*
X164877800Y-102871020D01*
X165478909Y-102270959D01*
X165804628Y-101486541D01*
X165805370Y-100637185D01*
X165481020Y-99852200D01*
X164880959Y-99251091D01*
X164096541Y-98925372D01*
X163247185Y-98924630D01*
X162462200Y-99248980D01*
X161861091Y-99849041D01*
X161535372Y-100633459D01*
X161534630Y-101482815D01*
X157340210Y-101482815D01*
X157413327Y-101409698D01*
X157510000Y-101176309D01*
X157510000Y-100735750D01*
X157351250Y-100577000D01*
X156627000Y-100577000D01*
X156373000Y-100577000D01*
X155648750Y-100577000D01*
X155500000Y-100725750D01*
X155351250Y-100577000D01*
X154627000Y-100577000D01*
X154373000Y-100577000D01*
X153648750Y-100577000D01*
X153490000Y-100735750D01*
X151924031Y-100735750D01*
X151919778Y-100646546D01*
X151753864Y-100245995D01*
X151507745Y-100171861D01*
X150679605Y-101000000D01*
X150320395Y-101000000D01*
X149492255Y-100171861D01*
X149246136Y-100245995D01*
X149053035Y-100783223D01*
X148125000Y-100783223D01*
X148125000Y-97700000D01*
X149052560Y-97700000D01*
X149052560Y-99300000D01*
X149096838Y-99535317D01*
X149235910Y-99751441D01*
X149448110Y-99896431D01*
X149686201Y-99944646D01*
X149671861Y-99992255D01*
X150500000Y-100820395D01*
X151328139Y-99992255D01*
X151313855Y-99944833D01*
X151535317Y-99903162D01*
X151751441Y-99764090D01*
X151896431Y-99551890D01*
X151940352Y-99335000D01*
X153512370Y-99335000D01*
X153521838Y-99385317D01*
X153588329Y-99488646D01*
X153586673Y-99490302D01*
X153490000Y-99723691D01*
X153490000Y-100164250D01*
X153648750Y-100323000D01*
X154373000Y-100323000D01*
X154373000Y-100303000D01*
X154627000Y-100303000D01*
X154627000Y-100323000D01*
X155351250Y-100323000D01*
X155500000Y-100174250D01*
X155648750Y-100323000D01*
X156373000Y-100323000D01*
X156373000Y-100303000D01*
X156627000Y-100303000D01*
X156627000Y-100323000D01*
X157351250Y-100323000D01*
X157510000Y-100164250D01*
X157510000Y-99723691D01*
X157413327Y-99490302D01*
X157411957Y-99488932D01*
X157471431Y-99401890D01*
X157522440Y-99150000D01*
X157522440Y-97950000D01*
X157478162Y-97714683D01*
X157339090Y-97498559D01*
X157126890Y-97353569D01*
X156875000Y-97302560D01*
X156437437Y-97302560D01*
X156651211Y-97165000D01*
X156790871Y-96960600D01*
X158279732Y-96960600D01*
X159409566Y-98090434D01*
X159680459Y-98271439D01*
X159845981Y-98304364D01*
X160214436Y-98673461D01*
X160723298Y-98884759D01*
X161274285Y-98885240D01*
X161783515Y-98674831D01*
X162173461Y-98285564D01*
X162384759Y-97776702D01*
X162385240Y-97225715D01*
X162174831Y-96716485D01*
X161785564Y-96326539D01*
X161553130Y-96230024D01*
X161783515Y-96134831D01*
X162173461Y-95745564D01*
X162384759Y-95236702D01*
X162385240Y-94685715D01*
X162174831Y-94176485D01*
X161943687Y-93944938D01*
X162173461Y-93715564D01*
X162384759Y-93206702D01*
X162385240Y-92655715D01*
X162174831Y-92146485D01*
X161785564Y-91756539D01*
X161569021Y-91666623D01*
X161723923Y-91602460D01*
X161791912Y-91361517D01*
X161000000Y-90569605D01*
X160208088Y-91361517D01*
X160276077Y-91602460D01*
X160442621Y-91661732D01*
X160216485Y-91755169D01*
X159826539Y-92144436D01*
X159615241Y-92653298D01*
X159614760Y-93204285D01*
X159825169Y-93713515D01*
X160056313Y-93945062D01*
X159826539Y-94174436D01*
X159615241Y-94683298D01*
X159614760Y-95234285D01*
X159825169Y-95743515D01*
X160214436Y-96133461D01*
X160446870Y-96229976D01*
X160216485Y-96325169D01*
X160111169Y-96430301D01*
X159216034Y-95535166D01*
X159163404Y-95500000D01*
X158945141Y-95354161D01*
X158625600Y-95290600D01*
X156787248Y-95290600D01*
X156663860Y-95098849D01*
X156451660Y-94953859D01*
X156199770Y-94902850D01*
X155454783Y-94902850D01*
X155446086Y-94897039D01*
X155193941Y-94728561D01*
X154874400Y-94665000D01*
X153501563Y-94665000D01*
X153301890Y-94528569D01*
X153050000Y-94477560D01*
X151850000Y-94477560D01*
X151614683Y-94521838D01*
X151511354Y-94588329D01*
X151509698Y-94586673D01*
X151276309Y-94490000D01*
X150835750Y-94490000D01*
X150677000Y-94648750D01*
X150677000Y-95373000D01*
X150697000Y-95373000D01*
X150697000Y-95627000D01*
X150677000Y-95627000D01*
X150677000Y-96351250D01*
X150835750Y-96510000D01*
X151276309Y-96510000D01*
X151509698Y-96413327D01*
X151511068Y-96411957D01*
X151598110Y-96471431D01*
X151850000Y-96522440D01*
X153050000Y-96522440D01*
X153285317Y-96478162D01*
X153501441Y-96339090D01*
X153504236Y-96335000D01*
X154152790Y-96335000D01*
X154152790Y-96700910D01*
X154197068Y-96936227D01*
X154336140Y-97152351D01*
X154548340Y-97297341D01*
X154574112Y-97302560D01*
X154125000Y-97302560D01*
X153889683Y-97346838D01*
X153673559Y-97485910D01*
X153551192Y-97665000D01*
X151940854Y-97665000D01*
X151903162Y-97464683D01*
X151764090Y-97248559D01*
X151551890Y-97103569D01*
X151300000Y-97052560D01*
X149700000Y-97052560D01*
X149464683Y-97096838D01*
X149248559Y-97235910D01*
X149103569Y-97448110D01*
X149052560Y-97700000D01*
X148125000Y-97700000D01*
X148125000Y-95785750D01*
X149315000Y-95785750D01*
X149315000Y-96001310D01*
X149411673Y-96234699D01*
X149590302Y-96413327D01*
X149823691Y-96510000D01*
X150264250Y-96510000D01*
X150423000Y-96351250D01*
X150423000Y-95627000D01*
X149473750Y-95627000D01*
X149315000Y-95785750D01*
X148125000Y-95785750D01*
X148125000Y-95595868D01*
X148722178Y-94998690D01*
X149315000Y-94998690D01*
X149315000Y-95214250D01*
X149473750Y-95373000D01*
X150423000Y-95373000D01*
X150423000Y-94648750D01*
X150264250Y-94490000D01*
X149823691Y-94490000D01*
X149590302Y-94586673D01*
X149411673Y-94765301D01*
X149315000Y-94998690D01*
X148722178Y-94998690D01*
X150011468Y-93709400D01*
X154212752Y-93709400D01*
X154336140Y-93901151D01*
X154548340Y-94046141D01*
X154800230Y-94097150D01*
X156199770Y-94097150D01*
X156435087Y-94052872D01*
X156651211Y-93913800D01*
X156796201Y-93701600D01*
X156847210Y-93449710D01*
X156847210Y-92299090D01*
X156802932Y-92063773D01*
X156663860Y-91847649D01*
X156451660Y-91702659D01*
X156335000Y-91679035D01*
X156335000Y-90185171D01*
X159602799Y-90185171D01*
X159630770Y-90735448D01*
X159787540Y-91113923D01*
X160028483Y-91181912D01*
X160820395Y-90390000D01*
X161179605Y-90390000D01*
X161971517Y-91181912D01*
X162212460Y-91113923D01*
X162397201Y-90594829D01*
X162369230Y-90044552D01*
X162212460Y-89666077D01*
X161971517Y-89598088D01*
X161179605Y-90390000D01*
X160820395Y-90390000D01*
X160028483Y-89598088D01*
X159787540Y-89666077D01*
X159602799Y-90185171D01*
X156335000Y-90185171D01*
X156335000Y-89940854D01*
X156535317Y-89903162D01*
X156751441Y-89764090D01*
X156896431Y-89551890D01*
X156923446Y-89418483D01*
X160208088Y-89418483D01*
X161000000Y-90210395D01*
X161791912Y-89418483D01*
X161723923Y-89177540D01*
X161204829Y-88992799D01*
X160654552Y-89020770D01*
X160276077Y-89177540D01*
X160208088Y-89418483D01*
X156923446Y-89418483D01*
X156947440Y-89300000D01*
X156947440Y-87762815D01*
X161534630Y-87762815D01*
X161858980Y-88547800D01*
X162459041Y-89148909D01*
X163243459Y-89474628D01*
X164092815Y-89475370D01*
X164877800Y-89151020D01*
X165478909Y-88550959D01*
X165804628Y-87766541D01*
X165805370Y-86917185D01*
X165481020Y-86132200D01*
X164880959Y-85531091D01*
X164096541Y-85205372D01*
X163247185Y-85204630D01*
X162462200Y-85528980D01*
X161861091Y-86129041D01*
X161535372Y-86913459D01*
X161534630Y-87762815D01*
X156947440Y-87762815D01*
X156947440Y-87700000D01*
X156903162Y-87464683D01*
X156764090Y-87248559D01*
X156551890Y-87103569D01*
X156335000Y-87059648D01*
X156335000Y-83950000D01*
X156324366Y-83896539D01*
X156271440Y-83630460D01*
X156090434Y-83359566D01*
X155713683Y-82982815D01*
X161534630Y-82982815D01*
X161858980Y-83767800D01*
X162459041Y-84368909D01*
X163243459Y-84694628D01*
X164092815Y-84695370D01*
X164877800Y-84371020D01*
X165478909Y-83770959D01*
X165804628Y-82986541D01*
X165805370Y-82137185D01*
X165481020Y-81352200D01*
X164880959Y-80751091D01*
X164096541Y-80425372D01*
X163247185Y-80424630D01*
X162462200Y-80748980D01*
X161861091Y-81349041D01*
X161535372Y-82133459D01*
X161534630Y-82982815D01*
X155713683Y-82982815D01*
X153750434Y-81019566D01*
X153707441Y-80990839D01*
X153479541Y-80838561D01*
X153160000Y-80775000D01*
X150345868Y-80775000D01*
X148356618Y-78785750D01*
X149815000Y-78785750D01*
X149815000Y-79001310D01*
X149911673Y-79234699D01*
X150090302Y-79413327D01*
X150323691Y-79510000D01*
X150764250Y-79510000D01*
X150923000Y-79351250D01*
X150923000Y-78627000D01*
X149973750Y-78627000D01*
X149815000Y-78785750D01*
X148356618Y-78785750D01*
X147833188Y-78262320D01*
X148090434Y-78090434D01*
X148182178Y-77998690D01*
X149815000Y-77998690D01*
X149815000Y-78214250D01*
X149973750Y-78373000D01*
X150923000Y-78373000D01*
X150923000Y-77648750D01*
X151177000Y-77648750D01*
X151177000Y-78373000D01*
X151197000Y-78373000D01*
X151197000Y-78627000D01*
X151177000Y-78627000D01*
X151177000Y-79351250D01*
X151335750Y-79510000D01*
X151776309Y-79510000D01*
X152009698Y-79413327D01*
X152011068Y-79411957D01*
X152098110Y-79471431D01*
X152350000Y-79522440D01*
X152901572Y-79522440D01*
X154779566Y-81400434D01*
X155050459Y-81581439D01*
X155370000Y-81645000D01*
X157960000Y-81645000D01*
X158279541Y-81581439D01*
X158550434Y-81400434D01*
X159996112Y-79954756D01*
X160214436Y-80173461D01*
X160723298Y-80384759D01*
X161274285Y-80385240D01*
X161783515Y-80174831D01*
X162173461Y-79785564D01*
X162384759Y-79276702D01*
X162385240Y-78725715D01*
X162174831Y-78216485D01*
X161785564Y-77826539D01*
X161553130Y-77730024D01*
X161783515Y-77634831D01*
X162173461Y-77245564D01*
X162384759Y-76736702D01*
X162385240Y-76185715D01*
X162174831Y-75676485D01*
X161943687Y-75444938D01*
X162173461Y-75215564D01*
X162384759Y-74706702D01*
X162385240Y-74155715D01*
X162174831Y-73646485D01*
X161785564Y-73256539D01*
X161569021Y-73166623D01*
X161723923Y-73102460D01*
X161791912Y-72861517D01*
X161000000Y-72069605D01*
X160208088Y-72861517D01*
X160276077Y-73102460D01*
X160442621Y-73161732D01*
X160216485Y-73255169D01*
X159826539Y-73644436D01*
X159615241Y-74153298D01*
X159614760Y-74704285D01*
X159825169Y-75213515D01*
X160056313Y-75445062D01*
X159826539Y-75674436D01*
X159615241Y-76183298D01*
X159614760Y-76734285D01*
X159825169Y-77243515D01*
X160214436Y-77633461D01*
X160446870Y-77729976D01*
X160216485Y-77825169D01*
X159876061Y-78165000D01*
X159770000Y-78165000D01*
X159450460Y-78228560D01*
X159179566Y-78409566D01*
X157614132Y-79975000D01*
X155715868Y-79975000D01*
X155589218Y-79848350D01*
X156699770Y-79848350D01*
X156935087Y-79804072D01*
X157151211Y-79665000D01*
X157296201Y-79452800D01*
X157347210Y-79200910D01*
X157347210Y-78050290D01*
X157302932Y-77814973D01*
X157163860Y-77598849D01*
X156951660Y-77453859D01*
X156699770Y-77402850D01*
X155300230Y-77402850D01*
X155064913Y-77447128D01*
X154848789Y-77586200D01*
X154794947Y-77665000D01*
X154001563Y-77665000D01*
X153801890Y-77528569D01*
X153550000Y-77477560D01*
X152350000Y-77477560D01*
X152114683Y-77521838D01*
X152011354Y-77588329D01*
X152009698Y-77586673D01*
X151776309Y-77490000D01*
X151335750Y-77490000D01*
X151177000Y-77648750D01*
X150923000Y-77648750D01*
X150764250Y-77490000D01*
X150323691Y-77490000D01*
X150090302Y-77586673D01*
X149911673Y-77765301D01*
X149815000Y-77998690D01*
X148182178Y-77998690D01*
X149971468Y-76209400D01*
X154712752Y-76209400D01*
X154836140Y-76401151D01*
X155048340Y-76546141D01*
X155300230Y-76597150D01*
X156699770Y-76597150D01*
X156935087Y-76552872D01*
X157151211Y-76413800D01*
X157296201Y-76201600D01*
X157347210Y-75949710D01*
X157347210Y-74799090D01*
X157302932Y-74563773D01*
X157163860Y-74347649D01*
X156951660Y-74202659D01*
X156835000Y-74179035D01*
X156835000Y-71685171D01*
X159602799Y-71685171D01*
X159630770Y-72235448D01*
X159787540Y-72613923D01*
X160028483Y-72681912D01*
X160820395Y-71890000D01*
X161179605Y-71890000D01*
X161971517Y-72681912D01*
X162212460Y-72613923D01*
X162397201Y-72094829D01*
X162369230Y-71544552D01*
X162212460Y-71166077D01*
X161971517Y-71098088D01*
X161179605Y-71890000D01*
X160820395Y-71890000D01*
X160028483Y-71098088D01*
X159787540Y-71166077D01*
X159602799Y-71685171D01*
X156835000Y-71685171D01*
X156835000Y-71641797D01*
X156896431Y-71551890D01*
X156947440Y-71300000D01*
X156947440Y-70918483D01*
X160208088Y-70918483D01*
X161000000Y-71710395D01*
X161791912Y-70918483D01*
X161723923Y-70677540D01*
X161204829Y-70492799D01*
X160654552Y-70520770D01*
X160276077Y-70677540D01*
X160208088Y-70918483D01*
X156947440Y-70918483D01*
X156947440Y-69700000D01*
X156903162Y-69464683D01*
X156773264Y-69262815D01*
X161534630Y-69262815D01*
X161858980Y-70047800D01*
X162459041Y-70648909D01*
X163243459Y-70974628D01*
X164092815Y-70975370D01*
X164877800Y-70651020D01*
X165478909Y-70050959D01*
X165804628Y-69266541D01*
X165805370Y-68417185D01*
X165481020Y-67632200D01*
X164880959Y-67031091D01*
X164096541Y-66705372D01*
X163247185Y-66704630D01*
X162462200Y-67028980D01*
X161861091Y-67629041D01*
X161535372Y-68413459D01*
X161534630Y-69262815D01*
X156773264Y-69262815D01*
X156764090Y-69248559D01*
X156551890Y-69103569D01*
X156300000Y-69052560D01*
X154700000Y-69052560D01*
X154464683Y-69096838D01*
X154248559Y-69235910D01*
X154103569Y-69448110D01*
X154055354Y-69686201D01*
X154007745Y-69671861D01*
X153179605Y-70500000D01*
X154007745Y-71328139D01*
X154055167Y-71313855D01*
X154096838Y-71535317D01*
X154235910Y-71751441D01*
X154448110Y-71896431D01*
X154700000Y-71947440D01*
X155165000Y-71947440D01*
X155165000Y-74177095D01*
X155064913Y-74195928D01*
X154848789Y-74335000D01*
X154709129Y-74539400D01*
X150184406Y-74539400D01*
X150301441Y-74464090D01*
X150446431Y-74251890D01*
X150497440Y-74000000D01*
X150497440Y-72000000D01*
X150453162Y-71764683D01*
X150314090Y-71548559D01*
X150254357Y-71507745D01*
X152171861Y-71507745D01*
X152245995Y-71753864D01*
X152783223Y-71946965D01*
X153353454Y-71919778D01*
X153754005Y-71753864D01*
X153828139Y-71507745D01*
X153000000Y-70679605D01*
X152171861Y-71507745D01*
X150254357Y-71507745D01*
X150101890Y-71403569D01*
X149850000Y-71352560D01*
X148150000Y-71352560D01*
X147914683Y-71396838D01*
X147698559Y-71535910D01*
X147553569Y-71748110D01*
X147502560Y-72000000D01*
X147502560Y-72165000D01*
X147497440Y-72165000D01*
X147497440Y-72000000D01*
X147453162Y-71764683D01*
X147314090Y-71548559D01*
X147101890Y-71403569D01*
X146850000Y-71352560D01*
X145405000Y-71352560D01*
X145405000Y-70647440D01*
X146850000Y-70647440D01*
X147085317Y-70603162D01*
X147301441Y-70464090D01*
X147446431Y-70251890D01*
X147497440Y-70000000D01*
X147497440Y-68000000D01*
X147502560Y-68000000D01*
X147502560Y-70000000D01*
X147546838Y-70235317D01*
X147685910Y-70451441D01*
X147898110Y-70596431D01*
X148150000Y-70647440D01*
X149850000Y-70647440D01*
X150085317Y-70603162D01*
X150301441Y-70464090D01*
X150425022Y-70283223D01*
X151553035Y-70283223D01*
X151580222Y-70853454D01*
X151746136Y-71254005D01*
X151992255Y-71328139D01*
X152820395Y-70500000D01*
X151992255Y-69671861D01*
X151746136Y-69745995D01*
X151553035Y-70283223D01*
X150425022Y-70283223D01*
X150446431Y-70251890D01*
X150497440Y-70000000D01*
X150497440Y-69492255D01*
X152171861Y-69492255D01*
X153000000Y-70320395D01*
X153828139Y-69492255D01*
X153754005Y-69246136D01*
X153216777Y-69053035D01*
X152646546Y-69080222D01*
X152245995Y-69246136D01*
X152171861Y-69492255D01*
X150497440Y-69492255D01*
X150497440Y-68000000D01*
X150453162Y-67764683D01*
X150314090Y-67548559D01*
X150113381Y-67411421D01*
X150387401Y-67137401D01*
X150552148Y-66890839D01*
X150610000Y-66600000D01*
X150610000Y-66362463D01*
X150642192Y-66330327D01*
X150784838Y-65986799D01*
X150785162Y-65614833D01*
X150643117Y-65271057D01*
X150380327Y-65007808D01*
X150036799Y-64865162D01*
X149664833Y-64864838D01*
X149321057Y-65006883D01*
X149057808Y-65269673D01*
X148915162Y-65613201D01*
X148914838Y-65985167D01*
X149053776Y-66321422D01*
X148462599Y-66912599D01*
X148297852Y-67159161D01*
X148259382Y-67352560D01*
X148150000Y-67352560D01*
X147914683Y-67396838D01*
X147698559Y-67535910D01*
X147553569Y-67748110D01*
X147502560Y-68000000D01*
X147497440Y-68000000D01*
X147453162Y-67764683D01*
X147314090Y-67548559D01*
X147101890Y-67403569D01*
X146850000Y-67352560D01*
X146760000Y-67352560D01*
X146760000Y-65854802D01*
X147019680Y-65595122D01*
X147065167Y-65595162D01*
X147408943Y-65453117D01*
X147672192Y-65190327D01*
X147814838Y-64846799D01*
X147815155Y-64482815D01*
X161534630Y-64482815D01*
X161858980Y-65267800D01*
X162459041Y-65868909D01*
X163243459Y-66194628D01*
X164092815Y-66195370D01*
X164877800Y-65871020D01*
X165478909Y-65270959D01*
X165804628Y-64486541D01*
X165805370Y-63637185D01*
X165481020Y-62852200D01*
X164880959Y-62251091D01*
X164096541Y-61925372D01*
X163247185Y-61924630D01*
X162462200Y-62248980D01*
X161861091Y-62849041D01*
X161535372Y-63633459D01*
X161534630Y-64482815D01*
X147815155Y-64482815D01*
X147815162Y-64474833D01*
X147673117Y-64131057D01*
X147410327Y-63867808D01*
X147066799Y-63725162D01*
X146694833Y-63724838D01*
X146351057Y-63866883D01*
X146087808Y-64129673D01*
X145998130Y-64345642D01*
X145980327Y-64327808D01*
X145675078Y-64201057D01*
X145675162Y-64104833D01*
X145533117Y-63761057D01*
X145432236Y-63660000D01*
X154895758Y-63660000D01*
X155006883Y-63928943D01*
X155269673Y-64192192D01*
X155613201Y-64334838D01*
X155985167Y-64335162D01*
X156328943Y-64193117D01*
X156592192Y-63930327D01*
X156734838Y-63586799D01*
X156735162Y-63214833D01*
X156699753Y-63129135D01*
X157028943Y-62993117D01*
X157292192Y-62730327D01*
X157434838Y-62386799D01*
X157435162Y-62014833D01*
X157293117Y-61671057D01*
X157030327Y-61407808D01*
X156686799Y-61265162D01*
X156391190Y-61264905D01*
X156290839Y-61197852D01*
X156179248Y-61175655D01*
X156351211Y-61065000D01*
X156490871Y-60860600D01*
X158679732Y-60860600D01*
X158909566Y-61090434D01*
X159180459Y-61271439D01*
X159500000Y-61335000D01*
X159876564Y-61335000D01*
X160214436Y-61673461D01*
X160723298Y-61884759D01*
X161274285Y-61885240D01*
X161783515Y-61674831D01*
X162173461Y-61285564D01*
X162384759Y-60776702D01*
X162385240Y-60225715D01*
X162174831Y-59716485D01*
X161785564Y-59326539D01*
X161553130Y-59230024D01*
X161783515Y-59134831D01*
X162173461Y-58745564D01*
X162384759Y-58236702D01*
X162385240Y-57685715D01*
X162174831Y-57176485D01*
X161943687Y-56944938D01*
X162173461Y-56715564D01*
X162384759Y-56206702D01*
X162385240Y-55655715D01*
X162174831Y-55146485D01*
X161785564Y-54756539D01*
X161569021Y-54666623D01*
X161723923Y-54602460D01*
X161791912Y-54361517D01*
X161000000Y-53569605D01*
X160208088Y-54361517D01*
X160276077Y-54602460D01*
X160442621Y-54661732D01*
X160216485Y-54755169D01*
X159826539Y-55144436D01*
X159815924Y-55170000D01*
X158644802Y-55170000D01*
X158060000Y-54585198D01*
X158060000Y-53185171D01*
X159602799Y-53185171D01*
X159630770Y-53735448D01*
X159787540Y-54113923D01*
X160028483Y-54181912D01*
X160820395Y-53390000D01*
X161179605Y-53390000D01*
X161971517Y-54181912D01*
X162212460Y-54113923D01*
X162397201Y-53594829D01*
X162369230Y-53044552D01*
X162212460Y-52666077D01*
X161971517Y-52598088D01*
X161179605Y-53390000D01*
X160820395Y-53390000D01*
X160028483Y-52598088D01*
X159787540Y-52666077D01*
X159602799Y-53185171D01*
X158060000Y-53185171D01*
X158060000Y-52418483D01*
X160208088Y-52418483D01*
X161000000Y-53210395D01*
X161791912Y-52418483D01*
X161723923Y-52177540D01*
X161204829Y-51992799D01*
X160654552Y-52020770D01*
X160276077Y-52177540D01*
X160208088Y-52418483D01*
X158060000Y-52418483D01*
X158060000Y-50762815D01*
X161534630Y-50762815D01*
X161858980Y-51547800D01*
X162459041Y-52148909D01*
X163243459Y-52474628D01*
X164092815Y-52475370D01*
X164877800Y-52151020D01*
X165478909Y-51550959D01*
X165804628Y-50766541D01*
X165805370Y-49917185D01*
X165481020Y-49132200D01*
X164880959Y-48531091D01*
X164096541Y-48205372D01*
X163247185Y-48204630D01*
X162462200Y-48528980D01*
X161861091Y-49129041D01*
X161535372Y-49913459D01*
X161534630Y-50762815D01*
X158060000Y-50762815D01*
X158060000Y-49400000D01*
X158002148Y-49109161D01*
X157837401Y-48862599D01*
X156237401Y-47262599D01*
X155990839Y-47097852D01*
X155700000Y-47040000D01*
X150200000Y-47040000D01*
X149909161Y-47097852D01*
X149662599Y-47262599D01*
X146410198Y-50515000D01*
X146316797Y-50515000D01*
X146226890Y-50453569D01*
X145975000Y-50402560D01*
X144225000Y-50402560D01*
X143989683Y-50446838D01*
X143773559Y-50585910D01*
X143628569Y-50798110D01*
X143577560Y-51050000D01*
X143577560Y-51500000D01*
X143597067Y-51603671D01*
X143577560Y-51700000D01*
X143577560Y-51815000D01*
X143225000Y-51815000D01*
X142934161Y-51872852D01*
X142687599Y-52037599D01*
X142222004Y-52503194D01*
X141971057Y-52606883D01*
X141707808Y-52869673D01*
X141565162Y-53213201D01*
X141564838Y-53585167D01*
X141706883Y-53928943D01*
X141969673Y-54192192D01*
X142313201Y-54334838D01*
X142685167Y-54335162D01*
X142846162Y-54268640D01*
X142869673Y-54292192D01*
X143213201Y-54434838D01*
X143577560Y-54435155D01*
X143577560Y-54750000D01*
X143597067Y-54853671D01*
X143577560Y-54950000D01*
X143577560Y-55400000D01*
X143597067Y-55503671D01*
X143577560Y-55600000D01*
X143577560Y-56050000D01*
X143597067Y-56153671D01*
X143577560Y-56250000D01*
X143577560Y-56700000D01*
X143597067Y-56803671D01*
X143577560Y-56900000D01*
X143577560Y-57350000D01*
X143597067Y-57453671D01*
X143577560Y-57550000D01*
X143577560Y-58000000D01*
X143597067Y-58103671D01*
X143577560Y-58200000D01*
X143577560Y-58650000D01*
X143597067Y-58753671D01*
X143577560Y-58850000D01*
X143577560Y-59300000D01*
X143590980Y-59371323D01*
X143590000Y-59373690D01*
X143590000Y-59453750D01*
X143610312Y-59474062D01*
X143621838Y-59535317D01*
X143760910Y-59751441D01*
X143886862Y-59837500D01*
X143748750Y-59837500D01*
X143590000Y-59996250D01*
X143590000Y-60015198D01*
X140925328Y-57350526D01*
X141034838Y-57086799D01*
X141035162Y-56714833D01*
X140893117Y-56371057D01*
X140630327Y-56107808D01*
X140360000Y-55995558D01*
X140360000Y-53853919D01*
X140402148Y-53790840D01*
X140460000Y-53500000D01*
X140460000Y-52000000D01*
X140402148Y-51709161D01*
X140237401Y-51462599D01*
X139512401Y-50737599D01*
X139265839Y-50572852D01*
X139175030Y-50554789D01*
X139026890Y-50453569D01*
X138775000Y-50402560D01*
X137025000Y-50402560D01*
X136789683Y-50446838D01*
X136573559Y-50585910D01*
X136428569Y-50798110D01*
X136427203Y-50804854D01*
X136330327Y-50707808D01*
X135986799Y-50565162D01*
X135614833Y-50564838D01*
X135271057Y-50706883D01*
X135200019Y-50777797D01*
X135030327Y-50607808D01*
X134686799Y-50465162D01*
X134460000Y-50464964D01*
X134460000Y-49614802D01*
X136577362Y-47497440D01*
X138000000Y-47497440D01*
X138235317Y-47453162D01*
X138451441Y-47314090D01*
X138596431Y-47101890D01*
X138647440Y-46850000D01*
X138647440Y-45150000D01*
X138603162Y-44914683D01*
X138464090Y-44698559D01*
X138251890Y-44553569D01*
X138000000Y-44502560D01*
X136000000Y-44502560D01*
X135764683Y-44546838D01*
X135548559Y-44685910D01*
X135403569Y-44898110D01*
X135352560Y-45150000D01*
X135352560Y-46572638D01*
X133162599Y-48762599D01*
X132997852Y-49009161D01*
X132940000Y-49300000D01*
X132940000Y-51900000D01*
X132997852Y-52190839D01*
X133162599Y-52437401D01*
X133372998Y-52647800D01*
X133372998Y-52773748D01*
X133214250Y-52615000D01*
X132998690Y-52615000D01*
X132765301Y-52711673D01*
X132586673Y-52890302D01*
X132490000Y-53123691D01*
X132490000Y-53564250D01*
X132648750Y-53723000D01*
X133373000Y-53723000D01*
X133373000Y-53703000D01*
X133627000Y-53703000D01*
X133627000Y-53723000D01*
X134351250Y-53723000D01*
X134399724Y-53674526D01*
X134487599Y-53762401D01*
X134734161Y-53927148D01*
X135025000Y-53985000D01*
X135141489Y-53985000D01*
X135137599Y-53987599D01*
X134482501Y-54642697D01*
X134510000Y-54576309D01*
X134510000Y-54135750D01*
X134351250Y-53977000D01*
X133627000Y-53977000D01*
X133627000Y-53997000D01*
X133373000Y-53997000D01*
X133373000Y-53977000D01*
X132648750Y-53977000D01*
X132490000Y-54135750D01*
X132490000Y-54576309D01*
X132586673Y-54809698D01*
X132588043Y-54811068D01*
X132528569Y-54898110D01*
X132504083Y-55019025D01*
X132359160Y-55047852D01*
X132112599Y-55212599D01*
X132085198Y-55240000D01*
X131117347Y-55240000D01*
X131014132Y-54990200D01*
X130512441Y-54487633D01*
X129856616Y-54215311D01*
X129146499Y-54214691D01*
X128490200Y-54485868D01*
X127987633Y-54987559D01*
X127715311Y-55643384D01*
X127714691Y-56353501D01*
X126127000Y-56353501D01*
X126127000Y-45903136D01*
X126401043Y-46566372D01*
X126930839Y-47097093D01*
X127623405Y-47384672D01*
X128373305Y-47385326D01*
X129066372Y-47098957D01*
X129597093Y-46569161D01*
X129714775Y-46285750D01*
X131365000Y-46285750D01*
X131365000Y-46976310D01*
X131461673Y-47209699D01*
X131640302Y-47388327D01*
X131873691Y-47485000D01*
X132714250Y-47485000D01*
X132873000Y-47326250D01*
X132873000Y-46127000D01*
X133127000Y-46127000D01*
X133127000Y-47326250D01*
X133285750Y-47485000D01*
X134126309Y-47485000D01*
X134359698Y-47388327D01*
X134538327Y-47209699D01*
X134635000Y-46976310D01*
X134635000Y-46285750D01*
X134476250Y-46127000D01*
X133127000Y-46127000D01*
X132873000Y-46127000D01*
X131523750Y-46127000D01*
X131365000Y-46285750D01*
X129714775Y-46285750D01*
X129884672Y-45876595D01*
X129885326Y-45126695D01*
X129842766Y-45023690D01*
X131365000Y-45023690D01*
X131365000Y-45714250D01*
X131523750Y-45873000D01*
X132873000Y-45873000D01*
X132873000Y-44673750D01*
X133127000Y-44673750D01*
X133127000Y-45873000D01*
X134476250Y-45873000D01*
X134635000Y-45714250D01*
X134635000Y-45023690D01*
X134538327Y-44790301D01*
X134359698Y-44611673D01*
X134126309Y-44515000D01*
X133285750Y-44515000D01*
X133127000Y-44673750D01*
X132873000Y-44673750D01*
X132714250Y-44515000D01*
X131873691Y-44515000D01*
X131640302Y-44611673D01*
X131461673Y-44790301D01*
X131365000Y-45023690D01*
X129842766Y-45023690D01*
X129598957Y-44433628D01*
X129069161Y-43902907D01*
X128376595Y-43615328D01*
X127626695Y-43614674D01*
X126933628Y-43901043D01*
X126402907Y-44430839D01*
X126127000Y-45095296D01*
X126127000Y-43210000D01*
X167873000Y-43210000D01*
X167873000Y-45096864D01*
X167873000Y-45096864D01*
G37*
X167873000Y-45096864D02*
X167598957Y-44433628D01*
X167069161Y-43902907D01*
X166376595Y-43615328D01*
X165626695Y-43614674D01*
X164933628Y-43901043D01*
X164402907Y-44430839D01*
X164115328Y-45123405D01*
X164114674Y-45873305D01*
X164401043Y-46566372D01*
X164930839Y-47097093D01*
X165623405Y-47384672D01*
X166373305Y-47385326D01*
X167066372Y-47098957D01*
X167597093Y-46569161D01*
X167873000Y-45904704D01*
X167873000Y-124096864D01*
X167598957Y-123433628D01*
X167069161Y-122902907D01*
X166376595Y-122615328D01*
X165626695Y-122614674D01*
X164933628Y-122901043D01*
X164402907Y-123430839D01*
X164115328Y-124123405D01*
X164114674Y-124873305D01*
X164401043Y-125566372D01*
X164930839Y-126097093D01*
X165623405Y-126384672D01*
X166373305Y-126385326D01*
X167066372Y-126098957D01*
X167597093Y-125569161D01*
X167873000Y-124904704D01*
X167873000Y-126790000D01*
X126127000Y-126790000D01*
X126127000Y-124903136D01*
X126401043Y-125566372D01*
X126930839Y-126097093D01*
X127623405Y-126384672D01*
X128373305Y-126385326D01*
X129066372Y-126098957D01*
X129597093Y-125569161D01*
X129884672Y-124876595D01*
X129885326Y-124126695D01*
X129598957Y-123433628D01*
X129069161Y-122902907D01*
X128376595Y-122615328D01*
X127626695Y-122614674D01*
X126933628Y-122901043D01*
X126402907Y-123430839D01*
X126127000Y-124095296D01*
X126127000Y-119982815D01*
X161534630Y-119982815D01*
X161858980Y-120767800D01*
X162459041Y-121368909D01*
X163243459Y-121694628D01*
X164092815Y-121695370D01*
X164877800Y-121371020D01*
X165478909Y-120770959D01*
X165804628Y-119986541D01*
X165805370Y-119137185D01*
X165481020Y-118352200D01*
X164880959Y-117751091D01*
X164096541Y-117425372D01*
X163247185Y-117424630D01*
X162462200Y-117748980D01*
X161861091Y-118349041D01*
X161535372Y-119133459D01*
X161534630Y-119982815D01*
X126127000Y-119982815D01*
X126127000Y-114785750D01*
X149315000Y-114785750D01*
X149315000Y-115001310D01*
X149411673Y-115234699D01*
X149590302Y-115413327D01*
X149823691Y-115510000D01*
X150264250Y-115510000D01*
X150423000Y-115351250D01*
X150423000Y-114627000D01*
X149473750Y-114627000D01*
X149315000Y-114785750D01*
X126127000Y-114785750D01*
X126127000Y-113998690D01*
X149315000Y-113998690D01*
X149315000Y-114214250D01*
X149473750Y-114373000D01*
X150423000Y-114373000D01*
X150423000Y-113648750D01*
X150677000Y-113648750D01*
X150677000Y-114373000D01*
X150697000Y-114373000D01*
X150697000Y-114627000D01*
X150677000Y-114627000D01*
X150677000Y-115351250D01*
X150835750Y-115510000D01*
X151276309Y-115510000D01*
X151509698Y-115413327D01*
X151511068Y-115411957D01*
X151598110Y-115471431D01*
X151850000Y-115522440D01*
X153050000Y-115522440D01*
X153285317Y-115478162D01*
X153501441Y-115339090D01*
X153504236Y-115335000D01*
X154178021Y-115335000D01*
X154197068Y-115436227D01*
X154336140Y-115652351D01*
X154548340Y-115797341D01*
X154800230Y-115848350D01*
X156199770Y-115848350D01*
X156435087Y-115804072D01*
X156651211Y-115665000D01*
X156790871Y-115460600D01*
X157279732Y-115460600D01*
X158409566Y-116590434D01*
X158680459Y-116771439D01*
X159000000Y-116835000D01*
X159876564Y-116835000D01*
X160214436Y-117173461D01*
X160723298Y-117384759D01*
X161274285Y-117385240D01*
X161783515Y-117174831D01*
X162173461Y-116785564D01*
X162384759Y-116276702D01*
X162385240Y-115725715D01*
X162174831Y-115216485D01*
X161785564Y-114826539D01*
X161553130Y-114730024D01*
X161783515Y-114634831D01*
X162173461Y-114245564D01*
X162384759Y-113736702D01*
X162385240Y-113185715D01*
X162174831Y-112676485D01*
X161943687Y-112444938D01*
X162173461Y-112215564D01*
X162384759Y-111706702D01*
X162385240Y-111155715D01*
X162174831Y-110646485D01*
X161785564Y-110256539D01*
X161569021Y-110166623D01*
X161723923Y-110102460D01*
X161791912Y-109861517D01*
X161000000Y-109069605D01*
X160208088Y-109861517D01*
X160276077Y-110102460D01*
X160442621Y-110161732D01*
X160216485Y-110255169D01*
X159826539Y-110644436D01*
X159615241Y-111153298D01*
X159614760Y-111704285D01*
X159825169Y-112213515D01*
X160056313Y-112445062D01*
X159826539Y-112674436D01*
X159615241Y-113183298D01*
X159614760Y-113734285D01*
X159825169Y-114243515D01*
X160214436Y-114633461D01*
X160446870Y-114729976D01*
X160216485Y-114825169D01*
X159876061Y-115165000D01*
X159345868Y-115165000D01*
X158216034Y-114035166D01*
X157998303Y-113889683D01*
X157945141Y-113854161D01*
X157625600Y-113790600D01*
X156787248Y-113790600D01*
X156663860Y-113598849D01*
X156451660Y-113453859D01*
X156199770Y-113402850D01*
X154800230Y-113402850D01*
X154564913Y-113447128D01*
X154348789Y-113586200D01*
X154294947Y-113665000D01*
X153501563Y-113665000D01*
X153301890Y-113528569D01*
X153050000Y-113477560D01*
X151850000Y-113477560D01*
X151614683Y-113521838D01*
X151511354Y-113588329D01*
X151509698Y-113586673D01*
X151276309Y-113490000D01*
X150835750Y-113490000D01*
X150677000Y-113648750D01*
X150423000Y-113648750D01*
X150264250Y-113490000D01*
X149823691Y-113490000D01*
X149590302Y-113586673D01*
X149411673Y-113765301D01*
X149315000Y-113998690D01*
X126127000Y-113998690D01*
X126127000Y-108007745D01*
X151671861Y-108007745D01*
X151745995Y-108253864D01*
X152283223Y-108446965D01*
X152853454Y-108419778D01*
X153254005Y-108253864D01*
X153328139Y-108007745D01*
X152500000Y-107179605D01*
X151671861Y-108007745D01*
X126127000Y-108007745D01*
X126127000Y-106783223D01*
X151053035Y-106783223D01*
X151080222Y-107353454D01*
X151246136Y-107754005D01*
X151492255Y-107828139D01*
X152320395Y-107000000D01*
X151492255Y-106171861D01*
X151246136Y-106245995D01*
X151053035Y-106783223D01*
X126127000Y-106783223D01*
X126127000Y-105992255D01*
X151671861Y-105992255D01*
X152500000Y-106820395D01*
X153328139Y-105992255D01*
X153254005Y-105746136D01*
X152716777Y-105553035D01*
X152146546Y-105580222D01*
X151745995Y-105746136D01*
X151671861Y-105992255D01*
X126127000Y-105992255D01*
X126127000Y-102007745D01*
X128671861Y-102007745D01*
X128745995Y-102253864D01*
X129283223Y-102446965D01*
X129853454Y-102419778D01*
X130254005Y-102253864D01*
X130328139Y-102007745D01*
X143171861Y-102007745D01*
X143245995Y-102253864D01*
X143783223Y-102446965D01*
X144353454Y-102419778D01*
X144754005Y-102253864D01*
X144828139Y-102007745D01*
X144000000Y-101179605D01*
X143171861Y-102007745D01*
X130328139Y-102007745D01*
X129500000Y-101179605D01*
X128671861Y-102007745D01*
X126127000Y-102007745D01*
X126127000Y-100783223D01*
X128053035Y-100783223D01*
X128080222Y-101353454D01*
X128246136Y-101754005D01*
X128492255Y-101828139D01*
X129320395Y-101000000D01*
X129679605Y-101000000D01*
X130507745Y-101828139D01*
X130753864Y-101754005D01*
X130946965Y-101216777D01*
X130919778Y-100646546D01*
X130753864Y-100245995D01*
X130719852Y-100235750D01*
X132490000Y-100235750D01*
X132490000Y-100676309D01*
X132586673Y-100909698D01*
X132765301Y-101088327D01*
X132998690Y-101185000D01*
X133214250Y-101185000D01*
X133373000Y-101026250D01*
X133373000Y-100077000D01*
X133627000Y-100077000D01*
X133627000Y-101026250D01*
X133785750Y-101185000D01*
X134001310Y-101185000D01*
X134234699Y-101088327D01*
X134413327Y-100909698D01*
X134510000Y-100676309D01*
X134510000Y-100235750D01*
X138990000Y-100235750D01*
X138990000Y-100676309D01*
X139086673Y-100909698D01*
X139265301Y-101088327D01*
X139498690Y-101185000D01*
X139714250Y-101185000D01*
X139873000Y-101026250D01*
X139873000Y-100077000D01*
X140127000Y-100077000D01*
X140127000Y-101026250D01*
X140285750Y-101185000D01*
X140501310Y-101185000D01*
X140734699Y-101088327D01*
X140913327Y-100909698D01*
X140965714Y-100783223D01*
X142553035Y-100783223D01*
X142580222Y-101353454D01*
X142746136Y-101754005D01*
X142992255Y-101828139D01*
X143820395Y-101000000D01*
X144179605Y-101000000D01*
X145007745Y-101828139D01*
X145253864Y-101754005D01*
X145446965Y-101216777D01*
X145419778Y-100646546D01*
X145253864Y-100245995D01*
X145007745Y-100171861D01*
X144179605Y-101000000D01*
X143820395Y-101000000D01*
X142992255Y-100171861D01*
X142746136Y-100245995D01*
X142553035Y-100783223D01*
X140965714Y-100783223D01*
X141010000Y-100676309D01*
X141010000Y-100235750D01*
X140851250Y-100077000D01*
X140127000Y-100077000D01*
X139873000Y-100077000D01*
X139148750Y-100077000D01*
X138990000Y-100235750D01*
X134510000Y-100235750D01*
X134351250Y-100077000D01*
X133627000Y-100077000D01*
X133373000Y-100077000D01*
X132648750Y-100077000D01*
X132490000Y-100235750D01*
X130719852Y-100235750D01*
X130507745Y-100171861D01*
X129679605Y-101000000D01*
X129320395Y-101000000D01*
X128492255Y-100171861D01*
X128246136Y-100245995D01*
X128053035Y-100783223D01*
X126127000Y-100783223D01*
X126127000Y-77362815D01*
X128994630Y-77362815D01*
X129318980Y-78147800D01*
X129884662Y-78714470D01*
X129249566Y-79349566D01*
X129068561Y-79620459D01*
X129005000Y-79940000D01*
X129005000Y-85950000D01*
X129068561Y-86269541D01*
X129159072Y-86405000D01*
X129249566Y-86540434D01*
X130295000Y-87585869D01*
X130295000Y-88694942D01*
X129922200Y-88848980D01*
X129321091Y-89449041D01*
X128995372Y-90233459D01*
X128994630Y-91082815D01*
X129318980Y-91867800D01*
X129919041Y-92468909D01*
X130703459Y-92794628D01*
X131552815Y-92795370D01*
X132337800Y-92471020D01*
X132938909Y-91870959D01*
X133264628Y-91086541D01*
X133265370Y-90237185D01*
X132941020Y-89452200D01*
X132340959Y-88851091D01*
X131965000Y-88694979D01*
X131965000Y-88581517D01*
X133008088Y-88581517D01*
X133076077Y-88822460D01*
X133595171Y-89007201D01*
X134145448Y-88979230D01*
X134523923Y-88822460D01*
X134591912Y-88581517D01*
X133800000Y-87789605D01*
X133008088Y-88581517D01*
X131965000Y-88581517D01*
X131965000Y-87405171D01*
X132402799Y-87405171D01*
X132430770Y-87955448D01*
X132587540Y-88333923D01*
X132828483Y-88401912D01*
X133620395Y-87610000D01*
X133979605Y-87610000D01*
X134771517Y-88401912D01*
X135012460Y-88333923D01*
X135197201Y-87814829D01*
X135169230Y-87264552D01*
X135012460Y-86886077D01*
X134771517Y-86818088D01*
X133979605Y-87610000D01*
X133620395Y-87610000D01*
X132828483Y-86818088D01*
X132587540Y-86886077D01*
X132402799Y-87405171D01*
X131965000Y-87405171D01*
X131965000Y-87240000D01*
X131901439Y-86920459D01*
X131768458Y-86721439D01*
X131720434Y-86649565D01*
X130675000Y-85604132D01*
X130675000Y-80285868D01*
X131720434Y-79240435D01*
X131837547Y-79065162D01*
X131901439Y-78969541D01*
X131909722Y-78927899D01*
X132337800Y-78751020D01*
X132938909Y-78150959D01*
X133264628Y-77366541D01*
X133265370Y-76517185D01*
X132941020Y-75732200D01*
X132340959Y-75131091D01*
X131556541Y-74805372D01*
X130707185Y-74804630D01*
X129922200Y-75128980D01*
X129321091Y-75729041D01*
X128995372Y-76513459D01*
X128994630Y-77362815D01*
X126127000Y-77362815D01*
X126127000Y-73285750D01*
X133015000Y-73285750D01*
X133015000Y-74126309D01*
X133111673Y-74359698D01*
X133290301Y-74538327D01*
X133523690Y-74635000D01*
X134214250Y-74635000D01*
X134373000Y-74476250D01*
X134373000Y-73127000D01*
X134627000Y-73127000D01*
X134627000Y-74476250D01*
X134785750Y-74635000D01*
X135476310Y-74635000D01*
X135709699Y-74538327D01*
X135888327Y-74359698D01*
X135985000Y-74126309D01*
X135985000Y-73285750D01*
X135826250Y-73127000D01*
X134627000Y-73127000D01*
X134373000Y-73127000D01*
X133173750Y-73127000D01*
X133015000Y-73285750D01*
X126127000Y-73285750D01*
X126127000Y-71873691D01*
X133015000Y-71873691D01*
X133015000Y-72714250D01*
X133173750Y-72873000D01*
X134373000Y-72873000D01*
X134373000Y-71523750D01*
X134627000Y-71523750D01*
X134627000Y-72873000D01*
X135826250Y-72873000D01*
X135985000Y-72714250D01*
X135985000Y-72323691D01*
X136490000Y-72323691D01*
X136490000Y-72764250D01*
X136648750Y-72923000D01*
X137373000Y-72923000D01*
X137373000Y-71973750D01*
X137214250Y-71815000D01*
X136998690Y-71815000D01*
X136765301Y-71911673D01*
X136586673Y-72090302D01*
X136490000Y-72323691D01*
X135985000Y-72323691D01*
X135985000Y-71873691D01*
X135888327Y-71640302D01*
X135709699Y-71461673D01*
X135476310Y-71365000D01*
X134785750Y-71365000D01*
X134627000Y-71523750D01*
X134373000Y-71523750D01*
X134214250Y-71365000D01*
X133523690Y-71365000D01*
X133290301Y-71461673D01*
X133111673Y-71640302D01*
X133015000Y-71873691D01*
X126127000Y-71873691D01*
X126127000Y-56353501D01*
X127714691Y-56353501D01*
X127985868Y-57009800D01*
X128487559Y-57512367D01*
X129143384Y-57784689D01*
X129853501Y-57785309D01*
X130509800Y-57514132D01*
X131012367Y-57012441D01*
X131117190Y-56760000D01*
X132400000Y-56760000D01*
X132607663Y-56718693D01*
X132660910Y-56801441D01*
X132873110Y-56946431D01*
X132877814Y-56947384D01*
X132462599Y-57362599D01*
X132297852Y-57609161D01*
X132240000Y-57900000D01*
X132240000Y-58200000D01*
X132297852Y-58490839D01*
X132462599Y-58737401D01*
X132607617Y-58882419D01*
X132528569Y-58998110D01*
X132509961Y-59090000D01*
X130550000Y-59090000D01*
X130259160Y-59147852D01*
X130134914Y-59230870D01*
X129856616Y-59115311D01*
X129146499Y-59114691D01*
X128490200Y-59385868D01*
X127987633Y-59887559D01*
X127715311Y-60543384D01*
X127714691Y-61253501D01*
X127985868Y-61909800D01*
X128487559Y-62412367D01*
X129143384Y-62684689D01*
X129853501Y-62685309D01*
X130509800Y-62414132D01*
X131012367Y-61912441D01*
X131284689Y-61256616D01*
X131285254Y-60610000D01*
X132507666Y-60610000D01*
X132521838Y-60685317D01*
X132588329Y-60788646D01*
X132586673Y-60790302D01*
X132490000Y-61023691D01*
X132490000Y-61464250D01*
X132648750Y-61623000D01*
X133373000Y-61623000D01*
X133373000Y-61603000D01*
X133627000Y-61603000D01*
X133627000Y-61623000D01*
X133647000Y-61623000D01*
X133647000Y-61877000D01*
X133627000Y-61877000D01*
X133627000Y-61897000D01*
X133373000Y-61897000D01*
X133373000Y-61877000D01*
X132648750Y-61877000D01*
X132490000Y-62035750D01*
X132490000Y-62476309D01*
X132586673Y-62709698D01*
X132765301Y-62888327D01*
X132998690Y-62985000D01*
X133214250Y-62985000D01*
X133372998Y-62826252D01*
X133372998Y-62985000D01*
X133410460Y-62985000D01*
X133214683Y-63021838D01*
X132998559Y-63160910D01*
X132853569Y-63373110D01*
X132802560Y-63625000D01*
X132802560Y-64375000D01*
X132846838Y-64610317D01*
X132969725Y-64801288D01*
X132903569Y-64898110D01*
X132852560Y-65150000D01*
X132852560Y-66850000D01*
X132896838Y-67085317D01*
X133035910Y-67301441D01*
X133248110Y-67446431D01*
X133316189Y-67460217D01*
X133198559Y-67535910D01*
X133053569Y-67748110D01*
X133002560Y-68000000D01*
X133002560Y-70000000D01*
X133046838Y-70235317D01*
X133185910Y-70451441D01*
X133398110Y-70596431D01*
X133650000Y-70647440D01*
X135350000Y-70647440D01*
X135585317Y-70603162D01*
X135801441Y-70464090D01*
X135946431Y-70251890D01*
X135997440Y-70000000D01*
X135997440Y-68000000D01*
X135953162Y-67764683D01*
X135814090Y-67548559D01*
X135687610Y-67462139D01*
X135735317Y-67453162D01*
X135951441Y-67314090D01*
X136096431Y-67101890D01*
X136147440Y-66850000D01*
X136147440Y-65150000D01*
X136103162Y-64914683D01*
X136077002Y-64874029D01*
X136077002Y-64851252D01*
X136235750Y-65010000D01*
X136676309Y-65010000D01*
X136899644Y-64917491D01*
X136852560Y-65150000D01*
X136852560Y-66850000D01*
X136896838Y-67085317D01*
X137035910Y-67301441D01*
X137248110Y-67446431D01*
X137500000Y-67497440D01*
X137665000Y-67497440D01*
X137665000Y-67654132D01*
X137409566Y-67909566D01*
X137228561Y-68180459D01*
X137165000Y-68500000D01*
X137165000Y-71000000D01*
X137228561Y-71319541D01*
X137284707Y-71403569D01*
X137409566Y-71590434D01*
X137709941Y-71890809D01*
X137627000Y-71973750D01*
X137627000Y-72923000D01*
X137647000Y-72923000D01*
X137647000Y-73177000D01*
X137627000Y-73177000D01*
X137627000Y-73197000D01*
X137373000Y-73197000D01*
X137373000Y-73177000D01*
X136648750Y-73177000D01*
X136490000Y-73335750D01*
X136490000Y-73776309D01*
X136586673Y-74009698D01*
X136588043Y-74011068D01*
X136528569Y-74098110D01*
X136477560Y-74350000D01*
X136477560Y-75550000D01*
X136521838Y-75785317D01*
X136660910Y-76001441D01*
X136665000Y-76004236D01*
X136665000Y-76177095D01*
X136564913Y-76195928D01*
X136348789Y-76335000D01*
X136203799Y-76547200D01*
X136152790Y-76799090D01*
X136152790Y-77949710D01*
X136197068Y-78185027D01*
X136336140Y-78401151D01*
X136548340Y-78546141D01*
X136800230Y-78597150D01*
X138199770Y-78597150D01*
X138435087Y-78552872D01*
X138651211Y-78413800D01*
X138790871Y-78209400D01*
X139352560Y-78209400D01*
X139352560Y-78350000D01*
X139379235Y-78491766D01*
X139194921Y-78614921D01*
X138674921Y-79134921D01*
X138504755Y-79389593D01*
X138487148Y-79478107D01*
X138451660Y-79453859D01*
X138199770Y-79402850D01*
X136800230Y-79402850D01*
X136564913Y-79447128D01*
X136348789Y-79586200D01*
X136294947Y-79665000D01*
X134923436Y-79665000D01*
X134585564Y-79326539D01*
X134076702Y-79115241D01*
X133525715Y-79114760D01*
X133016485Y-79325169D01*
X132626539Y-79714436D01*
X132415241Y-80223298D01*
X132414760Y-80774285D01*
X132625169Y-81283515D01*
X133014436Y-81673461D01*
X133246870Y-81769976D01*
X133016485Y-81865169D01*
X132626539Y-82254436D01*
X132415241Y-82763298D01*
X132414760Y-83314285D01*
X132625169Y-83823515D01*
X132856313Y-84055062D01*
X132626539Y-84284436D01*
X132415241Y-84793298D01*
X132414760Y-85344285D01*
X132625169Y-85853515D01*
X133014436Y-86243461D01*
X133230979Y-86333377D01*
X133076077Y-86397540D01*
X133008088Y-86638483D01*
X133800000Y-87430395D01*
X134591912Y-86638483D01*
X134523923Y-86397540D01*
X134357379Y-86338268D01*
X134583515Y-86244831D01*
X134973461Y-85855564D01*
X135184759Y-85346702D01*
X135185240Y-84795715D01*
X134974831Y-84286485D01*
X134743687Y-84054938D01*
X134973461Y-83825564D01*
X135184759Y-83316702D01*
X135185240Y-82765715D01*
X134974831Y-82256485D01*
X134585564Y-81866539D01*
X134353130Y-81770024D01*
X134583515Y-81674831D01*
X134923939Y-81335000D01*
X136178021Y-81335000D01*
X136197068Y-81436227D01*
X136336140Y-81652351D01*
X136548340Y-81797341D01*
X136800230Y-81848350D01*
X138199770Y-81848350D01*
X138435087Y-81804072D01*
X138445000Y-81797693D01*
X138445000Y-87324842D01*
X135994921Y-89774921D01*
X135824755Y-90029593D01*
X135788791Y-90210395D01*
X135765000Y-90330000D01*
X135765000Y-92012370D01*
X135714683Y-92021838D01*
X135498559Y-92160910D01*
X135353569Y-92373110D01*
X135302560Y-92625000D01*
X135302560Y-93016572D01*
X134783966Y-93535166D01*
X134602961Y-93806059D01*
X134539400Y-94125600D01*
X134539400Y-94212752D01*
X134347649Y-94336140D01*
X134202659Y-94548340D01*
X134151650Y-94800230D01*
X134151650Y-95667482D01*
X132991441Y-96827691D01*
X132889683Y-96846838D01*
X132673559Y-96985910D01*
X132528569Y-97198110D01*
X132477560Y-97450000D01*
X132477560Y-97665000D01*
X130940854Y-97665000D01*
X130903162Y-97464683D01*
X130764090Y-97248559D01*
X130551890Y-97103569D01*
X130300000Y-97052560D01*
X128700000Y-97052560D01*
X128464683Y-97096838D01*
X128248559Y-97235910D01*
X128103569Y-97448110D01*
X128052560Y-97700000D01*
X128052560Y-99300000D01*
X128096838Y-99535317D01*
X128235910Y-99751441D01*
X128448110Y-99896431D01*
X128686201Y-99944646D01*
X128671861Y-99992255D01*
X129500000Y-100820395D01*
X130328139Y-99992255D01*
X130313855Y-99944833D01*
X130535317Y-99903162D01*
X130751441Y-99764090D01*
X130896431Y-99551890D01*
X130940352Y-99335000D01*
X132490000Y-99335000D01*
X132490000Y-99664250D01*
X132648750Y-99823000D01*
X133373000Y-99823000D01*
X133373000Y-99803000D01*
X133627000Y-99803000D01*
X133627000Y-99823000D01*
X134351250Y-99823000D01*
X134510000Y-99664250D01*
X134510000Y-99223691D01*
X134413327Y-98990302D01*
X134411957Y-98988932D01*
X134471431Y-98901890D01*
X134522440Y-98650000D01*
X134522440Y-97658428D01*
X135333658Y-96847210D01*
X135949710Y-96847210D01*
X136185027Y-96802932D01*
X136401151Y-96663860D01*
X136546141Y-96451660D01*
X136597150Y-96199770D01*
X136597150Y-94800230D01*
X136552872Y-94564913D01*
X136413800Y-94348789D01*
X136365251Y-94315617D01*
X136658428Y-94022440D01*
X137150000Y-94022440D01*
X137385317Y-93978162D01*
X137488646Y-93911671D01*
X137490302Y-93913327D01*
X137723691Y-94010000D01*
X138164250Y-94010000D01*
X138323000Y-93851250D01*
X138323000Y-93127000D01*
X138577000Y-93127000D01*
X138577000Y-93851250D01*
X138735750Y-94010000D01*
X139176309Y-94010000D01*
X139409698Y-93913327D01*
X139588327Y-93734699D01*
X139685000Y-93501310D01*
X139685000Y-93285750D01*
X139526250Y-93127000D01*
X138577000Y-93127000D01*
X138323000Y-93127000D01*
X138303000Y-93127000D01*
X138303000Y-92873000D01*
X138323000Y-92873000D01*
X138323000Y-92148750D01*
X138577000Y-92148750D01*
X138577000Y-92873000D01*
X139526250Y-92873000D01*
X139685000Y-92714250D01*
X139685000Y-92498690D01*
X139588327Y-92265301D01*
X139409698Y-92086673D01*
X139176309Y-91990000D01*
X138735750Y-91990000D01*
X138577000Y-92148750D01*
X138323000Y-92148750D01*
X138164250Y-91990000D01*
X137723691Y-91990000D01*
X137490302Y-92086673D01*
X137488932Y-92088043D01*
X137401890Y-92028569D01*
X137335000Y-92015023D01*
X137335000Y-90655158D01*
X139785079Y-88205079D01*
X139940000Y-87973223D01*
X139940000Y-94285198D01*
X139747774Y-94477424D01*
X139665000Y-94348789D01*
X139452800Y-94203799D01*
X139200910Y-94152790D01*
X138050290Y-94152790D01*
X137814973Y-94197068D01*
X137598849Y-94336140D01*
X137453859Y-94548340D01*
X137402850Y-94800230D01*
X137402850Y-96199770D01*
X137447128Y-96435087D01*
X137586200Y-96651211D01*
X137790600Y-96790871D01*
X137790600Y-97625600D01*
X137854161Y-97945141D01*
X137924226Y-98050000D01*
X138035166Y-98216034D01*
X138459566Y-98640434D01*
X138730459Y-98821439D01*
X139020681Y-98879168D01*
X139021838Y-98885317D01*
X139088329Y-98988646D01*
X139086673Y-98990302D01*
X138990000Y-99223691D01*
X138990000Y-99664250D01*
X139148750Y-99823000D01*
X139873000Y-99823000D01*
X139873000Y-99803000D01*
X140127000Y-99803000D01*
X140127000Y-99823000D01*
X140851250Y-99823000D01*
X141010000Y-99664250D01*
X141010000Y-99223691D01*
X140913327Y-98990302D01*
X140911957Y-98988932D01*
X140971431Y-98901890D01*
X140974851Y-98885000D01*
X142552560Y-98885000D01*
X142552560Y-99300000D01*
X142596838Y-99535317D01*
X142735910Y-99751441D01*
X142948110Y-99896431D01*
X143186201Y-99944646D01*
X143171861Y-99992255D01*
X144000000Y-100820395D01*
X144828139Y-99992255D01*
X144813855Y-99944833D01*
X145035317Y-99903162D01*
X145251441Y-99764090D01*
X145396431Y-99551890D01*
X145447440Y-99300000D01*
X145447440Y-97700000D01*
X145403162Y-97464683D01*
X145264090Y-97248559D01*
X145051890Y-97103569D01*
X144800000Y-97052560D01*
X143200000Y-97052560D01*
X142964683Y-97096838D01*
X142781054Y-97215000D01*
X140978222Y-97215000D01*
X140978162Y-97214683D01*
X140839090Y-96998559D01*
X140626890Y-96853569D01*
X140375000Y-96802560D01*
X139625000Y-96802560D01*
X139460600Y-96833494D01*
X139460600Y-96787248D01*
X139652351Y-96663860D01*
X139797341Y-96451660D01*
X139837671Y-96252507D01*
X140090839Y-96202148D01*
X140337401Y-96037401D01*
X141237401Y-95137401D01*
X141402148Y-94890840D01*
X141460000Y-94600000D01*
X141460000Y-89507745D01*
X152171861Y-89507745D01*
X152245995Y-89753864D01*
X152783223Y-89946965D01*
X153353454Y-89919778D01*
X153754005Y-89753864D01*
X153828139Y-89507745D01*
X153000000Y-88679605D01*
X152171861Y-89507745D01*
X141460000Y-89507745D01*
X141460000Y-88283223D01*
X151553035Y-88283223D01*
X151580222Y-88853454D01*
X151746136Y-89254005D01*
X151992255Y-89328139D01*
X152820395Y-88500000D01*
X151992255Y-87671861D01*
X151746136Y-87745995D01*
X151553035Y-88283223D01*
X141460000Y-88283223D01*
X141460000Y-87492255D01*
X152171861Y-87492255D01*
X153000000Y-88320395D01*
X153828139Y-87492255D01*
X153754005Y-87246136D01*
X153216777Y-87053035D01*
X152646546Y-87080222D01*
X152245995Y-87246136D01*
X152171861Y-87492255D01*
X141460000Y-87492255D01*
X141460000Y-84500000D01*
X141502560Y-84500000D01*
X141502560Y-86500000D01*
X141546838Y-86735317D01*
X141685910Y-86951441D01*
X141898110Y-87096431D01*
X142150000Y-87147440D01*
X143850000Y-87147440D01*
X144085317Y-87103162D01*
X144301441Y-86964090D01*
X144446431Y-86751890D01*
X144497440Y-86500000D01*
X144497440Y-86335000D01*
X144502560Y-86335000D01*
X144502560Y-86500000D01*
X144546838Y-86735317D01*
X144685910Y-86951441D01*
X144898110Y-87096431D01*
X145150000Y-87147440D01*
X146850000Y-87147440D01*
X147085317Y-87103162D01*
X147301441Y-86964090D01*
X147446431Y-86751890D01*
X147497440Y-86500000D01*
X147497440Y-86260000D01*
X148350000Y-86260000D01*
X148640839Y-86202148D01*
X148887401Y-86037401D01*
X148999680Y-85925122D01*
X149045167Y-85925162D01*
X149388943Y-85783117D01*
X149652192Y-85520327D01*
X149794838Y-85176799D01*
X149795162Y-84804833D01*
X149653117Y-84461057D01*
X149390327Y-84197808D01*
X149046799Y-84055162D01*
X148674833Y-84054838D01*
X148331057Y-84196883D01*
X148067808Y-84459673D01*
X147951405Y-84740000D01*
X147497440Y-84740000D01*
X147497440Y-84500000D01*
X147453162Y-84264683D01*
X147314090Y-84048559D01*
X147101890Y-83903569D01*
X146850000Y-83852560D01*
X145150000Y-83852560D01*
X144914683Y-83896838D01*
X144698559Y-84035910D01*
X144553569Y-84248110D01*
X144502560Y-84500000D01*
X144502560Y-84665000D01*
X144497440Y-84665000D01*
X144497440Y-84500000D01*
X144453162Y-84264683D01*
X144314090Y-84048559D01*
X144101890Y-83903569D01*
X143850000Y-83852560D01*
X142150000Y-83852560D01*
X141914683Y-83896838D01*
X141698559Y-84035910D01*
X141553569Y-84248110D01*
X141502560Y-84500000D01*
X141460000Y-84500000D01*
X141460000Y-80700000D01*
X141402148Y-80409161D01*
X141302175Y-80259540D01*
X141237401Y-80162598D01*
X141029803Y-79955000D01*
X141824297Y-79955000D01*
X141698559Y-80035910D01*
X141553569Y-80248110D01*
X141502560Y-80500000D01*
X141502560Y-82500000D01*
X141546838Y-82735317D01*
X141685910Y-82951441D01*
X141898110Y-83096431D01*
X142150000Y-83147440D01*
X143850000Y-83147440D01*
X144085317Y-83103162D01*
X144301441Y-82964090D01*
X144446431Y-82751890D01*
X144497440Y-82500000D01*
X144497440Y-81785750D01*
X144515000Y-81785750D01*
X144515000Y-82626309D01*
X144611673Y-82859698D01*
X144790301Y-83038327D01*
X145023690Y-83135000D01*
X145714250Y-83135000D01*
X145873000Y-82976250D01*
X145873000Y-81627000D01*
X146127000Y-81627000D01*
X146127000Y-82976250D01*
X146285750Y-83135000D01*
X146976310Y-83135000D01*
X147209699Y-83038327D01*
X147388327Y-82859698D01*
X147485000Y-82626309D01*
X147485000Y-81785750D01*
X147326250Y-81627000D01*
X146127000Y-81627000D01*
X145873000Y-81627000D01*
X144673750Y-81627000D01*
X144515000Y-81785750D01*
X144497440Y-81785750D01*
X144497440Y-80500000D01*
X144483618Y-80426540D01*
X144515000Y-80395158D01*
X144515000Y-81214250D01*
X144673750Y-81373000D01*
X145873000Y-81373000D01*
X145873000Y-80023750D01*
X145714250Y-79865000D01*
X145045158Y-79865000D01*
X145555079Y-79355079D01*
X145725245Y-79100407D01*
X145745727Y-78997440D01*
X146000000Y-78997440D01*
X146173858Y-78964726D01*
X147143303Y-79934171D01*
X146976310Y-79865000D01*
X146285750Y-79865000D01*
X146127000Y-80023750D01*
X146127000Y-81373000D01*
X147326250Y-81373000D01*
X147485000Y-81214250D01*
X147485000Y-80373691D01*
X147415829Y-80206697D01*
X149409566Y-82200434D01*
X149680460Y-82381440D01*
X150000000Y-82445000D01*
X152814132Y-82445000D01*
X154665000Y-84295868D01*
X154665000Y-87059146D01*
X154464683Y-87096838D01*
X154248559Y-87235910D01*
X154103569Y-87448110D01*
X154055354Y-87686201D01*
X154007745Y-87671861D01*
X153179605Y-88500000D01*
X154007745Y-89328139D01*
X154055167Y-89313855D01*
X154096838Y-89535317D01*
X154235910Y-89751441D01*
X154448110Y-89896431D01*
X154665000Y-89940352D01*
X154665000Y-91677095D01*
X154564913Y-91695928D01*
X154348789Y-91835000D01*
X154209129Y-92039400D01*
X149665600Y-92039400D01*
X149346060Y-92102960D01*
X149075166Y-92283966D01*
X146699566Y-94659566D01*
X146518561Y-94930459D01*
X146455000Y-95250000D01*
X146455000Y-101950000D01*
X146518561Y-102269541D01*
X146618946Y-102419778D01*
X146699566Y-102540434D01*
X148649566Y-104490434D01*
X148920459Y-104671439D01*
X149240000Y-104735000D01*
X153384132Y-104735000D01*
X154165000Y-105515868D01*
X154165000Y-105559146D01*
X153964683Y-105596838D01*
X153748559Y-105735910D01*
X153603569Y-105948110D01*
X153555354Y-106186201D01*
X153507745Y-106171861D01*
X152679605Y-107000000D01*
X153507745Y-107828139D01*
X153555167Y-107813855D01*
X153596838Y-108035317D01*
X153735910Y-108251441D01*
X153948110Y-108396431D01*
X154200000Y-108447440D01*
X154665000Y-108447440D01*
X154665000Y-110177095D01*
X154564913Y-110195928D01*
X154348789Y-110335000D01*
X154203799Y-110547200D01*
X154152790Y-110799090D01*
X154152790Y-111949710D01*
X154197068Y-112185027D01*
X154336140Y-112401151D01*
X154548340Y-112546141D01*
X154800230Y-112597150D01*
X156199770Y-112597150D01*
X156435087Y-112552872D01*
X156651211Y-112413800D01*
X156796201Y-112201600D01*
X156847210Y-111949710D01*
X156847210Y-110799090D01*
X156802932Y-110563773D01*
X156663860Y-110347649D01*
X156451660Y-110202659D01*
X156335000Y-110179035D01*
X156335000Y-108685171D01*
X159602799Y-108685171D01*
X159630770Y-109235448D01*
X159787540Y-109613923D01*
X160028483Y-109681912D01*
X160820395Y-108890000D01*
X161179605Y-108890000D01*
X161971517Y-109681912D01*
X162212460Y-109613923D01*
X162397201Y-109094829D01*
X162369230Y-108544552D01*
X162212460Y-108166077D01*
X161971517Y-108098088D01*
X161179605Y-108890000D01*
X160820395Y-108890000D01*
X160028483Y-108098088D01*
X159787540Y-108166077D01*
X159602799Y-108685171D01*
X156335000Y-108685171D01*
X156335000Y-108141797D01*
X156396431Y-108051890D01*
X156423446Y-107918483D01*
X160208088Y-107918483D01*
X161000000Y-108710395D01*
X161791912Y-107918483D01*
X161723923Y-107677540D01*
X161204829Y-107492799D01*
X160654552Y-107520770D01*
X160276077Y-107677540D01*
X160208088Y-107918483D01*
X156423446Y-107918483D01*
X156447440Y-107800000D01*
X156447440Y-106262815D01*
X161534630Y-106262815D01*
X161858980Y-107047800D01*
X162459041Y-107648909D01*
X163243459Y-107974628D01*
X164092815Y-107975370D01*
X164877800Y-107651020D01*
X165478909Y-107050959D01*
X165804628Y-106266541D01*
X165805370Y-105417185D01*
X165481020Y-104632200D01*
X164880959Y-104031091D01*
X164096541Y-103705372D01*
X163247185Y-103704630D01*
X162462200Y-104028980D01*
X161861091Y-104629041D01*
X161535372Y-105413459D01*
X161534630Y-106262815D01*
X156447440Y-106262815D01*
X156447440Y-106200000D01*
X156403162Y-105964683D01*
X156264090Y-105748559D01*
X156051890Y-105603569D01*
X155835000Y-105559648D01*
X155835000Y-105170000D01*
X155771439Y-104850459D01*
X155590434Y-104579566D01*
X154320434Y-103309566D01*
X154049541Y-103128561D01*
X153730000Y-103065000D01*
X149585868Y-103065000D01*
X148528613Y-102007745D01*
X149671861Y-102007745D01*
X149745995Y-102253864D01*
X150283223Y-102446965D01*
X150853454Y-102419778D01*
X151254005Y-102253864D01*
X151328139Y-102007745D01*
X150500000Y-101179605D01*
X149671861Y-102007745D01*
X148528613Y-102007745D01*
X148125000Y-101604132D01*
X148125000Y-100783223D01*
X149053035Y-100783223D01*
X149080222Y-101353454D01*
X149246136Y-101754005D01*
X149492255Y-101828139D01*
X150320395Y-101000000D01*
X150679605Y-101000000D01*
X151507745Y-101828139D01*
X151753864Y-101754005D01*
X151946965Y-101216777D01*
X151924031Y-100735750D01*
X153490000Y-100735750D01*
X153490000Y-101176309D01*
X153586673Y-101409698D01*
X153765301Y-101588327D01*
X153998690Y-101685000D01*
X154214250Y-101685000D01*
X154373000Y-101526250D01*
X154373000Y-100577000D01*
X154627000Y-100577000D01*
X154627000Y-101526250D01*
X154785750Y-101685000D01*
X155001310Y-101685000D01*
X155234699Y-101588327D01*
X155413327Y-101409698D01*
X155500000Y-101200451D01*
X155586673Y-101409698D01*
X155765301Y-101588327D01*
X155998690Y-101685000D01*
X156214250Y-101685000D01*
X156373000Y-101526250D01*
X156373000Y-100577000D01*
X156627000Y-100577000D01*
X156627000Y-101526250D01*
X156785750Y-101685000D01*
X157001310Y-101685000D01*
X157234699Y-101588327D01*
X157340210Y-101482815D01*
X161534630Y-101482815D01*
X161858980Y-102267800D01*
X162459041Y-102868909D01*
X163243459Y-103194628D01*
X164092815Y-103195370D01*
X164877800Y-102871020D01*
X165478909Y-102270959D01*
X165804628Y-101486541D01*
X165805370Y-100637185D01*
X165481020Y-99852200D01*
X164880959Y-99251091D01*
X164096541Y-98925372D01*
X163247185Y-98924630D01*
X162462200Y-99248980D01*
X161861091Y-99849041D01*
X161535372Y-100633459D01*
X161534630Y-101482815D01*
X157340210Y-101482815D01*
X157413327Y-101409698D01*
X157510000Y-101176309D01*
X157510000Y-100735750D01*
X157351250Y-100577000D01*
X156627000Y-100577000D01*
X156373000Y-100577000D01*
X155648750Y-100577000D01*
X155500000Y-100725750D01*
X155351250Y-100577000D01*
X154627000Y-100577000D01*
X154373000Y-100577000D01*
X153648750Y-100577000D01*
X153490000Y-100735750D01*
X151924031Y-100735750D01*
X151919778Y-100646546D01*
X151753864Y-100245995D01*
X151507745Y-100171861D01*
X150679605Y-101000000D01*
X150320395Y-101000000D01*
X149492255Y-100171861D01*
X149246136Y-100245995D01*
X149053035Y-100783223D01*
X148125000Y-100783223D01*
X148125000Y-97700000D01*
X149052560Y-97700000D01*
X149052560Y-99300000D01*
X149096838Y-99535317D01*
X149235910Y-99751441D01*
X149448110Y-99896431D01*
X149686201Y-99944646D01*
X149671861Y-99992255D01*
X150500000Y-100820395D01*
X151328139Y-99992255D01*
X151313855Y-99944833D01*
X151535317Y-99903162D01*
X151751441Y-99764090D01*
X151896431Y-99551890D01*
X151940352Y-99335000D01*
X153512370Y-99335000D01*
X153521838Y-99385317D01*
X153588329Y-99488646D01*
X153586673Y-99490302D01*
X153490000Y-99723691D01*
X153490000Y-100164250D01*
X153648750Y-100323000D01*
X154373000Y-100323000D01*
X154373000Y-100303000D01*
X154627000Y-100303000D01*
X154627000Y-100323000D01*
X155351250Y-100323000D01*
X155500000Y-100174250D01*
X155648750Y-100323000D01*
X156373000Y-100323000D01*
X156373000Y-100303000D01*
X156627000Y-100303000D01*
X156627000Y-100323000D01*
X157351250Y-100323000D01*
X157510000Y-100164250D01*
X157510000Y-99723691D01*
X157413327Y-99490302D01*
X157411957Y-99488932D01*
X157471431Y-99401890D01*
X157522440Y-99150000D01*
X157522440Y-97950000D01*
X157478162Y-97714683D01*
X157339090Y-97498559D01*
X157126890Y-97353569D01*
X156875000Y-97302560D01*
X156437437Y-97302560D01*
X156651211Y-97165000D01*
X156790871Y-96960600D01*
X158279732Y-96960600D01*
X159409566Y-98090434D01*
X159680459Y-98271439D01*
X159845981Y-98304364D01*
X160214436Y-98673461D01*
X160723298Y-98884759D01*
X161274285Y-98885240D01*
X161783515Y-98674831D01*
X162173461Y-98285564D01*
X162384759Y-97776702D01*
X162385240Y-97225715D01*
X162174831Y-96716485D01*
X161785564Y-96326539D01*
X161553130Y-96230024D01*
X161783515Y-96134831D01*
X162173461Y-95745564D01*
X162384759Y-95236702D01*
X162385240Y-94685715D01*
X162174831Y-94176485D01*
X161943687Y-93944938D01*
X162173461Y-93715564D01*
X162384759Y-93206702D01*
X162385240Y-92655715D01*
X162174831Y-92146485D01*
X161785564Y-91756539D01*
X161569021Y-91666623D01*
X161723923Y-91602460D01*
X161791912Y-91361517D01*
X161000000Y-90569605D01*
X160208088Y-91361517D01*
X160276077Y-91602460D01*
X160442621Y-91661732D01*
X160216485Y-91755169D01*
X159826539Y-92144436D01*
X159615241Y-92653298D01*
X159614760Y-93204285D01*
X159825169Y-93713515D01*
X160056313Y-93945062D01*
X159826539Y-94174436D01*
X159615241Y-94683298D01*
X159614760Y-95234285D01*
X159825169Y-95743515D01*
X160214436Y-96133461D01*
X160446870Y-96229976D01*
X160216485Y-96325169D01*
X160111169Y-96430301D01*
X159216034Y-95535166D01*
X159163404Y-95500000D01*
X158945141Y-95354161D01*
X158625600Y-95290600D01*
X156787248Y-95290600D01*
X156663860Y-95098849D01*
X156451660Y-94953859D01*
X156199770Y-94902850D01*
X155454783Y-94902850D01*
X155446086Y-94897039D01*
X155193941Y-94728561D01*
X154874400Y-94665000D01*
X153501563Y-94665000D01*
X153301890Y-94528569D01*
X153050000Y-94477560D01*
X151850000Y-94477560D01*
X151614683Y-94521838D01*
X151511354Y-94588329D01*
X151509698Y-94586673D01*
X151276309Y-94490000D01*
X150835750Y-94490000D01*
X150677000Y-94648750D01*
X150677000Y-95373000D01*
X150697000Y-95373000D01*
X150697000Y-95627000D01*
X150677000Y-95627000D01*
X150677000Y-96351250D01*
X150835750Y-96510000D01*
X151276309Y-96510000D01*
X151509698Y-96413327D01*
X151511068Y-96411957D01*
X151598110Y-96471431D01*
X151850000Y-96522440D01*
X153050000Y-96522440D01*
X153285317Y-96478162D01*
X153501441Y-96339090D01*
X153504236Y-96335000D01*
X154152790Y-96335000D01*
X154152790Y-96700910D01*
X154197068Y-96936227D01*
X154336140Y-97152351D01*
X154548340Y-97297341D01*
X154574112Y-97302560D01*
X154125000Y-97302560D01*
X153889683Y-97346838D01*
X153673559Y-97485910D01*
X153551192Y-97665000D01*
X151940854Y-97665000D01*
X151903162Y-97464683D01*
X151764090Y-97248559D01*
X151551890Y-97103569D01*
X151300000Y-97052560D01*
X149700000Y-97052560D01*
X149464683Y-97096838D01*
X149248559Y-97235910D01*
X149103569Y-97448110D01*
X149052560Y-97700000D01*
X148125000Y-97700000D01*
X148125000Y-95785750D01*
X149315000Y-95785750D01*
X149315000Y-96001310D01*
X149411673Y-96234699D01*
X149590302Y-96413327D01*
X149823691Y-96510000D01*
X150264250Y-96510000D01*
X150423000Y-96351250D01*
X150423000Y-95627000D01*
X149473750Y-95627000D01*
X149315000Y-95785750D01*
X148125000Y-95785750D01*
X148125000Y-95595868D01*
X148722178Y-94998690D01*
X149315000Y-94998690D01*
X149315000Y-95214250D01*
X149473750Y-95373000D01*
X150423000Y-95373000D01*
X150423000Y-94648750D01*
X150264250Y-94490000D01*
X149823691Y-94490000D01*
X149590302Y-94586673D01*
X149411673Y-94765301D01*
X149315000Y-94998690D01*
X148722178Y-94998690D01*
X150011468Y-93709400D01*
X154212752Y-93709400D01*
X154336140Y-93901151D01*
X154548340Y-94046141D01*
X154800230Y-94097150D01*
X156199770Y-94097150D01*
X156435087Y-94052872D01*
X156651211Y-93913800D01*
X156796201Y-93701600D01*
X156847210Y-93449710D01*
X156847210Y-92299090D01*
X156802932Y-92063773D01*
X156663860Y-91847649D01*
X156451660Y-91702659D01*
X156335000Y-91679035D01*
X156335000Y-90185171D01*
X159602799Y-90185171D01*
X159630770Y-90735448D01*
X159787540Y-91113923D01*
X160028483Y-91181912D01*
X160820395Y-90390000D01*
X161179605Y-90390000D01*
X161971517Y-91181912D01*
X162212460Y-91113923D01*
X162397201Y-90594829D01*
X162369230Y-90044552D01*
X162212460Y-89666077D01*
X161971517Y-89598088D01*
X161179605Y-90390000D01*
X160820395Y-90390000D01*
X160028483Y-89598088D01*
X159787540Y-89666077D01*
X159602799Y-90185171D01*
X156335000Y-90185171D01*
X156335000Y-89940854D01*
X156535317Y-89903162D01*
X156751441Y-89764090D01*
X156896431Y-89551890D01*
X156923446Y-89418483D01*
X160208088Y-89418483D01*
X161000000Y-90210395D01*
X161791912Y-89418483D01*
X161723923Y-89177540D01*
X161204829Y-88992799D01*
X160654552Y-89020770D01*
X160276077Y-89177540D01*
X160208088Y-89418483D01*
X156923446Y-89418483D01*
X156947440Y-89300000D01*
X156947440Y-87762815D01*
X161534630Y-87762815D01*
X161858980Y-88547800D01*
X162459041Y-89148909D01*
X163243459Y-89474628D01*
X164092815Y-89475370D01*
X164877800Y-89151020D01*
X165478909Y-88550959D01*
X165804628Y-87766541D01*
X165805370Y-86917185D01*
X165481020Y-86132200D01*
X164880959Y-85531091D01*
X164096541Y-85205372D01*
X163247185Y-85204630D01*
X162462200Y-85528980D01*
X161861091Y-86129041D01*
X161535372Y-86913459D01*
X161534630Y-87762815D01*
X156947440Y-87762815D01*
X156947440Y-87700000D01*
X156903162Y-87464683D01*
X156764090Y-87248559D01*
X156551890Y-87103569D01*
X156335000Y-87059648D01*
X156335000Y-83950000D01*
X156324366Y-83896539D01*
X156271440Y-83630460D01*
X156090434Y-83359566D01*
X155713683Y-82982815D01*
X161534630Y-82982815D01*
X161858980Y-83767800D01*
X162459041Y-84368909D01*
X163243459Y-84694628D01*
X164092815Y-84695370D01*
X164877800Y-84371020D01*
X165478909Y-83770959D01*
X165804628Y-82986541D01*
X165805370Y-82137185D01*
X165481020Y-81352200D01*
X164880959Y-80751091D01*
X164096541Y-80425372D01*
X163247185Y-80424630D01*
X162462200Y-80748980D01*
X161861091Y-81349041D01*
X161535372Y-82133459D01*
X161534630Y-82982815D01*
X155713683Y-82982815D01*
X153750434Y-81019566D01*
X153707441Y-80990839D01*
X153479541Y-80838561D01*
X153160000Y-80775000D01*
X150345868Y-80775000D01*
X148356618Y-78785750D01*
X149815000Y-78785750D01*
X149815000Y-79001310D01*
X149911673Y-79234699D01*
X150090302Y-79413327D01*
X150323691Y-79510000D01*
X150764250Y-79510000D01*
X150923000Y-79351250D01*
X150923000Y-78627000D01*
X149973750Y-78627000D01*
X149815000Y-78785750D01*
X148356618Y-78785750D01*
X147833188Y-78262320D01*
X148090434Y-78090434D01*
X148182178Y-77998690D01*
X149815000Y-77998690D01*
X149815000Y-78214250D01*
X149973750Y-78373000D01*
X150923000Y-78373000D01*
X150923000Y-77648750D01*
X151177000Y-77648750D01*
X151177000Y-78373000D01*
X151197000Y-78373000D01*
X151197000Y-78627000D01*
X151177000Y-78627000D01*
X151177000Y-79351250D01*
X151335750Y-79510000D01*
X151776309Y-79510000D01*
X152009698Y-79413327D01*
X152011068Y-79411957D01*
X152098110Y-79471431D01*
X152350000Y-79522440D01*
X152901572Y-79522440D01*
X154779566Y-81400434D01*
X155050459Y-81581439D01*
X155370000Y-81645000D01*
X157960000Y-81645000D01*
X158279541Y-81581439D01*
X158550434Y-81400434D01*
X159996112Y-79954756D01*
X160214436Y-80173461D01*
X160723298Y-80384759D01*
X161274285Y-80385240D01*
X161783515Y-80174831D01*
X162173461Y-79785564D01*
X162384759Y-79276702D01*
X162385240Y-78725715D01*
X162174831Y-78216485D01*
X161785564Y-77826539D01*
X161553130Y-77730024D01*
X161783515Y-77634831D01*
X162173461Y-77245564D01*
X162384759Y-76736702D01*
X162385240Y-76185715D01*
X162174831Y-75676485D01*
X161943687Y-75444938D01*
X162173461Y-75215564D01*
X162384759Y-74706702D01*
X162385240Y-74155715D01*
X162174831Y-73646485D01*
X161785564Y-73256539D01*
X161569021Y-73166623D01*
X161723923Y-73102460D01*
X161791912Y-72861517D01*
X161000000Y-72069605D01*
X160208088Y-72861517D01*
X160276077Y-73102460D01*
X160442621Y-73161732D01*
X160216485Y-73255169D01*
X159826539Y-73644436D01*
X159615241Y-74153298D01*
X159614760Y-74704285D01*
X159825169Y-75213515D01*
X160056313Y-75445062D01*
X159826539Y-75674436D01*
X159615241Y-76183298D01*
X159614760Y-76734285D01*
X159825169Y-77243515D01*
X160214436Y-77633461D01*
X160446870Y-77729976D01*
X160216485Y-77825169D01*
X159876061Y-78165000D01*
X159770000Y-78165000D01*
X159450460Y-78228560D01*
X159179566Y-78409566D01*
X157614132Y-79975000D01*
X155715868Y-79975000D01*
X155589218Y-79848350D01*
X156699770Y-79848350D01*
X156935087Y-79804072D01*
X157151211Y-79665000D01*
X157296201Y-79452800D01*
X157347210Y-79200910D01*
X157347210Y-78050290D01*
X157302932Y-77814973D01*
X157163860Y-77598849D01*
X156951660Y-77453859D01*
X156699770Y-77402850D01*
X155300230Y-77402850D01*
X155064913Y-77447128D01*
X154848789Y-77586200D01*
X154794947Y-77665000D01*
X154001563Y-77665000D01*
X153801890Y-77528569D01*
X153550000Y-77477560D01*
X152350000Y-77477560D01*
X152114683Y-77521838D01*
X152011354Y-77588329D01*
X152009698Y-77586673D01*
X151776309Y-77490000D01*
X151335750Y-77490000D01*
X151177000Y-77648750D01*
X150923000Y-77648750D01*
X150764250Y-77490000D01*
X150323691Y-77490000D01*
X150090302Y-77586673D01*
X149911673Y-77765301D01*
X149815000Y-77998690D01*
X148182178Y-77998690D01*
X149971468Y-76209400D01*
X154712752Y-76209400D01*
X154836140Y-76401151D01*
X155048340Y-76546141D01*
X155300230Y-76597150D01*
X156699770Y-76597150D01*
X156935087Y-76552872D01*
X157151211Y-76413800D01*
X157296201Y-76201600D01*
X157347210Y-75949710D01*
X157347210Y-74799090D01*
X157302932Y-74563773D01*
X157163860Y-74347649D01*
X156951660Y-74202659D01*
X156835000Y-74179035D01*
X156835000Y-71685171D01*
X159602799Y-71685171D01*
X159630770Y-72235448D01*
X159787540Y-72613923D01*
X160028483Y-72681912D01*
X160820395Y-71890000D01*
X161179605Y-71890000D01*
X161971517Y-72681912D01*
X162212460Y-72613923D01*
X162397201Y-72094829D01*
X162369230Y-71544552D01*
X162212460Y-71166077D01*
X161971517Y-71098088D01*
X161179605Y-71890000D01*
X160820395Y-71890000D01*
X160028483Y-71098088D01*
X159787540Y-71166077D01*
X159602799Y-71685171D01*
X156835000Y-71685171D01*
X156835000Y-71641797D01*
X156896431Y-71551890D01*
X156947440Y-71300000D01*
X156947440Y-70918483D01*
X160208088Y-70918483D01*
X161000000Y-71710395D01*
X161791912Y-70918483D01*
X161723923Y-70677540D01*
X161204829Y-70492799D01*
X160654552Y-70520770D01*
X160276077Y-70677540D01*
X160208088Y-70918483D01*
X156947440Y-70918483D01*
X156947440Y-69700000D01*
X156903162Y-69464683D01*
X156773264Y-69262815D01*
X161534630Y-69262815D01*
X161858980Y-70047800D01*
X162459041Y-70648909D01*
X163243459Y-70974628D01*
X164092815Y-70975370D01*
X164877800Y-70651020D01*
X165478909Y-70050959D01*
X165804628Y-69266541D01*
X165805370Y-68417185D01*
X165481020Y-67632200D01*
X164880959Y-67031091D01*
X164096541Y-66705372D01*
X163247185Y-66704630D01*
X162462200Y-67028980D01*
X161861091Y-67629041D01*
X161535372Y-68413459D01*
X161534630Y-69262815D01*
X156773264Y-69262815D01*
X156764090Y-69248559D01*
X156551890Y-69103569D01*
X156300000Y-69052560D01*
X154700000Y-69052560D01*
X154464683Y-69096838D01*
X154248559Y-69235910D01*
X154103569Y-69448110D01*
X154055354Y-69686201D01*
X154007745Y-69671861D01*
X153179605Y-70500000D01*
X154007745Y-71328139D01*
X154055167Y-71313855D01*
X154096838Y-71535317D01*
X154235910Y-71751441D01*
X154448110Y-71896431D01*
X154700000Y-71947440D01*
X155165000Y-71947440D01*
X155165000Y-74177095D01*
X155064913Y-74195928D01*
X154848789Y-74335000D01*
X154709129Y-74539400D01*
X150184406Y-74539400D01*
X150301441Y-74464090D01*
X150446431Y-74251890D01*
X150497440Y-74000000D01*
X150497440Y-72000000D01*
X150453162Y-71764683D01*
X150314090Y-71548559D01*
X150254357Y-71507745D01*
X152171861Y-71507745D01*
X152245995Y-71753864D01*
X152783223Y-71946965D01*
X153353454Y-71919778D01*
X153754005Y-71753864D01*
X153828139Y-71507745D01*
X153000000Y-70679605D01*
X152171861Y-71507745D01*
X150254357Y-71507745D01*
X150101890Y-71403569D01*
X149850000Y-71352560D01*
X148150000Y-71352560D01*
X147914683Y-71396838D01*
X147698559Y-71535910D01*
X147553569Y-71748110D01*
X147502560Y-72000000D01*
X147502560Y-72165000D01*
X147497440Y-72165000D01*
X147497440Y-72000000D01*
X147453162Y-71764683D01*
X147314090Y-71548559D01*
X147101890Y-71403569D01*
X146850000Y-71352560D01*
X145405000Y-71352560D01*
X145405000Y-70647440D01*
X146850000Y-70647440D01*
X147085317Y-70603162D01*
X147301441Y-70464090D01*
X147446431Y-70251890D01*
X147497440Y-70000000D01*
X147497440Y-68000000D01*
X147502560Y-68000000D01*
X147502560Y-70000000D01*
X147546838Y-70235317D01*
X147685910Y-70451441D01*
X147898110Y-70596431D01*
X148150000Y-70647440D01*
X149850000Y-70647440D01*
X150085317Y-70603162D01*
X150301441Y-70464090D01*
X150425022Y-70283223D01*
X151553035Y-70283223D01*
X151580222Y-70853454D01*
X151746136Y-71254005D01*
X151992255Y-71328139D01*
X152820395Y-70500000D01*
X151992255Y-69671861D01*
X151746136Y-69745995D01*
X151553035Y-70283223D01*
X150425022Y-70283223D01*
X150446431Y-70251890D01*
X150497440Y-70000000D01*
X150497440Y-69492255D01*
X152171861Y-69492255D01*
X153000000Y-70320395D01*
X153828139Y-69492255D01*
X153754005Y-69246136D01*
X153216777Y-69053035D01*
X152646546Y-69080222D01*
X152245995Y-69246136D01*
X152171861Y-69492255D01*
X150497440Y-69492255D01*
X150497440Y-68000000D01*
X150453162Y-67764683D01*
X150314090Y-67548559D01*
X150113381Y-67411421D01*
X150387401Y-67137401D01*
X150552148Y-66890839D01*
X150610000Y-66600000D01*
X150610000Y-66362463D01*
X150642192Y-66330327D01*
X150784838Y-65986799D01*
X150785162Y-65614833D01*
X150643117Y-65271057D01*
X150380327Y-65007808D01*
X150036799Y-64865162D01*
X149664833Y-64864838D01*
X149321057Y-65006883D01*
X149057808Y-65269673D01*
X148915162Y-65613201D01*
X148914838Y-65985167D01*
X149053776Y-66321422D01*
X148462599Y-66912599D01*
X148297852Y-67159161D01*
X148259382Y-67352560D01*
X148150000Y-67352560D01*
X147914683Y-67396838D01*
X147698559Y-67535910D01*
X147553569Y-67748110D01*
X147502560Y-68000000D01*
X147497440Y-68000000D01*
X147453162Y-67764683D01*
X147314090Y-67548559D01*
X147101890Y-67403569D01*
X146850000Y-67352560D01*
X146760000Y-67352560D01*
X146760000Y-65854802D01*
X147019680Y-65595122D01*
X147065167Y-65595162D01*
X147408943Y-65453117D01*
X147672192Y-65190327D01*
X147814838Y-64846799D01*
X147815155Y-64482815D01*
X161534630Y-64482815D01*
X161858980Y-65267800D01*
X162459041Y-65868909D01*
X163243459Y-66194628D01*
X164092815Y-66195370D01*
X164877800Y-65871020D01*
X165478909Y-65270959D01*
X165804628Y-64486541D01*
X165805370Y-63637185D01*
X165481020Y-62852200D01*
X164880959Y-62251091D01*
X164096541Y-61925372D01*
X163247185Y-61924630D01*
X162462200Y-62248980D01*
X161861091Y-62849041D01*
X161535372Y-63633459D01*
X161534630Y-64482815D01*
X147815155Y-64482815D01*
X147815162Y-64474833D01*
X147673117Y-64131057D01*
X147410327Y-63867808D01*
X147066799Y-63725162D01*
X146694833Y-63724838D01*
X146351057Y-63866883D01*
X146087808Y-64129673D01*
X145998130Y-64345642D01*
X145980327Y-64327808D01*
X145675078Y-64201057D01*
X145675162Y-64104833D01*
X145533117Y-63761057D01*
X145432236Y-63660000D01*
X154895758Y-63660000D01*
X155006883Y-63928943D01*
X155269673Y-64192192D01*
X155613201Y-64334838D01*
X155985167Y-64335162D01*
X156328943Y-64193117D01*
X156592192Y-63930327D01*
X156734838Y-63586799D01*
X156735162Y-63214833D01*
X156699753Y-63129135D01*
X157028943Y-62993117D01*
X157292192Y-62730327D01*
X157434838Y-62386799D01*
X157435162Y-62014833D01*
X157293117Y-61671057D01*
X157030327Y-61407808D01*
X156686799Y-61265162D01*
X156391190Y-61264905D01*
X156290839Y-61197852D01*
X156179248Y-61175655D01*
X156351211Y-61065000D01*
X156490871Y-60860600D01*
X158679732Y-60860600D01*
X158909566Y-61090434D01*
X159180459Y-61271439D01*
X159500000Y-61335000D01*
X159876564Y-61335000D01*
X160214436Y-61673461D01*
X160723298Y-61884759D01*
X161274285Y-61885240D01*
X161783515Y-61674831D01*
X162173461Y-61285564D01*
X162384759Y-60776702D01*
X162385240Y-60225715D01*
X162174831Y-59716485D01*
X161785564Y-59326539D01*
X161553130Y-59230024D01*
X161783515Y-59134831D01*
X162173461Y-58745564D01*
X162384759Y-58236702D01*
X162385240Y-57685715D01*
X162174831Y-57176485D01*
X161943687Y-56944938D01*
X162173461Y-56715564D01*
X162384759Y-56206702D01*
X162385240Y-55655715D01*
X162174831Y-55146485D01*
X161785564Y-54756539D01*
X161569021Y-54666623D01*
X161723923Y-54602460D01*
X161791912Y-54361517D01*
X161000000Y-53569605D01*
X160208088Y-54361517D01*
X160276077Y-54602460D01*
X160442621Y-54661732D01*
X160216485Y-54755169D01*
X159826539Y-55144436D01*
X159815924Y-55170000D01*
X158644802Y-55170000D01*
X158060000Y-54585198D01*
X158060000Y-53185171D01*
X159602799Y-53185171D01*
X159630770Y-53735448D01*
X159787540Y-54113923D01*
X160028483Y-54181912D01*
X160820395Y-53390000D01*
X161179605Y-53390000D01*
X161971517Y-54181912D01*
X162212460Y-54113923D01*
X162397201Y-53594829D01*
X162369230Y-53044552D01*
X162212460Y-52666077D01*
X161971517Y-52598088D01*
X161179605Y-53390000D01*
X160820395Y-53390000D01*
X160028483Y-52598088D01*
X159787540Y-52666077D01*
X159602799Y-53185171D01*
X158060000Y-53185171D01*
X158060000Y-52418483D01*
X160208088Y-52418483D01*
X161000000Y-53210395D01*
X161791912Y-52418483D01*
X161723923Y-52177540D01*
X161204829Y-51992799D01*
X160654552Y-52020770D01*
X160276077Y-52177540D01*
X160208088Y-52418483D01*
X158060000Y-52418483D01*
X158060000Y-50762815D01*
X161534630Y-50762815D01*
X161858980Y-51547800D01*
X162459041Y-52148909D01*
X163243459Y-52474628D01*
X164092815Y-52475370D01*
X164877800Y-52151020D01*
X165478909Y-51550959D01*
X165804628Y-50766541D01*
X165805370Y-49917185D01*
X165481020Y-49132200D01*
X164880959Y-48531091D01*
X164096541Y-48205372D01*
X163247185Y-48204630D01*
X162462200Y-48528980D01*
X161861091Y-49129041D01*
X161535372Y-49913459D01*
X161534630Y-50762815D01*
X158060000Y-50762815D01*
X158060000Y-49400000D01*
X158002148Y-49109161D01*
X157837401Y-48862599D01*
X156237401Y-47262599D01*
X155990839Y-47097852D01*
X155700000Y-47040000D01*
X150200000Y-47040000D01*
X149909161Y-47097852D01*
X149662599Y-47262599D01*
X146410198Y-50515000D01*
X146316797Y-50515000D01*
X146226890Y-50453569D01*
X145975000Y-50402560D01*
X144225000Y-50402560D01*
X143989683Y-50446838D01*
X143773559Y-50585910D01*
X143628569Y-50798110D01*
X143577560Y-51050000D01*
X143577560Y-51500000D01*
X143597067Y-51603671D01*
X143577560Y-51700000D01*
X143577560Y-51815000D01*
X143225000Y-51815000D01*
X142934161Y-51872852D01*
X142687599Y-52037599D01*
X142222004Y-52503194D01*
X141971057Y-52606883D01*
X141707808Y-52869673D01*
X141565162Y-53213201D01*
X141564838Y-53585167D01*
X141706883Y-53928943D01*
X141969673Y-54192192D01*
X142313201Y-54334838D01*
X142685167Y-54335162D01*
X142846162Y-54268640D01*
X142869673Y-54292192D01*
X143213201Y-54434838D01*
X143577560Y-54435155D01*
X143577560Y-54750000D01*
X143597067Y-54853671D01*
X143577560Y-54950000D01*
X143577560Y-55400000D01*
X143597067Y-55503671D01*
X143577560Y-55600000D01*
X143577560Y-56050000D01*
X143597067Y-56153671D01*
X143577560Y-56250000D01*
X143577560Y-56700000D01*
X143597067Y-56803671D01*
X143577560Y-56900000D01*
X143577560Y-57350000D01*
X143597067Y-57453671D01*
X143577560Y-57550000D01*
X143577560Y-58000000D01*
X143597067Y-58103671D01*
X143577560Y-58200000D01*
X143577560Y-58650000D01*
X143597067Y-58753671D01*
X143577560Y-58850000D01*
X143577560Y-59300000D01*
X143590980Y-59371323D01*
X143590000Y-59373690D01*
X143590000Y-59453750D01*
X143610312Y-59474062D01*
X143621838Y-59535317D01*
X143760910Y-59751441D01*
X143886862Y-59837500D01*
X143748750Y-59837500D01*
X143590000Y-59996250D01*
X143590000Y-60015198D01*
X140925328Y-57350526D01*
X141034838Y-57086799D01*
X141035162Y-56714833D01*
X140893117Y-56371057D01*
X140630327Y-56107808D01*
X140360000Y-55995558D01*
X140360000Y-53853919D01*
X140402148Y-53790840D01*
X140460000Y-53500000D01*
X140460000Y-52000000D01*
X140402148Y-51709161D01*
X140237401Y-51462599D01*
X139512401Y-50737599D01*
X139265839Y-50572852D01*
X139175030Y-50554789D01*
X139026890Y-50453569D01*
X138775000Y-50402560D01*
X137025000Y-50402560D01*
X136789683Y-50446838D01*
X136573559Y-50585910D01*
X136428569Y-50798110D01*
X136427203Y-50804854D01*
X136330327Y-50707808D01*
X135986799Y-50565162D01*
X135614833Y-50564838D01*
X135271057Y-50706883D01*
X135200019Y-50777797D01*
X135030327Y-50607808D01*
X134686799Y-50465162D01*
X134460000Y-50464964D01*
X134460000Y-49614802D01*
X136577362Y-47497440D01*
X138000000Y-47497440D01*
X138235317Y-47453162D01*
X138451441Y-47314090D01*
X138596431Y-47101890D01*
X138647440Y-46850000D01*
X138647440Y-45150000D01*
X138603162Y-44914683D01*
X138464090Y-44698559D01*
X138251890Y-44553569D01*
X138000000Y-44502560D01*
X136000000Y-44502560D01*
X135764683Y-44546838D01*
X135548559Y-44685910D01*
X135403569Y-44898110D01*
X135352560Y-45150000D01*
X135352560Y-46572638D01*
X133162599Y-48762599D01*
X132997852Y-49009161D01*
X132940000Y-49300000D01*
X132940000Y-51900000D01*
X132997852Y-52190839D01*
X133162599Y-52437401D01*
X133372998Y-52647800D01*
X133372998Y-52773748D01*
X133214250Y-52615000D01*
X132998690Y-52615000D01*
X132765301Y-52711673D01*
X132586673Y-52890302D01*
X132490000Y-53123691D01*
X132490000Y-53564250D01*
X132648750Y-53723000D01*
X133373000Y-53723000D01*
X133373000Y-53703000D01*
X133627000Y-53703000D01*
X133627000Y-53723000D01*
X134351250Y-53723000D01*
X134399724Y-53674526D01*
X134487599Y-53762401D01*
X134734161Y-53927148D01*
X135025000Y-53985000D01*
X135141489Y-53985000D01*
X135137599Y-53987599D01*
X134482501Y-54642697D01*
X134510000Y-54576309D01*
X134510000Y-54135750D01*
X134351250Y-53977000D01*
X133627000Y-53977000D01*
X133627000Y-53997000D01*
X133373000Y-53997000D01*
X133373000Y-53977000D01*
X132648750Y-53977000D01*
X132490000Y-54135750D01*
X132490000Y-54576309D01*
X132586673Y-54809698D01*
X132588043Y-54811068D01*
X132528569Y-54898110D01*
X132504083Y-55019025D01*
X132359160Y-55047852D01*
X132112599Y-55212599D01*
X132085198Y-55240000D01*
X131117347Y-55240000D01*
X131014132Y-54990200D01*
X130512441Y-54487633D01*
X129856616Y-54215311D01*
X129146499Y-54214691D01*
X128490200Y-54485868D01*
X127987633Y-54987559D01*
X127715311Y-55643384D01*
X127714691Y-56353501D01*
X126127000Y-56353501D01*
X126127000Y-45903136D01*
X126401043Y-46566372D01*
X126930839Y-47097093D01*
X127623405Y-47384672D01*
X128373305Y-47385326D01*
X129066372Y-47098957D01*
X129597093Y-46569161D01*
X129714775Y-46285750D01*
X131365000Y-46285750D01*
X131365000Y-46976310D01*
X131461673Y-47209699D01*
X131640302Y-47388327D01*
X131873691Y-47485000D01*
X132714250Y-47485000D01*
X132873000Y-47326250D01*
X132873000Y-46127000D01*
X133127000Y-46127000D01*
X133127000Y-47326250D01*
X133285750Y-47485000D01*
X134126309Y-47485000D01*
X134359698Y-47388327D01*
X134538327Y-47209699D01*
X134635000Y-46976310D01*
X134635000Y-46285750D01*
X134476250Y-46127000D01*
X133127000Y-46127000D01*
X132873000Y-46127000D01*
X131523750Y-46127000D01*
X131365000Y-46285750D01*
X129714775Y-46285750D01*
X129884672Y-45876595D01*
X129885326Y-45126695D01*
X129842766Y-45023690D01*
X131365000Y-45023690D01*
X131365000Y-45714250D01*
X131523750Y-45873000D01*
X132873000Y-45873000D01*
X132873000Y-44673750D01*
X133127000Y-44673750D01*
X133127000Y-45873000D01*
X134476250Y-45873000D01*
X134635000Y-45714250D01*
X134635000Y-45023690D01*
X134538327Y-44790301D01*
X134359698Y-44611673D01*
X134126309Y-44515000D01*
X133285750Y-44515000D01*
X133127000Y-44673750D01*
X132873000Y-44673750D01*
X132714250Y-44515000D01*
X131873691Y-44515000D01*
X131640302Y-44611673D01*
X131461673Y-44790301D01*
X131365000Y-45023690D01*
X129842766Y-45023690D01*
X129598957Y-44433628D01*
X129069161Y-43902907D01*
X128376595Y-43615328D01*
X127626695Y-43614674D01*
X126933628Y-43901043D01*
X126402907Y-44430839D01*
X126127000Y-45095296D01*
X126127000Y-43210000D01*
X167873000Y-43210000D01*
X167873000Y-45096864D01*
G36*
X143662599Y-63437401D02*
X143909161Y-63602148D01*
X144072968Y-63634731D01*
X143947808Y-63759673D01*
X143805162Y-64103201D01*
X143804838Y-64475167D01*
X143835000Y-64548165D01*
X143835000Y-64944908D01*
X143754833Y-64944838D01*
X143411057Y-65086883D01*
X143147808Y-65349673D01*
X143005162Y-65693201D01*
X143005152Y-65704690D01*
X142574842Y-66135000D01*
X140770000Y-66135000D01*
X140469594Y-66194755D01*
X140469592Y-66194756D01*
X140469593Y-66194756D01*
X140214921Y-66364921D01*
X140147440Y-66432402D01*
X140147440Y-65150000D01*
X140103162Y-64914683D01*
X139964090Y-64698559D01*
X139751890Y-64553569D01*
X139500000Y-64502560D01*
X137500000Y-64502560D01*
X137264683Y-64546838D01*
X137130332Y-64633291D01*
X137185000Y-64501310D01*
X137185000Y-64285750D01*
X137026250Y-64127000D01*
X136077000Y-64127000D01*
X136077000Y-64147000D01*
X135823000Y-64147000D01*
X135823000Y-64127000D01*
X135803000Y-64127000D01*
X135803000Y-63873000D01*
X135823000Y-63873000D01*
X135823000Y-63148750D01*
X136077000Y-63148750D01*
X136077000Y-63873000D01*
X137026250Y-63873000D01*
X137185000Y-63714250D01*
X137185000Y-63498690D01*
X137088327Y-63265301D01*
X136909698Y-63086673D01*
X136676309Y-62990000D01*
X136235750Y-62990000D01*
X136077000Y-63148750D01*
X135823000Y-63148750D01*
X135664250Y-62990000D01*
X135260000Y-62990000D01*
X135260000Y-61114802D01*
X136385041Y-59989761D01*
X136421838Y-60185317D01*
X136560910Y-60401441D01*
X136773110Y-60546431D01*
X137025000Y-60597440D01*
X138775000Y-60597440D01*
X139010317Y-60553162D01*
X139226441Y-60414090D01*
X139371431Y-60201890D01*
X139422440Y-59950000D01*
X139422440Y-59500000D01*
X139402933Y-59396329D01*
X139422440Y-59300000D01*
X139422440Y-59197242D01*
X143662599Y-63437401D01*
X143662599Y-63437401D01*
G37*
X143662599Y-63437401D02*
X143909161Y-63602148D01*
X144072968Y-63634731D01*
X143947808Y-63759673D01*
X143805162Y-64103201D01*
X143804838Y-64475167D01*
X143835000Y-64548165D01*
X143835000Y-64944908D01*
X143754833Y-64944838D01*
X143411057Y-65086883D01*
X143147808Y-65349673D01*
X143005162Y-65693201D01*
X143005152Y-65704690D01*
X142574842Y-66135000D01*
X140770000Y-66135000D01*
X140469594Y-66194755D01*
X140469592Y-66194756D01*
X140469593Y-66194756D01*
X140214921Y-66364921D01*
X140147440Y-66432402D01*
X140147440Y-65150000D01*
X140103162Y-64914683D01*
X139964090Y-64698559D01*
X139751890Y-64553569D01*
X139500000Y-64502560D01*
X137500000Y-64502560D01*
X137264683Y-64546838D01*
X137130332Y-64633291D01*
X137185000Y-64501310D01*
X137185000Y-64285750D01*
X137026250Y-64127000D01*
X136077000Y-64127000D01*
X136077000Y-64147000D01*
X135823000Y-64147000D01*
X135823000Y-64127000D01*
X135803000Y-64127000D01*
X135803000Y-63873000D01*
X135823000Y-63873000D01*
X135823000Y-63148750D01*
X136077000Y-63148750D01*
X136077000Y-63873000D01*
X137026250Y-63873000D01*
X137185000Y-63714250D01*
X137185000Y-63498690D01*
X137088327Y-63265301D01*
X136909698Y-63086673D01*
X136676309Y-62990000D01*
X136235750Y-62990000D01*
X136077000Y-63148750D01*
X135823000Y-63148750D01*
X135664250Y-62990000D01*
X135260000Y-62990000D01*
X135260000Y-61114802D01*
X136385041Y-59989761D01*
X136421838Y-60185317D01*
X136560910Y-60401441D01*
X136773110Y-60546431D01*
X137025000Y-60597440D01*
X138775000Y-60597440D01*
X139010317Y-60553162D01*
X139226441Y-60414090D01*
X139371431Y-60201890D01*
X139422440Y-59950000D01*
X139422440Y-59500000D01*
X139402933Y-59396329D01*
X139422440Y-59300000D01*
X139422440Y-59197242D01*
X143662599Y-63437401D01*
G36*
X152671861Y-49492255D02*
X153500000Y-50320395D01*
X154328139Y-49492255D01*
X154258181Y-49260000D01*
X155185198Y-49260000D01*
X155740000Y-49814802D01*
X155740000Y-55500000D01*
X155750274Y-55551650D01*
X155732518Y-55551650D01*
X154564957Y-54384089D01*
X154751441Y-54264090D01*
X154896431Y-54051890D01*
X154947440Y-53800000D01*
X154947440Y-52200000D01*
X154903162Y-51964683D01*
X154764090Y-51748559D01*
X154551890Y-51603569D01*
X154313799Y-51555354D01*
X154328139Y-51507745D01*
X153500000Y-50679605D01*
X152671861Y-51507745D01*
X152686145Y-51555167D01*
X152464683Y-51596838D01*
X152248559Y-51735910D01*
X152103569Y-51948110D01*
X152052560Y-52200000D01*
X152052560Y-53800000D01*
X152096838Y-54035317D01*
X152235910Y-54251441D01*
X152448110Y-54396431D01*
X152665000Y-54440352D01*
X152665000Y-54500000D01*
X152728561Y-54819541D01*
X152842458Y-54990000D01*
X152909566Y-55090434D01*
X153880649Y-56061517D01*
X153852790Y-56199090D01*
X153852790Y-57349710D01*
X153897068Y-57585027D01*
X154036140Y-57801151D01*
X154248340Y-57946141D01*
X154500230Y-57997150D01*
X155899770Y-57997150D01*
X156135087Y-57952872D01*
X156351211Y-57813800D01*
X156496201Y-57601600D01*
X156547210Y-57349710D01*
X156547210Y-56622012D01*
X158422599Y-58497401D01*
X158669160Y-58662148D01*
X158960000Y-58720000D01*
X159815453Y-58720000D01*
X159825169Y-58743515D01*
X160214436Y-59133461D01*
X160446870Y-59229976D01*
X160216485Y-59325169D01*
X159876061Y-59665000D01*
X159845868Y-59665000D01*
X159616034Y-59435166D01*
X159562149Y-59399161D01*
X159345141Y-59254161D01*
X159025600Y-59190600D01*
X156487248Y-59190600D01*
X156363860Y-58998849D01*
X156151660Y-58853859D01*
X155899770Y-58802850D01*
X154500230Y-58802850D01*
X154264913Y-58847128D01*
X154048789Y-58986200D01*
X153926620Y-59165000D01*
X153501563Y-59165000D01*
X153301890Y-59028569D01*
X153050000Y-58977560D01*
X151850000Y-58977560D01*
X151614683Y-59021838D01*
X151511354Y-59088329D01*
X151509698Y-59086673D01*
X151276309Y-58990000D01*
X150835750Y-58990000D01*
X150677000Y-59148750D01*
X150677000Y-59873000D01*
X150697000Y-59873000D01*
X150697000Y-60127000D01*
X150677000Y-60127000D01*
X150677000Y-60851250D01*
X150835750Y-61010000D01*
X151276309Y-61010000D01*
X151509698Y-60913327D01*
X151511068Y-60911957D01*
X151598110Y-60971431D01*
X151850000Y-61022440D01*
X153050000Y-61022440D01*
X153285317Y-60978162D01*
X153501441Y-60839090D01*
X153504236Y-60835000D01*
X153896837Y-60835000D01*
X153897068Y-60836227D01*
X154036140Y-61052351D01*
X154164419Y-61140000D01*
X147482223Y-61140000D01*
X147652192Y-60970327D01*
X147794838Y-60626799D01*
X147794839Y-60625162D01*
X147795167Y-60625162D01*
X148138943Y-60483117D01*
X148336654Y-60285750D01*
X149315000Y-60285750D01*
X149315000Y-60501310D01*
X149411673Y-60734699D01*
X149590302Y-60913327D01*
X149823691Y-61010000D01*
X150264250Y-61010000D01*
X150423000Y-60851250D01*
X150423000Y-60127000D01*
X149473750Y-60127000D01*
X149315000Y-60285750D01*
X148336654Y-60285750D01*
X148402192Y-60220327D01*
X148544838Y-59876799D01*
X148545162Y-59504833D01*
X148455367Y-59287511D01*
X148669673Y-59502192D01*
X149013201Y-59644838D01*
X149315000Y-59645101D01*
X149315000Y-59714250D01*
X149473750Y-59873000D01*
X150423000Y-59873000D01*
X150423000Y-59148750D01*
X150264250Y-58990000D01*
X150096137Y-58990000D01*
X150134838Y-58896799D01*
X150135162Y-58524833D01*
X150040000Y-58294523D01*
X150040000Y-56130000D01*
X149982148Y-55839161D01*
X149817401Y-55592599D01*
X147562401Y-53337599D01*
X147315839Y-53172852D01*
X147025000Y-53115000D01*
X146622440Y-53115000D01*
X146622440Y-53000000D01*
X146602933Y-52896329D01*
X146622440Y-52800000D01*
X146622440Y-52685000D01*
X147575000Y-52685000D01*
X147865839Y-52627148D01*
X148112401Y-52462401D01*
X150291579Y-50283223D01*
X152053035Y-50283223D01*
X152080222Y-50853454D01*
X152246136Y-51254005D01*
X152492255Y-51328139D01*
X153320395Y-50500000D01*
X153679605Y-50500000D01*
X154507745Y-51328139D01*
X154753864Y-51254005D01*
X154946965Y-50716777D01*
X154919778Y-50146546D01*
X154753864Y-49745995D01*
X154507745Y-49671861D01*
X153679605Y-50500000D01*
X153320395Y-50500000D01*
X152492255Y-49671861D01*
X152246136Y-49745995D01*
X152053035Y-50283223D01*
X150291579Y-50283223D01*
X151314802Y-49260000D01*
X152741819Y-49260000D01*
X152671861Y-49492255D01*
X152671861Y-49492255D01*
G37*
X152671861Y-49492255D02*
X153500000Y-50320395D01*
X154328139Y-49492255D01*
X154258181Y-49260000D01*
X155185198Y-49260000D01*
X155740000Y-49814802D01*
X155740000Y-55500000D01*
X155750274Y-55551650D01*
X155732518Y-55551650D01*
X154564957Y-54384089D01*
X154751441Y-54264090D01*
X154896431Y-54051890D01*
X154947440Y-53800000D01*
X154947440Y-52200000D01*
X154903162Y-51964683D01*
X154764090Y-51748559D01*
X154551890Y-51603569D01*
X154313799Y-51555354D01*
X154328139Y-51507745D01*
X153500000Y-50679605D01*
X152671861Y-51507745D01*
X152686145Y-51555167D01*
X152464683Y-51596838D01*
X152248559Y-51735910D01*
X152103569Y-51948110D01*
X152052560Y-52200000D01*
X152052560Y-53800000D01*
X152096838Y-54035317D01*
X152235910Y-54251441D01*
X152448110Y-54396431D01*
X152665000Y-54440352D01*
X152665000Y-54500000D01*
X152728561Y-54819541D01*
X152842458Y-54990000D01*
X152909566Y-55090434D01*
X153880649Y-56061517D01*
X153852790Y-56199090D01*
X153852790Y-57349710D01*
X153897068Y-57585027D01*
X154036140Y-57801151D01*
X154248340Y-57946141D01*
X154500230Y-57997150D01*
X155899770Y-57997150D01*
X156135087Y-57952872D01*
X156351211Y-57813800D01*
X156496201Y-57601600D01*
X156547210Y-57349710D01*
X156547210Y-56622012D01*
X158422599Y-58497401D01*
X158669160Y-58662148D01*
X158960000Y-58720000D01*
X159815453Y-58720000D01*
X159825169Y-58743515D01*
X160214436Y-59133461D01*
X160446870Y-59229976D01*
X160216485Y-59325169D01*
X159876061Y-59665000D01*
X159845868Y-59665000D01*
X159616034Y-59435166D01*
X159562149Y-59399161D01*
X159345141Y-59254161D01*
X159025600Y-59190600D01*
X156487248Y-59190600D01*
X156363860Y-58998849D01*
X156151660Y-58853859D01*
X155899770Y-58802850D01*
X154500230Y-58802850D01*
X154264913Y-58847128D01*
X154048789Y-58986200D01*
X153926620Y-59165000D01*
X153501563Y-59165000D01*
X153301890Y-59028569D01*
X153050000Y-58977560D01*
X151850000Y-58977560D01*
X151614683Y-59021838D01*
X151511354Y-59088329D01*
X151509698Y-59086673D01*
X151276309Y-58990000D01*
X150835750Y-58990000D01*
X150677000Y-59148750D01*
X150677000Y-59873000D01*
X150697000Y-59873000D01*
X150697000Y-60127000D01*
X150677000Y-60127000D01*
X150677000Y-60851250D01*
X150835750Y-61010000D01*
X151276309Y-61010000D01*
X151509698Y-60913327D01*
X151511068Y-60911957D01*
X151598110Y-60971431D01*
X151850000Y-61022440D01*
X153050000Y-61022440D01*
X153285317Y-60978162D01*
X153501441Y-60839090D01*
X153504236Y-60835000D01*
X153896837Y-60835000D01*
X153897068Y-60836227D01*
X154036140Y-61052351D01*
X154164419Y-61140000D01*
X147482223Y-61140000D01*
X147652192Y-60970327D01*
X147794838Y-60626799D01*
X147794839Y-60625162D01*
X147795167Y-60625162D01*
X148138943Y-60483117D01*
X148336654Y-60285750D01*
X149315000Y-60285750D01*
X149315000Y-60501310D01*
X149411673Y-60734699D01*
X149590302Y-60913327D01*
X149823691Y-61010000D01*
X150264250Y-61010000D01*
X150423000Y-60851250D01*
X150423000Y-60127000D01*
X149473750Y-60127000D01*
X149315000Y-60285750D01*
X148336654Y-60285750D01*
X148402192Y-60220327D01*
X148544838Y-59876799D01*
X148545162Y-59504833D01*
X148455367Y-59287511D01*
X148669673Y-59502192D01*
X149013201Y-59644838D01*
X149315000Y-59645101D01*
X149315000Y-59714250D01*
X149473750Y-59873000D01*
X150423000Y-59873000D01*
X150423000Y-59148750D01*
X150264250Y-58990000D01*
X150096137Y-58990000D01*
X150134838Y-58896799D01*
X150135162Y-58524833D01*
X150040000Y-58294523D01*
X150040000Y-56130000D01*
X149982148Y-55839161D01*
X149817401Y-55592599D01*
X147562401Y-53337599D01*
X147315839Y-53172852D01*
X147025000Y-53115000D01*
X146622440Y-53115000D01*
X146622440Y-53000000D01*
X146602933Y-52896329D01*
X146622440Y-52800000D01*
X146622440Y-52685000D01*
X147575000Y-52685000D01*
X147865839Y-52627148D01*
X148112401Y-52462401D01*
X150291579Y-50283223D01*
X152053035Y-50283223D01*
X152080222Y-50853454D01*
X152246136Y-51254005D01*
X152492255Y-51328139D01*
X153320395Y-50500000D01*
X153679605Y-50500000D01*
X154507745Y-51328139D01*
X154753864Y-51254005D01*
X154946965Y-50716777D01*
X154919778Y-50146546D01*
X154753864Y-49745995D01*
X154507745Y-49671861D01*
X153679605Y-50500000D01*
X153320395Y-50500000D01*
X152492255Y-49671861D01*
X152246136Y-49745995D01*
X152053035Y-50283223D01*
X150291579Y-50283223D01*
X151314802Y-49260000D01*
X152741819Y-49260000D01*
X152671861Y-49492255D01*
M02*
