M48
; DRILL file {KiCad 9.0.0} date 2025-03-31T17:07:37+0200
; FORMAT={-:-/ absolute / metric / decimal}
; #@! TF.CreationDate,2025-03-31T17:07:37+02:00
; #@! TF.GenerationSoftware,Kicad,Pcbnew,9.0.0
; #@! TF.FileFunction,Plated,1,2,PTH
FMAT,2
METRIC
; #@! TA.AperFunction,Plated,PTH,ViaDrill
T1C0.400
; #@! TA.AperFunction,Plated,PTH,ComponentDrill
T2C0.400
; #@! TA.AperFunction,Plated,PTH,ComponentDrill
T3C0.600
; #@! TA.AperFunction,Plated,PTH,ComponentDrill
T4C0.800
; #@! TA.AperFunction,Plated,PTH,ComponentDrill
T5C0.950
; #@! TA.AperFunction,Plated,PTH,ComponentDrill
T6C1.500
; #@! TA.AperFunction,Plated,PTH,ComponentDrill
T7C2.200
; #@! TA.AperFunction,Plated,PTH,ComponentDrill
T8C2.300
%
G90
G05
T1
X35.89Y-83.17
X35.89Y-90.17
X35.89Y-91.42
X35.89Y-92.67
X35.89Y-93.92
X35.89Y-95.17
X35.89Y-96.42
X35.89Y-97.67
X35.89Y-98.92
X35.89Y-100.17
X35.89Y-101.42
X35.89Y-107.92
X37.14Y-83.17
X37.14Y-90.17
X37.14Y-91.42
X37.14Y-92.67
X37.14Y-93.92
X37.14Y-95.17
X37.14Y-96.42
X37.14Y-97.67
X37.14Y-98.92
X37.14Y-100.17
X37.14Y-101.42
X37.14Y-107.92
X38.39Y-83.17
X38.39Y-90.17
X38.39Y-91.42
X38.39Y-92.67
X38.39Y-93.92
X38.39Y-95.17
X38.39Y-96.42
X38.39Y-97.67
X38.39Y-98.92
X38.39Y-100.17
X38.39Y-101.42
X38.39Y-107.92
X39.64Y-83.17
X39.64Y-90.17
X39.64Y-91.42
X39.64Y-92.67
X39.64Y-93.92
X39.64Y-95.17
X39.64Y-96.42
X39.64Y-97.67
X39.64Y-98.92
X39.64Y-100.17
X39.64Y-101.42
X39.64Y-107.92
X40.89Y-104.92
X41.562Y-95.344
X41.656Y-87.376
X42.14Y-104.92
X42.481Y-84.519
X42.52Y-100.432
X43.307Y-95.046
X43.39Y-105.42
X43.39Y-106.67
X43.39Y-107.92
X44.64Y-105.42
X44.64Y-106.67
X44.64Y-107.92
X45.085Y-95.377
X45.14Y-88.87
X45.89Y-105.42
X45.89Y-106.67
X45.89Y-107.92
X47.14Y-83.92
X47.14Y-85.17
X47.14Y-86.42
X47.14Y-105.42
X47.14Y-106.67
X47.14Y-107.92
X48.197Y-90.07
X48.39Y-105.42
X48.39Y-106.67
X48.39Y-107.92
X48.92Y-101.067
X49.847Y-90.07
X52.514Y-90.106
X53.696Y-101.854
X53.797Y-105.512
X54.712Y-90.424
X55.13Y-87.67
X56.143Y-104.817
X56.99Y-90.77
X59.08Y-90.272
X60.89Y-100.67
X60.89Y-101.92
X60.89Y-103.17
X60.89Y-104.42
X62.14Y-98.17
X62.14Y-99.42
X62.14Y-100.67
X62.14Y-101.92
X62.14Y-103.17
X62.14Y-104.42
X63.39Y-98.17
X63.39Y-99.42
X63.39Y-100.67
X63.39Y-101.92
X63.39Y-103.17
X63.39Y-104.42
X63.59Y-84.12
X64.64Y-98.17
X64.64Y-99.42
X64.64Y-100.67
X64.64Y-101.92
X64.64Y-103.17
X64.64Y-104.42
X65.39Y-93.17
X65.89Y-98.17
X65.89Y-99.42
X65.89Y-100.67
X65.89Y-101.92
X65.89Y-103.17
X65.89Y-104.42
X66.64Y-93.17
X67.14Y-99.42
X67.14Y-100.67
X67.14Y-101.92
X67.14Y-103.17
X67.14Y-104.42
X68.39Y-103.17
X68.39Y-104.42
X69.39Y-87.92
X69.39Y-89.17
X69.64Y-103.17
X69.64Y-104.42
X70.64Y-86.67
X70.64Y-87.92
X70.64Y-89.17
X70.89Y-103.17
X70.89Y-104.42
X77.89Y-102.42
X77.89Y-105.42
X77.89Y-106.67
X79.14Y-101.17
X79.14Y-102.42
X79.14Y-105.42
X79.14Y-106.67
X79.197Y-94.183
X80.39Y-98.67
X80.39Y-99.92
X80.39Y-101.17
X80.39Y-102.42
X80.39Y-105.42
X80.39Y-106.67
X81.64Y-98.67
X81.64Y-99.92
X81.64Y-101.17
X81.64Y-102.42
X81.64Y-105.42
X81.64Y-106.67
X82.89Y-98.67
X82.89Y-99.92
X82.89Y-101.17
X82.89Y-102.42
X82.89Y-105.42
X82.89Y-106.67
X84.14Y-98.67
X84.14Y-99.92
X84.14Y-101.17
X84.14Y-102.42
X84.14Y-105.42
X84.14Y-106.67
X85.39Y-98.67
X85.39Y-99.92
X85.39Y-101.17
X85.39Y-102.42
X85.39Y-105.42
X85.39Y-106.67
X86.64Y-98.67
X86.64Y-99.92
X86.64Y-101.17
X86.64Y-102.42
X86.64Y-105.42
X86.64Y-106.67
X87.89Y-98.67
X87.89Y-99.92
X87.89Y-101.17
X87.89Y-102.42
X87.89Y-105.42
X87.89Y-106.67
X89.14Y-102.42
X89.14Y-105.42
X89.14Y-106.67
X92.1Y-85.649
X92.445Y-87.877
X93.574Y-105.664
X97.587Y-104.699
X98.298Y-83.312
X98.4Y-100.736
X98.89Y-105.42
X98.89Y-106.67
X98.89Y-107.92
X99.758Y-90.487
X99.822Y-93.675
X100.14Y-105.42
X100.14Y-106.67
X100.14Y-107.92
X100.254Y-103.708
X101.39Y-95.358
X101.39Y-105.42
X101.39Y-106.67
X101.39Y-107.92
X101.854Y-84.785
X102.235Y-83.312
X102.64Y-105.42
X102.64Y-106.67
X102.64Y-107.92
X103.18Y-89.91
X103.2Y-87.503
X103.89Y-105.42
X103.89Y-106.67
X103.89Y-107.92
X104.521Y-97.79
X105.029Y-91.44
X105.14Y-104.92
X106.045Y-100.203
X106.19Y-86.82
X106.39Y-104.92
X107.64Y-89.92
X107.64Y-91.17
X107.64Y-92.42
X107.64Y-93.67
X107.64Y-94.92
X107.64Y-96.17
X107.64Y-97.42
X107.64Y-98.67
X107.64Y-99.92
X107.64Y-101.17
X107.64Y-107.92
X108.89Y-89.92
X108.89Y-91.17
X108.89Y-92.42
X108.89Y-93.67
X108.89Y-94.92
X108.89Y-96.17
X108.89Y-97.42
X108.89Y-98.67
X108.89Y-99.92
X108.89Y-101.17
X108.89Y-107.92
X110.14Y-89.92
X110.14Y-91.17
X110.14Y-92.42
X110.14Y-93.67
X110.14Y-94.92
X110.14Y-96.17
X110.14Y-97.42
X110.14Y-98.67
X110.14Y-99.92
X110.14Y-101.17
X110.14Y-107.92
X111.39Y-89.92
X111.39Y-91.17
X111.39Y-92.42
X111.39Y-93.67
X111.39Y-94.92
X111.39Y-96.17
X111.39Y-97.42
X111.39Y-98.67
X111.39Y-99.92
X111.39Y-101.17
X111.39Y-107.92
T2
X35.99Y-86.47
X35.99Y-104.67
X36.473Y-85.303
X36.473Y-87.637
X36.473Y-103.503
X36.473Y-105.837
X37.64Y-84.82
X37.64Y-88.12
X37.64Y-103.02
X37.64Y-106.32
X38.807Y-85.303
X38.807Y-87.637
X38.807Y-103.503
X38.807Y-105.837
X39.29Y-86.47
X39.29Y-104.67
X107.84Y-86.47
X107.84Y-104.67
X108.323Y-85.303
X108.323Y-87.637
X108.323Y-103.503
X108.323Y-105.837
X109.49Y-84.82
X109.49Y-88.12
X109.49Y-103.02
X109.49Y-106.32
X110.657Y-85.303
X110.657Y-87.637
X110.657Y-103.503
X110.657Y-105.837
X111.14Y-86.47
X111.14Y-104.67
T4
X42.835Y-91.27
X44.835Y-91.27
X48.735Y-96.37
X50.735Y-96.37
X66.635Y-91.07
X68.635Y-91.07
X72.655Y-95.756
X72.655Y-105.87
X72.69Y-87.415
X72.69Y-89.415
X74.655Y-95.756
X74.655Y-105.87
X94.19Y-98.57
X96.19Y-98.57
T5
X60.0Y-96.748
X62.5Y-96.748
X64.5Y-96.748
X67.0Y-96.748
X80.32Y-96.748
X82.82Y-96.748
X84.82Y-96.748
X87.32Y-96.748
T6
X82.386Y-88.9
X87.286Y-88.9
T7
X37.64Y-86.47
X37.64Y-104.67
X109.49Y-86.47
X109.49Y-104.67
T8
X56.93Y-99.458
X70.07Y-99.458
X77.25Y-99.458
X90.39Y-99.458
T3
G00X41.4Y-103.409
M15
G01X41.4Y-102.309
M16
G05
G00X41.4Y-107.429
M15
G01X41.4Y-106.629
M16
G05
G00X50.04Y-103.409
M15
G01X50.04Y-102.309
M16
G05
G00X50.04Y-107.429
M15
G01X50.04Y-106.629
M16
G05
G00X51.56Y-83.72
M15
G01X51.56Y-84.52
M16
G05
G00X51.56Y-87.74
M15
G01X51.56Y-88.84
M16
G05
G00X60.2Y-83.72
M15
G01X60.2Y-84.52
M16
G05
G00X60.2Y-87.74
M15
G01X60.2Y-88.84
M16
G05
G00X97.28Y-103.409
M15
G01X97.28Y-102.309
M16
G05
G00X97.28Y-107.429
M15
G01X97.28Y-106.629
M16
G05
G00X105.92Y-103.409
M15
G01X105.92Y-102.309
M16
G05
G00X105.92Y-107.429
M15
G01X105.92Y-106.629
M16
G05
M30
