%TF.GenerationSoftware,KiCad,Pcbnew,9.0.0*%
%TF.CreationDate,2025-03-31T17:07:40+02:00*%
%TF.ProjectId,Project Hub,50726f6a-6563-4742-9048-75622e6b6963,rev?*%
%TF.SameCoordinates,Original*%
%TF.FileFunction,Copper,L1,Top*%
%TF.FilePolarity,Positive*%
%FSLAX46Y46*%
G04 Gerber Fmt 4.6, Leading zero omitted, Abs format (unit mm)*
G04 Created by KiCad (PCBNEW 9.0.0) date 2025-03-31 17:07:40*
%MOMM*%
%LPD*%
G01*
G04 APERTURE LIST*
G04 Aperture macros list*
%AMRoundRect*
0 Rectangle with rounded corners*
0 $1 Rounding radius*
0 $2 $3 $4 $5 $6 $7 $8 $9 X,Y pos of 4 corners*
0 Add a 4 corners polygon primitive as box body*
4,1,4,$2,$3,$4,$5,$6,$7,$8,$9,$2,$3,0*
0 Add four circle primitives for the rounded corners*
1,1,$1+$1,$2,$3*
1,1,$1+$1,$4,$5*
1,1,$1+$1,$6,$7*
1,1,$1+$1,$8,$9*
0 Add four rect primitives between the rounded corners*
20,1,$1+$1,$2,$3,$4,$5,0*
20,1,$1+$1,$4,$5,$6,$7,0*
20,1,$1+$1,$6,$7,$8,$9,0*
20,1,$1+$1,$8,$9,$2,$3,0*%
G04 Aperture macros list end*
%TA.AperFunction,SMDPad,CuDef*%
%ADD10RoundRect,0.225000X0.225000X0.250000X-0.225000X0.250000X-0.225000X-0.250000X0.225000X-0.250000X0*%
%TD*%
%TA.AperFunction,ComponentPad*%
%ADD11R,1.600000X1.600000*%
%TD*%
%TA.AperFunction,ComponentPad*%
%ADD12C,1.600000*%
%TD*%
%TA.AperFunction,SMDPad,CuDef*%
%ADD13RoundRect,0.200000X0.275000X-0.200000X0.275000X0.200000X-0.275000X0.200000X-0.275000X-0.200000X0*%
%TD*%
%TA.AperFunction,SMDPad,CuDef*%
%ADD14R,0.600000X1.160000*%
%TD*%
%TA.AperFunction,SMDPad,CuDef*%
%ADD15R,0.300000X1.160000*%
%TD*%
%TA.AperFunction,ComponentPad*%
%ADD16O,0.900000X2.000000*%
%TD*%
%TA.AperFunction,ComponentPad*%
%ADD17O,0.900000X1.700000*%
%TD*%
%TA.AperFunction,ComponentPad*%
%ADD18C,0.700000*%
%TD*%
%TA.AperFunction,ComponentPad*%
%ADD19C,4.400000*%
%TD*%
%TA.AperFunction,SMDPad,CuDef*%
%ADD20RoundRect,0.225000X-0.225000X-0.250000X0.225000X-0.250000X0.225000X0.250000X-0.225000X0.250000X0*%
%TD*%
%TA.AperFunction,SMDPad,CuDef*%
%ADD21RoundRect,0.200000X-0.275000X0.200000X-0.275000X-0.200000X0.275000X-0.200000X0.275000X0.200000X0*%
%TD*%
%TA.AperFunction,ComponentPad*%
%ADD22R,1.600000X1.500000*%
%TD*%
%TA.AperFunction,ComponentPad*%
%ADD23C,3.000000*%
%TD*%
%TA.AperFunction,SMDPad,CuDef*%
%ADD24R,1.750000X0.450000*%
%TD*%
%TA.AperFunction,SMDPad,CuDef*%
%ADD25RoundRect,0.200000X-0.200000X-0.275000X0.200000X-0.275000X0.200000X0.275000X-0.200000X0.275000X0*%
%TD*%
%TA.AperFunction,SMDPad,CuDef*%
%ADD26RoundRect,0.218750X0.381250X-0.218750X0.381250X0.218750X-0.381250X0.218750X-0.381250X-0.218750X0*%
%TD*%
%TA.AperFunction,SMDPad,CuDef*%
%ADD27RoundRect,0.200000X0.200000X0.275000X-0.200000X0.275000X-0.200000X-0.275000X0.200000X-0.275000X0*%
%TD*%
%TA.AperFunction,SMDPad,CuDef*%
%ADD28RoundRect,0.218750X0.218750X0.381250X-0.218750X0.381250X-0.218750X-0.381250X0.218750X-0.381250X0*%
%TD*%
%TA.AperFunction,SMDPad,CuDef*%
%ADD29RoundRect,0.243750X0.456250X-0.243750X0.456250X0.243750X-0.456250X0.243750X-0.456250X-0.243750X0*%
%TD*%
%TA.AperFunction,SMDPad,CuDef*%
%ADD30RoundRect,0.225000X-0.250000X0.225000X-0.250000X-0.225000X0.250000X-0.225000X0.250000X0.225000X0*%
%TD*%
%TA.AperFunction,SMDPad,CuDef*%
%ADD31RoundRect,0.250000X0.312500X1.450000X-0.312500X1.450000X-0.312500X-1.450000X0.312500X-1.450000X0*%
%TD*%
%TA.AperFunction,SMDPad,CuDef*%
%ADD32RoundRect,0.225000X0.250000X-0.225000X0.250000X0.225000X-0.250000X0.225000X-0.250000X-0.225000X0*%
%TD*%
%TA.AperFunction,SMDPad,CuDef*%
%ADD33RoundRect,0.218750X-0.218750X-0.381250X0.218750X-0.381250X0.218750X0.381250X-0.218750X0.381250X0*%
%TD*%
%TA.AperFunction,ComponentPad*%
%ADD34C,2.300000*%
%TD*%
%TA.AperFunction,ViaPad*%
%ADD35C,0.800000*%
%TD*%
%TA.AperFunction,Conductor*%
%ADD36C,0.200000*%
%TD*%
%TA.AperFunction,Conductor*%
%ADD37C,0.600000*%
%TD*%
%TA.AperFunction,Conductor*%
%ADD38C,0.800000*%
%TD*%
%TA.AperFunction,Conductor*%
%ADD39C,0.700000*%
%TD*%
%TA.AperFunction,Conductor*%
%ADD40C,0.250000*%
%TD*%
%TA.AperFunction,Conductor*%
%ADD41C,0.300000*%
%TD*%
%TA.AperFunction,Conductor*%
%ADD42C,0.400000*%
%TD*%
G04 APERTURE END LIST*
D10*
%TO.P,C2,1*%
%TO.N,Net-(USB1-VBUS)*%
X55334200Y-95859600D03*
%TO.P,C2,2*%
%TO.N,GND*%
X53784200Y-95859600D03*
%TD*%
D11*
%TO.P,PC6,1*%
%TO.N,HUB3V3*%
X72655088Y-95756400D03*
D12*
%TO.P,PC6,2*%
%TO.N,GND*%
X74655088Y-95756400D03*
%TD*%
D13*
%TO.P,R13,1*%
%TO.N,Net-(D2-K)*%
X55168800Y-107442000D03*
%TO.P,R13,2*%
%TO.N,GND*%
X55168800Y-105792000D03*
%TD*%
D14*
%TO.P,USB3,A1,GND*%
%TO.N,GND*%
X59080000Y-88870000D03*
%TO.P,USB3,A4,VBUS*%
%TO.N,Net-(L1-Pad1)*%
X58280000Y-88870000D03*
D15*
%TO.P,USB3,A5,CC1*%
%TO.N,Net-(USB3-CC1)*%
X57130000Y-88870000D03*
%TO.P,USB3,A6,D+*%
%TO.N,D0_P*%
X56130000Y-88870000D03*
%TO.P,USB3,A7,D-*%
%TO.N,D0_N*%
X55630000Y-88870000D03*
%TO.P,USB3,A8,SBU1*%
%TO.N,unconnected-(USB3-SBU1-PadA8)*%
X54630000Y-88870000D03*
D14*
%TO.P,USB3,A9,VBUS*%
%TO.N,Net-(L1-Pad1)*%
X53480000Y-88870000D03*
%TO.P,USB3,A12,GND*%
%TO.N,GND*%
X52680000Y-88870000D03*
%TO.P,USB3,B1,GND*%
X52680000Y-88870000D03*
%TO.P,USB3,B4,VBUS*%
%TO.N,Net-(L1-Pad1)*%
X53480000Y-88870000D03*
D15*
%TO.P,USB3,B5,CC2*%
%TO.N,Net-(USB3-CC2)*%
X54130000Y-88870000D03*
%TO.P,USB3,B6,D+*%
%TO.N,D0_P*%
X55130000Y-88870000D03*
%TO.P,USB3,B7,D-*%
%TO.N,D0_N*%
X56630000Y-88870000D03*
%TO.P,USB3,B8,SBU2*%
%TO.N,unconnected-(USB3-SBU2-PadB8)*%
X57630000Y-88870000D03*
D14*
%TO.P,USB3,B9,VBUS*%
%TO.N,Net-(L1-Pad1)*%
X58280000Y-88870000D03*
%TO.P,USB3,B12,GND*%
%TO.N,GND*%
X59080000Y-88870000D03*
D16*
%TO.P,USB3,S1,SHIELD*%
%TO.N,unconnected-(USB3-SHIELD-PadS1)_3*%
X60200000Y-88290000D03*
D17*
%TO.N,unconnected-(USB3-SHIELD-PadS1)_1*%
X60200000Y-84120000D03*
D16*
%TO.N,unconnected-(USB3-SHIELD-PadS1)*%
X51560000Y-88290000D03*
D17*
%TO.N,unconnected-(USB3-SHIELD-PadS1)_2*%
X51560000Y-84120000D03*
%TD*%
D13*
%TO.P,R5,1*%
%TO.N,3V3*%
X103378000Y-95821000D03*
%TO.P,R5,2*%
%TO.N,Net-(U1-PSELF)*%
X103378000Y-94171000D03*
%TD*%
D11*
%TO.P,PC2,1*%
%TO.N,FUSED VCC*%
X72655088Y-105870000D03*
D12*
%TO.P,PC2,2*%
%TO.N,GND*%
X74655088Y-105870000D03*
%TD*%
D13*
%TO.P,R8,1*%
%TO.N,FUSED VCC*%
X43307000Y-86169000D03*
%TO.P,R8,2*%
%TO.N,OVCUR1*%
X43307000Y-84519000D03*
%TD*%
%TO.P,R1,1*%
%TO.N,Net-(USB3-CC1)*%
X62140000Y-85745000D03*
%TO.P,R1,2*%
%TO.N,GND*%
X62140000Y-84095000D03*
%TD*%
D18*
%TO.P,M2,1*%
%TO.N,N/C*%
X35990000Y-86470000D03*
X36473274Y-85303274D03*
X36473274Y-87636726D03*
X37640000Y-84820000D03*
D19*
X37640000Y-86470000D03*
D18*
X37640000Y-88120000D03*
X38806726Y-85303274D03*
X38806726Y-87636726D03*
X39290000Y-86470000D03*
%TD*%
D20*
%TO.P,C8,1*%
%TO.N,Net-(C8-Pad1)*%
X101460000Y-97790000D03*
%TO.P,C8,2*%
%TO.N,GND*%
X103010000Y-97790000D03*
%TD*%
D21*
%TO.P,R9,1*%
%TO.N,OVCUR1*%
X41656000Y-84519000D03*
%TO.P,R9,2*%
%TO.N,GND*%
X41656000Y-86169000D03*
%TD*%
D18*
%TO.P,M2,1*%
%TO.N,N/C*%
X35990000Y-104670000D03*
X36473274Y-103503274D03*
X36473274Y-105836726D03*
X37640000Y-103020000D03*
D19*
X37640000Y-104670000D03*
D18*
X37640000Y-106320000D03*
X38806726Y-103503274D03*
X38806726Y-105836726D03*
X39290000Y-104670000D03*
%TD*%
D20*
%TO.P,C6,1*%
%TO.N,Net-(U1-X1)*%
X76314000Y-88773000D03*
%TO.P,C6,2*%
%TO.N,GND*%
X77864000Y-88773000D03*
%TD*%
D22*
%TO.P,USB2,1,VBUS*%
%TO.N,Net-(USB2-VBUS)*%
X80320000Y-96748000D03*
D12*
%TO.P,USB2,2,D-*%
%TO.N,D4_N*%
X82820000Y-96748000D03*
%TO.P,USB2,3,D+*%
%TO.N,D4_P*%
X84820000Y-96748000D03*
%TO.P,USB2,4,GND*%
%TO.N,GND*%
X87320000Y-96748000D03*
D23*
%TO.P,USB2,5,Shield*%
%TO.N,unconnected-(USB2-Shield-Pad5)*%
X77250000Y-99458000D03*
%TO.N,unconnected-(USB2-Shield-Pad5)_1*%
X90390000Y-99458000D03*
%TD*%
D21*
%TO.P,R10,1*%
%TO.N,Net-(USB4-CC1)*%
X95250000Y-106490000D03*
%TO.P,R10,2*%
%TO.N,GND*%
X95250000Y-108140000D03*
%TD*%
D11*
%TO.P,PC7,1*%
%TO.N,FUSED VCC*%
X96190000Y-98570000D03*
D12*
%TO.P,PC7,2*%
%TO.N,GND*%
X94190000Y-98570000D03*
%TD*%
D13*
%TO.P,R3,1*%
%TO.N,5V*%
X93573600Y-104037600D03*
%TO.P,R3,2*%
%TO.N,Net-(U1-#RESET)*%
X93573600Y-102387600D03*
%TD*%
D24*
%TO.P,U1,1,AVDD*%
%TO.N,HUB3V3*%
X94190000Y-85945000D03*
%TO.P,U1,2,DM2*%
%TO.N,D2_N*%
X94190000Y-86595000D03*
%TO.P,U1,3,DP2*%
%TO.N,D2_P*%
X94190000Y-87245000D03*
%TO.P,U1,4,RREF*%
%TO.N,Net-(U1-RREF)*%
X94190000Y-87895000D03*
%TO.P,U1,5,AVDD*%
%TO.N,HUB3V3*%
X94190000Y-88545000D03*
%TO.P,U1,6,X1*%
%TO.N,Net-(U1-X1)*%
X94190000Y-89195000D03*
%TO.P,U1,7,X2*%
%TO.N,Net-(U1-X2)*%
X94190000Y-89845000D03*
%TO.P,U1,8,DM3*%
%TO.N,D3_N*%
X94190000Y-90495000D03*
%TO.P,U1,9,DP3*%
%TO.N,D3_P*%
X94190000Y-91145000D03*
%TO.P,U1,10,AVDD*%
%TO.N,HUB3V3*%
X94190000Y-91795000D03*
%TO.P,U1,11,DM4*%
%TO.N,D4_N*%
X94190000Y-92445000D03*
%TO.P,U1,12,DP4*%
%TO.N,D4_P*%
X94190000Y-93095000D03*
%TO.P,U1,13,#RESET*%
%TO.N,Net-(U1-#RESET)*%
X94190000Y-93745000D03*
%TO.P,U1,14,TEST/SCL*%
%TO.N,unconnected-(U1-TEST{slash}SCL-Pad14)*%
X94190000Y-94395000D03*
%TO.P,U1,15,GND*%
%TO.N,GND*%
X101390000Y-94395000D03*
%TO.P,U1,16,DVDD*%
%TO.N,3V3*%
X101390000Y-93745000D03*
%TO.P,U1,17,PSELF*%
%TO.N,Net-(U1-PSELF)*%
X101390000Y-93095000D03*
%TO.P,U1,18,PGANG*%
%TO.N,Net-(U1-PGANG)*%
X101390000Y-92445000D03*
%TO.P,U1,19,OVCUR2#*%
%TO.N,unconnected-(U1-OVCUR2#-Pad19)*%
X101390000Y-91795000D03*
%TO.P,U1,20,PWREN2#*%
%TO.N,unconnected-(U1-PWREN2#-Pad20)*%
X101390000Y-91145000D03*
%TO.P,U1,21,OVCUR1#*%
%TO.N,OVCUR1*%
X101390000Y-90495000D03*
%TO.P,U1,22,PWREN1#*%
%TO.N,unconnected-(U1-PWREN1#-Pad22)*%
X101390000Y-89845000D03*
%TO.P,U1,23,V5*%
%TO.N,5V*%
X101390000Y-89195000D03*
%TO.P,U1,24,V33*%
%TO.N,3V3*%
X101390000Y-88545000D03*
%TO.P,U1,25,DM0*%
%TO.N,D0_N*%
X101390000Y-87895000D03*
%TO.P,U1,26,DP0*%
%TO.N,D0_P*%
X101390000Y-87245000D03*
%TO.P,U1,27,DM1*%
%TO.N,D1_N*%
X101390000Y-86595000D03*
%TO.P,U1,28,DP1*%
%TO.N,D1_P*%
X101390000Y-85945000D03*
%TD*%
D25*
%TO.P,R11,1*%
%TO.N,Net-(USB4-CC2)*%
X103442000Y-100203000D03*
%TO.P,R11,2*%
%TO.N,GND*%
X105092000Y-100203000D03*
%TD*%
D11*
%TO.P,PC1,1*%
%TO.N,FUSED VCC*%
X48734888Y-96370000D03*
D12*
%TO.P,PC1,2*%
%TO.N,GND*%
X50734888Y-96370000D03*
%TD*%
D10*
%TO.P,C7,1*%
%TO.N,Net-(U1-X2)*%
X77864000Y-90551000D03*
%TO.P,C7,2*%
%TO.N,GND*%
X76314000Y-90551000D03*
%TD*%
D22*
%TO.P,USB1,1,VBUS*%
%TO.N,Net-(USB1-VBUS)*%
X60000000Y-96748000D03*
D12*
%TO.P,USB1,2,D-*%
%TO.N,D3_N*%
X62500000Y-96748000D03*
%TO.P,USB1,3,D+*%
%TO.N,D3_P*%
X64500000Y-96748000D03*
%TO.P,USB1,4,GND*%
%TO.N,GND*%
X67000000Y-96748000D03*
D23*
%TO.P,USB1,5,Shield*%
%TO.N,unconnected-(USB1-Shield-Pad5)_1*%
X56930000Y-99458000D03*
%TO.N,unconnected-(USB1-Shield-Pad5)*%
X70070000Y-99458000D03*
%TD*%
D26*
%TO.P,FB4,1,1*%
%TO.N,Net-(C13-Pad1)*%
X43307000Y-98471500D03*
%TO.P,FB4,2,2*%
%TO.N,FUSED VCC*%
X43307000Y-96346500D03*
%TD*%
D18*
%TO.P,M2,1*%
%TO.N,N/C*%
X107840000Y-104670000D03*
X108323274Y-103503274D03*
X108323274Y-105836726D03*
X109490000Y-103020000D03*
D19*
X109490000Y-104670000D03*
D18*
X109490000Y-106320000D03*
X110656726Y-103503274D03*
X110656726Y-105836726D03*
X111140000Y-104670000D03*
%TD*%
D27*
%TO.P,R2,1*%
%TO.N,Net-(USB3-CC2)*%
X49815000Y-88820000D03*
%TO.P,R2,2*%
%TO.N,GND*%
X48165000Y-88820000D03*
%TD*%
D11*
%TO.P,PC3,1*%
%TO.N,FUSED VCC*%
X42834888Y-91270000D03*
D12*
%TO.P,PC3,2*%
%TO.N,GND*%
X44834888Y-91270000D03*
%TD*%
D27*
%TO.P,R7,1*%
%TO.N,GND*%
X100774000Y-83312000D03*
%TO.P,R7,2*%
%TO.N,Net-(U1-RREF)*%
X99124000Y-83312000D03*
%TD*%
D28*
%TO.P,FB2,1,1*%
%TO.N,Net-(USB2-VBUS)*%
X74773300Y-102006400D03*
%TO.P,FB2,2,2*%
%TO.N,FUSED VCC*%
X72648300Y-102006400D03*
%TD*%
%TO.P,L1,1,1*%
%TO.N,Net-(L1-Pad1)*%
X50252500Y-91440000D03*
%TO.P,L1,2,2*%
%TO.N,5V*%
X48127500Y-91440000D03*
%TD*%
D11*
%TO.P,PC5,1*%
%TO.N,HUB3V3*%
X72690000Y-87414888D03*
D12*
%TO.P,PC5,2*%
%TO.N,GND*%
X72690000Y-89414888D03*
%TD*%
D10*
%TO.P,C9,1*%
%TO.N,3V3*%
X105270600Y-83312000D03*
%TO.P,C9,2*%
%TO.N,GND*%
X103720600Y-83312000D03*
%TD*%
D29*
%TO.P,D1,1,K*%
%TO.N,Net-(D1-K)*%
X52273200Y-103807500D03*
%TO.P,D1,2,A*%
%TO.N,FUSED VCC*%
X52273200Y-101932500D03*
%TD*%
D30*
%TO.P,C1,1*%
%TO.N,GND*%
X105029000Y-92316000D03*
%TO.P,C1,2*%
%TO.N,5V*%
X105029000Y-93866000D03*
%TD*%
D11*
%TO.P,PC4,1*%
%TO.N,3V3*%
X66634888Y-91070000D03*
D12*
%TO.P,PC4,2*%
%TO.N,GND*%
X68634888Y-91070000D03*
%TD*%
D10*
%TO.P,C11,1*%
%TO.N,HUB3V3*%
X81356800Y-93167200D03*
%TO.P,C11,2*%
%TO.N,GND*%
X79806800Y-93167200D03*
%TD*%
D14*
%TO.P,USB4,A1,GND*%
%TO.N,GND*%
X98400000Y-102279000D03*
%TO.P,USB4,A4,VBUS*%
%TO.N,Net-(C8-Pad1)*%
X99200000Y-102279000D03*
D15*
%TO.P,USB4,A5,CC1*%
%TO.N,Net-(USB4-CC1)*%
X100350000Y-102279000D03*
%TO.P,USB4,A6,D+*%
%TO.N,D1_P*%
X101350000Y-102279000D03*
%TO.P,USB4,A7,D-*%
%TO.N,D1_N*%
X101850000Y-102279000D03*
%TO.P,USB4,A8,SBU1*%
%TO.N,unconnected-(USB4-SBU1-PadA8)*%
X102850000Y-102279000D03*
D14*
%TO.P,USB4,A9,VBUS*%
%TO.N,Net-(C8-Pad1)*%
X104000000Y-102279000D03*
%TO.P,USB4,A12,GND*%
%TO.N,GND*%
X104800000Y-102279000D03*
%TO.P,USB4,B1,GND*%
X104800000Y-102279000D03*
%TO.P,USB4,B4,VBUS*%
%TO.N,Net-(C8-Pad1)*%
X104000000Y-102279000D03*
D15*
%TO.P,USB4,B5,CC2*%
%TO.N,Net-(USB4-CC2)*%
X103350000Y-102279000D03*
%TO.P,USB4,B6,D+*%
%TO.N,D1_P*%
X102350000Y-102279000D03*
%TO.P,USB4,B7,D-*%
%TO.N,D1_N*%
X100850000Y-102279000D03*
%TO.P,USB4,B8,SBU2*%
%TO.N,unconnected-(USB4-SBU2-PadB8)*%
X99850000Y-102279000D03*
D14*
%TO.P,USB4,B9,VBUS*%
%TO.N,Net-(C8-Pad1)*%
X99200000Y-102279000D03*
%TO.P,USB4,B12,GND*%
%TO.N,GND*%
X98400000Y-102279000D03*
D16*
%TO.P,USB4,S1,SHIELD*%
%TO.N,unconnected-(USB4-SHIELD-PadS1)_2*%
X97280000Y-102859000D03*
D17*
%TO.N,unconnected-(USB4-SHIELD-PadS1)*%
X97280000Y-107029000D03*
D16*
%TO.N,unconnected-(USB4-SHIELD-PadS1)_1*%
X105920000Y-102859000D03*
D17*
%TO.N,unconnected-(USB4-SHIELD-PadS1)_3*%
X105920000Y-107029000D03*
%TD*%
D18*
%TO.P,M2,1*%
%TO.N,N/C*%
X107840000Y-86470000D03*
X108323274Y-85303274D03*
X108323274Y-87636726D03*
X109490000Y-84820000D03*
D19*
X109490000Y-86470000D03*
D18*
X109490000Y-88120000D03*
X110656726Y-85303274D03*
X110656726Y-87636726D03*
X111140000Y-86470000D03*
%TD*%
D20*
%TO.P,C12,1*%
%TO.N,HUB3V3*%
X76745800Y-93167200D03*
%TO.P,C12,2*%
%TO.N,GND*%
X78295800Y-93167200D03*
%TD*%
D30*
%TO.P,C5,1*%
%TO.N,3V3*%
X105029000Y-89141000D03*
%TO.P,C5,2*%
%TO.N,GND*%
X105029000Y-90691000D03*
%TD*%
D31*
%TO.P,F1,1*%
%TO.N,5V*%
X49381500Y-85852000D03*
%TO.P,F1,2*%
%TO.N,FUSED VCC*%
X45106500Y-85852000D03*
%TD*%
D32*
%TO.P,C13,1*%
%TO.N,Net-(C13-Pad1)*%
X41562000Y-98184000D03*
%TO.P,C13,2*%
%TO.N,GND*%
X41562000Y-96634000D03*
%TD*%
D26*
%TO.P,FB3,1,1*%
%TO.N,Net-(C8-Pad1)*%
X99568000Y-99868500D03*
%TO.P,FB3,2,2*%
%TO.N,FUSED VCC*%
X99568000Y-97743500D03*
%TD*%
D21*
%TO.P,R4,1*%
%TO.N,Net-(U1-#RESET)*%
X91846400Y-94882200D03*
%TO.P,R4,2*%
%TO.N,Net-(C4-Pad2)*%
X91846400Y-96532200D03*
%TD*%
D33*
%TO.P,L2,1,1*%
%TO.N,3V3*%
X75899500Y-85750400D03*
%TO.P,L2,2,2*%
%TO.N,HUB3V3*%
X78024500Y-85750400D03*
%TD*%
D13*
%TO.P,R12,1*%
%TO.N,Net-(D1-K)*%
X55168800Y-103796600D03*
%TO.P,R12,2*%
%TO.N,GND*%
X55168800Y-102146600D03*
%TD*%
D10*
%TO.P,C3,1*%
%TO.N,Net-(USB2-VBUS)*%
X74435000Y-100126800D03*
%TO.P,C3,2*%
%TO.N,GND*%
X72885000Y-100126800D03*
%TD*%
D30*
%TO.P,C4,1*%
%TO.N,Net-(U1-#RESET)*%
X91846400Y-102437600D03*
%TO.P,C4,2*%
%TO.N,Net-(C4-Pad2)*%
X91846400Y-103987600D03*
%TD*%
D25*
%TO.P,R15,1*%
%TO.N,Net-(USB5-CC2)*%
X47308000Y-100203000D03*
%TO.P,R15,2*%
%TO.N,GND*%
X48958000Y-100203000D03*
%TD*%
D28*
%TO.P,FB1,1,1*%
%TO.N,Net-(USB1-VBUS)*%
X55367700Y-94081600D03*
%TO.P,FB1,2,2*%
%TO.N,FUSED VCC*%
X53242700Y-94081600D03*
%TD*%
D34*
%TO.P,Y1,1,1*%
%TO.N,Net-(U1-X1)*%
X87286000Y-88900000D03*
%TO.P,Y1,2,2*%
%TO.N,Net-(U1-X2)*%
X82386000Y-88900000D03*
%TD*%
D10*
%TO.P,C10,1*%
%TO.N,HUB3V3*%
X92215000Y-84175600D03*
%TO.P,C10,2*%
%TO.N,GND*%
X90665000Y-84175600D03*
%TD*%
D13*
%TO.P,R14,1*%
%TO.N,Net-(USB5-CC1)*%
X45085000Y-98234000D03*
%TO.P,R14,2*%
%TO.N,GND*%
X45085000Y-96584000D03*
%TD*%
D29*
%TO.P,D2,1,K*%
%TO.N,Net-(D2-K)*%
X52273200Y-107414300D03*
%TO.P,D2,2,A*%
%TO.N,3V3*%
X52273200Y-105539300D03*
%TD*%
D14*
%TO.P,USB5,A1,GND*%
%TO.N,GND*%
X42520000Y-102279000D03*
%TO.P,USB5,A4,VBUS*%
%TO.N,Net-(C13-Pad1)*%
X43320000Y-102279000D03*
D15*
%TO.P,USB5,A5,CC1*%
%TO.N,Net-(USB5-CC1)*%
X44470000Y-102279000D03*
%TO.P,USB5,A6,D+*%
%TO.N,D2_P*%
X45470000Y-102279000D03*
%TO.P,USB5,A7,D-*%
%TO.N,D2_N*%
X45970000Y-102279000D03*
%TO.P,USB5,A8,SBU1*%
%TO.N,unconnected-(USB5-SBU1-PadA8)*%
X46970000Y-102279000D03*
D14*
%TO.P,USB5,A9,VBUS*%
%TO.N,Net-(C13-Pad1)*%
X48120000Y-102279000D03*
%TO.P,USB5,A12,GND*%
%TO.N,GND*%
X48920000Y-102279000D03*
%TO.P,USB5,B1,GND*%
X48920000Y-102279000D03*
%TO.P,USB5,B4,VBUS*%
%TO.N,Net-(C13-Pad1)*%
X48120000Y-102279000D03*
D15*
%TO.P,USB5,B5,CC2*%
%TO.N,Net-(USB5-CC2)*%
X47470000Y-102279000D03*
%TO.P,USB5,B6,D+*%
%TO.N,D2_P*%
X46470000Y-102279000D03*
%TO.P,USB5,B7,D-*%
%TO.N,D2_N*%
X44970000Y-102279000D03*
%TO.P,USB5,B8,SBU2*%
%TO.N,unconnected-(USB5-SBU2-PadB8)*%
X43970000Y-102279000D03*
D14*
%TO.P,USB5,B9,VBUS*%
%TO.N,Net-(C13-Pad1)*%
X43320000Y-102279000D03*
%TO.P,USB5,B12,GND*%
%TO.N,GND*%
X42520000Y-102279000D03*
D16*
%TO.P,USB5,S1,SHIELD*%
%TO.N,unconnected-(USB5-SHIELD-PadS1)_3*%
X41400000Y-102859000D03*
D17*
%TO.N,unconnected-(USB5-SHIELD-PadS1)_1*%
X41400000Y-107029000D03*
D16*
%TO.N,unconnected-(USB5-SHIELD-PadS1)*%
X50040000Y-102859000D03*
D17*
%TO.N,unconnected-(USB5-SHIELD-PadS1)_2*%
X50040000Y-107029000D03*
%TD*%
D21*
%TO.P,R6,1*%
%TO.N,5V*%
X103378000Y-91123000D03*
%TO.P,R6,2*%
%TO.N,Net-(U1-PGANG)*%
X103378000Y-92773000D03*
%TD*%
D35*
%TO.N,GND*%
X43390000Y-106670000D03*
X48390000Y-107920000D03*
X45085000Y-95377000D03*
X106045000Y-100203000D03*
X84140000Y-102420000D03*
X111390000Y-107920000D03*
X79140000Y-106670000D03*
X48390000Y-106670000D03*
X111390000Y-97420000D03*
X41562000Y-95344000D03*
X108890000Y-99920000D03*
X45140000Y-88870000D03*
X65390000Y-93170000D03*
X37140000Y-92670000D03*
X108890000Y-91170000D03*
X37140000Y-97670000D03*
X84140000Y-106670000D03*
X66640000Y-93170000D03*
X82890000Y-98670000D03*
X44640000Y-107920000D03*
X63390000Y-101920000D03*
X82890000Y-105420000D03*
X107640000Y-107920000D03*
X84140000Y-98670000D03*
X110140000Y-93670000D03*
X39640000Y-83170000D03*
X81640000Y-105420000D03*
X84140000Y-105420000D03*
X86640000Y-99920000D03*
X108890000Y-98670000D03*
X35890000Y-97670000D03*
X42140000Y-104920000D03*
X86640000Y-101170000D03*
X39640000Y-93920000D03*
X111390000Y-94920000D03*
X105140000Y-104920000D03*
X79197200Y-94183200D03*
X85390000Y-106670000D03*
X38390000Y-93920000D03*
X110140000Y-107920000D03*
X107640000Y-99920000D03*
X100140000Y-105420000D03*
X85390000Y-98670000D03*
X37140000Y-107920000D03*
X35890000Y-101420000D03*
X37140000Y-100170000D03*
X63390000Y-104420000D03*
X47140000Y-105420000D03*
X38390000Y-91420000D03*
X111390000Y-89920000D03*
X104521000Y-97790000D03*
X64640000Y-104420000D03*
X108890000Y-92420000D03*
X110140000Y-94920000D03*
X39640000Y-90170000D03*
X63390000Y-103170000D03*
X81640000Y-106670000D03*
X37140000Y-83170000D03*
X70640000Y-89170000D03*
X39640000Y-96420000D03*
X35890000Y-91420000D03*
X65890000Y-101920000D03*
X37140000Y-91420000D03*
X107640000Y-89920000D03*
X70890000Y-104420000D03*
X56143320Y-104817480D03*
X69390000Y-89170000D03*
X77890000Y-105420000D03*
X79140000Y-105420000D03*
X35890000Y-107920000D03*
X35890000Y-93920000D03*
X108890000Y-94920000D03*
X98890000Y-105420000D03*
X105029000Y-91440000D03*
X39640000Y-95170000D03*
X62140000Y-101920000D03*
X38390000Y-96420000D03*
X85390000Y-99920000D03*
X107640000Y-94920000D03*
X35890000Y-100170000D03*
X111390000Y-92420000D03*
X80390000Y-98670000D03*
X89140000Y-106670000D03*
X64640000Y-99420000D03*
X110140000Y-91170000D03*
X68390000Y-103170000D03*
X85390000Y-105420000D03*
X87890000Y-99920000D03*
X102640000Y-105420000D03*
X67140000Y-100670000D03*
X37140000Y-98920000D03*
X38390000Y-101420000D03*
X87890000Y-106670000D03*
X35890000Y-92670000D03*
X64640000Y-103170000D03*
X98400000Y-100736000D03*
X38390000Y-90170000D03*
X37140000Y-101420000D03*
X45890000Y-107920000D03*
X65890000Y-99420000D03*
X39640000Y-100170000D03*
X47140000Y-85170000D03*
X89140000Y-102420000D03*
X38390000Y-95170000D03*
X110140000Y-99920000D03*
X89140000Y-105420000D03*
X60890000Y-100670000D03*
X37140000Y-95170000D03*
X77890000Y-102420000D03*
X108890000Y-93670000D03*
X48390000Y-105420000D03*
X43390000Y-105420000D03*
X44640000Y-106670000D03*
X35890000Y-96420000D03*
X86640000Y-106670000D03*
X64640000Y-100670000D03*
X62140000Y-104420000D03*
X80390000Y-105420000D03*
X100140000Y-107920000D03*
X82890000Y-102420000D03*
X110140000Y-101170000D03*
X107640000Y-92420000D03*
X107640000Y-98670000D03*
X48197000Y-90070000D03*
X60890000Y-104420000D03*
X39640000Y-107920000D03*
X107640000Y-97420000D03*
X86640000Y-105420000D03*
X101390000Y-105420000D03*
X70640000Y-86670000D03*
X60890000Y-103170000D03*
X65890000Y-103170000D03*
X102640000Y-106670000D03*
X62140000Y-99420000D03*
X80390000Y-99920000D03*
X80390000Y-102420000D03*
X84140000Y-101170000D03*
X110140000Y-98670000D03*
X102640000Y-107920000D03*
X63390000Y-98170000D03*
X79140000Y-102420000D03*
X35890000Y-90170000D03*
X65890000Y-98170000D03*
X81640000Y-102420000D03*
X87890000Y-98670000D03*
X68390000Y-104420000D03*
X62140000Y-98170000D03*
X39640000Y-92670000D03*
X69640000Y-103170000D03*
X67140000Y-101920000D03*
X82890000Y-106670000D03*
X77890000Y-106670000D03*
X81640000Y-99920000D03*
X64640000Y-98170000D03*
X107640000Y-101170000D03*
X45890000Y-106670000D03*
X35890000Y-98920000D03*
X111390000Y-98670000D03*
X47140000Y-86420000D03*
X37140000Y-96420000D03*
X39640000Y-97670000D03*
X111390000Y-101170000D03*
X108890000Y-101170000D03*
X41656000Y-87376000D03*
X86640000Y-102420000D03*
X103890000Y-106670000D03*
X110140000Y-92420000D03*
X101390000Y-106670000D03*
X103890000Y-107920000D03*
X67140000Y-99420000D03*
X108890000Y-89920000D03*
X100140000Y-106670000D03*
X98890000Y-107920000D03*
X80390000Y-101170000D03*
X62140000Y-103170000D03*
X65890000Y-100670000D03*
X39640000Y-91420000D03*
X39640000Y-98920000D03*
X35890000Y-95170000D03*
X70890000Y-103170000D03*
X110140000Y-96170000D03*
X108890000Y-107920000D03*
X101390000Y-107920000D03*
X44640000Y-105420000D03*
X64640000Y-101920000D03*
X81640000Y-98670000D03*
X82890000Y-99920000D03*
X67140000Y-104420000D03*
X79140000Y-101170000D03*
X38390000Y-107920000D03*
X110140000Y-97420000D03*
X111390000Y-93670000D03*
X107640000Y-91170000D03*
X98890000Y-106670000D03*
X87890000Y-102420000D03*
X87890000Y-105420000D03*
X111390000Y-96170000D03*
X108890000Y-97420000D03*
X82890000Y-101170000D03*
X47140000Y-106670000D03*
X35890000Y-83170000D03*
X62140000Y-100670000D03*
X87890000Y-101170000D03*
X102235000Y-83312000D03*
X92100400Y-85648800D03*
X107640000Y-96170000D03*
X86640000Y-98670000D03*
X47140000Y-83920000D03*
X37140000Y-93920000D03*
X47140000Y-107920000D03*
X111390000Y-99920000D03*
X45890000Y-105420000D03*
X101390000Y-95358400D03*
X69640000Y-104420000D03*
X38390000Y-92670000D03*
X69390000Y-87920000D03*
X67140000Y-103170000D03*
X108890000Y-96170000D03*
X81640000Y-101170000D03*
X38390000Y-98920000D03*
X38390000Y-100170000D03*
X70640000Y-87920000D03*
X106390000Y-104920000D03*
X65890000Y-104420000D03*
X38390000Y-97670000D03*
X59080000Y-90272000D03*
X111390000Y-91170000D03*
X85390000Y-101170000D03*
X43390000Y-107920000D03*
X63390000Y-100670000D03*
X80390000Y-106670000D03*
X63590000Y-84120000D03*
X42520000Y-100432000D03*
X60890000Y-101920000D03*
X48920000Y-101067000D03*
X110140000Y-89920000D03*
X40890000Y-104920000D03*
X39640000Y-101420000D03*
X84140000Y-99920000D03*
X37140000Y-90170000D03*
X107640000Y-93670000D03*
X38390000Y-83170000D03*
X63390000Y-99420000D03*
X85390000Y-102420000D03*
X103890000Y-105420000D03*
X52514500Y-90106500D03*
%TO.N,5V*%
X103180400Y-89910400D03*
X93573600Y-105664000D03*
X106190000Y-86820000D03*
%TO.N,3V3*%
X99822000Y-93675200D03*
X103200200Y-87503000D03*
X53797200Y-105511600D03*
X101854000Y-84785200D03*
%TO.N,FUSED VCC*%
X53695600Y-101854000D03*
X43307000Y-95046200D03*
%TO.N,Net-(USB3-CC2)*%
X49847000Y-90070000D03*
X54711600Y-90424000D03*
%TO.N,Net-(U1-RREF)*%
X92444989Y-87877484D03*
X98298000Y-83312000D03*
%TO.N,OVCUR1*%
X99758500Y-90487500D03*
X42481000Y-84519000D03*
%TO.N,Net-(USB4-CC1)*%
X100253800Y-103708200D03*
X97586800Y-104698800D03*
%TO.N,D0_P*%
X56990000Y-90770000D03*
X55130000Y-87670000D03*
%TD*%
D36*
%TO.N,GND*%
X101390000Y-95358400D02*
X101390000Y-96170000D01*
D37*
X52680000Y-89941000D02*
X52514500Y-90106500D01*
D36*
X72885000Y-100126800D02*
X71355377Y-101656423D01*
X74258889Y-106969511D02*
X74655088Y-106573312D01*
X73826112Y-90551000D02*
X72690000Y-89414888D01*
X100774000Y-83312000D02*
X102235000Y-83312000D01*
D37*
X50734888Y-98426112D02*
X50734888Y-96370000D01*
D36*
X77864000Y-89001000D02*
X76314000Y-90551000D01*
D37*
X52680000Y-88870000D02*
X52680000Y-89941000D01*
D38*
X41562000Y-96634000D02*
X41562000Y-95344000D01*
D39*
X53784200Y-95859600D02*
X51245288Y-95859600D01*
D37*
X50723288Y-95859600D02*
X50697888Y-95885000D01*
D36*
X101390000Y-94395000D02*
X101390000Y-95358400D01*
X79806800Y-93167200D02*
X78295800Y-93167200D01*
X90665000Y-84213400D02*
X92100400Y-85648800D01*
X74655088Y-106573312D02*
X74655088Y-105870000D01*
X101390000Y-96170000D02*
X103010000Y-97790000D01*
D37*
X104800000Y-102279000D02*
X104800000Y-100495000D01*
D40*
X63565000Y-84095000D02*
X63590000Y-84120000D01*
D37*
X105092000Y-100203000D02*
X106045000Y-100203000D01*
D36*
X95250000Y-108140000D02*
X94475480Y-107365480D01*
X104521000Y-97790000D02*
X103010000Y-97790000D01*
D37*
X48920000Y-102279000D02*
X48920000Y-101067000D01*
D36*
X90665000Y-84175600D02*
X90665000Y-84213400D01*
X71355377Y-101656423D02*
X71355377Y-106633377D01*
D39*
X51245288Y-95859600D02*
X50734888Y-96370000D01*
D37*
X48920000Y-100241000D02*
X48958000Y-100203000D01*
D36*
X97670200Y-101549200D02*
X98400000Y-102279000D01*
X78295800Y-93281800D02*
X79197200Y-94183200D01*
D37*
X56143320Y-103121120D02*
X55168800Y-102146600D01*
X56143320Y-104817480D02*
X56143320Y-103121120D01*
X55168800Y-105792000D02*
X56143320Y-104817480D01*
D40*
X62140000Y-84095000D02*
X63565000Y-84095000D01*
D37*
X52514500Y-90106500D02*
X52451000Y-90170000D01*
D36*
X96979819Y-101549200D02*
X97670200Y-101549200D01*
D37*
X98400000Y-102279000D02*
X98400000Y-100736000D01*
D36*
X71355377Y-106633377D02*
X71691511Y-106969511D01*
D37*
X42520000Y-102279000D02*
X42520000Y-100432000D01*
D36*
X76314000Y-90551000D02*
X73826112Y-90551000D01*
X102235000Y-83312000D02*
X103720600Y-83312000D01*
D40*
X48197000Y-90070000D02*
X48197000Y-88852000D01*
D36*
X72885000Y-100126800D02*
X74655088Y-98356712D01*
X74655088Y-98356712D02*
X74655088Y-95756400D01*
D38*
X45085000Y-96584000D02*
X45085000Y-95377000D01*
D36*
X41656000Y-87376000D02*
X41529000Y-87503000D01*
D37*
X104800000Y-100495000D02*
X105092000Y-100203000D01*
D36*
X77864000Y-88773000D02*
X77864000Y-89001000D01*
D37*
X48958000Y-100203000D02*
X50734888Y-98426112D01*
X48920000Y-101067000D02*
X48920000Y-100241000D01*
D36*
X41656000Y-86169000D02*
X41656000Y-87376000D01*
X94475480Y-104053539D02*
X96979819Y-101549200D01*
X105029000Y-90691000D02*
X105029000Y-91440000D01*
X78295800Y-93167200D02*
X78295800Y-93281800D01*
D37*
X59080000Y-90272000D02*
X59055000Y-90297000D01*
D40*
X48197000Y-88852000D02*
X48165000Y-88820000D01*
D37*
X59080000Y-88870000D02*
X59080000Y-90272000D01*
D36*
X71691511Y-106969511D02*
X74258889Y-106969511D01*
X94475480Y-107365480D02*
X94475480Y-104053539D01*
X105029000Y-91440000D02*
X105029000Y-92316000D01*
%TO.N,5V*%
X106021600Y-82851600D02*
X106021600Y-82837890D01*
D41*
X93573600Y-104037600D02*
X93573600Y-105664000D01*
D36*
X62967480Y-82970480D02*
X60512554Y-82970480D01*
D37*
X47190000Y-90502500D02*
X47190000Y-88043500D01*
D36*
X60512554Y-82970480D02*
X60511074Y-82969000D01*
X49381500Y-84832100D02*
X49381500Y-85852000D01*
X51243120Y-82970480D02*
X49381500Y-84832100D01*
X103180400Y-89910400D02*
X103378000Y-90108000D01*
X105706000Y-82536000D02*
X105466000Y-82296000D01*
D37*
X47190000Y-88043500D02*
X49381500Y-85852000D01*
D36*
X104152520Y-91897520D02*
X104152520Y-92989520D01*
X106172000Y-86512400D02*
X106172000Y-83002000D01*
X59887446Y-82970480D02*
X51872554Y-82970480D01*
X51872554Y-82970480D02*
X51871074Y-82969000D01*
X105719710Y-82536000D02*
X105706000Y-82536000D01*
X63641960Y-82296000D02*
X62967480Y-82970480D01*
X106190000Y-86820000D02*
X106174800Y-86820000D01*
X51247446Y-82970480D02*
X51243120Y-82970480D01*
X106190000Y-86530400D02*
X106172000Y-86512400D01*
X103378000Y-91123000D02*
X104152520Y-91897520D01*
D41*
X93573600Y-105664000D02*
X93522800Y-105714800D01*
D36*
X106021600Y-82837890D02*
X105719710Y-82536000D01*
X106174800Y-86820000D02*
X106019600Y-86664800D01*
X103378000Y-90108000D02*
X103378000Y-91123000D01*
X106190000Y-86820000D02*
X106190000Y-86530400D01*
X101390000Y-89195000D02*
X102465000Y-89195000D01*
X102465000Y-89195000D02*
X103180400Y-89910400D01*
X51871074Y-82969000D02*
X51248926Y-82969000D01*
X104152520Y-92989520D02*
X105029000Y-93866000D01*
D37*
X48127500Y-91440000D02*
X47190000Y-90502500D01*
D36*
X59888926Y-82969000D02*
X59887446Y-82970480D01*
X60511074Y-82969000D02*
X59888926Y-82969000D01*
X51248926Y-82969000D02*
X51247446Y-82970480D01*
D37*
X49072800Y-85852000D02*
X49381500Y-85852000D01*
D36*
X106172000Y-83002000D02*
X106021600Y-82851600D01*
X105466000Y-82296000D02*
X63641960Y-82296000D01*
D37*
%TO.N,Net-(USB1-VBUS)*%
X55367700Y-94081600D02*
X55367700Y-95826100D01*
X55334200Y-95859600D02*
X59111600Y-95859600D01*
X55367700Y-95826100D02*
X55334200Y-95859600D01*
X59111600Y-95859600D02*
X60000000Y-96748000D01*
D36*
%TO.N,Net-(USB2-VBUS)*%
X74435000Y-101668100D02*
X74773300Y-102006400D01*
X74435000Y-99609723D02*
X77296723Y-96748000D01*
X77296723Y-96748000D02*
X80320000Y-96748000D01*
X74435000Y-100126800D02*
X74435000Y-101668100D01*
X74435000Y-100126800D02*
X74435000Y-99609723D01*
D41*
%TO.N,Net-(U1-#RESET)*%
X93523600Y-102437600D02*
X93573600Y-102387600D01*
D36*
X91846400Y-94882200D02*
X92063680Y-94882200D01*
X92063680Y-94882200D02*
X93200880Y-93745000D01*
D41*
X91846400Y-102437600D02*
X93523600Y-102437600D01*
D36*
X91846400Y-94882200D02*
X92620920Y-95656720D01*
X92620920Y-95656720D02*
X92620920Y-101663080D01*
X92620920Y-101663080D02*
X91846400Y-102437600D01*
X93200880Y-93745000D02*
X94190000Y-93745000D01*
%TO.N,Net-(C4-Pad2)*%
X92189511Y-96875311D02*
X92189511Y-100870635D01*
X91846400Y-96532200D02*
X92189511Y-96875311D01*
X92189511Y-100870635D02*
X91033600Y-102026546D01*
X91033600Y-102026546D02*
X91033600Y-103174800D01*
X91033600Y-103174800D02*
X91846400Y-103987600D01*
%TO.N,3V3*%
X54323957Y-101447080D02*
X53918077Y-101041200D01*
X99841000Y-93745000D02*
X101390000Y-93745000D01*
X101854000Y-84785200D02*
X101803200Y-84785200D01*
X53918077Y-101041200D02*
X51689130Y-101041200D01*
X75899500Y-85750400D02*
X75234800Y-85750400D01*
X58725320Y-101447080D02*
X54323957Y-101447080D01*
X51689130Y-101041200D02*
X51257200Y-101473130D01*
X103175400Y-88545000D02*
X103175400Y-87527800D01*
X101390000Y-88545000D02*
X103175400Y-88545000D01*
X101390000Y-88545000D02*
X100050000Y-88545000D01*
X66634888Y-88762312D02*
X66634888Y-91070000D01*
X98806000Y-92710000D02*
X99841000Y-93745000D01*
X103797400Y-84785200D02*
X101854000Y-84785200D01*
X61264800Y-95402400D02*
X65532000Y-91135200D01*
D37*
X52273200Y-105539300D02*
X53769500Y-105539300D01*
D36*
X75234800Y-85750400D02*
X74777600Y-85293200D01*
X100050000Y-88545000D02*
X98806000Y-89789000D01*
X102603480Y-94018969D02*
X102603480Y-95046480D01*
X103175400Y-87527800D02*
X103200200Y-87503000D01*
D37*
X53769500Y-105539300D02*
X53797200Y-105511600D01*
D36*
X51257200Y-104523300D02*
X52273200Y-105539300D01*
X103200200Y-87503000D02*
X103225600Y-87477600D01*
X70104000Y-85293200D02*
X66634888Y-88762312D01*
X105270600Y-83312000D02*
X103797400Y-84785200D01*
X66054088Y-91135200D02*
X65532000Y-91135200D01*
X74777600Y-85293200D02*
X70104000Y-85293200D01*
X103175400Y-88545000D02*
X104306000Y-88545000D01*
X51257200Y-101473130D02*
X51257200Y-104523300D01*
X102603480Y-95046480D02*
X103378000Y-95821000D01*
X61264800Y-95402400D02*
X61264800Y-98907600D01*
X104306000Y-88545000D02*
X104902000Y-89141000D01*
X98806000Y-89789000D02*
X98806000Y-92710000D01*
X61264800Y-98907600D02*
X58725320Y-101447080D01*
X102329511Y-93745000D02*
X102603480Y-94018969D01*
X101390000Y-93745000D02*
X102329511Y-93745000D01*
%TO.N,Net-(U1-X1)*%
X76314000Y-88773000D02*
X77636511Y-87450489D01*
X77636511Y-87450489D02*
X85836489Y-87450489D01*
X94444000Y-89195000D02*
X87581000Y-89195000D01*
X87581000Y-89195000D02*
X87286000Y-88900000D01*
X85836489Y-87450489D02*
X87286000Y-88900000D01*
%TO.N,Net-(U1-X2)*%
X80735000Y-90551000D02*
X82386000Y-88900000D01*
X88519000Y-90424000D02*
X83910000Y-90424000D01*
X77864000Y-90551000D02*
X80735000Y-90551000D01*
X89098000Y-89845000D02*
X88519000Y-90424000D01*
X83910000Y-90424000D02*
X82386000Y-88900000D01*
X94444000Y-89845000D02*
X89098000Y-89845000D01*
D37*
%TO.N,Net-(C8-Pad1)*%
X99200000Y-102279000D02*
X99200000Y-101267277D01*
D41*
X99931923Y-104495600D02*
X99415600Y-103979277D01*
X99200000Y-102988120D02*
X99200000Y-102279000D01*
D38*
X101460000Y-97976500D02*
X99568000Y-99868500D01*
D41*
X104000000Y-102279000D02*
X104000000Y-102705200D01*
D38*
X101460000Y-97790000D02*
X101460000Y-97976500D01*
D37*
X99200000Y-101267277D02*
X99568000Y-100899277D01*
D41*
X104000000Y-102705200D02*
X103849511Y-102855689D01*
X102870000Y-104495600D02*
X99931923Y-104495600D01*
X99415600Y-103979277D02*
X99415600Y-103203720D01*
X103849511Y-103516089D02*
X102870000Y-104495600D01*
X103849511Y-102855689D02*
X103849511Y-103516089D01*
X99415600Y-103203720D02*
X99200000Y-102988120D01*
D37*
X99568000Y-100899277D02*
X99568000Y-99868500D01*
D36*
%TO.N,HUB3V3*%
X80619600Y-94894400D02*
X77825600Y-94894400D01*
X89154000Y-85471000D02*
X91440000Y-87757000D01*
X76745800Y-93167200D02*
X75244288Y-93167200D01*
X76969012Y-86805888D02*
X77037350Y-86737550D01*
X81356800Y-93167200D02*
X81356800Y-94157200D01*
X95618511Y-86130391D02*
X95618511Y-88644511D01*
X77825600Y-94894400D02*
X76745800Y-93814600D01*
X92420600Y-84175600D02*
X94190000Y-85945000D01*
X95519000Y-91795000D02*
X95618511Y-91695489D01*
X76360012Y-87414888D02*
X72690000Y-87414888D01*
X76745800Y-93814600D02*
X76745800Y-93167200D01*
X79629000Y-85471000D02*
X79349600Y-85750400D01*
X91440000Y-87757000D02*
X91440000Y-88138000D01*
X94140489Y-88594511D02*
X94190000Y-88545000D01*
X95618511Y-91695489D02*
X95618511Y-88644511D01*
X92215000Y-84175600D02*
X92420600Y-84175600D01*
X77037350Y-86737550D02*
X78024500Y-85750400D01*
X77037350Y-86737550D02*
X76360012Y-87414888D01*
X79349600Y-85750400D02*
X78024500Y-85750400D01*
X81356800Y-94157200D02*
X80619600Y-94894400D01*
X95618511Y-88644511D02*
X95519000Y-88545000D01*
X95433120Y-85945000D02*
X95618511Y-86130391D01*
X79629000Y-85471000D02*
X89154000Y-85471000D01*
X94444000Y-91795000D02*
X95519000Y-91795000D01*
X94444000Y-85945000D02*
X95433120Y-85945000D01*
X75244288Y-93167200D02*
X72655088Y-95756400D01*
X95519000Y-88545000D02*
X94444000Y-88545000D01*
X91896511Y-88594511D02*
X94140489Y-88594511D01*
X91440000Y-88138000D02*
X91896511Y-88594511D01*
D42*
%TO.N,Net-(C13-Pad1)*%
X47490090Y-103708030D02*
X48120000Y-103078120D01*
X42101489Y-99632489D02*
X41562000Y-99093000D01*
X48120000Y-103078120D02*
X48120000Y-102279000D01*
X43307000Y-99229255D02*
X43307000Y-98471500D01*
X41562000Y-99093000D02*
X41562000Y-98184000D01*
X43320000Y-100048723D02*
X42903766Y-99632489D01*
X43320000Y-103010000D02*
X44018030Y-103708030D01*
X42903766Y-99632489D02*
X42101489Y-99632489D01*
X43320000Y-102279000D02*
X43320000Y-100048723D01*
X44018030Y-103708030D02*
X47490090Y-103708030D01*
X43320000Y-102279000D02*
X43320000Y-103010000D01*
X42903766Y-99632489D02*
X43307000Y-99229255D01*
D37*
%TO.N,Net-(D1-K)*%
X55168800Y-103796600D02*
X52284100Y-103796600D01*
X52284100Y-103796600D02*
X52273200Y-103807500D01*
D39*
%TO.N,FUSED VCC*%
X97016500Y-97743500D02*
X96190000Y-98570000D01*
D37*
X45106500Y-85852000D02*
X44725500Y-86233000D01*
D39*
X43307000Y-95046200D02*
X43307000Y-91742112D01*
D37*
X43307000Y-90797888D02*
X42834888Y-91270000D01*
X43307000Y-86169000D02*
X43307000Y-90797888D01*
X44725500Y-86233000D02*
X43371000Y-86233000D01*
X43371000Y-86233000D02*
X43307000Y-86169000D01*
D39*
X43307000Y-96346500D02*
X43307000Y-95046200D01*
X72648300Y-102006400D02*
X72648300Y-105863212D01*
X53242700Y-94081600D02*
X51023288Y-94081600D01*
D37*
X52273200Y-101932500D02*
X53617100Y-101932500D01*
D39*
X99568000Y-97743500D02*
X97016500Y-97743500D01*
X72648300Y-105863212D02*
X72655088Y-105870000D01*
X43307000Y-91742112D02*
X42834888Y-91270000D01*
D37*
X53617100Y-101932500D02*
X53695600Y-101854000D01*
D39*
X51023288Y-94081600D02*
X48734888Y-96370000D01*
D37*
%TO.N,Net-(D2-K)*%
X52273200Y-107414300D02*
X55141100Y-107414300D01*
X55141100Y-107414300D02*
X55168800Y-107442000D01*
D41*
%TO.N,Net-(L1-Pad1)*%
X57200800Y-86461600D02*
X58280000Y-87540800D01*
D37*
X53480000Y-88870000D02*
X53480000Y-90517500D01*
D42*
X53480000Y-88870000D02*
X53490011Y-88859989D01*
D41*
X53480000Y-88870000D02*
X53480000Y-87744000D01*
D42*
X58269989Y-88859989D02*
X58280000Y-88870000D01*
D37*
X53480000Y-90517500D02*
X52557500Y-91440000D01*
D41*
X53480000Y-87744000D02*
X54762400Y-86461600D01*
X54762400Y-86461600D02*
X57200800Y-86461600D01*
X58280000Y-87540800D02*
X58280000Y-88870000D01*
D37*
X52557500Y-91440000D02*
X50252500Y-91440000D01*
D36*
%TO.N,Net-(USB3-CC1)*%
X57130000Y-89896000D02*
X58205511Y-90971511D01*
X59548889Y-90971511D02*
X62140000Y-88380400D01*
X58205511Y-90971511D02*
X59548889Y-90971511D01*
X57130000Y-88870000D02*
X57130000Y-89896000D01*
X62140000Y-88380400D02*
X62140000Y-85745000D01*
%TO.N,Net-(USB3-CC2)*%
X49847000Y-90070000D02*
X49847000Y-88852000D01*
X54130000Y-88870000D02*
X54130000Y-89842400D01*
X54130000Y-89842400D02*
X54711600Y-90424000D01*
X49847000Y-88852000D02*
X49815000Y-88820000D01*
%TO.N,Net-(U1-PSELF)*%
X101390000Y-93095000D02*
X102302000Y-93095000D01*
X102302000Y-93095000D02*
X103378000Y-94171000D01*
%TO.N,Net-(U1-PGANG)*%
X103050000Y-92445000D02*
X101390000Y-92445000D01*
X103378000Y-92773000D02*
X103050000Y-92445000D01*
%TO.N,Net-(U1-RREF)*%
X94444000Y-87895000D02*
X92462505Y-87895000D01*
X92462505Y-87895000D02*
X92444989Y-87877484D01*
X92444989Y-87895011D02*
X92329000Y-88011000D01*
X92444989Y-87877484D02*
X92444989Y-87895011D01*
X99124000Y-83312000D02*
X98298000Y-83312000D01*
%TO.N,OVCUR1*%
X42481000Y-84519000D02*
X43307000Y-84519000D01*
X41656000Y-84519000D02*
X42481000Y-84519000D01*
X101390000Y-90495000D02*
X99766000Y-90495000D01*
X99766000Y-90495000D02*
X99758500Y-90487500D01*
%TO.N,Net-(USB4-CC1)*%
X100350000Y-103612000D02*
X100350000Y-102279000D01*
X100253800Y-103708200D02*
X100350000Y-103612000D01*
X97586800Y-104698800D02*
X97041200Y-104698800D01*
X97041200Y-104698800D02*
X95250000Y-106490000D01*
%TO.N,Net-(USB4-CC2)*%
X103350000Y-102279000D02*
X103350000Y-100295000D01*
X103350000Y-100295000D02*
X103442000Y-100203000D01*
%TO.N,Net-(USB5-CC1)*%
X44470000Y-100096000D02*
X45085000Y-99481000D01*
X44470000Y-100096000D02*
X44470000Y-102279000D01*
X45085000Y-99481000D02*
X45085000Y-98234000D01*
%TO.N,Net-(USB5-CC2)*%
X47470000Y-102279000D02*
X47470000Y-100365000D01*
X47470000Y-100365000D02*
X47308000Y-100203000D01*
%TO.N,D2_P*%
X46445000Y-101383999D02*
X46470000Y-101408999D01*
X69655198Y-84650520D02*
X61189318Y-93116400D01*
X92681720Y-87144520D02*
X91513320Y-87144520D01*
X45540391Y-103208511D02*
X46399609Y-103208511D01*
X89019320Y-84650520D02*
X69655198Y-84650520D01*
X45470000Y-103138120D02*
X45540391Y-103208511D01*
X45470000Y-102279000D02*
X45470000Y-103138120D01*
X47346318Y-93116400D02*
X46445000Y-94017718D01*
X61189318Y-93116400D02*
X47346318Y-93116400D01*
X46470000Y-103138120D02*
X46470000Y-102279000D01*
X94444000Y-87245000D02*
X92782200Y-87245000D01*
X46399609Y-103208511D02*
X46470000Y-103138120D01*
X92782200Y-87245000D02*
X92681720Y-87144520D01*
X46470000Y-101408999D02*
X46470000Y-102279000D01*
X46445000Y-94017718D02*
X46445000Y-101383999D01*
X91513320Y-87144520D02*
X89019320Y-84650520D01*
%TO.N,D3_P*%
X72474598Y-92245120D02*
X69850718Y-94869000D01*
X93031499Y-91045000D02*
X91679282Y-91045000D01*
X94444000Y-91145000D02*
X93131499Y-91145000D01*
X63725001Y-95252401D02*
X63725001Y-95973001D01*
X93131499Y-91145000D02*
X93031499Y-91045000D01*
X91679282Y-91045000D02*
X90479161Y-92245120D01*
X90479161Y-92245120D02*
X72474598Y-92245120D01*
X64108402Y-94869000D02*
X63725001Y-95252401D01*
X69850718Y-94869000D02*
X64108402Y-94869000D01*
X63725001Y-95973001D02*
X64500000Y-96748000D01*
%TO.N,D4_P*%
X84045001Y-94327199D02*
X84045001Y-95973001D01*
X93131499Y-93095000D02*
X93031499Y-92995000D01*
X92487000Y-92995000D02*
X91502000Y-93980000D01*
X84045001Y-95973001D02*
X84820000Y-96748000D01*
X84392200Y-93980000D02*
X84045001Y-94327199D01*
X93031499Y-92995000D02*
X92487000Y-92995000D01*
X94444000Y-93095000D02*
X93131499Y-93095000D01*
X91502000Y-93980000D02*
X84392200Y-93980000D01*
%TO.N,D0_P*%
X56828198Y-91498480D02*
X57218520Y-91498480D01*
X98015000Y-84234800D02*
X98015000Y-86266800D01*
X99093200Y-87345000D02*
X99977499Y-87345000D01*
X56105000Y-89765001D02*
X56105000Y-90775282D01*
X56997600Y-91498480D02*
X57218520Y-91498480D01*
X100077499Y-87245000D02*
X101390000Y-87245000D01*
X60011802Y-91498480D02*
X68677282Y-82833000D01*
X57218520Y-91498480D02*
X60011802Y-91498480D01*
X56130000Y-89740001D02*
X56105000Y-89765001D01*
X55130000Y-87670000D02*
X55130000Y-88870000D01*
X56990000Y-90770000D02*
X56790000Y-90770000D01*
X56130000Y-88870000D02*
X56130000Y-89740001D01*
X99977499Y-87345000D02*
X100077499Y-87245000D01*
X68677282Y-82833000D02*
X96613200Y-82833000D01*
X56447198Y-91117480D02*
X56828198Y-91498480D01*
X56784718Y-90775282D02*
X56105000Y-90775282D01*
X98015000Y-86266800D02*
X99093200Y-87345000D01*
X96613200Y-82833000D02*
X98015000Y-84234800D01*
X56105000Y-90775282D02*
X56447198Y-91117480D01*
X56790000Y-90770000D02*
X56784718Y-90775282D01*
%TO.N,D1_P*%
X102802501Y-86045000D02*
X102702501Y-85945000D01*
X102801480Y-99128520D02*
X105087479Y-99128520D01*
X105087479Y-99128520D02*
X106172000Y-98044000D01*
X101350000Y-101419880D02*
X101350000Y-102279000D01*
X101325000Y-100605000D02*
X102801480Y-99128520D01*
X106426000Y-97790000D02*
X106426000Y-88581800D01*
X101350000Y-101408999D02*
X101325000Y-101383999D01*
X102702501Y-85945000D02*
X101390000Y-85945000D01*
X102149120Y-101219000D02*
X101550880Y-101219000D01*
X101350000Y-102279000D02*
X101350000Y-101408999D01*
X106172000Y-98044000D02*
X106426000Y-97790000D01*
X106426000Y-88581800D02*
X103889200Y-86045000D01*
X101550880Y-101219000D02*
X101350000Y-101419880D01*
X102350000Y-102279000D02*
X102350000Y-101419880D01*
X101325000Y-101383999D02*
X101325000Y-100605000D01*
X102350000Y-101419880D02*
X102149120Y-101219000D01*
X103889200Y-86045000D02*
X102802501Y-86045000D01*
%TO.N,D2_N*%
X45970000Y-101419880D02*
X45899609Y-101349489D01*
X92679800Y-86695000D02*
X91699517Y-86695000D01*
X92779800Y-86595000D02*
X92679800Y-86695000D01*
X45970000Y-102279000D02*
X45970000Y-101419880D01*
X45899609Y-101349489D02*
X45040391Y-101349489D01*
X91699517Y-86695000D02*
X89205517Y-84201000D01*
X89205517Y-84201000D02*
X69469000Y-84201000D01*
X45995480Y-93831520D02*
X45995480Y-101394400D01*
X61003120Y-92666880D02*
X47160121Y-92666880D01*
X94444000Y-86595000D02*
X92779800Y-86595000D01*
X47160121Y-92666880D02*
X45995480Y-93831520D01*
X44970000Y-101419880D02*
X44970000Y-102279000D01*
X45995480Y-101394400D02*
X45970000Y-101419880D01*
X45040391Y-101349489D02*
X44970000Y-101419880D01*
X69469000Y-84201000D02*
X61003120Y-92666880D01*
%TO.N,D3_N*%
X93131499Y-90495000D02*
X93031499Y-90595000D01*
X90292964Y-91795600D02*
X72288400Y-91795600D01*
X72288400Y-91795600D02*
X69664520Y-94419480D01*
X63758320Y-94419480D02*
X63274999Y-94902801D01*
X93031499Y-90595000D02*
X91493564Y-90595000D01*
X63274999Y-95973001D02*
X62500000Y-96748000D01*
X91493564Y-90595000D02*
X90292964Y-91795600D01*
X94444000Y-90495000D02*
X93131499Y-90495000D01*
X69664520Y-94419480D02*
X63758320Y-94419480D01*
X63274999Y-94902801D02*
X63274999Y-95973001D01*
%TO.N,D4_N*%
X84206002Y-93530480D02*
X83595481Y-94141002D01*
X83595481Y-95972519D02*
X82820000Y-96748000D01*
X83595481Y-94141002D02*
X83595481Y-95972519D01*
X92240000Y-92545000D02*
X91254520Y-93530480D01*
X91254520Y-93530480D02*
X84206002Y-93530480D01*
X93031499Y-92545000D02*
X92240000Y-92545000D01*
X93131499Y-92445000D02*
X93031499Y-92545000D01*
X94444000Y-92445000D02*
X93131499Y-92445000D01*
%TO.N,D0_N*%
X55655000Y-89765001D02*
X55655000Y-90961000D01*
X100077499Y-87895000D02*
X101390000Y-87895000D01*
X96426800Y-83283000D02*
X97565000Y-84421200D01*
X55655000Y-90961000D02*
X56642000Y-91948000D01*
X55630000Y-88870000D02*
X55630000Y-89740001D01*
X68863000Y-83283000D02*
X96426800Y-83283000D01*
X60198000Y-91948000D02*
X68863000Y-83283000D01*
X97565000Y-86453200D02*
X98906800Y-87795000D01*
X99977499Y-87795000D02*
X100077499Y-87895000D01*
X56642000Y-91948000D02*
X60198000Y-91948000D01*
X55630000Y-89740001D02*
X55655000Y-89765001D01*
X98906800Y-87795000D02*
X99977499Y-87795000D01*
X97565000Y-84421200D02*
X97565000Y-86453200D01*
%TO.N,D1_N*%
X103702800Y-86495000D02*
X102802501Y-86495000D01*
X102802501Y-86495000D02*
X102702501Y-86595000D01*
X101850000Y-103138120D02*
X101850000Y-102279000D01*
X105976480Y-88768680D02*
X103702800Y-86495000D01*
X101779609Y-103208511D02*
X101850000Y-103138120D01*
X100875000Y-100419282D02*
X102615282Y-98679000D01*
X102702501Y-86595000D02*
X101390000Y-86595000D01*
X102615282Y-98679000D02*
X104901282Y-98679000D01*
X100850000Y-101408999D02*
X100875000Y-101383999D01*
X105976480Y-97603802D02*
X105976480Y-88768680D01*
X100920391Y-103208511D02*
X101779609Y-103208511D01*
X100875000Y-101383999D02*
X100875000Y-100419282D01*
X104901282Y-98679000D02*
X105976480Y-97603802D01*
X100850000Y-102279000D02*
X100850000Y-103138120D01*
X100850000Y-102279000D02*
X100850000Y-101408999D01*
X100850000Y-103138120D02*
X100920391Y-103208511D01*
%TD*%
%TA.AperFunction,Conductor*%
%TO.N,GND*%
G36*
X62788842Y-82072502D02*
G01*
X62835335Y-82126158D01*
X62845439Y-82196432D01*
X62815945Y-82261012D01*
X62809816Y-82267595D01*
X62752336Y-82325075D01*
X62690024Y-82359101D01*
X62663241Y-82361980D01*
X60610686Y-82361980D01*
X60594240Y-82360902D01*
X60591186Y-82360500D01*
X60591185Y-82360500D01*
X59808815Y-82360500D01*
X59808814Y-82360500D01*
X59805760Y-82360902D01*
X59789314Y-82361980D01*
X51970686Y-82361980D01*
X51954240Y-82360902D01*
X51951186Y-82360500D01*
X51951185Y-82360500D01*
X51168815Y-82360500D01*
X51168813Y-82360500D01*
X51168262Y-82360572D01*
X51085628Y-82382713D01*
X51085628Y-82382714D01*
X51008247Y-82403448D01*
X51008242Y-82403450D01*
X50869495Y-82483556D01*
X50869485Y-82483564D01*
X49746454Y-83606595D01*
X49684142Y-83640621D01*
X49657359Y-83643500D01*
X49018455Y-83643500D01*
X48914574Y-83654112D01*
X48746261Y-83709885D01*
X48595347Y-83802970D01*
X48595341Y-83802975D01*
X48469975Y-83928341D01*
X48469970Y-83928347D01*
X48376885Y-84079262D01*
X48321113Y-84247572D01*
X48321112Y-84247579D01*
X48310500Y-84351446D01*
X48310500Y-85554579D01*
X48307787Y-85580583D01*
X48305376Y-85592009D01*
X48295370Y-85616169D01*
X48264300Y-85772370D01*
X48264300Y-85786759D01*
X48261587Y-85799622D01*
X48250746Y-85819776D01*
X48244298Y-85841739D01*
X48228171Y-85861750D01*
X48227957Y-85862148D01*
X48227764Y-85862254D01*
X48227395Y-85862713D01*
X46561999Y-87528108D01*
X46561994Y-87528115D01*
X46473516Y-87660531D01*
X46445363Y-87728500D01*
X46412572Y-87807663D01*
X46412570Y-87807668D01*
X46381500Y-87963867D01*
X46381500Y-90582132D01*
X46403091Y-90690679D01*
X46412570Y-90738331D01*
X46432263Y-90785873D01*
X46473516Y-90885468D01*
X46561997Y-91017889D01*
X46561999Y-91017891D01*
X47144595Y-91600487D01*
X47158838Y-91626570D01*
X47175505Y-91651180D01*
X47176797Y-91659459D01*
X47178621Y-91662799D01*
X47181463Y-91686545D01*
X47181500Y-91688088D01*
X47181501Y-91869710D01*
X47187230Y-91925798D01*
X47187349Y-91930707D01*
X47179388Y-91960453D01*
X47173758Y-91990740D01*
X47170299Y-91994415D01*
X47168995Y-91999290D01*
X47146209Y-92020016D01*
X47125104Y-92042445D01*
X47119399Y-92044402D01*
X47116475Y-92047063D01*
X47106996Y-92048659D01*
X47087727Y-92055273D01*
X47087987Y-92056243D01*
X47080011Y-92058380D01*
X47080010Y-92058380D01*
X47039958Y-92069112D01*
X47017603Y-92075102D01*
X46925250Y-92099847D01*
X46925243Y-92099850D01*
X46786496Y-92179956D01*
X46786486Y-92179964D01*
X45508564Y-93457885D01*
X45508556Y-93457895D01*
X45428450Y-93596642D01*
X45428448Y-93596647D01*
X45399817Y-93703500D01*
X45399817Y-93703501D01*
X45399816Y-93703500D01*
X45386980Y-93751408D01*
X45386980Y-95575829D01*
X45366978Y-95643950D01*
X45350075Y-95664924D01*
X45339000Y-95675999D01*
X45339000Y-96458000D01*
X45318998Y-96526121D01*
X45265342Y-96572614D01*
X45213000Y-96584000D01*
X44957000Y-96584000D01*
X44888879Y-96563998D01*
X44842386Y-96510342D01*
X44831000Y-96458000D01*
X44831000Y-95675999D01*
X44752778Y-95676000D01*
X44681446Y-95682481D01*
X44517292Y-95733634D01*
X44517290Y-95733634D01*
X44465607Y-95764878D01*
X44431527Y-95773875D01*
X44397049Y-95783004D01*
X44397005Y-95782989D01*
X44396963Y-95783001D01*
X44363840Y-95772278D01*
X44329489Y-95761185D01*
X44329453Y-95761147D01*
X44329417Y-95761136D01*
X44303024Y-95736982D01*
X44297639Y-95730420D01*
X44262600Y-95673613D01*
X44198026Y-95609039D01*
X44194100Y-95604255D01*
X44182545Y-95577047D01*
X44168379Y-95551105D01*
X44167312Y-95541179D01*
X44166347Y-95538907D01*
X44166789Y-95536320D01*
X44165500Y-95524322D01*
X44165500Y-95372685D01*
X44175092Y-95324466D01*
X44180585Y-95311204D01*
X44180587Y-95311200D01*
X44215500Y-95135679D01*
X44215500Y-94956721D01*
X44180587Y-94781200D01*
X44175091Y-94767931D01*
X44165500Y-94719713D01*
X44165500Y-92601239D01*
X44185502Y-92533118D01*
X44239158Y-92486625D01*
X44309432Y-92476521D01*
X44330437Y-92481406D01*
X44528593Y-92545791D01*
X44731949Y-92578000D01*
X44937827Y-92578000D01*
X45141184Y-92545791D01*
X45336981Y-92482173D01*
X45336987Y-92482170D01*
X45520429Y-92388701D01*
X45563260Y-92357582D01*
X44875677Y-91670000D01*
X44887549Y-91670000D01*
X44989282Y-91642741D01*
X45080494Y-91590080D01*
X45154968Y-91515606D01*
X45207629Y-91424394D01*
X45234888Y-91322661D01*
X45234888Y-91310791D01*
X45922469Y-91998372D01*
X45922470Y-91998372D01*
X45953589Y-91955541D01*
X46047058Y-91772099D01*
X46047061Y-91772093D01*
X46110679Y-91576296D01*
X46142888Y-91372938D01*
X46142888Y-91167061D01*
X46110679Y-90963703D01*
X46047061Y-90767906D01*
X46047058Y-90767900D01*
X45953587Y-90584454D01*
X45922471Y-90541626D01*
X45922470Y-90541626D01*
X45234888Y-91229208D01*
X45234888Y-91217339D01*
X45207629Y-91115606D01*
X45154968Y-91024394D01*
X45080494Y-90949920D01*
X44989282Y-90897259D01*
X44887549Y-90870000D01*
X44875678Y-90870000D01*
X45563260Y-90182417D01*
X45563260Y-90182416D01*
X45520429Y-90151298D01*
X45520428Y-90151297D01*
X45336987Y-90057829D01*
X45336981Y-90057826D01*
X45141182Y-89994208D01*
X45141186Y-89994208D01*
X44937827Y-89962000D01*
X44731949Y-89962000D01*
X44528591Y-89994208D01*
X44332794Y-90057826D01*
X44332787Y-90057829D01*
X44298701Y-90075197D01*
X44228924Y-90088300D01*
X44163140Y-90061599D01*
X44122234Y-90003571D01*
X44115500Y-89962929D01*
X44115500Y-87999314D01*
X44135502Y-87931193D01*
X44189158Y-87884700D01*
X44259432Y-87874596D01*
X44313655Y-87897901D01*
X44314102Y-87897177D01*
X44319002Y-87900199D01*
X44319650Y-87900478D01*
X44320346Y-87901028D01*
X44320348Y-87901030D01*
X44471262Y-87994115D01*
X44639574Y-88049887D01*
X44743455Y-88060500D01*
X45469544Y-88060499D01*
X45573426Y-88049887D01*
X45741738Y-87994115D01*
X45892652Y-87901030D01*
X46018030Y-87775652D01*
X46111115Y-87624738D01*
X46166887Y-87456426D01*
X46177500Y-87352545D01*
X46177499Y-84351456D01*
X46166887Y-84247574D01*
X46111115Y-84079262D01*
X46018030Y-83928348D01*
X46018029Y-83928347D01*
X46018024Y-83928341D01*
X45892658Y-83802975D01*
X45892652Y-83802970D01*
X45833437Y-83766446D01*
X45741738Y-83709885D01*
X45657582Y-83681999D01*
X45573427Y-83654113D01*
X45573420Y-83654112D01*
X45469553Y-83643500D01*
X44743455Y-83643500D01*
X44639574Y-83654112D01*
X44471261Y-83709885D01*
X44320347Y-83802970D01*
X44320345Y-83802971D01*
X44283238Y-83840079D01*
X44220926Y-83874103D01*
X44150110Y-83869037D01*
X44105049Y-83840077D01*
X44022160Y-83757188D01*
X44022155Y-83757184D01*
X43935799Y-83704980D01*
X43874913Y-83668173D01*
X43874912Y-83668172D01*
X43874911Y-83668172D01*
X43874906Y-83668170D01*
X43710646Y-83616986D01*
X43658723Y-83612268D01*
X43639265Y-83610500D01*
X43639262Y-83610500D01*
X42974738Y-83610500D01*
X42903355Y-83616986D01*
X42903344Y-83616988D01*
X42816493Y-83644051D01*
X42752371Y-83645106D01*
X42752070Y-83646621D01*
X42746002Y-83645414D01*
X42746000Y-83645413D01*
X42642002Y-83624726D01*
X42570481Y-83610500D01*
X42570479Y-83610500D01*
X42391521Y-83610500D01*
X42391515Y-83610500D01*
X42209930Y-83646620D01*
X42209463Y-83644273D01*
X42149072Y-83644809D01*
X42146012Y-83643898D01*
X42059646Y-83616986D01*
X42007723Y-83612268D01*
X41988265Y-83610500D01*
X41988262Y-83610500D01*
X41323738Y-83610500D01*
X41252353Y-83616986D01*
X41252352Y-83616986D01*
X41088093Y-83668170D01*
X41088088Y-83668172D01*
X40940844Y-83757184D01*
X40940839Y-83757188D01*
X40819188Y-83878839D01*
X40819184Y-83878844D01*
X40730172Y-84026088D01*
X40730170Y-84026093D01*
X40678986Y-84190353D01*
X40672500Y-84261737D01*
X40672500Y-84776261D01*
X40678986Y-84847646D01*
X40678986Y-84847647D01*
X40730170Y-85011906D01*
X40730172Y-85011911D01*
X40819184Y-85159155D01*
X40819188Y-85159160D01*
X40915287Y-85255259D01*
X40949313Y-85317571D01*
X40944248Y-85388386D01*
X40915287Y-85433449D01*
X40819586Y-85529149D01*
X40819578Y-85529159D01*
X40730633Y-85676293D01*
X40679481Y-85840446D01*
X40679481Y-85840447D01*
X40673000Y-85911777D01*
X40673000Y-85915000D01*
X41530000Y-85915000D01*
X41598121Y-85935002D01*
X41644614Y-85988658D01*
X41656000Y-86041000D01*
X41656000Y-86169000D01*
X41784000Y-86169000D01*
X41852121Y-86189002D01*
X41898614Y-86242658D01*
X41910000Y-86295000D01*
X41910000Y-87076999D01*
X41988222Y-87076999D01*
X42059553Y-87070518D01*
X42223707Y-87019365D01*
X42307315Y-86968823D01*
X42375959Y-86950698D01*
X42443505Y-86972563D01*
X42488508Y-87027475D01*
X42498500Y-87076651D01*
X42498500Y-89835500D01*
X42478498Y-89903621D01*
X42424842Y-89950114D01*
X42372500Y-89961500D01*
X41986238Y-89961500D01*
X41925691Y-89968009D01*
X41925683Y-89968011D01*
X41788685Y-90019110D01*
X41788680Y-90019112D01*
X41671626Y-90106738D01*
X41584000Y-90223792D01*
X41583998Y-90223797D01*
X41532899Y-90360795D01*
X41532897Y-90360803D01*
X41526388Y-90421350D01*
X41526388Y-92118649D01*
X41532897Y-92179196D01*
X41532899Y-92179204D01*
X41583998Y-92316202D01*
X41584000Y-92316207D01*
X41671626Y-92433261D01*
X41788680Y-92520887D01*
X41788682Y-92520888D01*
X41788684Y-92520889D01*
X41821471Y-92533118D01*
X41925683Y-92571988D01*
X41925691Y-92571990D01*
X41986238Y-92578499D01*
X41986243Y-92578499D01*
X41986250Y-92578500D01*
X42322500Y-92578500D01*
X42390621Y-92598502D01*
X42437114Y-92652158D01*
X42448500Y-92704500D01*
X42448500Y-94719713D01*
X42438909Y-94767931D01*
X42433415Y-94781193D01*
X42433413Y-94781199D01*
X42398500Y-94956718D01*
X42398500Y-95135681D01*
X42433413Y-95311199D01*
X42433414Y-95311204D01*
X42438908Y-95324466D01*
X42440561Y-95332775D01*
X42443396Y-95337187D01*
X42448500Y-95372685D01*
X42448500Y-95524322D01*
X42428498Y-95592443D01*
X42411595Y-95613417D01*
X42351405Y-95673606D01*
X42351398Y-95673615D01*
X42325112Y-95716231D01*
X42272325Y-95763709D01*
X42202250Y-95775111D01*
X42151726Y-95757324D01*
X42123890Y-95740154D01*
X42123886Y-95740153D01*
X41961241Y-95686257D01*
X41961229Y-95686255D01*
X41860852Y-95676000D01*
X41816000Y-95676000D01*
X41816000Y-96508000D01*
X41795998Y-96576121D01*
X41742342Y-96622614D01*
X41690000Y-96634000D01*
X41562000Y-96634000D01*
X41562000Y-96762000D01*
X41541998Y-96830121D01*
X41488342Y-96876614D01*
X41436000Y-96888000D01*
X40579000Y-96888000D01*
X40579000Y-96907852D01*
X40589255Y-97008229D01*
X40589257Y-97008241D01*
X40643152Y-97170884D01*
X40733109Y-97316728D01*
X40733114Y-97316734D01*
X40735932Y-97319552D01*
X40737248Y-97321963D01*
X40737662Y-97322486D01*
X40737572Y-97322556D01*
X40769958Y-97381864D01*
X40764893Y-97452679D01*
X40735932Y-97497742D01*
X40732720Y-97500953D01*
X40732715Y-97500959D01*
X40642698Y-97646899D01*
X40588763Y-97809666D01*
X40578500Y-97910119D01*
X40578500Y-98457880D01*
X40578499Y-98457880D01*
X40588763Y-98558333D01*
X40588764Y-98558336D01*
X40642698Y-98721101D01*
X40732715Y-98867040D01*
X40816596Y-98950921D01*
X40830094Y-98975641D01*
X40846486Y-98998561D01*
X40848226Y-99008847D01*
X40850620Y-99013231D01*
X40853345Y-99033763D01*
X40853500Y-99036882D01*
X40853500Y-99162782D01*
X40860031Y-99195613D01*
X40861836Y-99204691D01*
X40861837Y-99204696D01*
X40880591Y-99298981D01*
X40880726Y-99299658D01*
X40880727Y-99299662D01*
X40934133Y-99428598D01*
X40934134Y-99428600D01*
X40982972Y-99501690D01*
X41011672Y-99544643D01*
X41649847Y-100182817D01*
X41765889Y-100260354D01*
X41841419Y-100291639D01*
X41894827Y-100313762D01*
X42031708Y-100340989D01*
X42485500Y-100340989D01*
X42553621Y-100360991D01*
X42600114Y-100414647D01*
X42611500Y-100466989D01*
X42611500Y-101354233D01*
X42602145Y-101401877D01*
X42596040Y-101416822D01*
X42569111Y-101452796D01*
X42518011Y-101589799D01*
X42515376Y-101614307D01*
X42508645Y-101630787D01*
X42497157Y-101645186D01*
X42490109Y-101662204D01*
X42475476Y-101672363D01*
X42464369Y-101686287D01*
X42446921Y-101692189D01*
X42431791Y-101702695D01*
X42413989Y-101703330D01*
X42397117Y-101709039D01*
X42379247Y-101704571D01*
X42360840Y-101705229D01*
X42345521Y-101696140D01*
X42328240Y-101691820D01*
X42315621Y-101678400D01*
X42299782Y-101669002D01*
X42291808Y-101653074D01*
X42279607Y-101640097D01*
X42276247Y-101621986D01*
X42268002Y-101605515D01*
X42266000Y-101583143D01*
X42266000Y-101191000D01*
X42171402Y-101191000D01*
X42110906Y-101197505D01*
X41974035Y-101248555D01*
X41974034Y-101248555D01*
X41857096Y-101336095D01*
X41844458Y-101352977D01*
X41787621Y-101395522D01*
X41716805Y-101400585D01*
X41695375Y-101393874D01*
X41679594Y-101387337D01*
X41679584Y-101387334D01*
X41494407Y-101350500D01*
X41494404Y-101350500D01*
X41305596Y-101350500D01*
X41305592Y-101350500D01*
X41120415Y-101387334D01*
X41120410Y-101387336D01*
X40945980Y-101459588D01*
X40788996Y-101564481D01*
X40788989Y-101564486D01*
X40655486Y-101697989D01*
X40655481Y-101697996D01*
X40550588Y-101854980D01*
X40478336Y-102029410D01*
X40478334Y-102029415D01*
X40441500Y-102214592D01*
X40441500Y-103503407D01*
X40465091Y-103622005D01*
X40478334Y-103688584D01*
X40550588Y-103863020D01*
X40655484Y-104020008D01*
X40788992Y-104153516D01*
X40945980Y-104258412D01*
X41120416Y-104330666D01*
X41305596Y-104367500D01*
X41305597Y-104367500D01*
X41494403Y-104367500D01*
X41494404Y-104367500D01*
X41679584Y-104330666D01*
X41854020Y-104258412D01*
X42011008Y-104153516D01*
X42144516Y-104020008D01*
X42249412Y-103863020D01*
X42321666Y-103688584D01*
X42358500Y-103503404D01*
X42358500Y-103202429D01*
X42367286Y-103172506D01*
X42373914Y-103142043D01*
X42377194Y-103138762D01*
X42378502Y-103134309D01*
X42402071Y-103113885D01*
X42424117Y-103091841D01*
X42428651Y-103090854D01*
X42432158Y-103087816D01*
X42463023Y-103083378D01*
X42493491Y-103076751D01*
X42497838Y-103078372D01*
X42502432Y-103077712D01*
X42530793Y-103090664D01*
X42560011Y-103101563D01*
X42564512Y-103106064D01*
X42567012Y-103107206D01*
X42585363Y-103126916D01*
X42585367Y-103126920D01*
X42590899Y-103134309D01*
X42616594Y-103168635D01*
X42635560Y-103211156D01*
X42636931Y-103210741D01*
X42638727Y-103216663D01*
X42641046Y-103222261D01*
X42654369Y-103254427D01*
X42692135Y-103345601D01*
X42738952Y-103415668D01*
X42762715Y-103451232D01*
X42769672Y-103461643D01*
X43467702Y-104159672D01*
X43566388Y-104258358D01*
X43573856Y-104263348D01*
X43682429Y-104335895D01*
X43735837Y-104358016D01*
X43811368Y-104389303D01*
X43948249Y-104416530D01*
X43948250Y-104416530D01*
X47559871Y-104416530D01*
X47559872Y-104416530D01*
X47647770Y-104399046D01*
X47696752Y-104389303D01*
X47734517Y-104373660D01*
X47825691Y-104335895D01*
X47941733Y-104258358D01*
X48670328Y-103529763D01*
X48747865Y-103413721D01*
X48775881Y-103346083D01*
X48801273Y-103284782D01*
X48820189Y-103189678D01*
X48821667Y-103184559D01*
X48828685Y-103173524D01*
X48841861Y-103143979D01*
X48854635Y-103126915D01*
X48911472Y-103084372D01*
X48982288Y-103079310D01*
X49044599Y-103113337D01*
X49078622Y-103175651D01*
X49081500Y-103202429D01*
X49081500Y-103503407D01*
X49105091Y-103622005D01*
X49118334Y-103688584D01*
X49190588Y-103863020D01*
X49295484Y-104020008D01*
X49428992Y-104153516D01*
X49585980Y-104258412D01*
X49760416Y-104330666D01*
X49945596Y-104367500D01*
X49945597Y-104367500D01*
X50134403Y-104367500D01*
X50134404Y-104367500D01*
X50319584Y-104330666D01*
X50474482Y-104266504D01*
X50545071Y-104258915D01*
X50608558Y-104290694D01*
X50644786Y-104351752D01*
X50648700Y-104382913D01*
X50648700Y-104443190D01*
X50648700Y-104603410D01*
X50690168Y-104758173D01*
X50690169Y-104758175D01*
X50690170Y-104758177D01*
X50770275Y-104896923D01*
X50770277Y-104896925D01*
X50770278Y-104896927D01*
X51027796Y-105154445D01*
X51061820Y-105216756D01*
X51064700Y-105243539D01*
X51064700Y-105833174D01*
X51075225Y-105936201D01*
X51123045Y-106080516D01*
X51123049Y-106080526D01*
X51130539Y-106103129D01*
X51175669Y-106176296D01*
X51222856Y-106252798D01*
X51222861Y-106252804D01*
X51347201Y-106377144D01*
X51348243Y-106377968D01*
X51348771Y-106378714D01*
X51352391Y-106382334D01*
X51351772Y-106382952D01*
X51357806Y-106391475D01*
X51371045Y-106401410D01*
X51377899Y-106419852D01*
X51389269Y-106435911D01*
X51390011Y-106452445D01*
X51395778Y-106467960D01*
X51391572Y-106487180D01*
X51392456Y-106506836D01*
X51383988Y-106521844D01*
X51380604Y-106537316D01*
X51364511Y-106556369D01*
X51359078Y-106566001D01*
X51350859Y-106574199D01*
X51347202Y-106576456D01*
X51222856Y-106700802D01*
X51221093Y-106703659D01*
X51213490Y-106711245D01*
X51188556Y-106724821D01*
X51165389Y-106741225D01*
X51157804Y-106741565D01*
X51151138Y-106745196D01*
X51122825Y-106743137D01*
X51094464Y-106744412D01*
X51087899Y-106740598D01*
X51080328Y-106740048D01*
X51057619Y-106723006D01*
X51033075Y-106708747D01*
X51029614Y-106701990D01*
X51023543Y-106697434D01*
X51013652Y-106670821D01*
X51000713Y-106645555D01*
X50999509Y-106632765D01*
X50998810Y-106630884D01*
X50999175Y-106629215D01*
X50998500Y-106622044D01*
X50998500Y-106534597D01*
X50998499Y-106534592D01*
X50997464Y-106529390D01*
X50961666Y-106349416D01*
X50889412Y-106174980D01*
X50784516Y-106017992D01*
X50651008Y-105884484D01*
X50494020Y-105779588D01*
X50319584Y-105707334D01*
X50134407Y-105670500D01*
X50134404Y-105670500D01*
X49945596Y-105670500D01*
X49945592Y-105670500D01*
X49760415Y-105707334D01*
X49760410Y-105707336D01*
X49585980Y-105779588D01*
X49428996Y-105884481D01*
X49428989Y-105884486D01*
X49295486Y-106017989D01*
X49295481Y-106017996D01*
X49190588Y-106174980D01*
X49118336Y-106349410D01*
X49118334Y-106349415D01*
X49081500Y-106534592D01*
X49081500Y-107523407D01*
X49116480Y-107699262D01*
X49118334Y-107708584D01*
X49190588Y-107883020D01*
X49295484Y-108040008D01*
X49428992Y-108173516D01*
X49585980Y-108278412D01*
X49760416Y-108350666D01*
X49945596Y-108387500D01*
X49945597Y-108387500D01*
X50134403Y-108387500D01*
X50134404Y-108387500D01*
X50319584Y-108350666D01*
X50494020Y-108278412D01*
X50651008Y-108173516D01*
X50784516Y-108040008D01*
X50886275Y-107887714D01*
X50940749Y-107842189D01*
X51011192Y-107833340D01*
X51075236Y-107863981D01*
X51110642Y-107918085D01*
X51130537Y-107978125D01*
X51130538Y-107978127D01*
X51130539Y-107978129D01*
X51168708Y-108040010D01*
X51222856Y-108127798D01*
X51222861Y-108127804D01*
X51347195Y-108252138D01*
X51347200Y-108252142D01*
X51347202Y-108252144D01*
X51496871Y-108344461D01*
X51663796Y-108399774D01*
X51766825Y-108410300D01*
X52779574Y-108410299D01*
X52882604Y-108399774D01*
X53049529Y-108344461D01*
X53199198Y-108252144D01*
X53199200Y-108252142D01*
X53201955Y-108249964D01*
X53204199Y-108249058D01*
X53205444Y-108248291D01*
X53205575Y-108248503D01*
X53267796Y-108223403D01*
X53280105Y-108222800D01*
X54449924Y-108222800D01*
X54515107Y-108240971D01*
X54600887Y-108292827D01*
X54765151Y-108344013D01*
X54836535Y-108350500D01*
X55501064Y-108350499D01*
X55572449Y-108344013D01*
X55736713Y-108292827D01*
X55883955Y-108203816D01*
X56005616Y-108082155D01*
X56094627Y-107934913D01*
X56145813Y-107770649D01*
X56152300Y-107699265D01*
X56152299Y-107184736D01*
X56145813Y-107113351D01*
X56094627Y-106949087D01*
X56005616Y-106801845D01*
X56005615Y-106801844D01*
X56005611Y-106801839D01*
X55909513Y-106705741D01*
X55875487Y-106643429D01*
X55880552Y-106572614D01*
X55909513Y-106527551D01*
X56005213Y-106431850D01*
X56005221Y-106431840D01*
X56094166Y-106284706D01*
X56145318Y-106120553D01*
X56145318Y-106120552D01*
X56151800Y-106049222D01*
X56151800Y-106046000D01*
X55294800Y-106046000D01*
X55226679Y-106025998D01*
X55180186Y-105972342D01*
X55168800Y-105920000D01*
X55168800Y-105664000D01*
X55188802Y-105595879D01*
X55242458Y-105549386D01*
X55294800Y-105538000D01*
X56151799Y-105538000D01*
X56151799Y-105534778D01*
X56145318Y-105463446D01*
X56094166Y-105299293D01*
X56005221Y-105152159D01*
X56005213Y-105152149D01*
X55883650Y-105030586D01*
X55883640Y-105030578D01*
X55736506Y-104941633D01*
X55650577Y-104914857D01*
X55591492Y-104875494D01*
X55563067Y-104810436D01*
X55574327Y-104740338D01*
X55621698Y-104687456D01*
X55650579Y-104674267D01*
X55736713Y-104647427D01*
X55883955Y-104558416D01*
X56005616Y-104436755D01*
X56094627Y-104289513D01*
X56145813Y-104125249D01*
X56152300Y-104053865D01*
X56152299Y-103539336D01*
X56145813Y-103467951D01*
X56101100Y-103324460D01*
X56094629Y-103303693D01*
X56094627Y-103303688D01*
X56094627Y-103303687D01*
X56005616Y-103156445D01*
X56005615Y-103156444D01*
X56005611Y-103156439D01*
X55909513Y-103060341D01*
X55875487Y-102998029D01*
X55880552Y-102927214D01*
X55909513Y-102882151D01*
X56005213Y-102786450D01*
X56005221Y-102786440D01*
X56094166Y-102639306D01*
X56145318Y-102475153D01*
X56145318Y-102475152D01*
X56151800Y-102403822D01*
X56151800Y-102400600D01*
X55294800Y-102400600D01*
X55285974Y-102398008D01*
X55276868Y-102399318D01*
X55252442Y-102388162D01*
X55226679Y-102380598D01*
X55220654Y-102373644D01*
X55212288Y-102369824D01*
X55197773Y-102347238D01*
X55180186Y-102326942D01*
X55177861Y-102316255D01*
X55173904Y-102310098D01*
X55168800Y-102274600D01*
X55168800Y-102181580D01*
X55188802Y-102113459D01*
X55242458Y-102066966D01*
X55294800Y-102055580D01*
X58805429Y-102055580D01*
X58805430Y-102055580D01*
X58805431Y-102055580D01*
X58906943Y-102028380D01*
X58960193Y-102014112D01*
X59098947Y-101934002D01*
X61628054Y-99404892D01*
X61628063Y-99404886D01*
X61751715Y-99281234D01*
X61751721Y-99281228D01*
X61820107Y-99162781D01*
X61831832Y-99142473D01*
X61869917Y-99000336D01*
X61873300Y-98987711D01*
X61873300Y-98093634D01*
X61893302Y-98025513D01*
X61946958Y-97979020D01*
X62017232Y-97968916D01*
X62038225Y-97973798D01*
X62193592Y-98024280D01*
X62397019Y-98056500D01*
X62397022Y-98056500D01*
X62602978Y-98056500D01*
X62602981Y-98056500D01*
X62806408Y-98024280D01*
X63002290Y-97960634D01*
X63185803Y-97867129D01*
X63352430Y-97746068D01*
X63377136Y-97721362D01*
X63410905Y-97687594D01*
X63473217Y-97653568D01*
X63544032Y-97658633D01*
X63589095Y-97687594D01*
X63647564Y-97746063D01*
X63647567Y-97746065D01*
X63647570Y-97746068D01*
X63814197Y-97867129D01*
X63997710Y-97960634D01*
X64193592Y-98024280D01*
X64397019Y-98056500D01*
X64397022Y-98056500D01*
X64602978Y-98056500D01*
X64602981Y-98056500D01*
X64806408Y-98024280D01*
X65002290Y-97960634D01*
X65185803Y-97867129D01*
X65352430Y-97746068D01*
X65354296Y-97744202D01*
X65400033Y-97698466D01*
X65498063Y-97600435D01*
X65498068Y-97600430D01*
X65619129Y-97433803D01*
X65638014Y-97396738D01*
X65686758Y-97345126D01*
X65755673Y-97328058D01*
X65822875Y-97350958D01*
X65862545Y-97396738D01*
X65881297Y-97433539D01*
X65881298Y-97433541D01*
X65912416Y-97476372D01*
X66536253Y-96852535D01*
X66557370Y-96931343D01*
X66619905Y-97039657D01*
X66708343Y-97128095D01*
X66816657Y-97190630D01*
X66895463Y-97211745D01*
X66271626Y-97835582D01*
X66271626Y-97835583D01*
X66314454Y-97866699D01*
X66497900Y-97960170D01*
X66497906Y-97960173D01*
X66693705Y-98023791D01*
X66693701Y-98023791D01*
X66897061Y-98056000D01*
X67102939Y-98056000D01*
X67306296Y-98023791D01*
X67502093Y-97960173D01*
X67502099Y-97960170D01*
X67685541Y-97866701D01*
X67728372Y-97835582D01*
X67728372Y-97835581D01*
X67104536Y-97211745D01*
X67183343Y-97190630D01*
X67291657Y-97128095D01*
X67380095Y-97039657D01*
X67442630Y-96931343D01*
X67463745Y-96852536D01*
X68087581Y-97476372D01*
X68087582Y-97476372D01*
X68118701Y-97433541D01*
X68212170Y-97250099D01*
X68212173Y-97250093D01*
X68275791Y-97054296D01*
X68308000Y-96850938D01*
X68308000Y-96645061D01*
X68275791Y-96441703D01*
X68212173Y-96245906D01*
X68212170Y-96245900D01*
X68118699Y-96062454D01*
X68087583Y-96019626D01*
X68087582Y-96019626D01*
X67463745Y-96643463D01*
X67442630Y-96564657D01*
X67380095Y-96456343D01*
X67291657Y-96367905D01*
X67183343Y-96305370D01*
X67104535Y-96284253D01*
X67728372Y-95660416D01*
X67724671Y-95613386D01*
X67739267Y-95543906D01*
X67789109Y-95493347D01*
X67850283Y-95477500D01*
X69930827Y-95477500D01*
X69930828Y-95477500D01*
X69930829Y-95477500D01*
X70043265Y-95447373D01*
X70085591Y-95436032D01*
X70224345Y-95355922D01*
X72689742Y-92890525D01*
X72752054Y-92856500D01*
X72778837Y-92853620D01*
X74393129Y-92853620D01*
X74461250Y-92873622D01*
X74507743Y-92927278D01*
X74517847Y-92997552D01*
X74488353Y-93062132D01*
X74482224Y-93068715D01*
X73139944Y-94410995D01*
X73077632Y-94445021D01*
X73050849Y-94447900D01*
X71806438Y-94447900D01*
X71745891Y-94454409D01*
X71745883Y-94454411D01*
X71608885Y-94505510D01*
X71608880Y-94505512D01*
X71491826Y-94593138D01*
X71404200Y-94710192D01*
X71404198Y-94710197D01*
X71353099Y-94847195D01*
X71353097Y-94847203D01*
X71346588Y-94907750D01*
X71346588Y-96605049D01*
X71353097Y-96665596D01*
X71353099Y-96665604D01*
X71404198Y-96802602D01*
X71404200Y-96802607D01*
X71491826Y-96919661D01*
X71608880Y-97007287D01*
X71608882Y-97007288D01*
X71608884Y-97007289D01*
X71641320Y-97019387D01*
X71745883Y-97058388D01*
X71745891Y-97058390D01*
X71806438Y-97064899D01*
X71806443Y-97064899D01*
X71806450Y-97064900D01*
X71806456Y-97064900D01*
X73503720Y-97064900D01*
X73503726Y-97064900D01*
X73503733Y-97064899D01*
X73503737Y-97064899D01*
X73564284Y-97058390D01*
X73564287Y-97058389D01*
X73564289Y-97058389D01*
X73574963Y-97054408D01*
X73583133Y-97051360D01*
X73701292Y-97007289D01*
X73713756Y-96997959D01*
X73777287Y-96950400D01*
X73818349Y-96919661D01*
X73820675Y-96916553D01*
X73823788Y-96914222D01*
X73824722Y-96913289D01*
X73824856Y-96913423D01*
X73877507Y-96874005D01*
X73948322Y-96868936D01*
X73978749Y-96879791D01*
X74152988Y-96968570D01*
X74152994Y-96968573D01*
X74348793Y-97032191D01*
X74348789Y-97032191D01*
X74552149Y-97064400D01*
X74758027Y-97064400D01*
X74961384Y-97032191D01*
X75157181Y-96968573D01*
X75157187Y-96968570D01*
X75340629Y-96875101D01*
X75383460Y-96843982D01*
X74695877Y-96156400D01*
X74707749Y-96156400D01*
X74809482Y-96129141D01*
X74900694Y-96076480D01*
X74975168Y-96002006D01*
X75027829Y-95910794D01*
X75055088Y-95809061D01*
X75055088Y-95797191D01*
X75742669Y-96484772D01*
X75742670Y-96484772D01*
X75773789Y-96441941D01*
X75867258Y-96258499D01*
X75867261Y-96258493D01*
X75930879Y-96062696D01*
X75963088Y-95859338D01*
X75963088Y-95653461D01*
X75930879Y-95450103D01*
X75867261Y-95254306D01*
X75867258Y-95254300D01*
X75773787Y-95070854D01*
X75742671Y-95028026D01*
X75742670Y-95028026D01*
X75055088Y-95715608D01*
X75055088Y-95703739D01*
X75027829Y-95602006D01*
X74975168Y-95510794D01*
X74900694Y-95436320D01*
X74809482Y-95383659D01*
X74707749Y-95356400D01*
X74695878Y-95356400D01*
X75383460Y-94668817D01*
X75383460Y-94668816D01*
X75340629Y-94637698D01*
X75340628Y-94637697D01*
X75157187Y-94544229D01*
X75157184Y-94544228D01*
X75028656Y-94502466D01*
X74970051Y-94462392D01*
X74942414Y-94396995D01*
X74954521Y-94327039D01*
X74978492Y-94293544D01*
X75459433Y-93812604D01*
X75521745Y-93778579D01*
X75548528Y-93775700D01*
X75809794Y-93775700D01*
X75877915Y-93795702D01*
X75917034Y-93835552D01*
X75941514Y-93875240D01*
X76062753Y-93996479D01*
X76062759Y-93996484D01*
X76062760Y-93996485D01*
X76168348Y-94061613D01*
X76211317Y-94105850D01*
X76258878Y-94188227D01*
X76258880Y-94188229D01*
X76258883Y-94188233D01*
X77451966Y-95381316D01*
X77451971Y-95381320D01*
X77451973Y-95381322D01*
X77451974Y-95381323D01*
X77451976Y-95381324D01*
X77566377Y-95447373D01*
X77566379Y-95447374D01*
X77590724Y-95461430D01*
X77590728Y-95461432D01*
X77745489Y-95502900D01*
X77745490Y-95502900D01*
X77905710Y-95502900D01*
X79003716Y-95502900D01*
X79071837Y-95522902D01*
X79118330Y-95576558D01*
X79128434Y-95646832D01*
X79104584Y-95704409D01*
X79069112Y-95751792D01*
X79069110Y-95751797D01*
X79018011Y-95888795D01*
X79018009Y-95888803D01*
X79011500Y-95949350D01*
X79011500Y-96013500D01*
X78991498Y-96081621D01*
X78937842Y-96128114D01*
X78885500Y-96139500D01*
X77216612Y-96139500D01*
X77133678Y-96161722D01*
X77061853Y-96180967D01*
X77061846Y-96180970D01*
X76987747Y-96223752D01*
X76923098Y-96261076D01*
X76923088Y-96261084D01*
X74036832Y-99147340D01*
X73987371Y-99177849D01*
X73897901Y-99207497D01*
X73897899Y-99207497D01*
X73897899Y-99207498D01*
X73878441Y-99219500D01*
X73751959Y-99297515D01*
X73751953Y-99297520D01*
X73748742Y-99300732D01*
X73686430Y-99334758D01*
X73615615Y-99329693D01*
X73570552Y-99300732D01*
X73567734Y-99297914D01*
X73567728Y-99297909D01*
X73421884Y-99207952D01*
X73259241Y-99154057D01*
X73259229Y-99154055D01*
X73158852Y-99143800D01*
X73139000Y-99143800D01*
X73139000Y-100000800D01*
X73118998Y-100068921D01*
X73065342Y-100115414D01*
X73013000Y-100126800D01*
X72757000Y-100126800D01*
X72688879Y-100106798D01*
X72642386Y-100053142D01*
X72631000Y-100000800D01*
X72631000Y-99143800D01*
X72611147Y-99143800D01*
X72510770Y-99154055D01*
X72510758Y-99154057D01*
X72348114Y-99207953D01*
X72348111Y-99207954D01*
X72249994Y-99268473D01*
X72181515Y-99287210D01*
X72113776Y-99265950D01*
X72068285Y-99211443D01*
X72058926Y-99177678D01*
X72058483Y-99174316D01*
X72044134Y-99065320D01*
X71975990Y-98811003D01*
X71875234Y-98567757D01*
X71875228Y-98567748D01*
X71875227Y-98567744D01*
X71743592Y-98339746D01*
X71608457Y-98163634D01*
X71583311Y-98130862D01*
X71583310Y-98130861D01*
X71583301Y-98130851D01*
X71397148Y-97944698D01*
X71397138Y-97944689D01*
X71299944Y-97870110D01*
X71188257Y-97784410D01*
X71188256Y-97784409D01*
X71188253Y-97784407D01*
X70960255Y-97652772D01*
X70960247Y-97652768D01*
X70960243Y-97652766D01*
X70716997Y-97552010D01*
X70462680Y-97483866D01*
X70462678Y-97483865D01*
X70462672Y-97483864D01*
X70201646Y-97449500D01*
X70201644Y-97449500D01*
X69938356Y-97449500D01*
X69938353Y-97449500D01*
X69677327Y-97483864D01*
X69440260Y-97547386D01*
X69423003Y-97552010D01*
X69193922Y-97646899D01*
X69179755Y-97652767D01*
X69179744Y-97652772D01*
X68951746Y-97784407D01*
X68742861Y-97944689D01*
X68742851Y-97944698D01*
X68556698Y-98130851D01*
X68556689Y-98130861D01*
X68396407Y-98339746D01*
X68264772Y-98567744D01*
X68264767Y-98567755D01*
X68264766Y-98567757D01*
X68226608Y-98659879D01*
X68164010Y-98811003D01*
X68095864Y-99065327D01*
X68061500Y-99326353D01*
X68061500Y-99589646D01*
X68095864Y-99850672D01*
X68095865Y-99850678D01*
X68095866Y-99850680D01*
X68164010Y-100104997D01*
X68264766Y-100348243D01*
X68264767Y-100348244D01*
X68264772Y-100348255D01*
X68396407Y-100576253D01*
X68396409Y-100576256D01*
X68396410Y-100576257D01*
X68531176Y-100751888D01*
X68556689Y-100785138D01*
X68556698Y-100785148D01*
X68742851Y-100971301D01*
X68742861Y-100971310D01*
X68742862Y-100971311D01*
X68947541Y-101128366D01*
X68951746Y-101131592D01*
X69179744Y-101263227D01*
X69179748Y-101263228D01*
X69179757Y-101263234D01*
X69423003Y-101363990D01*
X69677320Y-101432134D01*
X69677326Y-101432134D01*
X69677327Y-101432135D01*
X69679720Y-101432450D01*
X69938356Y-101466500D01*
X69938363Y-101466500D01*
X70201637Y-101466500D01*
X70201644Y-101466500D01*
X70462680Y-101432134D01*
X70716997Y-101363990D01*
X70960243Y-101263234D01*
X71188257Y-101131590D01*
X71397138Y-100971311D01*
X71583311Y-100785138D01*
X71743590Y-100576257D01*
X71743591Y-100576254D01*
X71745702Y-100573504D01*
X71803040Y-100531636D01*
X71873911Y-100527414D01*
X71935814Y-100562178D01*
X71965269Y-100610574D01*
X71991152Y-100688684D01*
X72082466Y-100836728D01*
X72101203Y-100905208D01*
X72079944Y-100972947D01*
X72041372Y-101010116D01*
X71975412Y-101050800D01*
X71975406Y-101050805D01*
X71855205Y-101171006D01*
X71855200Y-101171012D01*
X71765951Y-101315707D01*
X71753185Y-101354233D01*
X71715705Y-101467343D01*
X71712475Y-101477090D01*
X71702300Y-101576680D01*
X71702300Y-102436110D01*
X71708071Y-102492597D01*
X71712476Y-102535714D01*
X71765951Y-102697092D01*
X71765952Y-102697093D01*
X71771040Y-102705342D01*
X71789800Y-102771490D01*
X71789800Y-104464149D01*
X71769798Y-104532270D01*
X71716142Y-104578763D01*
X71707833Y-104582204D01*
X71608885Y-104619110D01*
X71608880Y-104619112D01*
X71491826Y-104706738D01*
X71404200Y-104823792D01*
X71404198Y-104823797D01*
X71353099Y-104960795D01*
X71353097Y-104960803D01*
X71346588Y-105021350D01*
X71346588Y-106718649D01*
X71353097Y-106779196D01*
X71353099Y-106779204D01*
X71404198Y-106916202D01*
X71404200Y-106916207D01*
X71491826Y-107033261D01*
X71608880Y-107120887D01*
X71608882Y-107120888D01*
X71608884Y-107120889D01*
X71667963Y-107142924D01*
X71745883Y-107171988D01*
X71745891Y-107171990D01*
X71806438Y-107178499D01*
X71806443Y-107178499D01*
X71806450Y-107178500D01*
X71806456Y-107178500D01*
X73503720Y-107178500D01*
X73503726Y-107178500D01*
X73503733Y-107178499D01*
X73503737Y-107178499D01*
X73564284Y-107171990D01*
X73564287Y-107171989D01*
X73564289Y-107171989D01*
X73701292Y-107120889D01*
X73818349Y-107033261D01*
X73820675Y-107030153D01*
X73823788Y-107027822D01*
X73824722Y-107026889D01*
X73824856Y-107027023D01*
X73877507Y-106987605D01*
X73948322Y-106982536D01*
X73978749Y-106993391D01*
X74152988Y-107082170D01*
X74152994Y-107082173D01*
X74348793Y-107145791D01*
X74348789Y-107145791D01*
X74552149Y-107178000D01*
X74758027Y-107178000D01*
X74961384Y-107145791D01*
X75157181Y-107082173D01*
X75157187Y-107082170D01*
X75340629Y-106988701D01*
X75383460Y-106957582D01*
X74695877Y-106270000D01*
X74707749Y-106270000D01*
X74809482Y-106242741D01*
X74900694Y-106190080D01*
X74975168Y-106115606D01*
X75027829Y-106024394D01*
X75055088Y-105922661D01*
X75055088Y-105910791D01*
X75742669Y-106598372D01*
X75742670Y-106598372D01*
X75773789Y-106555541D01*
X75867258Y-106372099D01*
X75867261Y-106372093D01*
X75930879Y-106176296D01*
X75963088Y-105972938D01*
X75963088Y-105767061D01*
X75930879Y-105563703D01*
X75867261Y-105367906D01*
X75867258Y-105367900D01*
X75773787Y-105184454D01*
X75742671Y-105141626D01*
X75742670Y-105141626D01*
X75055088Y-105829208D01*
X75055088Y-105817339D01*
X75027829Y-105715606D01*
X74975168Y-105624394D01*
X74900694Y-105549920D01*
X74809482Y-105497259D01*
X74707749Y-105470000D01*
X74695878Y-105470000D01*
X75383460Y-104782417D01*
X75383460Y-104782416D01*
X75340629Y-104751298D01*
X75340628Y-104751297D01*
X75157187Y-104657829D01*
X75157181Y-104657826D01*
X74961382Y-104594208D01*
X74961386Y-104594208D01*
X74758027Y-104562000D01*
X74552149Y-104562000D01*
X74348791Y-104594208D01*
X74152994Y-104657826D01*
X74152982Y-104657831D01*
X73978748Y-104746608D01*
X73908972Y-104759712D01*
X73843187Y-104733012D01*
X73820677Y-104709849D01*
X73818348Y-104706738D01*
X73701295Y-104619112D01*
X73701292Y-104619111D01*
X73588766Y-104577140D01*
X73531931Y-104534593D01*
X73507121Y-104468073D01*
X73506800Y-104459085D01*
X73506800Y-102771490D01*
X73513166Y-102731946D01*
X73517802Y-102717919D01*
X73530649Y-102697092D01*
X73584124Y-102535714D01*
X73586850Y-102509025D01*
X73591165Y-102495973D01*
X73603846Y-102477627D01*
X73612271Y-102456979D01*
X73623637Y-102448996D01*
X73631536Y-102437571D01*
X73652122Y-102428994D01*
X73670373Y-102416178D01*
X73684251Y-102415608D01*
X73697072Y-102410267D01*
X73719026Y-102414181D01*
X73741310Y-102413267D01*
X73753293Y-102420291D01*
X73766966Y-102422729D01*
X73783317Y-102437890D01*
X73802560Y-102449169D01*
X73808843Y-102461557D01*
X73819028Y-102471000D01*
X73824588Y-102492597D01*
X73834676Y-102512486D01*
X73836146Y-102522708D01*
X73837474Y-102535705D01*
X73837474Y-102535707D01*
X73837475Y-102535709D01*
X73837476Y-102535714D01*
X73885896Y-102681838D01*
X73890951Y-102697092D01*
X73980200Y-102841787D01*
X73980205Y-102841793D01*
X74100406Y-102961994D01*
X74100412Y-102961999D01*
X74100413Y-102962000D01*
X74245108Y-103051249D01*
X74406486Y-103104724D01*
X74506089Y-103114900D01*
X75040510Y-103114899D01*
X75140114Y-103104724D01*
X75301492Y-103051249D01*
X75446187Y-102962000D01*
X75566400Y-102841787D01*
X75655649Y-102697092D01*
X75709124Y-102535714D01*
X75719300Y-102436111D01*
X75719299Y-101576690D01*
X75717894Y-101562941D01*
X75715221Y-101536770D01*
X75709124Y-101477086D01*
X75655649Y-101315708D01*
X75566400Y-101171013D01*
X75566399Y-101171012D01*
X75566394Y-101171006D01*
X75446193Y-101050805D01*
X75446187Y-101050800D01*
X75307053Y-100964981D01*
X75305050Y-100962754D01*
X75302202Y-100961833D01*
X75281457Y-100936524D01*
X75259575Y-100912195D01*
X75259094Y-100909239D01*
X75257196Y-100906924D01*
X75253427Y-100874414D01*
X75248172Y-100842120D01*
X75249260Y-100838473D01*
X75249020Y-100836399D01*
X75253101Y-100825603D01*
X75260063Y-100802278D01*
X75262747Y-100796801D01*
X75329302Y-100688901D01*
X75357795Y-100602910D01*
X75361564Y-100595224D01*
X75379984Y-100575106D01*
X75395509Y-100552683D01*
X75403594Y-100549321D01*
X75409509Y-100542862D01*
X75435881Y-100535896D01*
X75461065Y-100525426D01*
X75469684Y-100526969D01*
X75478152Y-100524733D01*
X75504102Y-100533131D01*
X75530950Y-100537938D01*
X75538699Y-100544327D01*
X75545699Y-100546593D01*
X75554564Y-100557408D01*
X75574664Y-100573982D01*
X75576410Y-100576257D01*
X75736689Y-100785138D01*
X75736693Y-100785142D01*
X75736698Y-100785148D01*
X75922851Y-100971301D01*
X75922861Y-100971310D01*
X75922862Y-100971311D01*
X76127541Y-101128366D01*
X76131746Y-101131592D01*
X76359744Y-101263227D01*
X76359748Y-101263228D01*
X76359757Y-101263234D01*
X76603003Y-101363990D01*
X76857320Y-101432134D01*
X76857326Y-101432134D01*
X76857327Y-101432135D01*
X76859720Y-101432450D01*
X77118356Y-101466500D01*
X77118363Y-101466500D01*
X77381637Y-101466500D01*
X77381644Y-101466500D01*
X77642680Y-101432134D01*
X77896997Y-101363990D01*
X78140243Y-101263234D01*
X78368257Y-101131590D01*
X78577138Y-100971311D01*
X78763311Y-100785138D01*
X78923590Y-100576257D01*
X79055234Y-100348243D01*
X79155990Y-100104997D01*
X79224134Y-99850680D01*
X79258500Y-99589644D01*
X79258500Y-99326356D01*
X79224134Y-99065320D01*
X79155990Y-98811003D01*
X79055234Y-98567757D01*
X79055228Y-98567748D01*
X79055227Y-98567744D01*
X78923592Y-98339746D01*
X78788457Y-98163634D01*
X78763311Y-98130862D01*
X78763310Y-98130861D01*
X78763301Y-98130851D01*
X78577148Y-97944698D01*
X78577138Y-97944689D01*
X78479944Y-97870110D01*
X78368257Y-97784410D01*
X78368256Y-97784409D01*
X78368253Y-97784407D01*
X78140255Y-97652772D01*
X78140247Y-97652768D01*
X78140243Y-97652766D01*
X78010218Y-97598908D01*
X77954939Y-97554361D01*
X77932518Y-97486997D01*
X77950076Y-97418206D01*
X78002038Y-97369828D01*
X78058438Y-97356500D01*
X78885500Y-97356500D01*
X78953621Y-97376502D01*
X79000114Y-97430158D01*
X79011500Y-97482500D01*
X79011500Y-97546649D01*
X79018009Y-97607196D01*
X79018011Y-97607204D01*
X79069110Y-97744202D01*
X79069112Y-97744207D01*
X79156738Y-97861261D01*
X79273792Y-97948887D01*
X79273794Y-97948888D01*
X79273796Y-97948889D01*
X79305288Y-97960635D01*
X79410795Y-97999988D01*
X79410803Y-97999990D01*
X79471350Y-98006499D01*
X79471355Y-98006499D01*
X79471362Y-98006500D01*
X79471368Y-98006500D01*
X81168632Y-98006500D01*
X81168638Y-98006500D01*
X81168645Y-98006499D01*
X81168649Y-98006499D01*
X81229196Y-97999990D01*
X81229199Y-97999989D01*
X81229201Y-97999989D01*
X81366204Y-97948889D01*
X81417983Y-97910128D01*
X81483261Y-97861261D01*
X81570886Y-97744208D01*
X81570885Y-97744208D01*
X81570889Y-97744204D01*
X81609703Y-97640139D01*
X81652248Y-97583308D01*
X81718768Y-97558497D01*
X81788143Y-97573589D01*
X81817742Y-97597618D01*
X81818431Y-97596930D01*
X81967564Y-97746063D01*
X81967567Y-97746065D01*
X81967570Y-97746068D01*
X82134197Y-97867129D01*
X82317710Y-97960634D01*
X82513592Y-98024280D01*
X82717019Y-98056500D01*
X82717022Y-98056500D01*
X82922978Y-98056500D01*
X82922981Y-98056500D01*
X83126408Y-98024280D01*
X83322290Y-97960634D01*
X83505803Y-97867129D01*
X83672430Y-97746068D01*
X83697136Y-97721362D01*
X83730905Y-97687594D01*
X83793217Y-97653568D01*
X83864032Y-97658633D01*
X83909095Y-97687594D01*
X83967564Y-97746063D01*
X83967567Y-97746065D01*
X83967570Y-97746068D01*
X84134197Y-97867129D01*
X84317710Y-97960634D01*
X84513592Y-98024280D01*
X84717019Y-98056500D01*
X84717022Y-98056500D01*
X84922978Y-98056500D01*
X84922981Y-98056500D01*
X85126408Y-98024280D01*
X85322290Y-97960634D01*
X85505803Y-97867129D01*
X85672430Y-97746068D01*
X85674296Y-97744202D01*
X85720033Y-97698466D01*
X85818063Y-97600435D01*
X85818068Y-97600430D01*
X85939129Y-97433803D01*
X85958014Y-97396738D01*
X86006758Y-97345126D01*
X86075673Y-97328058D01*
X86142875Y-97350958D01*
X86182545Y-97396738D01*
X86201297Y-97433539D01*
X86201298Y-97433541D01*
X86232416Y-97476372D01*
X86856253Y-96852535D01*
X86877370Y-96931343D01*
X86939905Y-97039657D01*
X87028343Y-97128095D01*
X87136657Y-97190630D01*
X87215463Y-97211745D01*
X86591626Y-97835582D01*
X86591626Y-97835583D01*
X86634454Y-97866699D01*
X86817900Y-97960170D01*
X86817906Y-97960173D01*
X87013705Y-98023791D01*
X87013701Y-98023791D01*
X87217061Y-98056000D01*
X87422939Y-98056000D01*
X87626296Y-98023791D01*
X87822093Y-97960173D01*
X87822099Y-97960170D01*
X88005541Y-97866701D01*
X88048372Y-97835582D01*
X88048372Y-97835581D01*
X87424536Y-97211745D01*
X87503343Y-97190630D01*
X87611657Y-97128095D01*
X87700095Y-97039657D01*
X87762630Y-96931343D01*
X87783745Y-96852536D01*
X88407581Y-97476372D01*
X88407582Y-97476372D01*
X88438701Y-97433541D01*
X88532170Y-97250099D01*
X88532173Y-97250093D01*
X88595791Y-97054296D01*
X88628000Y-96850938D01*
X88628000Y-96645061D01*
X88595791Y-96441703D01*
X88532173Y-96245906D01*
X88532170Y-96245900D01*
X88438699Y-96062454D01*
X88407583Y-96019626D01*
X88407582Y-96019626D01*
X87783745Y-96643463D01*
X87762630Y-96564657D01*
X87700095Y-96456343D01*
X87611657Y-96367905D01*
X87503343Y-96305370D01*
X87424535Y-96284253D01*
X88048372Y-95660416D01*
X88005541Y-95629298D01*
X88005540Y-95629297D01*
X87822099Y-95535829D01*
X87822093Y-95535826D01*
X87626294Y-95472208D01*
X87626298Y-95472208D01*
X87422939Y-95440000D01*
X87217061Y-95440000D01*
X87013703Y-95472208D01*
X86817906Y-95535826D01*
X86817900Y-95535829D01*
X86634452Y-95629301D01*
X86591625Y-95660416D01*
X87215463Y-96284254D01*
X87136657Y-96305370D01*
X87028343Y-96367905D01*
X86939905Y-96456343D01*
X86877370Y-96564657D01*
X86856254Y-96643463D01*
X86232416Y-96019625D01*
X86201301Y-96062453D01*
X86201299Y-96062455D01*
X86182546Y-96099261D01*
X86133798Y-96150876D01*
X86064883Y-96167941D01*
X85997681Y-96145040D01*
X85958014Y-96099261D01*
X85939129Y-96062197D01*
X85818068Y-95895570D01*
X85818065Y-95895567D01*
X85818063Y-95895564D01*
X85672435Y-95749936D01*
X85672432Y-95749934D01*
X85672430Y-95749932D01*
X85530524Y-95646832D01*
X85505806Y-95628873D01*
X85505805Y-95628872D01*
X85505803Y-95628871D01*
X85322290Y-95535366D01*
X85322287Y-95535365D01*
X85322285Y-95535364D01*
X85126412Y-95471721D01*
X85126410Y-95471720D01*
X85126408Y-95471720D01*
X84922981Y-95439500D01*
X84779501Y-95439500D01*
X84711380Y-95419498D01*
X84664887Y-95365842D01*
X84653501Y-95313500D01*
X84653501Y-94714500D01*
X84673503Y-94646379D01*
X84727159Y-94599886D01*
X84779501Y-94588500D01*
X90736900Y-94588500D01*
X90805021Y-94608502D01*
X90851514Y-94662158D01*
X90862900Y-94714500D01*
X90862900Y-95139461D01*
X90869386Y-95210846D01*
X90869386Y-95210847D01*
X90920570Y-95375106D01*
X90920572Y-95375111D01*
X90920573Y-95375113D01*
X90994560Y-95497502D01*
X91009584Y-95522355D01*
X91009588Y-95522360D01*
X91105333Y-95618105D01*
X91139359Y-95680417D01*
X91134294Y-95751232D01*
X91105333Y-95796295D01*
X91009588Y-95892039D01*
X91009584Y-95892044D01*
X90920572Y-96039288D01*
X90920570Y-96039293D01*
X90869386Y-96203553D01*
X90862900Y-96274937D01*
X90862900Y-96789461D01*
X90869386Y-96860846D01*
X90869386Y-96860847D01*
X90920570Y-97025106D01*
X90920572Y-97025111D01*
X90920573Y-97025113D01*
X90982828Y-97128095D01*
X91009584Y-97172355D01*
X91009588Y-97172360D01*
X91131239Y-97294011D01*
X91131244Y-97294015D01*
X91131245Y-97294016D01*
X91266938Y-97376045D01*
X91314886Y-97428403D01*
X91326916Y-97498373D01*
X91299207Y-97563740D01*
X91240557Y-97603749D01*
X91169588Y-97605698D01*
X91153538Y-97600283D01*
X91036997Y-97552010D01*
X90782680Y-97483866D01*
X90782678Y-97483865D01*
X90782672Y-97483864D01*
X90521646Y-97449500D01*
X90521644Y-97449500D01*
X90258356Y-97449500D01*
X90258353Y-97449500D01*
X89997327Y-97483864D01*
X89760260Y-97547386D01*
X89743003Y-97552010D01*
X89513922Y-97646899D01*
X89499755Y-97652767D01*
X89499744Y-97652772D01*
X89271746Y-97784407D01*
X89062861Y-97944689D01*
X89062851Y-97944698D01*
X88876698Y-98130851D01*
X88876689Y-98130861D01*
X88716407Y-98339746D01*
X88584772Y-98567744D01*
X88584767Y-98567755D01*
X88584766Y-98567757D01*
X88546608Y-98659879D01*
X88484010Y-98811003D01*
X88415864Y-99065327D01*
X88381500Y-99326353D01*
X88381500Y-99589646D01*
X88415864Y-99850672D01*
X88415865Y-99850678D01*
X88415866Y-99850680D01*
X88484010Y-100104997D01*
X88584766Y-100348243D01*
X88584767Y-100348244D01*
X88584772Y-100348255D01*
X88716407Y-100576253D01*
X88716409Y-100576256D01*
X88716410Y-100576257D01*
X88851176Y-100751888D01*
X88876689Y-100785138D01*
X88876698Y-100785148D01*
X89062851Y-100971301D01*
X89062861Y-100971310D01*
X89062862Y-100971311D01*
X89267541Y-101128366D01*
X89271746Y-101131592D01*
X89499744Y-101263227D01*
X89499748Y-101263228D01*
X89499757Y-101263234D01*
X89743003Y-101363990D01*
X89997320Y-101432134D01*
X89997326Y-101432134D01*
X89997327Y-101432135D01*
X89999720Y-101432450D01*
X90258356Y-101466500D01*
X90258363Y-101466500D01*
X90436069Y-101466500D01*
X90504190Y-101486502D01*
X90550683Y-101540158D01*
X90560787Y-101610432D01*
X90545188Y-101655500D01*
X90466566Y-101791675D01*
X90456967Y-101827498D01*
X90456968Y-101827499D01*
X90425100Y-101946434D01*
X90425100Y-103254913D01*
X90438402Y-103304559D01*
X90466565Y-103409665D01*
X90466570Y-103409677D01*
X90546675Y-103548423D01*
X90546677Y-103548425D01*
X90546678Y-103548427D01*
X90825996Y-103827745D01*
X90860020Y-103890056D01*
X90862900Y-103916839D01*
X90862900Y-104261480D01*
X90862899Y-104261480D01*
X90873163Y-104361933D01*
X90873164Y-104361936D01*
X90927098Y-104524701D01*
X90985331Y-104619110D01*
X91017115Y-104670640D01*
X91017120Y-104670646D01*
X91138353Y-104791879D01*
X91138359Y-104791884D01*
X91138360Y-104791885D01*
X91284299Y-104881902D01*
X91447064Y-104935836D01*
X91467156Y-104937888D01*
X91547520Y-104946100D01*
X91547528Y-104946100D01*
X92145280Y-104946100D01*
X92218336Y-104938635D01*
X92245736Y-104935836D01*
X92408501Y-104881902D01*
X92554440Y-104791885D01*
X92563909Y-104782416D01*
X92613582Y-104732744D01*
X92620492Y-104728970D01*
X92625080Y-104722568D01*
X92651215Y-104712193D01*
X92675894Y-104698718D01*
X92683749Y-104699279D01*
X92691068Y-104696375D01*
X92718658Y-104701776D01*
X92746709Y-104703783D01*
X92754773Y-104708847D01*
X92760742Y-104710016D01*
X92785446Y-104728110D01*
X92789894Y-104730904D01*
X92790848Y-104731819D01*
X92858445Y-104799416D01*
X92866237Y-104804126D01*
X92876317Y-104813794D01*
X92887301Y-104832949D01*
X92902218Y-104849229D01*
X92906012Y-104865579D01*
X92911635Y-104875383D01*
X92911036Y-104887221D01*
X92915100Y-104904729D01*
X92915100Y-104985497D01*
X92895098Y-105053618D01*
X92878195Y-105074592D01*
X92867924Y-105084862D01*
X92867919Y-105084869D01*
X92779796Y-105216756D01*
X92768498Y-105233664D01*
X92763140Y-105246600D01*
X92700014Y-105398996D01*
X92700013Y-105398999D01*
X92700013Y-105399000D01*
X92698923Y-105404480D01*
X92665100Y-105574518D01*
X92665100Y-105753481D01*
X92675740Y-105806971D01*
X92688277Y-105870001D01*
X92700014Y-105929003D01*
X92717966Y-105972342D01*
X92768498Y-106094336D01*
X92867922Y-106243135D01*
X92994465Y-106369678D01*
X93143264Y-106469102D01*
X93308600Y-106537587D01*
X93484121Y-106572500D01*
X93484122Y-106572500D01*
X93663078Y-106572500D01*
X93663079Y-106572500D01*
X93838600Y-106537587D01*
X94003936Y-106469102D01*
X94070500Y-106424625D01*
X94138250Y-106403411D01*
X94206717Y-106422194D01*
X94254161Y-106475011D01*
X94266500Y-106529390D01*
X94266500Y-106747261D01*
X94272986Y-106818646D01*
X94272986Y-106818647D01*
X94324170Y-106982906D01*
X94324172Y-106982911D01*
X94324173Y-106982913D01*
X94361271Y-107044280D01*
X94413184Y-107130155D01*
X94413188Y-107130160D01*
X94509287Y-107226259D01*
X94543313Y-107288571D01*
X94538248Y-107359386D01*
X94509287Y-107404449D01*
X94413586Y-107500149D01*
X94413578Y-107500159D01*
X94324633Y-107647293D01*
X94273481Y-107811446D01*
X94273481Y-107811447D01*
X94267000Y-107882777D01*
X94267000Y-107886000D01*
X96232998Y-107886000D01*
X96244075Y-107874923D01*
X96306386Y-107840898D01*
X96377202Y-107845962D01*
X96434038Y-107888508D01*
X96437936Y-107894017D01*
X96535477Y-108039999D01*
X96535482Y-108040005D01*
X96535484Y-108040008D01*
X96668992Y-108173516D01*
X96825980Y-108278412D01*
X97000416Y-108350666D01*
X97185596Y-108387500D01*
X97185597Y-108387500D01*
X97374403Y-108387500D01*
X97374404Y-108387500D01*
X97559584Y-108350666D01*
X97734020Y-108278412D01*
X97891008Y-108173516D01*
X98024516Y-108040008D01*
X98129412Y-107883020D01*
X98201666Y-107708584D01*
X98238500Y-107523404D01*
X98238500Y-106534596D01*
X98238499Y-106534592D01*
X104961500Y-106534592D01*
X104961500Y-107523407D01*
X104996480Y-107699262D01*
X104998334Y-107708584D01*
X105070588Y-107883020D01*
X105175484Y-108040008D01*
X105308992Y-108173516D01*
X105465980Y-108278412D01*
X105640416Y-108350666D01*
X105825596Y-108387500D01*
X105825597Y-108387500D01*
X106014403Y-108387500D01*
X106014404Y-108387500D01*
X106199584Y-108350666D01*
X106374020Y-108278412D01*
X106531008Y-108173516D01*
X106664516Y-108040008D01*
X106769412Y-107883020D01*
X106841666Y-107708584D01*
X106878500Y-107523404D01*
X106878500Y-106534596D01*
X106841666Y-106349416D01*
X106769412Y-106174980D01*
X106664516Y-106017992D01*
X106531008Y-105884484D01*
X106374020Y-105779588D01*
X106199584Y-105707334D01*
X106014407Y-105670500D01*
X106014404Y-105670500D01*
X105825596Y-105670500D01*
X105825592Y-105670500D01*
X105640415Y-105707334D01*
X105640410Y-105707336D01*
X105465980Y-105779588D01*
X105308996Y-105884481D01*
X105308989Y-105884486D01*
X105175486Y-106017989D01*
X105175481Y-106017996D01*
X105070588Y-106174980D01*
X104998336Y-106349410D01*
X104998334Y-106349415D01*
X104961500Y-106534592D01*
X98238499Y-106534592D01*
X98201666Y-106349416D01*
X98129412Y-106174980D01*
X98024516Y-106017992D01*
X97891008Y-105884484D01*
X97814217Y-105833174D01*
X97775002Y-105806971D01*
X97729474Y-105752494D01*
X97720626Y-105682051D01*
X97751268Y-105618007D01*
X97811669Y-105580696D01*
X97820403Y-105578632D01*
X97851800Y-105572387D01*
X98017136Y-105503902D01*
X98165935Y-105404478D01*
X98292478Y-105277935D01*
X98391902Y-105129136D01*
X98460387Y-104963800D01*
X98495300Y-104788279D01*
X98495300Y-104609321D01*
X98460387Y-104433800D01*
X98391902Y-104268464D01*
X98292478Y-104119665D01*
X98165935Y-103993122D01*
X98161558Y-103988745D01*
X98163834Y-103986468D01*
X98131218Y-103939846D01*
X98128432Y-103868904D01*
X98134217Y-103851418D01*
X98201666Y-103688584D01*
X98238500Y-103503404D01*
X98238500Y-103202429D01*
X98245647Y-103178088D01*
X98248645Y-103152896D01*
X98255476Y-103144612D01*
X98258502Y-103134309D01*
X98277675Y-103117694D01*
X98293817Y-103098123D01*
X98304042Y-103094847D01*
X98312158Y-103087816D01*
X98337269Y-103084205D01*
X98361430Y-103076467D01*
X98371803Y-103079240D01*
X98382432Y-103077712D01*
X98405509Y-103088251D01*
X98430018Y-103094804D01*
X98440288Y-103104135D01*
X98447012Y-103107206D01*
X98457686Y-103117622D01*
X98461748Y-103122086D01*
X98536739Y-103222261D01*
X98587502Y-103260261D01*
X98595578Y-103269135D01*
X98603579Y-103285583D01*
X98611529Y-103295647D01*
X98613528Y-103294580D01*
X98616439Y-103300028D01*
X98616444Y-103300036D01*
X98616445Y-103300037D01*
X98632766Y-103324463D01*
X98642477Y-103355478D01*
X98666886Y-103379887D01*
X98671767Y-103385050D01*
X98677649Y-103391636D01*
X98688509Y-103407889D01*
X98722715Y-103442094D01*
X98725076Y-103444738D01*
X98738842Y-103473723D01*
X98754220Y-103501885D01*
X98754806Y-103507336D01*
X98755534Y-103508869D01*
X98755227Y-103511254D01*
X98757100Y-103528670D01*
X98757100Y-104044137D01*
X98782406Y-104171354D01*
X98782407Y-104171357D01*
X98800729Y-104215591D01*
X98832045Y-104291194D01*
X98904109Y-104399046D01*
X99512154Y-105007091D01*
X99598669Y-105064898D01*
X99620006Y-105079155D01*
X99739846Y-105128794D01*
X99867066Y-105154100D01*
X102934857Y-105154100D01*
X103062077Y-105128794D01*
X103181917Y-105079155D01*
X103289769Y-105007091D01*
X104361002Y-103935858D01*
X104433066Y-103828006D01*
X104482380Y-103708953D01*
X104482704Y-103708172D01*
X104482704Y-103708169D01*
X104482706Y-103708166D01*
X104508011Y-103580945D01*
X104508011Y-103457180D01*
X104519190Y-103405294D01*
X104557179Y-103321226D01*
X104563339Y-103314059D01*
X104566002Y-103304991D01*
X104596489Y-103272245D01*
X104663261Y-103222261D01*
X104729101Y-103134309D01*
X104734632Y-103126921D01*
X104791468Y-103084374D01*
X104862283Y-103079310D01*
X104924595Y-103113335D01*
X104958621Y-103175647D01*
X104961500Y-103202430D01*
X104961500Y-103503407D01*
X104985091Y-103622005D01*
X104998334Y-103688584D01*
X105070588Y-103863020D01*
X105175484Y-104020008D01*
X105308992Y-104153516D01*
X105465980Y-104258412D01*
X105640416Y-104330666D01*
X105825596Y-104367500D01*
X105825597Y-104367500D01*
X106014403Y-104367500D01*
X106014404Y-104367500D01*
X106199584Y-104330666D01*
X106374020Y-104258412D01*
X106531008Y-104153516D01*
X106608821Y-104075702D01*
X106671129Y-104041680D01*
X106741945Y-104046744D01*
X106798781Y-104089290D01*
X106823592Y-104155810D01*
X106820755Y-104192835D01*
X106815561Y-104215591D01*
X106781500Y-104517892D01*
X106781500Y-104822107D01*
X106815561Y-105124410D01*
X106850603Y-105277935D01*
X106883254Y-105420991D01*
X106883256Y-105420997D01*
X106883255Y-105420997D01*
X106983722Y-105708113D01*
X106983733Y-105708140D01*
X107115719Y-105982212D01*
X107115724Y-105982221D01*
X107227339Y-106159854D01*
X107263967Y-106218148D01*
X107277575Y-106239804D01*
X107277578Y-106239808D01*
X107467241Y-106477640D01*
X107682359Y-106692758D01*
X107880127Y-106850471D01*
X107920199Y-106882427D01*
X108079521Y-106982536D01*
X108160249Y-107033261D01*
X108177783Y-107044278D01*
X108451869Y-107176271D01*
X108451885Y-107176276D01*
X108451886Y-107176277D01*
X108739002Y-107276744D01*
X108739005Y-107276744D01*
X108739009Y-107276746D01*
X108958534Y-107326850D01*
X109035589Y-107344438D01*
X109035590Y-107344438D01*
X109035594Y-107344439D01*
X109234984Y-107366904D01*
X109337892Y-107378500D01*
X109337894Y-107378500D01*
X109642108Y-107378500D01*
X109730047Y-107368591D01*
X109944406Y-107344439D01*
X110240991Y-107276746D01*
X110528131Y-107176271D01*
X110802217Y-107044278D01*
X111059801Y-106882427D01*
X111160849Y-106801844D01*
X111297640Y-106692758D01*
X111512758Y-106477640D01*
X111641101Y-106316702D01*
X111702427Y-106239801D01*
X111864278Y-105982217D01*
X111996271Y-105708131D01*
X112096746Y-105420991D01*
X112164439Y-105124406D01*
X112197278Y-104832949D01*
X112198500Y-104822107D01*
X112198500Y-104517892D01*
X112181555Y-104367500D01*
X112164439Y-104215594D01*
X112096746Y-103919009D01*
X112095140Y-103914420D01*
X111996277Y-103631886D01*
X111996276Y-103631885D01*
X111996271Y-103631869D01*
X111868984Y-103367555D01*
X111864280Y-103357787D01*
X111864275Y-103357778D01*
X111818408Y-103284782D01*
X111702427Y-103100199D01*
X111702421Y-103100191D01*
X111512758Y-102862359D01*
X111297640Y-102647241D01*
X111059808Y-102457578D01*
X111059804Y-102457575D01*
X111058855Y-102456979D01*
X110926229Y-102373644D01*
X110802221Y-102295724D01*
X110802212Y-102295719D01*
X110528140Y-102163733D01*
X110528135Y-102163731D01*
X110528131Y-102163729D01*
X110528125Y-102163726D01*
X110528113Y-102163722D01*
X110240997Y-102063255D01*
X109944410Y-101995561D01*
X109642108Y-101961500D01*
X109642106Y-101961500D01*
X109337894Y-101961500D01*
X109337892Y-101961500D01*
X109035589Y-101995561D01*
X108739002Y-102063255D01*
X108451886Y-102163722D01*
X108451859Y-102163733D01*
X108177787Y-102295719D01*
X108177778Y-102295724D01*
X107920195Y-102457575D01*
X107920191Y-102457578D01*
X107682359Y-102647241D01*
X107467241Y-102862359D01*
X107277578Y-103100191D01*
X107277575Y-103100195D01*
X107115724Y-103357778D01*
X107114778Y-103359491D01*
X107114435Y-103359830D01*
X107113841Y-103360776D01*
X107113620Y-103360637D01*
X107064320Y-103409436D01*
X106994870Y-103424173D01*
X106928477Y-103399023D01*
X106886221Y-103341971D01*
X106878500Y-103298542D01*
X106878500Y-102214597D01*
X106878499Y-102214592D01*
X106868382Y-102163729D01*
X106841666Y-102029416D01*
X106769412Y-101854980D01*
X106664516Y-101697992D01*
X106531008Y-101564484D01*
X106374020Y-101459588D01*
X106199584Y-101387334D01*
X106014407Y-101350500D01*
X106014404Y-101350500D01*
X105825596Y-101350500D01*
X105825592Y-101350500D01*
X105640415Y-101387334D01*
X105640406Y-101387337D01*
X105624622Y-101393875D01*
X105595773Y-101396975D01*
X105567421Y-101403144D01*
X105560924Y-101400721D01*
X105554032Y-101401462D01*
X105528090Y-101388475D01*
X105500900Y-101378335D01*
X105493949Y-101371384D01*
X105490546Y-101369681D01*
X105475540Y-101352976D01*
X105466716Y-101341189D01*
X105441904Y-101274669D01*
X105456994Y-101205295D01*
X105507195Y-101155092D01*
X105530098Y-101145383D01*
X105584705Y-101128366D01*
X105731840Y-101039421D01*
X105731850Y-101039413D01*
X105853413Y-100917850D01*
X105853421Y-100917840D01*
X105942366Y-100770706D01*
X105993518Y-100606553D01*
X105993518Y-100606552D01*
X106000000Y-100535222D01*
X106000000Y-100457000D01*
X105218000Y-100457000D01*
X105149879Y-100436998D01*
X105103386Y-100383342D01*
X105092000Y-100331000D01*
X105092000Y-100075000D01*
X105112002Y-100006879D01*
X105165658Y-99960386D01*
X105218000Y-99949000D01*
X105999999Y-99949000D01*
X105999999Y-99870778D01*
X105993518Y-99799446D01*
X105942366Y-99635293D01*
X105853421Y-99488159D01*
X105853413Y-99488149D01*
X105810001Y-99444737D01*
X105775975Y-99382425D01*
X105781040Y-99311610D01*
X105809998Y-99266549D01*
X106658922Y-98417627D01*
X106912921Y-98163628D01*
X106993032Y-98024873D01*
X107034500Y-97870110D01*
X107034500Y-97709890D01*
X107034500Y-88501689D01*
X107012452Y-88419404D01*
X107008190Y-88403499D01*
X107008190Y-88403498D01*
X107008189Y-88403496D01*
X106993033Y-88346931D01*
X106993032Y-88346927D01*
X106979846Y-88324089D01*
X106912924Y-88208176D01*
X106912919Y-88208170D01*
X106735502Y-88030753D01*
X106548270Y-87843521D01*
X106514247Y-87781211D01*
X106519311Y-87710396D01*
X106561858Y-87653560D01*
X106589142Y-87638022D01*
X106620336Y-87625102D01*
X106769135Y-87525678D01*
X106794114Y-87500698D01*
X106856422Y-87466675D01*
X106927237Y-87471739D01*
X106984074Y-87514284D01*
X106996729Y-87535126D01*
X107115719Y-87782212D01*
X107115724Y-87782221D01*
X107277575Y-88039804D01*
X107277578Y-88039808D01*
X107467241Y-88277640D01*
X107682359Y-88492758D01*
X107903076Y-88668772D01*
X107920199Y-88682427D01*
X108091989Y-88790370D01*
X108157265Y-88831386D01*
X108177783Y-88844278D01*
X108451869Y-88976271D01*
X108451885Y-88976276D01*
X108451886Y-88976277D01*
X108739002Y-89076744D01*
X108739005Y-89076744D01*
X108739009Y-89076746D01*
X108926696Y-89119584D01*
X109035589Y-89144438D01*
X109035590Y-89144438D01*
X109035594Y-89144439D01*
X109234984Y-89166904D01*
X109337892Y-89178500D01*
X109337894Y-89178500D01*
X109642108Y-89178500D01*
X109730047Y-89168591D01*
X109944406Y-89144439D01*
X110240991Y-89076746D01*
X110528131Y-88976271D01*
X110802217Y-88844278D01*
X111059801Y-88682427D01*
X111182404Y-88584655D01*
X111297640Y-88492758D01*
X111512758Y-88277640D01*
X111682363Y-88064960D01*
X111702427Y-88039801D01*
X111864278Y-87782217D01*
X111996271Y-87508131D01*
X112090212Y-87239664D01*
X112096744Y-87220997D01*
X112096744Y-87220996D01*
X112096746Y-87220991D01*
X112164439Y-86924406D01*
X112195966Y-86644595D01*
X112198500Y-86622107D01*
X112198500Y-86317892D01*
X112179138Y-86146049D01*
X112164439Y-86015594D01*
X112096746Y-85719009D01*
X112080069Y-85671350D01*
X111996277Y-85431886D01*
X111996276Y-85431885D01*
X111996271Y-85431869D01*
X111880382Y-85191224D01*
X111864280Y-85157787D01*
X111864275Y-85157778D01*
X111796679Y-85050200D01*
X111702427Y-84900199D01*
X111702421Y-84900191D01*
X111512758Y-84662359D01*
X111297640Y-84447241D01*
X111059808Y-84257578D01*
X111059804Y-84257575D01*
X111043884Y-84247572D01*
X110922970Y-84171596D01*
X110802221Y-84095724D01*
X110802212Y-84095719D01*
X110528140Y-83963733D01*
X110528135Y-83963731D01*
X110528131Y-83963729D01*
X110528125Y-83963726D01*
X110528113Y-83963722D01*
X110240997Y-83863255D01*
X109944410Y-83795561D01*
X109642108Y-83761500D01*
X109642106Y-83761500D01*
X109337894Y-83761500D01*
X109337892Y-83761500D01*
X109035589Y-83795561D01*
X108739002Y-83863255D01*
X108451886Y-83963722D01*
X108451859Y-83963733D01*
X108177787Y-84095719D01*
X108177778Y-84095724D01*
X107920195Y-84257575D01*
X107920191Y-84257578D01*
X107682359Y-84447241D01*
X107467241Y-84662359D01*
X107277578Y-84900191D01*
X107277575Y-84900195D01*
X107115724Y-85157778D01*
X107115719Y-85157787D01*
X107020022Y-85356505D01*
X106972444Y-85409202D01*
X106903930Y-85427810D01*
X106836231Y-85406422D01*
X106790842Y-85351829D01*
X106780500Y-85301836D01*
X106780500Y-82921890D01*
X106780500Y-82921889D01*
X106739032Y-82767128D01*
X106729085Y-82749899D01*
X106658922Y-82628373D01*
X106538976Y-82508427D01*
X106518955Y-82482334D01*
X106508524Y-82464266D01*
X106508516Y-82464256D01*
X106311855Y-82267595D01*
X106277829Y-82205283D01*
X106282894Y-82134468D01*
X106325441Y-82077632D01*
X106391961Y-82052821D01*
X106400950Y-82052500D01*
X106675651Y-82052500D01*
X112543500Y-82052500D01*
X112611621Y-82072502D01*
X112658114Y-82126158D01*
X112669500Y-82178500D01*
X112669500Y-109083500D01*
X112649498Y-109151621D01*
X112595842Y-109198114D01*
X112543500Y-109209500D01*
X95907199Y-109209500D01*
X95839078Y-109189498D01*
X95792585Y-109135842D01*
X95782481Y-109065568D01*
X95811975Y-109000988D01*
X95842015Y-108975671D01*
X95964840Y-108901421D01*
X95964850Y-108901413D01*
X96086413Y-108779850D01*
X96086421Y-108779840D01*
X96175366Y-108632706D01*
X96226518Y-108468553D01*
X96226518Y-108468552D01*
X96233000Y-108397222D01*
X96233000Y-108394000D01*
X94267001Y-108394000D01*
X94267001Y-108397221D01*
X94273481Y-108468553D01*
X94324633Y-108632706D01*
X94413578Y-108779840D01*
X94413586Y-108779850D01*
X94535149Y-108901413D01*
X94535159Y-108901421D01*
X94657985Y-108975671D01*
X94705934Y-109028030D01*
X94717964Y-109098000D01*
X94690256Y-109163366D01*
X94631606Y-109203376D01*
X94592801Y-109209500D01*
X34776500Y-109209500D01*
X34708379Y-109189498D01*
X34661886Y-109135842D01*
X34650500Y-109083500D01*
X34650500Y-104517892D01*
X34931500Y-104517892D01*
X34931500Y-104822107D01*
X34965561Y-105124410D01*
X35000603Y-105277935D01*
X35033254Y-105420991D01*
X35033256Y-105420997D01*
X35033255Y-105420997D01*
X35133722Y-105708113D01*
X35133733Y-105708140D01*
X35265719Y-105982212D01*
X35265724Y-105982221D01*
X35377339Y-106159854D01*
X35413967Y-106218148D01*
X35427575Y-106239804D01*
X35427578Y-106239808D01*
X35617241Y-106477640D01*
X35832359Y-106692758D01*
X36030127Y-106850471D01*
X36070199Y-106882427D01*
X36229521Y-106982536D01*
X36310249Y-107033261D01*
X36327783Y-107044278D01*
X36601869Y-107176271D01*
X36601885Y-107176276D01*
X36601886Y-107176277D01*
X36889002Y-107276744D01*
X36889005Y-107276744D01*
X36889009Y-107276746D01*
X37108534Y-107326850D01*
X37185589Y-107344438D01*
X37185590Y-107344438D01*
X37185594Y-107344439D01*
X37384984Y-107366904D01*
X37487892Y-107378500D01*
X37487894Y-107378500D01*
X37792108Y-107378500D01*
X37880047Y-107368591D01*
X38094406Y-107344439D01*
X38390991Y-107276746D01*
X38678131Y-107176271D01*
X38952217Y-107044278D01*
X39209801Y-106882427D01*
X39310849Y-106801844D01*
X39447640Y-106692758D01*
X39605806Y-106534592D01*
X40441500Y-106534592D01*
X40441500Y-107523407D01*
X40476480Y-107699262D01*
X40478334Y-107708584D01*
X40550588Y-107883020D01*
X40655484Y-108040008D01*
X40788992Y-108173516D01*
X40945980Y-108278412D01*
X41120416Y-108350666D01*
X41305596Y-108387500D01*
X41305597Y-108387500D01*
X41494403Y-108387500D01*
X41494404Y-108387500D01*
X41679584Y-108350666D01*
X41854020Y-108278412D01*
X42011008Y-108173516D01*
X42144516Y-108040008D01*
X42249412Y-107883020D01*
X42321666Y-107708584D01*
X42358500Y-107523404D01*
X42358500Y-106534596D01*
X42321666Y-106349416D01*
X42249412Y-106174980D01*
X42144516Y-106017992D01*
X42011008Y-105884484D01*
X41854020Y-105779588D01*
X41679584Y-105707334D01*
X41494407Y-105670500D01*
X41494404Y-105670500D01*
X41305596Y-105670500D01*
X41305592Y-105670500D01*
X41120415Y-105707334D01*
X41120410Y-105707336D01*
X40945980Y-105779588D01*
X40788996Y-105884481D01*
X40788989Y-105884486D01*
X40655486Y-106017989D01*
X40655481Y-106017996D01*
X40550588Y-106174980D01*
X40478336Y-106349410D01*
X40478334Y-106349415D01*
X40441500Y-106534592D01*
X39605806Y-106534592D01*
X39662751Y-106477647D01*
X39662757Y-106477640D01*
X39684922Y-106449847D01*
X39684922Y-106449846D01*
X39706974Y-106422194D01*
X39852427Y-106239801D01*
X40014278Y-105982217D01*
X40146271Y-105708131D01*
X40246746Y-105420991D01*
X40314439Y-105124406D01*
X40347278Y-104832949D01*
X40348500Y-104822107D01*
X40348500Y-104517892D01*
X40331555Y-104367500D01*
X40314439Y-104215594D01*
X40246746Y-103919009D01*
X40245140Y-103914420D01*
X40146277Y-103631886D01*
X40146276Y-103631885D01*
X40146271Y-103631869D01*
X40018984Y-103367555D01*
X40014280Y-103357787D01*
X40014275Y-103357778D01*
X39968408Y-103284782D01*
X39852427Y-103100199D01*
X39852421Y-103100191D01*
X39662758Y-102862359D01*
X39447640Y-102647241D01*
X39209808Y-102457578D01*
X39209804Y-102457575D01*
X39208855Y-102456979D01*
X39076229Y-102373644D01*
X38952221Y-102295724D01*
X38952212Y-102295719D01*
X38678140Y-102163733D01*
X38678135Y-102163731D01*
X38678131Y-102163729D01*
X38678125Y-102163726D01*
X38678113Y-102163722D01*
X38390997Y-102063255D01*
X38094410Y-101995561D01*
X37792108Y-101961500D01*
X37792106Y-101961500D01*
X37487894Y-101961500D01*
X37487892Y-101961500D01*
X37185589Y-101995561D01*
X36889002Y-102063255D01*
X36601886Y-102163722D01*
X36601859Y-102163733D01*
X36327787Y-102295719D01*
X36327778Y-102295724D01*
X36070195Y-102457575D01*
X36070191Y-102457578D01*
X35832359Y-102647241D01*
X35617241Y-102862359D01*
X35427578Y-103100191D01*
X35427575Y-103100195D01*
X35265724Y-103357778D01*
X35265719Y-103357787D01*
X35133733Y-103631859D01*
X35133722Y-103631886D01*
X35033255Y-103919002D01*
X34965561Y-104215589D01*
X34931500Y-104517892D01*
X34650500Y-104517892D01*
X34650500Y-96360147D01*
X40579000Y-96360147D01*
X40579000Y-96380000D01*
X41308000Y-96380000D01*
X41308000Y-95676000D01*
X41263147Y-95676000D01*
X41162770Y-95686255D01*
X41162758Y-95686257D01*
X41000115Y-95740152D01*
X40854271Y-95830109D01*
X40854265Y-95830114D01*
X40733114Y-95951265D01*
X40733109Y-95951271D01*
X40643152Y-96097115D01*
X40589257Y-96259758D01*
X40589255Y-96259770D01*
X40579000Y-96360147D01*
X34650500Y-96360147D01*
X34650500Y-86317892D01*
X34931500Y-86317892D01*
X34931500Y-86622107D01*
X34965561Y-86924410D01*
X34998910Y-87070518D01*
X35033254Y-87220991D01*
X35033256Y-87220997D01*
X35033255Y-87220997D01*
X35133722Y-87508113D01*
X35133733Y-87508140D01*
X35265719Y-87782212D01*
X35265724Y-87782221D01*
X35427575Y-88039804D01*
X35427578Y-88039808D01*
X35617241Y-88277640D01*
X35832359Y-88492758D01*
X36053076Y-88668772D01*
X36070199Y-88682427D01*
X36241989Y-88790370D01*
X36307265Y-88831386D01*
X36327783Y-88844278D01*
X36601869Y-88976271D01*
X36601885Y-88976276D01*
X36601886Y-88976277D01*
X36889002Y-89076744D01*
X36889005Y-89076744D01*
X36889009Y-89076746D01*
X37076696Y-89119584D01*
X37185589Y-89144438D01*
X37185590Y-89144438D01*
X37185594Y-89144439D01*
X37384984Y-89166904D01*
X37487892Y-89178500D01*
X37487894Y-89178500D01*
X37792108Y-89178500D01*
X37880047Y-89168591D01*
X38094406Y-89144439D01*
X38390991Y-89076746D01*
X38678131Y-88976271D01*
X38952217Y-88844278D01*
X39209801Y-88682427D01*
X39332404Y-88584655D01*
X39447640Y-88492758D01*
X39662758Y-88277640D01*
X39832363Y-88064960D01*
X39852427Y-88039801D01*
X40014278Y-87782217D01*
X40146271Y-87508131D01*
X40240212Y-87239664D01*
X40246744Y-87220997D01*
X40246744Y-87220996D01*
X40246746Y-87220991D01*
X40314439Y-86924406D01*
X40345966Y-86644595D01*
X40348500Y-86622107D01*
X40348500Y-86426221D01*
X40673001Y-86426221D01*
X40679481Y-86497553D01*
X40730633Y-86661706D01*
X40819578Y-86808840D01*
X40819586Y-86808850D01*
X40941149Y-86930413D01*
X40941159Y-86930421D01*
X41088293Y-87019366D01*
X41252447Y-87070518D01*
X41323777Y-87076999D01*
X41401999Y-87076998D01*
X41402000Y-87076998D01*
X41402000Y-86423000D01*
X40673001Y-86423000D01*
X40673001Y-86426221D01*
X40348500Y-86426221D01*
X40348500Y-86317892D01*
X40329138Y-86146049D01*
X40314439Y-86015594D01*
X40246746Y-85719009D01*
X40230069Y-85671350D01*
X40146277Y-85431886D01*
X40146276Y-85431885D01*
X40146271Y-85431869D01*
X40030382Y-85191224D01*
X40014280Y-85157787D01*
X40014275Y-85157778D01*
X39946679Y-85050200D01*
X39852427Y-84900199D01*
X39852421Y-84900191D01*
X39662758Y-84662359D01*
X39447640Y-84447241D01*
X39209808Y-84257578D01*
X39209804Y-84257575D01*
X39193884Y-84247572D01*
X39072970Y-84171596D01*
X38952221Y-84095724D01*
X38952212Y-84095719D01*
X38678140Y-83963733D01*
X38678135Y-83963731D01*
X38678131Y-83963729D01*
X38678125Y-83963726D01*
X38678113Y-83963722D01*
X38390997Y-83863255D01*
X38094410Y-83795561D01*
X37792108Y-83761500D01*
X37792106Y-83761500D01*
X37487894Y-83761500D01*
X37487892Y-83761500D01*
X37185589Y-83795561D01*
X36889002Y-83863255D01*
X36601886Y-83963722D01*
X36601859Y-83963733D01*
X36327787Y-84095719D01*
X36327778Y-84095724D01*
X36070195Y-84257575D01*
X36070191Y-84257578D01*
X35832359Y-84447241D01*
X35617241Y-84662359D01*
X35427578Y-84900191D01*
X35427575Y-84900195D01*
X35265724Y-85157778D01*
X35265719Y-85157787D01*
X35133733Y-85431859D01*
X35133722Y-85431886D01*
X35033255Y-85719002D01*
X34965561Y-86015589D01*
X34931500Y-86317892D01*
X34650500Y-86317892D01*
X34650500Y-82178500D01*
X34670502Y-82110379D01*
X34724158Y-82063886D01*
X34776500Y-82052500D01*
X40635651Y-82052500D01*
X62720721Y-82052500D01*
X62788842Y-82072502D01*
G37*
%TD.AperFunction*%
%TA.AperFunction,Conductor*%
G36*
X98805057Y-98602609D02*
G01*
X98807148Y-98602071D01*
X98842454Y-98608366D01*
X98856480Y-98613002D01*
X98877308Y-98625849D01*
X99038686Y-98679324D01*
X99065373Y-98682050D01*
X99078426Y-98686365D01*
X99136828Y-98726736D01*
X99164132Y-98792272D01*
X99151670Y-98862166D01*
X99103399Y-98914228D01*
X99051691Y-98931346D01*
X99038694Y-98932674D01*
X99038692Y-98932674D01*
X98877307Y-98986151D01*
X98732612Y-99075400D01*
X98732606Y-99075405D01*
X98612405Y-99195606D01*
X98612400Y-99195612D01*
X98523151Y-99340307D01*
X98514575Y-99366188D01*
X98471457Y-99496313D01*
X98469675Y-99501690D01*
X98459500Y-99601280D01*
X98459500Y-100135710D01*
X98468694Y-100225703D01*
X98469676Y-100235314D01*
X98507097Y-100348243D01*
X98523151Y-100396692D01*
X98612400Y-100541387D01*
X98616953Y-100547145D01*
X98614685Y-100548937D01*
X98642379Y-100599653D01*
X98637314Y-100670468D01*
X98608355Y-100715530D01*
X98571995Y-100751890D01*
X98571994Y-100751892D01*
X98483518Y-100884305D01*
X98483516Y-100884307D01*
X98483516Y-100884309D01*
X98469180Y-100918920D01*
X98453786Y-100956085D01*
X98422571Y-101031443D01*
X98422570Y-101031447D01*
X98395579Y-101167139D01*
X98362671Y-101230048D01*
X98300976Y-101265180D01*
X98230081Y-101261380D01*
X98183220Y-101227588D01*
X98182905Y-101227904D01*
X98180957Y-101225956D01*
X98172495Y-101219854D01*
X98170964Y-101215963D01*
X98146001Y-101191000D01*
X98051402Y-101191000D01*
X97990906Y-101197505D01*
X97854035Y-101248555D01*
X97854034Y-101248555D01*
X97737096Y-101336095D01*
X97724458Y-101352977D01*
X97667621Y-101395522D01*
X97596805Y-101400585D01*
X97575375Y-101393874D01*
X97559594Y-101387337D01*
X97559584Y-101387334D01*
X97374407Y-101350500D01*
X97374404Y-101350500D01*
X97185596Y-101350500D01*
X97185592Y-101350500D01*
X97000415Y-101387334D01*
X97000410Y-101387336D01*
X96825980Y-101459588D01*
X96668996Y-101564481D01*
X96668989Y-101564486D01*
X96535486Y-101697989D01*
X96535481Y-101697996D01*
X96430588Y-101854980D01*
X96358336Y-102029410D01*
X96358334Y-102029415D01*
X96321500Y-102214592D01*
X96321500Y-103503407D01*
X96345091Y-103622005D01*
X96358334Y-103688584D01*
X96430588Y-103863020D01*
X96535484Y-104020008D01*
X96535486Y-104020010D01*
X96608368Y-104092892D01*
X96642394Y-104155204D01*
X96637329Y-104226019D01*
X96608368Y-104271082D01*
X95334854Y-105544595D01*
X95272542Y-105578621D01*
X95245759Y-105581500D01*
X94917738Y-105581500D01*
X94846353Y-105587986D01*
X94846352Y-105587986D01*
X94682093Y-105639170D01*
X94682092Y-105639170D01*
X94682087Y-105639172D01*
X94682087Y-105639173D01*
X94668763Y-105647227D01*
X94600120Y-105665349D01*
X94532574Y-105643483D01*
X94487573Y-105588570D01*
X94480003Y-105563979D01*
X94479948Y-105563703D01*
X94447187Y-105399000D01*
X94378702Y-105233664D01*
X94279278Y-105084865D01*
X94269005Y-105074592D01*
X94254060Y-105047223D01*
X94237204Y-105020995D01*
X94236298Y-105014696D01*
X94234979Y-105012280D01*
X94232100Y-104985497D01*
X94232100Y-104904729D01*
X94252102Y-104836608D01*
X94283943Y-104805637D01*
X94282753Y-104804118D01*
X94288747Y-104799420D01*
X94288755Y-104799416D01*
X94410416Y-104677755D01*
X94499427Y-104530513D01*
X94550613Y-104366249D01*
X94557100Y-104294865D01*
X94557099Y-103780336D01*
X94550613Y-103708951D01*
X94500593Y-103548429D01*
X94499429Y-103544693D01*
X94499427Y-103544688D01*
X94499427Y-103544687D01*
X94410416Y-103397445D01*
X94410415Y-103397444D01*
X94410411Y-103397439D01*
X94314667Y-103301695D01*
X94280641Y-103239383D01*
X94285706Y-103168568D01*
X94314667Y-103123505D01*
X94410411Y-103027760D01*
X94410416Y-103027755D01*
X94499427Y-102880513D01*
X94550613Y-102716249D01*
X94557100Y-102644865D01*
X94557099Y-102130336D01*
X94550613Y-102058951D01*
X94514525Y-101943139D01*
X94499429Y-101894693D01*
X94499427Y-101894688D01*
X94499427Y-101894687D01*
X94410416Y-101747445D01*
X94410415Y-101747444D01*
X94410411Y-101747439D01*
X94288760Y-101625788D01*
X94288755Y-101625784D01*
X94229235Y-101589803D01*
X94141513Y-101536773D01*
X94141512Y-101536772D01*
X94141511Y-101536772D01*
X94141506Y-101536770D01*
X93977246Y-101485586D01*
X93925323Y-101480868D01*
X93905865Y-101479100D01*
X93905862Y-101479100D01*
X93355420Y-101479100D01*
X93287299Y-101459098D01*
X93240806Y-101405442D01*
X93229420Y-101353100D01*
X93229420Y-99736164D01*
X93249422Y-99668043D01*
X93303078Y-99621550D01*
X93373352Y-99611446D01*
X93429481Y-99634228D01*
X93504454Y-99688699D01*
X93687900Y-99782170D01*
X93687906Y-99782173D01*
X93883705Y-99845791D01*
X93883701Y-99845791D01*
X94087061Y-99878000D01*
X94292939Y-99878000D01*
X94496296Y-99845791D01*
X94692093Y-99782173D01*
X94692099Y-99782170D01*
X94866338Y-99693391D01*
X94936115Y-99680287D01*
X95001899Y-99706987D01*
X95024409Y-99730149D01*
X95026738Y-99733261D01*
X95143792Y-99820887D01*
X95143794Y-99820888D01*
X95143796Y-99820889D01*
X95202875Y-99842924D01*
X95280795Y-99871988D01*
X95280803Y-99871990D01*
X95341350Y-99878499D01*
X95341355Y-99878499D01*
X95341362Y-99878500D01*
X95341368Y-99878500D01*
X97038632Y-99878500D01*
X97038638Y-99878500D01*
X97038645Y-99878499D01*
X97038649Y-99878499D01*
X97099196Y-99871990D01*
X97099199Y-99871989D01*
X97099201Y-99871989D01*
X97102561Y-99870736D01*
X97118045Y-99864960D01*
X97236204Y-99820889D01*
X97264849Y-99799446D01*
X97353261Y-99733261D01*
X97440887Y-99616207D01*
X97440887Y-99616206D01*
X97440889Y-99616204D01*
X97491989Y-99479201D01*
X97493808Y-99462287D01*
X97498499Y-99418649D01*
X97498500Y-99418632D01*
X97498500Y-98728000D01*
X97518502Y-98659879D01*
X97572158Y-98613386D01*
X97624500Y-98602000D01*
X98802910Y-98602000D01*
X98805057Y-98602609D01*
G37*
%TD.AperFunction*%
%TA.AperFunction,Conductor*%
G36*
X49929817Y-93744902D02*
G01*
X49976310Y-93798558D01*
X49986414Y-93868832D01*
X49956920Y-93933412D01*
X49950793Y-93939992D01*
X49407181Y-94483604D01*
X48866190Y-95024595D01*
X48803878Y-95058621D01*
X48777095Y-95061500D01*
X47886238Y-95061500D01*
X47825691Y-95068009D01*
X47825683Y-95068011D01*
X47688685Y-95119110D01*
X47688680Y-95119112D01*
X47571626Y-95206738D01*
X47484000Y-95323792D01*
X47483998Y-95323797D01*
X47432899Y-95460795D01*
X47432897Y-95460803D01*
X47426388Y-95521350D01*
X47426388Y-97218649D01*
X47432897Y-97279196D01*
X47432899Y-97279204D01*
X47483998Y-97416202D01*
X47484000Y-97416207D01*
X47571626Y-97533261D01*
X47688680Y-97620887D01*
X47688682Y-97620888D01*
X47688684Y-97620889D01*
X47745606Y-97642120D01*
X47825683Y-97671988D01*
X47825691Y-97671990D01*
X47886238Y-97678499D01*
X47886243Y-97678499D01*
X47886250Y-97678500D01*
X47886256Y-97678500D01*
X49583520Y-97678500D01*
X49583526Y-97678500D01*
X49583533Y-97678499D01*
X49583537Y-97678499D01*
X49644084Y-97671990D01*
X49644087Y-97671989D01*
X49644089Y-97671989D01*
X49781092Y-97620889D01*
X49784980Y-97617979D01*
X49894924Y-97535675D01*
X49898149Y-97533261D01*
X49900475Y-97530153D01*
X49903588Y-97527822D01*
X49904522Y-97526889D01*
X49904656Y-97527023D01*
X49957307Y-97487605D01*
X50028122Y-97482536D01*
X50058549Y-97493391D01*
X50232788Y-97582170D01*
X50232794Y-97582173D01*
X50428593Y-97645791D01*
X50428589Y-97645791D01*
X50631949Y-97678000D01*
X50837827Y-97678000D01*
X51041184Y-97645791D01*
X51236981Y-97582173D01*
X51236987Y-97582170D01*
X51420429Y-97488701D01*
X51463260Y-97457582D01*
X50775677Y-96770000D01*
X50787549Y-96770000D01*
X50889282Y-96742741D01*
X50980494Y-96690080D01*
X51054968Y-96615606D01*
X51107629Y-96524394D01*
X51134888Y-96422661D01*
X51134888Y-96410791D01*
X51822469Y-97098372D01*
X51822470Y-97098372D01*
X51853589Y-97055541D01*
X51947058Y-96872099D01*
X51947061Y-96872093D01*
X52010679Y-96676296D01*
X52042888Y-96472938D01*
X52042888Y-96267061D01*
X52025686Y-96158452D01*
X52826200Y-96158452D01*
X52836455Y-96258829D01*
X52836457Y-96258841D01*
X52890352Y-96421484D01*
X52980309Y-96567328D01*
X52980314Y-96567334D01*
X53101465Y-96688485D01*
X53101471Y-96688490D01*
X53247315Y-96778447D01*
X53409958Y-96832342D01*
X53409970Y-96832344D01*
X53510347Y-96842599D01*
X53510347Y-96842600D01*
X53530200Y-96842600D01*
X53530200Y-96113600D01*
X52826200Y-96113600D01*
X52826200Y-96158452D01*
X52025686Y-96158452D01*
X52013438Y-96081120D01*
X52013438Y-96081119D01*
X52010679Y-96063703D01*
X51947061Y-95867906D01*
X51947058Y-95867900D01*
X51853587Y-95684454D01*
X51822471Y-95641626D01*
X51822470Y-95641626D01*
X51134888Y-96329208D01*
X51134888Y-96317339D01*
X51107629Y-96215606D01*
X51054968Y-96124394D01*
X50980494Y-96049920D01*
X50889282Y-95997259D01*
X50787549Y-95970000D01*
X50775678Y-95970000D01*
X51463260Y-95282417D01*
X51463260Y-95282416D01*
X51420429Y-95251298D01*
X51420428Y-95251297D01*
X51341276Y-95210967D01*
X51320494Y-95191339D01*
X51297608Y-95174206D01*
X51295027Y-95167286D01*
X51289661Y-95162218D01*
X51282790Y-95134473D01*
X51272800Y-95107685D01*
X51274369Y-95100469D01*
X51272595Y-95093303D01*
X51281815Y-95066246D01*
X51287893Y-95038311D01*
X51294211Y-95029871D01*
X51295496Y-95026102D01*
X51309375Y-95009614D01*
X51341988Y-94977002D01*
X51404302Y-94942979D01*
X51431081Y-94940100D01*
X52420523Y-94940100D01*
X52488644Y-94960102D01*
X52509613Y-94977000D01*
X52569813Y-95037200D01*
X52714508Y-95126449D01*
X52804489Y-95156265D01*
X52862858Y-95196678D01*
X52890114Y-95262234D01*
X52884459Y-95315502D01*
X52836456Y-95460366D01*
X52836455Y-95460370D01*
X52826200Y-95560747D01*
X52826200Y-95605600D01*
X53658200Y-95605600D01*
X53726321Y-95625602D01*
X53772814Y-95679258D01*
X53784200Y-95731600D01*
X53784200Y-95859600D01*
X53912200Y-95859600D01*
X53980321Y-95879602D01*
X54026814Y-95933258D01*
X54038200Y-95985600D01*
X54038200Y-96842600D01*
X54058053Y-96842600D01*
X54058052Y-96842599D01*
X54158429Y-96832344D01*
X54158441Y-96832342D01*
X54321084Y-96778447D01*
X54466927Y-96688490D01*
X54469746Y-96685672D01*
X54472160Y-96684353D01*
X54472686Y-96683938D01*
X54472756Y-96684027D01*
X54532056Y-96651643D01*
X54602872Y-96656704D01*
X54647945Y-96685670D01*
X54651160Y-96688885D01*
X54797099Y-96778902D01*
X54959864Y-96832836D01*
X54979956Y-96834888D01*
X55060320Y-96843100D01*
X55060328Y-96843100D01*
X55608080Y-96843100D01*
X55681136Y-96835635D01*
X55708536Y-96832836D01*
X55871301Y-96778902D01*
X56017240Y-96688885D01*
X56017241Y-96688883D01*
X56020524Y-96686859D01*
X56086671Y-96668100D01*
X58565500Y-96668100D01*
X58633621Y-96688102D01*
X58680114Y-96741758D01*
X58691500Y-96794100D01*
X58691500Y-97546649D01*
X58698009Y-97607196D01*
X58698011Y-97607204D01*
X58749110Y-97744202D01*
X58749112Y-97744207D01*
X58836738Y-97861261D01*
X58953792Y-97948887D01*
X58953794Y-97948888D01*
X58953796Y-97948889D01*
X58985288Y-97960635D01*
X59090795Y-97999988D01*
X59090803Y-97999990D01*
X59151350Y-98006499D01*
X59151355Y-98006499D01*
X59151362Y-98006500D01*
X60530300Y-98006500D01*
X60598421Y-98026502D01*
X60644914Y-98080158D01*
X60656300Y-98132500D01*
X60656300Y-98603361D01*
X60636298Y-98671482D01*
X60619395Y-98692456D01*
X59021660Y-100290190D01*
X58959348Y-100324216D01*
X58888532Y-100319151D01*
X58831697Y-100276604D01*
X58806886Y-100210084D01*
X58816156Y-100152879D01*
X58835990Y-100104997D01*
X58904134Y-99850680D01*
X58938500Y-99589644D01*
X58938500Y-99326356D01*
X58904134Y-99065320D01*
X58835990Y-98811003D01*
X58735234Y-98567757D01*
X58735228Y-98567748D01*
X58735227Y-98567744D01*
X58603592Y-98339746D01*
X58468457Y-98163634D01*
X58443311Y-98130862D01*
X58443310Y-98130861D01*
X58443301Y-98130851D01*
X58257148Y-97944698D01*
X58257138Y-97944689D01*
X58159944Y-97870110D01*
X58048257Y-97784410D01*
X58048256Y-97784409D01*
X58048253Y-97784407D01*
X57820255Y-97652772D01*
X57820247Y-97652768D01*
X57820243Y-97652766D01*
X57576997Y-97552010D01*
X57322680Y-97483866D01*
X57322678Y-97483865D01*
X57322672Y-97483864D01*
X57061646Y-97449500D01*
X57061644Y-97449500D01*
X56798356Y-97449500D01*
X56798353Y-97449500D01*
X56537327Y-97483864D01*
X56300260Y-97547386D01*
X56283003Y-97552010D01*
X56053922Y-97646899D01*
X56039755Y-97652767D01*
X56039744Y-97652772D01*
X55811746Y-97784407D01*
X55602861Y-97944689D01*
X55602851Y-97944698D01*
X55416698Y-98130851D01*
X55416689Y-98130861D01*
X55256407Y-98339746D01*
X55124772Y-98567744D01*
X55124767Y-98567755D01*
X55124766Y-98567757D01*
X55086608Y-98659879D01*
X55024010Y-98811003D01*
X54955864Y-99065327D01*
X54921500Y-99326353D01*
X54921500Y-99589646D01*
X54955864Y-99850672D01*
X54955865Y-99850678D01*
X54955866Y-99850680D01*
X55024010Y-100104997D01*
X55124766Y-100348243D01*
X55124767Y-100348244D01*
X55124772Y-100348255D01*
X55256409Y-100576257D01*
X55302157Y-100635877D01*
X55327757Y-100702097D01*
X55313492Y-100771646D01*
X55263890Y-100822442D01*
X55202194Y-100838580D01*
X54628196Y-100838580D01*
X54560075Y-100818578D01*
X54539105Y-100801679D01*
X54291704Y-100554278D01*
X54291701Y-100554276D01*
X54291700Y-100554275D01*
X54152954Y-100474170D01*
X54152951Y-100474169D01*
X54152950Y-100474168D01*
X54152948Y-100474167D01*
X54152947Y-100474167D01*
X54053926Y-100447635D01*
X53998188Y-100432700D01*
X51609019Y-100432700D01*
X51592979Y-100436998D01*
X51553281Y-100447635D01*
X51454259Y-100474167D01*
X51454252Y-100474170D01*
X51315505Y-100554276D01*
X51315495Y-100554284D01*
X50770283Y-101099496D01*
X50770275Y-101099506D01*
X50690170Y-101238252D01*
X50690165Y-101238264D01*
X50672639Y-101303671D01*
X50672640Y-101303672D01*
X50654378Y-101371827D01*
X50617426Y-101432450D01*
X50553566Y-101463471D01*
X50484453Y-101455625D01*
X50319589Y-101387336D01*
X50319584Y-101387334D01*
X50134407Y-101350500D01*
X50134404Y-101350500D01*
X49945596Y-101350500D01*
X49945592Y-101350500D01*
X49760415Y-101387334D01*
X49760406Y-101387337D01*
X49744622Y-101393875D01*
X49674032Y-101401462D01*
X49612889Y-101371809D01*
X49511936Y-101282441D01*
X49495697Y-101256574D01*
X49477398Y-101232129D01*
X49477018Y-101226819D01*
X49474188Y-101222311D01*
X49474511Y-101191770D01*
X49472334Y-101161314D01*
X49474884Y-101156642D01*
X49474941Y-101151319D01*
X49491724Y-101125802D01*
X49506359Y-101099001D01*
X49512536Y-101094161D01*
X49513956Y-101092003D01*
X49517038Y-101090634D01*
X49530271Y-101080268D01*
X49597837Y-101039424D01*
X49597850Y-101039413D01*
X49719413Y-100917850D01*
X49719421Y-100917840D01*
X49808366Y-100770706D01*
X49859518Y-100606553D01*
X49859518Y-100606552D01*
X49866000Y-100535222D01*
X49866000Y-100457000D01*
X49212000Y-100457000D01*
X49212000Y-101227809D01*
X49191998Y-101295930D01*
X49175095Y-101316904D01*
X49174000Y-101317999D01*
X49174000Y-101583143D01*
X49153998Y-101651264D01*
X49100342Y-101697757D01*
X49030068Y-101707861D01*
X48965488Y-101678367D01*
X48927104Y-101618641D01*
X48922722Y-101596611D01*
X48921990Y-101589803D01*
X48921988Y-101589795D01*
X48883461Y-101486502D01*
X48870889Y-101452796D01*
X48870888Y-101452794D01*
X48870887Y-101452792D01*
X48783261Y-101335738D01*
X48716491Y-101285755D01*
X48713709Y-101282038D01*
X48709488Y-101280111D01*
X48692633Y-101253885D01*
X48673944Y-101228919D01*
X48672911Y-101223198D01*
X48671104Y-101220385D01*
X48666000Y-101184887D01*
X48666000Y-101149191D01*
X48686002Y-101081070D01*
X48702905Y-101060096D01*
X48704000Y-101059001D01*
X48704000Y-99949000D01*
X49212000Y-99949000D01*
X49865999Y-99949000D01*
X49865999Y-99870778D01*
X49859518Y-99799446D01*
X49808366Y-99635293D01*
X49719421Y-99488159D01*
X49719413Y-99488149D01*
X49597850Y-99366586D01*
X49597840Y-99366578D01*
X49450706Y-99277633D01*
X49286552Y-99226481D01*
X49215223Y-99220000D01*
X49212000Y-99220000D01*
X49212000Y-99949000D01*
X48704000Y-99949000D01*
X48704000Y-99220000D01*
X48700768Y-99220001D01*
X48629446Y-99226481D01*
X48465293Y-99277633D01*
X48318159Y-99366578D01*
X48318149Y-99366586D01*
X48222449Y-99462287D01*
X48160137Y-99496313D01*
X48089322Y-99491248D01*
X48044259Y-99462287D01*
X47948160Y-99366188D01*
X47948155Y-99366184D01*
X47896170Y-99334758D01*
X47800913Y-99277173D01*
X47800912Y-99277172D01*
X47800911Y-99277172D01*
X47800906Y-99277170D01*
X47636646Y-99225986D01*
X47584723Y-99221268D01*
X47565265Y-99219500D01*
X47565262Y-99219500D01*
X47179500Y-99219500D01*
X47111379Y-99199498D01*
X47064886Y-99145842D01*
X47053500Y-99093500D01*
X47053500Y-94321957D01*
X47073502Y-94253836D01*
X47090405Y-94232862D01*
X47561462Y-93761805D01*
X47623774Y-93727779D01*
X47650557Y-93724900D01*
X49861696Y-93724900D01*
X49929817Y-93744902D01*
G37*
%TD.AperFunction*%
%TA.AperFunction,Conductor*%
G36*
X104374507Y-94713935D02*
G01*
X104383197Y-94713933D01*
X104393417Y-94720497D01*
X104413876Y-94727597D01*
X104466899Y-94760302D01*
X104629664Y-94814236D01*
X104649756Y-94816288D01*
X104730120Y-94824500D01*
X105241980Y-94824500D01*
X105310101Y-94844502D01*
X105356594Y-94898158D01*
X105367980Y-94950500D01*
X105367980Y-97299563D01*
X105347978Y-97367684D01*
X105331075Y-97388658D01*
X104686138Y-98033595D01*
X104623826Y-98067621D01*
X104597043Y-98070500D01*
X104046691Y-98070500D01*
X103978570Y-98050498D01*
X103970507Y-98044000D01*
X103136000Y-98044000D01*
X103067879Y-98023998D01*
X103021386Y-97970342D01*
X103010000Y-97918000D01*
X103010000Y-97662000D01*
X103030002Y-97593879D01*
X103083658Y-97547386D01*
X103136000Y-97536000D01*
X103968000Y-97536000D01*
X103968000Y-97491147D01*
X103957744Y-97390770D01*
X103957742Y-97390758D01*
X103903847Y-97228115D01*
X103813890Y-97082271D01*
X103813885Y-97082265D01*
X103692734Y-96961114D01*
X103692725Y-96961107D01*
X103689523Y-96959132D01*
X103687789Y-96957204D01*
X103686973Y-96956559D01*
X103687083Y-96956419D01*
X103642045Y-96906345D01*
X103630643Y-96836270D01*
X103658937Y-96771155D01*
X103717942Y-96731673D01*
X103744269Y-96726409D01*
X103781649Y-96723013D01*
X103945913Y-96671827D01*
X104093155Y-96582816D01*
X104214816Y-96461155D01*
X104303827Y-96313913D01*
X104355013Y-96149649D01*
X104361500Y-96078265D01*
X104361499Y-95563736D01*
X104355013Y-95492351D01*
X104303827Y-95328087D01*
X104214816Y-95180845D01*
X104214815Y-95180844D01*
X104214811Y-95180839D01*
X104119067Y-95085095D01*
X104116851Y-95081037D01*
X104112960Y-95078538D01*
X104099991Y-95050161D01*
X104085041Y-95022783D01*
X104085370Y-95018171D01*
X104083449Y-95013966D01*
X104087880Y-94983087D01*
X104090106Y-94951968D01*
X104093060Y-94946986D01*
X104093534Y-94943689D01*
X104103723Y-94929009D01*
X104112915Y-94913513D01*
X104115869Y-94910101D01*
X104214816Y-94811155D01*
X104245459Y-94760463D01*
X104252485Y-94752352D01*
X104273681Y-94738722D01*
X104292263Y-94721706D01*
X104303020Y-94719856D01*
X104312201Y-94713953D01*
X104337398Y-94713945D01*
X104362233Y-94709676D01*
X104374507Y-94713935D01*
G37*
%TD.AperFunction*%
%TA.AperFunction,Conductor*%
G36*
X96190682Y-83911502D02*
G01*
X96211656Y-83928405D01*
X96919595Y-84636344D01*
X96953621Y-84698656D01*
X96956500Y-84725439D01*
X96956500Y-86373090D01*
X96956500Y-86533310D01*
X96997968Y-86688073D01*
X96997969Y-86688075D01*
X96997970Y-86688077D01*
X97078075Y-86826823D01*
X97078083Y-86826833D01*
X98533166Y-88281916D01*
X98533171Y-88281920D01*
X98533173Y-88281922D01*
X98533174Y-88281923D01*
X98533176Y-88281924D01*
X98590842Y-88315217D01*
X98612212Y-88327555D01*
X98671928Y-88362032D01*
X98826689Y-88403500D01*
X98826690Y-88403500D01*
X98986910Y-88403500D01*
X99026761Y-88403500D01*
X99094882Y-88423502D01*
X99141375Y-88477158D01*
X99151479Y-88547432D01*
X99121985Y-88612012D01*
X99115869Y-88618581D01*
X98914451Y-88820000D01*
X98319080Y-89415370D01*
X98319075Y-89415376D01*
X98238966Y-89554129D01*
X98226063Y-89602283D01*
X98226064Y-89602284D01*
X98197500Y-89708888D01*
X98197500Y-92790111D01*
X98214516Y-92853619D01*
X98214517Y-92853619D01*
X98214517Y-92853620D01*
X98234254Y-92927278D01*
X98238968Y-92944872D01*
X98238970Y-92944877D01*
X98319075Y-93083623D01*
X98319077Y-93083625D01*
X98319078Y-93083627D01*
X98604096Y-93368645D01*
X98876595Y-93641143D01*
X98910620Y-93703456D01*
X98913500Y-93730239D01*
X98913500Y-93764681D01*
X98915369Y-93774075D01*
X98948413Y-93940200D01*
X99016898Y-94105536D01*
X99116322Y-94254335D01*
X99242865Y-94380878D01*
X99391664Y-94480302D01*
X99557000Y-94548787D01*
X99732521Y-94583700D01*
X99732522Y-94583700D01*
X99884694Y-94583700D01*
X99952815Y-94603702D01*
X99999308Y-94657358D01*
X100009972Y-94696230D01*
X100013505Y-94729094D01*
X100064555Y-94865964D01*
X100064555Y-94865965D01*
X100152095Y-94982904D01*
X100269034Y-95070444D01*
X100405906Y-95121494D01*
X100466402Y-95127999D01*
X100466415Y-95128000D01*
X101165000Y-95128000D01*
X101165000Y-94604500D01*
X101167591Y-94595674D01*
X101166282Y-94586568D01*
X101177437Y-94562142D01*
X101185002Y-94536379D01*
X101191955Y-94530354D01*
X101195776Y-94521988D01*
X101218361Y-94507473D01*
X101238658Y-94489886D01*
X101249344Y-94487561D01*
X101255502Y-94483604D01*
X101291000Y-94478500D01*
X101489000Y-94478500D01*
X101557121Y-94498502D01*
X101603614Y-94552158D01*
X101615000Y-94604500D01*
X101615000Y-95128000D01*
X101898674Y-95128000D01*
X101966795Y-95148002D01*
X102013288Y-95201658D01*
X102020379Y-95221385D01*
X102029199Y-95254300D01*
X102036448Y-95281352D01*
X102036450Y-95281357D01*
X102116555Y-95420103D01*
X102116557Y-95420105D01*
X102116558Y-95420107D01*
X102357596Y-95661145D01*
X102391620Y-95723456D01*
X102394500Y-95750239D01*
X102394500Y-96078261D01*
X102400986Y-96149646D01*
X102400986Y-96149647D01*
X102452170Y-96313906D01*
X102452172Y-96313911D01*
X102452173Y-96313913D01*
X102492124Y-96380000D01*
X102541184Y-96461155D01*
X102541188Y-96461160D01*
X102662839Y-96582811D01*
X102662841Y-96582812D01*
X102662845Y-96582816D01*
X102670070Y-96587184D01*
X102718017Y-96639539D01*
X102730048Y-96709509D01*
X102702341Y-96774876D01*
X102643692Y-96814886D01*
X102639609Y-96815981D01*
X102473115Y-96871152D01*
X102327271Y-96961109D01*
X102327267Y-96961112D01*
X102324442Y-96963938D01*
X102322026Y-96965256D01*
X102321514Y-96965662D01*
X102321444Y-96965574D01*
X102262128Y-96997959D01*
X102191312Y-96992890D01*
X102146253Y-96963928D01*
X102143040Y-96960715D01*
X101997101Y-96870698D01*
X101834336Y-96816764D01*
X101834333Y-96816763D01*
X101733880Y-96806500D01*
X101733872Y-96806500D01*
X101186128Y-96806500D01*
X101186120Y-96806500D01*
X101085666Y-96816763D01*
X100922899Y-96870698D01*
X100776959Y-96960715D01*
X100776953Y-96960720D01*
X100684426Y-97053248D01*
X100622114Y-97087274D01*
X100551299Y-97082209D01*
X100506236Y-97053248D01*
X100403393Y-96950405D01*
X100403387Y-96950400D01*
X100258692Y-96861151D01*
X100257772Y-96860846D01*
X100097314Y-96807676D01*
X100097311Y-96807675D01*
X100097309Y-96807675D01*
X99997719Y-96797500D01*
X99138289Y-96797500D01*
X99038690Y-96807675D01*
X99038687Y-96807675D01*
X99038686Y-96807676D01*
X98877308Y-96861151D01*
X98869057Y-96866240D01*
X98802910Y-96885000D01*
X97107288Y-96885000D01*
X97107268Y-96884999D01*
X97101055Y-96884999D01*
X96931945Y-96884999D01*
X96931941Y-96884999D01*
X96766083Y-96917991D01*
X96766082Y-96917992D01*
X96687843Y-96950400D01*
X96643978Y-96968570D01*
X96609846Y-96982708D01*
X96469239Y-97076658D01*
X96469233Y-97076663D01*
X96406297Y-97139600D01*
X96349659Y-97196238D01*
X96349657Y-97196240D01*
X96333786Y-97212111D01*
X96321300Y-97224597D01*
X96293960Y-97239525D01*
X96258989Y-97258621D01*
X96232206Y-97261500D01*
X95341350Y-97261500D01*
X95280803Y-97268009D01*
X95280795Y-97268011D01*
X95143797Y-97319110D01*
X95143792Y-97319112D01*
X95026738Y-97406739D01*
X95024404Y-97409857D01*
X95021286Y-97412190D01*
X95020367Y-97413110D01*
X95020234Y-97412977D01*
X94967566Y-97452400D01*
X94896750Y-97457460D01*
X94866338Y-97446608D01*
X94692099Y-97357829D01*
X94692093Y-97357826D01*
X94496294Y-97294208D01*
X94496298Y-97294208D01*
X94292939Y-97262000D01*
X94087061Y-97262000D01*
X93883703Y-97294208D01*
X93687906Y-97357826D01*
X93687900Y-97357829D01*
X93504456Y-97451299D01*
X93429480Y-97505772D01*
X93362612Y-97529630D01*
X93293461Y-97513549D01*
X93243981Y-97462634D01*
X93229420Y-97403835D01*
X93229420Y-95576610D01*
X93225971Y-95563738D01*
X93187952Y-95421848D01*
X93164554Y-95381321D01*
X93131729Y-95324466D01*
X93126199Y-95314888D01*
X93109461Y-95245893D01*
X93132682Y-95178801D01*
X93188489Y-95134914D01*
X93248787Y-95126610D01*
X93266362Y-95128500D01*
X93266368Y-95128500D01*
X95113632Y-95128500D01*
X95113638Y-95128500D01*
X95113645Y-95128499D01*
X95113649Y-95128499D01*
X95174196Y-95121990D01*
X95174199Y-95121989D01*
X95174201Y-95121989D01*
X95181915Y-95119112D01*
X95212551Y-95107685D01*
X95311204Y-95070889D01*
X95311799Y-95070444D01*
X95428261Y-94983261D01*
X95515887Y-94866207D01*
X95515887Y-94866206D01*
X95515889Y-94866204D01*
X95566989Y-94729201D01*
X95567162Y-94727598D01*
X95573499Y-94668649D01*
X95573500Y-94668632D01*
X95573500Y-94121366D01*
X95573499Y-94121354D01*
X95571832Y-94105850D01*
X95569426Y-94083468D01*
X95569426Y-94056530D01*
X95570702Y-94044663D01*
X95573500Y-94018638D01*
X95573500Y-93471362D01*
X95569426Y-93433468D01*
X95569426Y-93406530D01*
X95573499Y-93368645D01*
X95573500Y-93368633D01*
X95573500Y-92821366D01*
X95573499Y-92821354D01*
X95569426Y-92783470D01*
X95569426Y-92756530D01*
X95573499Y-92718645D01*
X95573500Y-92718633D01*
X95573500Y-92507045D01*
X95593502Y-92438924D01*
X95647158Y-92392431D01*
X95666883Y-92385340D01*
X95683008Y-92381020D01*
X95753873Y-92362032D01*
X95892627Y-92281922D01*
X96105433Y-92069116D01*
X96185543Y-91930361D01*
X96200347Y-91875110D01*
X96227011Y-91775600D01*
X96227011Y-88564400D01*
X96227011Y-86050280D01*
X96185543Y-85895519D01*
X96105432Y-85756763D01*
X95992139Y-85643470D01*
X95806747Y-85458078D01*
X95806745Y-85458077D01*
X95806743Y-85458075D01*
X95667997Y-85377970D01*
X95667995Y-85377969D01*
X95667993Y-85377968D01*
X95571944Y-85352232D01*
X95571943Y-85352231D01*
X95513231Y-85336500D01*
X95443162Y-85336500D01*
X95375041Y-85316498D01*
X95367653Y-85311368D01*
X95311207Y-85269112D01*
X95311202Y-85269110D01*
X95174204Y-85218011D01*
X95174196Y-85218009D01*
X95113649Y-85211500D01*
X95113638Y-85211500D01*
X94369239Y-85211500D01*
X94301118Y-85191498D01*
X94280144Y-85174595D01*
X93212144Y-84106595D01*
X93178118Y-84044283D01*
X93183183Y-83973468D01*
X93225730Y-83916632D01*
X93292250Y-83891821D01*
X93301239Y-83891500D01*
X96122561Y-83891500D01*
X96190682Y-83911502D01*
G37*
%TD.AperFunction*%
%TA.AperFunction,Conductor*%
G36*
X66217838Y-95497502D02*
G01*
X66264331Y-95551158D01*
X66275328Y-95613389D01*
X66271625Y-95660416D01*
X66895463Y-96284254D01*
X66816657Y-96305370D01*
X66708343Y-96367905D01*
X66619905Y-96456343D01*
X66557370Y-96564657D01*
X66536254Y-96643463D01*
X65912416Y-96019625D01*
X65881301Y-96062453D01*
X65881299Y-96062455D01*
X65862546Y-96099261D01*
X65813798Y-96150876D01*
X65744883Y-96167941D01*
X65677681Y-96145040D01*
X65638014Y-96099261D01*
X65619129Y-96062197D01*
X65498068Y-95895570D01*
X65498065Y-95895567D01*
X65498063Y-95895564D01*
X65352435Y-95749936D01*
X65352432Y-95749934D01*
X65352430Y-95749932D01*
X65291185Y-95705435D01*
X65247832Y-95649214D01*
X65241757Y-95578478D01*
X65274888Y-95515686D01*
X65336708Y-95480775D01*
X65365247Y-95477500D01*
X66149717Y-95477500D01*
X66217838Y-95497502D01*
G37*
%TD.AperFunction*%
%TA.AperFunction,Conductor*%
G36*
X71716797Y-85921702D02*
G01*
X71763290Y-85975358D01*
X71773394Y-86045632D01*
X71743900Y-86110212D01*
X71692709Y-86145755D01*
X71643796Y-86163998D01*
X71643792Y-86164000D01*
X71526738Y-86251626D01*
X71439112Y-86368680D01*
X71439110Y-86368685D01*
X71388011Y-86505683D01*
X71388009Y-86505691D01*
X71381500Y-86566238D01*
X71381500Y-88263537D01*
X71388009Y-88324084D01*
X71388011Y-88324092D01*
X71439110Y-88461090D01*
X71439112Y-88461095D01*
X71526737Y-88578146D01*
X71526739Y-88578149D01*
X71529849Y-88580477D01*
X71532180Y-88583591D01*
X71533111Y-88584522D01*
X71532977Y-88584655D01*
X71572396Y-88637312D01*
X71577462Y-88708128D01*
X71566608Y-88738548D01*
X71477831Y-88912782D01*
X71477826Y-88912794D01*
X71414208Y-89108591D01*
X71382000Y-89311949D01*
X71382000Y-89517826D01*
X71414208Y-89721184D01*
X71477826Y-89916981D01*
X71477829Y-89916987D01*
X71571297Y-90100428D01*
X71571298Y-90100429D01*
X71602416Y-90143260D01*
X71602417Y-90143260D01*
X72290000Y-89455677D01*
X72290000Y-89467549D01*
X72317259Y-89569282D01*
X72369920Y-89660494D01*
X72444394Y-89734968D01*
X72535606Y-89787629D01*
X72637339Y-89814888D01*
X72649210Y-89814888D01*
X71961626Y-90502470D01*
X71961626Y-90502471D01*
X72004454Y-90533587D01*
X72187900Y-90627058D01*
X72187906Y-90627061D01*
X72383705Y-90690679D01*
X72383701Y-90690679D01*
X72587061Y-90722888D01*
X72792939Y-90722888D01*
X72996296Y-90690679D01*
X73192093Y-90627061D01*
X73192099Y-90627058D01*
X73375541Y-90533589D01*
X73418372Y-90502470D01*
X73418372Y-90502469D01*
X72730791Y-89814888D01*
X72742661Y-89814888D01*
X72844394Y-89787629D01*
X72935606Y-89734968D01*
X73010080Y-89660494D01*
X73062741Y-89569282D01*
X73090000Y-89467549D01*
X73090000Y-89455677D01*
X73777582Y-90143260D01*
X73808701Y-90100429D01*
X73902170Y-89916987D01*
X73902173Y-89916981D01*
X73965791Y-89721184D01*
X73998000Y-89517826D01*
X73998000Y-89311949D01*
X73965791Y-89108591D01*
X73902173Y-88912794D01*
X73902170Y-88912788D01*
X73813391Y-88738549D01*
X73800287Y-88668772D01*
X73826987Y-88602988D01*
X73850149Y-88580477D01*
X73853261Y-88578149D01*
X73931116Y-88474147D01*
X73940887Y-88461095D01*
X73940887Y-88461094D01*
X73940889Y-88461092D01*
X73991989Y-88324089D01*
X73992399Y-88320282D01*
X73998499Y-88263537D01*
X73998500Y-88263520D01*
X73998500Y-88149388D01*
X74018502Y-88081267D01*
X74072158Y-88034774D01*
X74124500Y-88023388D01*
X75309598Y-88023388D01*
X75377719Y-88043390D01*
X75424212Y-88097046D01*
X75434316Y-88167320D01*
X75421200Y-88203503D01*
X75422799Y-88204249D01*
X75419699Y-88210895D01*
X75365763Y-88373666D01*
X75355500Y-88474119D01*
X75355500Y-89071880D01*
X75355499Y-89071880D01*
X75365763Y-89172333D01*
X75365764Y-89172336D01*
X75419698Y-89335101D01*
X75489983Y-89449049D01*
X75509715Y-89481040D01*
X75509720Y-89481046D01*
X75601932Y-89573258D01*
X75635958Y-89635570D01*
X75630893Y-89706385D01*
X75601932Y-89751448D01*
X75510114Y-89843265D01*
X75510109Y-89843271D01*
X75420152Y-89989115D01*
X75366257Y-90151758D01*
X75366255Y-90151770D01*
X75356000Y-90252147D01*
X75356000Y-90297000D01*
X76188000Y-90297000D01*
X76256121Y-90317002D01*
X76302614Y-90370658D01*
X76314000Y-90423000D01*
X76314000Y-90679000D01*
X76293998Y-90747121D01*
X76240342Y-90793614D01*
X76188000Y-90805000D01*
X75356000Y-90805000D01*
X75356000Y-90849852D01*
X75366255Y-90950229D01*
X75366257Y-90950241D01*
X75389860Y-91021467D01*
X75392301Y-91092421D01*
X75355993Y-91153432D01*
X75292464Y-91185127D01*
X75270256Y-91187100D01*
X72208289Y-91187100D01*
X72066430Y-91225111D01*
X72066429Y-91225110D01*
X72053524Y-91228569D01*
X71914776Y-91308675D01*
X71914766Y-91308683D01*
X69449376Y-93774075D01*
X69387064Y-93808100D01*
X69360281Y-93810980D01*
X64020959Y-93810980D01*
X63952838Y-93790978D01*
X63906345Y-93737322D01*
X63896241Y-93667048D01*
X63925735Y-93602468D01*
X63931851Y-93595897D01*
X65293964Y-92233783D01*
X65356273Y-92199761D01*
X65427088Y-92204825D01*
X65463931Y-92228503D01*
X65464413Y-92227861D01*
X65588680Y-92320887D01*
X65588682Y-92320888D01*
X65588684Y-92320889D01*
X65647763Y-92342924D01*
X65725683Y-92371988D01*
X65725691Y-92371990D01*
X65786238Y-92378499D01*
X65786243Y-92378499D01*
X65786250Y-92378500D01*
X65786256Y-92378500D01*
X67483520Y-92378500D01*
X67483526Y-92378500D01*
X67483533Y-92378499D01*
X67483537Y-92378499D01*
X67544084Y-92371990D01*
X67544087Y-92371989D01*
X67544089Y-92371989D01*
X67681092Y-92320889D01*
X67687347Y-92316207D01*
X67786018Y-92242342D01*
X67798149Y-92233261D01*
X67800475Y-92230153D01*
X67803588Y-92227822D01*
X67804522Y-92226889D01*
X67804656Y-92227023D01*
X67857307Y-92187605D01*
X67928122Y-92182536D01*
X67958549Y-92193391D01*
X68132788Y-92282170D01*
X68132794Y-92282173D01*
X68328593Y-92345791D01*
X68328589Y-92345791D01*
X68531949Y-92378000D01*
X68737827Y-92378000D01*
X68941184Y-92345791D01*
X69136981Y-92282173D01*
X69136987Y-92282170D01*
X69320429Y-92188701D01*
X69363260Y-92157582D01*
X68675677Y-91470000D01*
X68687549Y-91470000D01*
X68789282Y-91442741D01*
X68880494Y-91390080D01*
X68954968Y-91315606D01*
X69007629Y-91224394D01*
X69034888Y-91122661D01*
X69034888Y-91110791D01*
X69722469Y-91798372D01*
X69722470Y-91798372D01*
X69753589Y-91755541D01*
X69847058Y-91572099D01*
X69847061Y-91572093D01*
X69910679Y-91376296D01*
X69942888Y-91172938D01*
X69942888Y-90967061D01*
X69910679Y-90763703D01*
X69847061Y-90567906D01*
X69847056Y-90567895D01*
X69818399Y-90511653D01*
X69818398Y-90511652D01*
X69753587Y-90384454D01*
X69722471Y-90341626D01*
X69722470Y-90341626D01*
X69034888Y-91029208D01*
X69034888Y-91017339D01*
X69007629Y-90915606D01*
X68954968Y-90824394D01*
X68880494Y-90749920D01*
X68789282Y-90697259D01*
X68687549Y-90670000D01*
X68675678Y-90670000D01*
X69363260Y-89982417D01*
X69363260Y-89982416D01*
X69320429Y-89951298D01*
X69320428Y-89951297D01*
X69136987Y-89857829D01*
X69136981Y-89857826D01*
X68941182Y-89794208D01*
X68941186Y-89794208D01*
X68737827Y-89762000D01*
X68531949Y-89762000D01*
X68328591Y-89794208D01*
X68132794Y-89857826D01*
X68132782Y-89857831D01*
X67958548Y-89946608D01*
X67888772Y-89959712D01*
X67822987Y-89933012D01*
X67800477Y-89909849D01*
X67798148Y-89906738D01*
X67681095Y-89819112D01*
X67681090Y-89819110D01*
X67544092Y-89768011D01*
X67544084Y-89768009D01*
X67483537Y-89761500D01*
X67483526Y-89761500D01*
X67369388Y-89761500D01*
X67301267Y-89741498D01*
X67254774Y-89687842D01*
X67243388Y-89635500D01*
X67243388Y-89066551D01*
X67263390Y-88998430D01*
X67280293Y-88977456D01*
X70319144Y-85938605D01*
X70381456Y-85904579D01*
X70408239Y-85901700D01*
X71648676Y-85901700D01*
X71716797Y-85921702D01*
G37*
%TD.AperFunction*%
%TA.AperFunction,Conductor*%
G36*
X79748921Y-92933202D02*
G01*
X79795414Y-92986858D01*
X79806800Y-93039200D01*
X79806800Y-93295200D01*
X79786798Y-93363321D01*
X79733142Y-93409814D01*
X79680800Y-93421200D01*
X78421800Y-93421200D01*
X78353679Y-93401198D01*
X78307186Y-93347542D01*
X78295800Y-93295200D01*
X78295800Y-93039200D01*
X78315802Y-92971079D01*
X78369458Y-92924586D01*
X78421800Y-92913200D01*
X79680800Y-92913200D01*
X79748921Y-92933202D01*
G37*
%TD.AperFunction*%
%TA.AperFunction,Conductor*%
G36*
X105225121Y-90711002D02*
G01*
X105271614Y-90764658D01*
X105283000Y-90817000D01*
X105283000Y-92190000D01*
X105262998Y-92258121D01*
X105209342Y-92304614D01*
X105157000Y-92316000D01*
X104901000Y-92316000D01*
X104832879Y-92295998D01*
X104786386Y-92242342D01*
X104775000Y-92190000D01*
X104775000Y-90817000D01*
X104795002Y-90748879D01*
X104848658Y-90702386D01*
X104901000Y-90691000D01*
X105157000Y-90691000D01*
X105225121Y-90711002D01*
G37*
%TD.AperFunction*%
%TA.AperFunction,Conductor*%
G36*
X50839515Y-89475747D02*
G01*
X50847812Y-89483336D01*
X50948992Y-89584516D01*
X51105980Y-89689412D01*
X51280416Y-89761666D01*
X51465596Y-89798500D01*
X51465597Y-89798500D01*
X51654403Y-89798500D01*
X51654404Y-89798500D01*
X51839584Y-89761666D01*
X51855371Y-89755126D01*
X51925958Y-89747535D01*
X51989447Y-89779312D01*
X52004460Y-89796024D01*
X52017097Y-89812905D01*
X52134034Y-89900444D01*
X52270906Y-89951494D01*
X52331402Y-89957999D01*
X52331415Y-89958000D01*
X52426001Y-89958000D01*
X52456405Y-89927596D01*
X52476151Y-89916813D01*
X52493158Y-89902077D01*
X52506705Y-89900129D01*
X52518717Y-89893570D01*
X52541160Y-89895175D01*
X52563432Y-89891973D01*
X52575881Y-89897658D01*
X52589532Y-89898635D01*
X52607545Y-89912119D01*
X52628012Y-89921467D01*
X52635410Y-89932979D01*
X52646368Y-89941182D01*
X52654231Y-89962265D01*
X52666396Y-89981193D01*
X52669598Y-90003463D01*
X52671179Y-90007702D01*
X52671500Y-90016691D01*
X52671500Y-90130418D01*
X52651498Y-90198539D01*
X52634595Y-90219513D01*
X52259513Y-90594595D01*
X52197201Y-90628621D01*
X52170418Y-90631500D01*
X51124678Y-90631500D01*
X51056557Y-90611498D01*
X51035583Y-90594595D01*
X50925393Y-90484405D01*
X50925387Y-90484400D01*
X50907719Y-90473502D01*
X50791008Y-90401514D01*
X50743531Y-90348729D01*
X50732128Y-90278654D01*
X50733577Y-90269692D01*
X50742706Y-90223797D01*
X50755500Y-90159479D01*
X50755500Y-89980521D01*
X50720587Y-89805000D01*
X50652102Y-89639664D01*
X50652101Y-89639662D01*
X50652100Y-89639660D01*
X50649185Y-89634207D01*
X50651062Y-89633203D01*
X50632737Y-89574683D01*
X50651519Y-89506215D01*
X50704335Y-89458771D01*
X50774417Y-89447413D01*
X50839515Y-89475747D01*
G37*
%TD.AperFunction*%
%TA.AperFunction,Conductor*%
G36*
X48361121Y-88840002D02*
G01*
X48407614Y-88893658D01*
X48419000Y-88946000D01*
X48419000Y-89802999D01*
X48422222Y-89802999D01*
X48493553Y-89796518D01*
X48657707Y-89745365D01*
X48785545Y-89668085D01*
X48854189Y-89649961D01*
X48921735Y-89671825D01*
X48966738Y-89726737D01*
X48974908Y-89797262D01*
X48974309Y-89800494D01*
X48938500Y-89980515D01*
X48938500Y-90159481D01*
X48952726Y-90231002D01*
X48973413Y-90335000D01*
X48973414Y-90335002D01*
X48974621Y-90341070D01*
X48972434Y-90341504D01*
X48972978Y-90402471D01*
X48935128Y-90462537D01*
X48870813Y-90492605D01*
X48800451Y-90483128D01*
X48785624Y-90475293D01*
X48655694Y-90395152D01*
X48655693Y-90395151D01*
X48655692Y-90395151D01*
X48494314Y-90341676D01*
X48494311Y-90341675D01*
X48494309Y-90341675D01*
X48394719Y-90331500D01*
X48394711Y-90331500D01*
X48214582Y-90331500D01*
X48184666Y-90322716D01*
X48154197Y-90316088D01*
X48149101Y-90312273D01*
X48146461Y-90311498D01*
X48125487Y-90294595D01*
X48035405Y-90204513D01*
X48001379Y-90142201D01*
X47998500Y-90115418D01*
X47998500Y-88946000D01*
X48018502Y-88877879D01*
X48072158Y-88831386D01*
X48124500Y-88820000D01*
X48293000Y-88820000D01*
X48361121Y-88840002D01*
G37*
%TD.AperFunction*%
%TA.AperFunction,Conductor*%
G36*
X59300218Y-89479996D02*
G01*
X59331998Y-89543483D01*
X59334000Y-89565856D01*
X59334000Y-89958000D01*
X59397660Y-89958000D01*
X59419247Y-89964338D01*
X59441692Y-89965944D01*
X59452648Y-89974145D01*
X59465781Y-89978002D01*
X59480516Y-89995007D01*
X59498528Y-90008491D01*
X59503310Y-90021313D01*
X59512274Y-90031658D01*
X59515476Y-90053930D01*
X59523339Y-90075011D01*
X59520430Y-90088383D01*
X59522378Y-90101932D01*
X59513030Y-90122398D01*
X59508248Y-90144385D01*
X59494762Y-90162398D01*
X59492884Y-90166512D01*
X59486755Y-90173095D01*
X59333744Y-90326106D01*
X59271432Y-90360132D01*
X59244649Y-90363011D01*
X58509750Y-90363011D01*
X58441629Y-90343009D01*
X58420655Y-90326106D01*
X58268144Y-90173595D01*
X58234118Y-90111283D01*
X58239183Y-90040468D01*
X58281730Y-89983632D01*
X58348250Y-89958821D01*
X58357239Y-89958500D01*
X58628633Y-89958500D01*
X58628638Y-89958500D01*
X58668886Y-89954173D01*
X58695821Y-89954173D01*
X58731406Y-89957999D01*
X58731413Y-89958000D01*
X58826001Y-89958000D01*
X58828540Y-89955460D01*
X58846002Y-89895991D01*
X58876489Y-89863245D01*
X58943261Y-89813261D01*
X59030889Y-89696204D01*
X59081989Y-89559201D01*
X59081990Y-89559196D01*
X59082722Y-89552388D01*
X59109890Y-89486796D01*
X59168208Y-89446304D01*
X59239159Y-89443770D01*
X59300218Y-89479996D01*
G37*
%TD.AperFunction*%
%TA.AperFunction,Conductor*%
G36*
X80750209Y-88059777D02*
G01*
X80752924Y-88059105D01*
X80784063Y-88069717D01*
X80815647Y-88078991D01*
X80817478Y-88081105D01*
X80820125Y-88082007D01*
X80840585Y-88107771D01*
X80862140Y-88132647D01*
X80862538Y-88135415D01*
X80864277Y-88137605D01*
X80867560Y-88170343D01*
X80872244Y-88202921D01*
X80871167Y-88206316D01*
X80871361Y-88208247D01*
X80859792Y-88242193D01*
X80849011Y-88263350D01*
X80849006Y-88263361D01*
X80768339Y-88511628D01*
X80768338Y-88511633D01*
X80768338Y-88511634D01*
X80727500Y-88769473D01*
X80727500Y-89030527D01*
X80768338Y-89288366D01*
X80768339Y-89288371D01*
X80834908Y-89493248D01*
X80836936Y-89564215D01*
X80804171Y-89621279D01*
X80519856Y-89905595D01*
X80457543Y-89939620D01*
X80430760Y-89942500D01*
X78800006Y-89942500D01*
X78731885Y-89922498D01*
X78704983Y-89899244D01*
X78698190Y-89891443D01*
X78668285Y-89842960D01*
X78572997Y-89747672D01*
X78570140Y-89744391D01*
X78557057Y-89715927D01*
X78542042Y-89688430D01*
X78542362Y-89683955D01*
X78540490Y-89679883D01*
X78544871Y-89648871D01*
X78547107Y-89617615D01*
X78549901Y-89613266D01*
X78550422Y-89609584D01*
X78557672Y-89601174D01*
X78576068Y-89572552D01*
X78667885Y-89480734D01*
X78667890Y-89480728D01*
X78757847Y-89334884D01*
X78811742Y-89172241D01*
X78811744Y-89172229D01*
X78821999Y-89071852D01*
X78822000Y-89071852D01*
X78822000Y-89027000D01*
X77990000Y-89027000D01*
X77921879Y-89006998D01*
X77875386Y-88953342D01*
X77864000Y-88901000D01*
X77864000Y-88645000D01*
X77884002Y-88576879D01*
X77937658Y-88530386D01*
X77990000Y-88519000D01*
X78822000Y-88519000D01*
X78822000Y-88474147D01*
X78811744Y-88373770D01*
X78811742Y-88373758D01*
X78762323Y-88224622D01*
X78759882Y-88153667D01*
X78796190Y-88092657D01*
X78859719Y-88060962D01*
X78881927Y-88058989D01*
X80747526Y-88058989D01*
X80750209Y-88059777D01*
G37*
%TD.AperFunction*%
%TA.AperFunction,Conductor*%
G36*
X67509164Y-82924502D02*
G01*
X67555657Y-82978158D01*
X67565761Y-83048432D01*
X67536267Y-83113012D01*
X67530138Y-83119595D01*
X62963595Y-87686138D01*
X62901283Y-87720164D01*
X62830468Y-87715099D01*
X62773632Y-87672552D01*
X62748821Y-87606032D01*
X62748500Y-87597043D01*
X62748500Y-86642355D01*
X62768502Y-86574234D01*
X62809317Y-86534526D01*
X62855148Y-86506820D01*
X62855155Y-86506816D01*
X62976816Y-86385155D01*
X63065827Y-86237913D01*
X63117013Y-86073649D01*
X63123500Y-86002265D01*
X63123499Y-85487736D01*
X63117013Y-85416351D01*
X63071132Y-85269110D01*
X63065829Y-85252093D01*
X63065827Y-85252088D01*
X63065827Y-85252087D01*
X62976816Y-85104845D01*
X62976815Y-85104844D01*
X62976811Y-85104839D01*
X62880713Y-85008741D01*
X62846687Y-84946429D01*
X62851752Y-84875614D01*
X62880713Y-84830551D01*
X62976413Y-84734850D01*
X62976421Y-84734840D01*
X63065366Y-84587706D01*
X63116518Y-84423553D01*
X63116518Y-84423552D01*
X63123000Y-84352222D01*
X63123000Y-84349000D01*
X62266000Y-84349000D01*
X62197879Y-84328998D01*
X62151386Y-84275342D01*
X62140000Y-84223000D01*
X62140000Y-83967000D01*
X62160002Y-83898879D01*
X62213658Y-83852386D01*
X62266000Y-83841000D01*
X63122999Y-83841000D01*
X63122999Y-83837778D01*
X63116518Y-83766446D01*
X63096318Y-83701621D01*
X63095148Y-83630634D01*
X63132543Y-83570283D01*
X63184002Y-83542428D01*
X63202353Y-83537512D01*
X63341107Y-83457402D01*
X63857105Y-82941403D01*
X63919416Y-82907380D01*
X63946199Y-82904500D01*
X67441043Y-82904500D01*
X67509164Y-82924502D01*
G37*
%TD.AperFunction*%
%TA.AperFunction,Conductor*%
G36*
X102704721Y-82924502D02*
G01*
X102751214Y-82978158D01*
X102762600Y-83030500D01*
X102762600Y-83058000D01*
X103594600Y-83058000D01*
X103662721Y-83078002D01*
X103709214Y-83131658D01*
X103720600Y-83184000D01*
X103720600Y-83440000D01*
X103700598Y-83508121D01*
X103646942Y-83554614D01*
X103594600Y-83566000D01*
X102762600Y-83566000D01*
X102762600Y-83610852D01*
X102772855Y-83711229D01*
X102772857Y-83711241D01*
X102826752Y-83873885D01*
X102895013Y-83984553D01*
X102897130Y-83992293D01*
X102902386Y-83998358D01*
X102906368Y-84026053D01*
X102913750Y-84053033D01*
X102911347Y-84060687D01*
X102912490Y-84068632D01*
X102900868Y-84094078D01*
X102892491Y-84120772D01*
X102886328Y-84125915D01*
X102882996Y-84133212D01*
X102859465Y-84148334D01*
X102837983Y-84166263D01*
X102828501Y-84168233D01*
X102823270Y-84171596D01*
X102787772Y-84176700D01*
X102582503Y-84176700D01*
X102514382Y-84156698D01*
X102493408Y-84139795D01*
X102433137Y-84079524D01*
X102433135Y-84079522D01*
X102284336Y-83980098D01*
X102131117Y-83916632D01*
X102119003Y-83911614D01*
X102119001Y-83911613D01*
X102119000Y-83911613D01*
X102019498Y-83891821D01*
X101943481Y-83876700D01*
X101943479Y-83876700D01*
X101796543Y-83876700D01*
X101728422Y-83856698D01*
X101681929Y-83803042D01*
X101671825Y-83732768D01*
X101674239Y-83722095D01*
X101674218Y-83722091D01*
X101675518Y-83715552D01*
X101682000Y-83644222D01*
X101682000Y-83566000D01*
X101028000Y-83566000D01*
X101028000Y-84317629D01*
X101034804Y-84330090D01*
X101029739Y-84400905D01*
X101028092Y-84405091D01*
X100980414Y-84520194D01*
X100945500Y-84695718D01*
X100945500Y-84874681D01*
X100950575Y-84900195D01*
X100980413Y-85050200D01*
X100980414Y-85050202D01*
X100981621Y-85056270D01*
X100980094Y-85056573D01*
X100980660Y-85119917D01*
X100942812Y-85179984D01*
X100878497Y-85210052D01*
X100859452Y-85211500D01*
X100466350Y-85211500D01*
X100405803Y-85218009D01*
X100405795Y-85218011D01*
X100268797Y-85269110D01*
X100268792Y-85269112D01*
X100151738Y-85356738D01*
X100064112Y-85473792D01*
X100064110Y-85473797D01*
X100013011Y-85610795D01*
X100013009Y-85610803D01*
X100006500Y-85671350D01*
X100006500Y-86218630D01*
X100006501Y-86218654D01*
X100010573Y-86256534D01*
X100010573Y-86283466D01*
X100006501Y-86321345D01*
X100006500Y-86321369D01*
X100006500Y-86537375D01*
X100000901Y-86556441D01*
X100000335Y-86576306D01*
X99991105Y-86589805D01*
X99986498Y-86605496D01*
X99971480Y-86618508D01*
X99960264Y-86634914D01*
X99941374Y-86644595D01*
X99932842Y-86651989D01*
X99929553Y-86653435D01*
X99921530Y-86656825D01*
X99842626Y-86677968D01*
X99763723Y-86723523D01*
X99756538Y-86726560D01*
X99735622Y-86728960D01*
X99707485Y-86736500D01*
X99397439Y-86736500D01*
X99329318Y-86716498D01*
X99308343Y-86699595D01*
X98660404Y-86051655D01*
X98626379Y-85989343D01*
X98623500Y-85962560D01*
X98623500Y-84406700D01*
X98643502Y-84338579D01*
X98697158Y-84292086D01*
X98767432Y-84281982D01*
X98786982Y-84286405D01*
X98795351Y-84289013D01*
X98866735Y-84295500D01*
X99381264Y-84295499D01*
X99452649Y-84289013D01*
X99616913Y-84237827D01*
X99764155Y-84148816D01*
X99806376Y-84106595D01*
X99860259Y-84052713D01*
X99922571Y-84018687D01*
X99993386Y-84023752D01*
X100038449Y-84052713D01*
X100134149Y-84148413D01*
X100134159Y-84148421D01*
X100281293Y-84237366D01*
X100445446Y-84288518D01*
X100516781Y-84294999D01*
X100519999Y-84294999D01*
X100520000Y-84294998D01*
X100520000Y-83438000D01*
X100540002Y-83369879D01*
X100593658Y-83323386D01*
X100646000Y-83312000D01*
X100774000Y-83312000D01*
X100774000Y-83184000D01*
X100794002Y-83115879D01*
X100847658Y-83069386D01*
X100900000Y-83058000D01*
X101681999Y-83058000D01*
X101681999Y-83030500D01*
X101702001Y-82962379D01*
X101755657Y-82915886D01*
X101807999Y-82904500D01*
X102636600Y-82904500D01*
X102704721Y-82924502D01*
G37*
%TD.AperFunction*%
%TA.AperFunction,Conductor*%
G36*
X91461485Y-84971118D02*
G01*
X91483672Y-84972704D01*
X91498268Y-84982084D01*
X91508206Y-84985047D01*
X91514776Y-84992692D01*
X91528745Y-85001670D01*
X91531960Y-85004885D01*
X91677899Y-85094902D01*
X91840664Y-85148836D01*
X91860756Y-85150888D01*
X91941120Y-85159100D01*
X92491361Y-85159100D01*
X92559482Y-85179102D01*
X92580456Y-85196005D01*
X92805259Y-85420808D01*
X92839285Y-85483120D01*
X92834220Y-85553934D01*
X92813011Y-85610797D01*
X92813009Y-85610804D01*
X92806500Y-85671350D01*
X92806500Y-85861939D01*
X92786498Y-85930060D01*
X92732842Y-85976553D01*
X92707521Y-85983824D01*
X92707666Y-85984363D01*
X92699690Y-85986500D01*
X92699689Y-85986500D01*
X92640853Y-86002265D01*
X92544929Y-86027967D01*
X92544922Y-86027970D01*
X92472786Y-86069619D01*
X92409786Y-86086500D01*
X92003756Y-86086500D01*
X91935635Y-86066498D01*
X91914661Y-86049595D01*
X91163832Y-85298766D01*
X91152928Y-85278797D01*
X91138098Y-85261539D01*
X91136242Y-85248240D01*
X91129806Y-85236454D01*
X91131429Y-85213755D01*
X91128285Y-85191224D01*
X91133912Y-85179034D01*
X91134871Y-85165639D01*
X91148507Y-85147422D01*
X91158045Y-85126765D01*
X91171594Y-85116582D01*
X91177418Y-85108803D01*
X91185245Y-85103392D01*
X91371965Y-84984483D01*
X91393334Y-84978304D01*
X91412856Y-84967643D01*
X91426768Y-84968637D01*
X91440168Y-84964763D01*
X91461485Y-84971118D01*
G37*
%TD.AperFunction*%
%TD*%
M02*
